MFile 1 2 1024
MTrk
0 SMPTE 96 0 0 0 0
0 TimeSig 4/4 24 8
0 KeySig 255 major
0 Tempo 499999
0 Tempo 499999
0 Tempo 500003
65535 Tempo 499999
65536 Tempo 500003
131071 Meta TrkEnd
TrkEnd
MTrk
0 Meta 0x09  53 6d 61 72 74 4d 75 73 69 63 20 53 6f 66 74 53 79 6e 74 68 20 31
0 Meta TrkName "SmartMusic SoftSynth"
0 PrCh ch=1 p=1
0 Par ch=1 c=7 v=101
0 Par ch=1 c=10 v=64
0 Par ch=1 c=7 v=102
0 Par ch=1 c=7 v=110
3 Par ch=1 c=100 v=0
3 Par ch=1 c=101 v=0
3 Par ch=1 c=100 v=0
3 Par ch=1 c=101 v=0
4 Par ch=1 c=6 v=12
4 Par ch=1 c=6 v=12
5 Par ch=1 c=38 v=0
5 Par ch=1 c=38 v=0
10 Par ch=1 c=7 v=102
10 Par ch=1 c=7 v=110
10 On ch=1 n=69 v=85
10 On ch=1 n=74 v=95
10 On ch=1 n=38 v=92
296 Off ch=1 n=69 v=0
296 Off ch=1 n=74 v=0
297 On ch=1 n=69 v=80
297 On ch=1 n=74 v=94
487 Off ch=1 n=69 v=0
487 Off ch=1 n=74 v=0
545 Off ch=1 n=38 v=0
546 On ch=1 n=38 v=87
794 Off ch=1 n=38 v=0
795 On ch=1 n=67 v=80
795 On ch=1 n=72 v=94
795 On ch=1 n=38 v=87
1038 Off ch=1 n=67 v=0
1053 Off ch=1 n=72 v=0
1053 Off ch=1 n=38 v=0
1054 On ch=1 n=38 v=88
1312 On ch=1 n=67 v=80
1312 On ch=1 n=71 v=94
1528 Off ch=1 n=38 v=0
1807 On ch=1 n=38 v=87
2068 Off ch=1 n=38 v=0
2069 On ch=1 n=38 v=90
2578 Off ch=1 n=38 v=0
2579 On ch=1 n=38 v=87
2826 Off ch=1 n=67 v=0
2826 Off ch=1 n=71 v=0
2826 Off ch=1 n=38 v=0
2827 On ch=1 n=62 v=88
2827 On ch=1 n=38 v=87
3083 Off ch=1 n=38 v=0
3084 On ch=1 n=38 v=88
3340 Off ch=1 n=62 v=0
3340 Off ch=1 n=38 v=0
3341 On ch=1 n=62 v=80
3341 On ch=1 n=64 v=94
3341 On ch=1 n=38 v=87
3573 Off ch=1 n=62 v=0
3588 Off ch=1 n=64 v=0
3588 Off ch=1 n=38 v=0
3589 On ch=1 n=60 v=80
3589 On ch=1 n=65 v=94
3589 On ch=1 n=38 v=87
3836 Off ch=1 n=60 v=0
3836 Off ch=1 n=65 v=0
3836 Off ch=1 n=38 v=0
3837 On ch=1 n=60 v=80
3837 On ch=1 n=67 v=94
3837 On ch=1 n=38 v=87
4080 Off ch=1 n=60 v=0
4080 Off ch=1 n=38 v=0
4095 Off ch=1 n=67 v=0
4100 On ch=1 n=62 v=85
4100 On ch=1 n=69 v=99
4100 On ch=1 n=34 v=91
4641 Off ch=1 n=34 v=0
4642 On ch=1 n=34 v=86
4890 Off ch=1 n=62 v=0
4890 Off ch=1 n=69 v=0
4890 Off ch=1 n=34 v=0
4891 On ch=1 n=58 v=80
4891 On ch=1 n=62 v=94
4891 On ch=1 n=34 v=86
5134 Off ch=1 n=34 v=0
5150 On ch=1 n=46 v=89
5550 Off ch=1 n=46 v=0
5624 Off ch=1 n=58 v=0
5654 Off ch=1 n=62 v=0
5655 On ch=1 n=62 v=80
5655 On ch=1 n=69 v=94
6134 Off ch=1 n=62 v=0
6164 Off ch=1 n=69 v=0
6165 On ch=1 n=60 v=83
6165 On ch=1 n=67 v=97
6165 On ch=1 n=36 v=89
6412 Off ch=1 n=60 v=0
6427 Off ch=1 n=67 v=0
6427 Off ch=1 n=36 v=0
6428 On ch=1 n=67 v=80
6428 On ch=1 n=72 v=94
6428 On ch=1 n=36 v=86
6659 Off ch=1 n=36 v=0
6675 On ch=1 n=48 v=88
6907 Off ch=1 n=48 v=0
6923 On ch=1 n=36 v=86
7179 Off ch=1 n=36 v=0
7180 On ch=1 n=36 v=87
7436 Off ch=1 n=36 v=0
7437 On ch=1 n=36 v=86
7684 Off ch=1 n=36 v=0
7685 On ch=1 n=36 v=86
7932 Off ch=1 n=36 v=0
7933 On ch=1 n=36 v=86
8176 Off ch=1 n=36 v=0
8191 Off ch=1 n=67 v=0
8191 Off ch=1 n=72 v=0
8196 On ch=1 n=69 v=85
8196 On ch=1 n=74 v=99
8196 On ch=1 n=38 v=92
8488 Off ch=1 n=69 v=0
8488 Off ch=1 n=74 v=0
8489 On ch=1 n=69 v=80
8489 On ch=1 n=74 v=94
8679 Off ch=1 n=69 v=0
8679 Off ch=1 n=74 v=0
8737 Off ch=1 n=38 v=0
8738 On ch=1 n=38 v=87
8986 Off ch=1 n=38 v=0
8987 On ch=1 n=67 v=80
8987 On ch=1 n=72 v=94
8987 On ch=1 n=38 v=87
9230 Off ch=1 n=67 v=0
9245 Off ch=1 n=72 v=0
9245 Off ch=1 n=38 v=0
9246 On ch=1 n=38 v=88
9504 On ch=1 n=67 v=80
9504 On ch=1 n=71 v=94
9720 Off ch=1 n=38 v=0
9999 On ch=1 n=38 v=87
10260 Off ch=1 n=38 v=0
10261 On ch=1 n=38 v=90
10770 Off ch=1 n=38 v=0
10771 On ch=1 n=38 v=87
11018 Off ch=1 n=67 v=0
11018 Off ch=1 n=71 v=0
11018 Off ch=1 n=38 v=0
11019 On ch=1 n=62 v=88
11019 On ch=1 n=38 v=87
11275 Off ch=1 n=38 v=0
11276 On ch=1 n=38 v=88
11532 Off ch=1 n=62 v=0
11532 Off ch=1 n=38 v=0
11533 On ch=1 n=62 v=80
11533 On ch=1 n=64 v=94
11533 On ch=1 n=38 v=87
11765 Off ch=1 n=62 v=0
11780 Off ch=1 n=64 v=0
11780 Off ch=1 n=38 v=0
11781 On ch=1 n=60 v=80
11781 On ch=1 n=65 v=94
11781 On ch=1 n=38 v=87
12028 Off ch=1 n=60 v=0
12028 Off ch=1 n=65 v=0
12028 Off ch=1 n=38 v=0
12029 On ch=1 n=60 v=80
12029 On ch=1 n=67 v=94
12029 On ch=1 n=38 v=87
12272 Off ch=1 n=60 v=0
12272 Off ch=1 n=38 v=0
12287 Off ch=1 n=67 v=0
12292 On ch=1 n=62 v=85
12292 On ch=1 n=69 v=99
12292 On ch=1 n=34 v=91
12833 Off ch=1 n=34 v=0
12834 On ch=1 n=34 v=86
13082 Off ch=1 n=62 v=0
13082 Off ch=1 n=69 v=0
13082 Off ch=1 n=34 v=0
13083 On ch=1 n=58 v=80
13083 On ch=1 n=62 v=94
13083 On ch=1 n=34 v=86
13326 Off ch=1 n=34 v=0
13342 On ch=1 n=46 v=89
13742 Off ch=1 n=46 v=0
13816 Off ch=1 n=58 v=0
13846 Off ch=1 n=62 v=0
13847 On ch=1 n=62 v=80
13847 On ch=1 n=69 v=94
14326 Off ch=1 n=62 v=0
14356 Off ch=1 n=69 v=0
14357 On ch=1 n=60 v=83
14357 On ch=1 n=67 v=97
14357 On ch=1 n=36 v=89
14619 Off ch=1 n=60 v=0
14619 Off ch=1 n=67 v=0
14619 Off ch=1 n=36 v=0
14620 On ch=1 n=60 v=88
14620 On ch=1 n=36 v=86
14851 Off ch=1 n=36 v=0
14867 On ch=1 n=48 v=88
15099 Off ch=1 n=48 v=0
15115 On ch=1 n=36 v=86
15371 Off ch=1 n=36 v=0
15372 On ch=1 n=36 v=87
15628 Off ch=1 n=36 v=0
15629 On ch=1 n=36 v=86
15876 Off ch=1 n=36 v=0
15877 On ch=1 n=36 v=86
16124 Off ch=1 n=36 v=0
16125 On ch=1 n=36 v=86
16368 Off ch=1 n=36 v=0
16383 Off ch=1 n=60 v=0
16388 On ch=1 n=38 v=92
16929 Off ch=1 n=38 v=0
16930 On ch=1 n=69 v=80
16930 On ch=1 n=74 v=94
16930 On ch=1 n=38 v=87
17130 Off ch=1 n=69 v=0
17130 Off ch=1 n=74 v=0
17178 Off ch=1 n=38 v=0
17179 On ch=1 n=38 v=87
17437 Off ch=1 n=38 v=0
17438 On ch=1 n=38 v=88
17696 On ch=1 n=74 v=80
17696 On ch=1 n=81 v=94
17912 Off ch=1 n=38 v=0
17991 Off ch=1 n=74 v=0
17991 Off ch=1 n=81 v=0
18191 On ch=1 n=38 v=87
18452 Off ch=1 n=38 v=0
18453 On ch=1 n=73 v=83
18453 On ch=1 n=80 v=97
18453 On ch=1 n=38 v=90
18700 Off ch=1 n=73 v=0
18715 Off ch=1 n=80 v=0
18716 On ch=1 n=74 v=80
18716 On ch=1 n=81 v=94
18947 Off ch=1 n=74 v=0
18962 Off ch=1 n=81 v=0
18962 Off ch=1 n=38 v=0
18963 On ch=1 n=73 v=80
18963 On ch=1 n=80 v=94
18963 On ch=1 n=38 v=87
19195 Off ch=1 n=73 v=0
19210 Off ch=1 n=80 v=0
19210 Off ch=1 n=38 v=0
19211 On ch=1 n=72 v=80
19211 On ch=1 n=77 v=94
19211 On ch=1 n=38 v=87
19452 Off ch=1 n=72 v=0
19467 Off ch=1 n=77 v=0
19467 Off ch=1 n=38 v=0
19468 On ch=1 n=38 v=88
19724 Off ch=1 n=38 v=0
19725 On ch=1 n=38 v=87
19972 Off ch=1 n=38 v=0
19973 On ch=1 n=38 v=87
20220 Off ch=1 n=38 v=0
20221 On ch=1 n=38 v=87
20464 Off ch=1 n=38 v=0
20484 On ch=1 n=81 v=93
20484 On ch=1 n=34 v=91
21025 Off ch=1 n=81 v=0
21025 Off ch=1 n=34 v=0
21026 On ch=1 n=77 v=80
21026 On ch=1 n=81 v=94
21026 On ch=1 n=34 v=86
21259 Off ch=1 n=77 v=0
21274 Off ch=1 n=81 v=0
21274 Off ch=1 n=34 v=0
21275 On ch=1 n=74 v=80
21275 On ch=1 n=80 v=94
21275 On ch=1 n=34 v=86
21518 Off ch=1 n=74 v=0
21518 Off ch=1 n=34 v=0
21533 Off ch=1 n=80 v=0
21534 On ch=1 n=46 v=89
21776 Off ch=1 n=46 v=0
21792 On ch=1 n=80 v=88
21792 On ch=1 n=34 v=86
22023 Off ch=1 n=80 v=0
22039 On ch=1 n=76 v=80
22039 On ch=1 n=79 v=94
22271 Off ch=1 n=76 v=0
22286 Off ch=1 n=79 v=0
22286 Off ch=1 n=34 v=0
22287 On ch=1 n=74 v=88
22287 On ch=1 n=34 v=86
22533 Off ch=1 n=74 v=0
22533 Off ch=1 n=34 v=0
22549 On ch=1 n=81 v=91
22796 Off ch=1 n=81 v=0
22812 On ch=1 n=77 v=88
22812 On ch=1 n=34 v=86
23043 Off ch=1 n=77 v=0
23043 Off ch=1 n=34 v=0
23059 On ch=1 n=74 v=80
23059 On ch=1 n=81 v=94
23059 On ch=1 n=46 v=88
23291 Off ch=1 n=74 v=0
23306 Off ch=1 n=81 v=0
23307 On ch=1 n=77 v=80
23307 On ch=1 n=80 v=94
23548 Off ch=1 n=77 v=0
23563 Off ch=1 n=80 v=0
23563 Off ch=1 n=46 v=0
23564 On ch=1 n=74 v=89
23564 On ch=1 n=46 v=89
23761 Off ch=1 n=46 v=0
23805 Off ch=1 n=74 v=0
23821 On ch=1 n=77 v=80
23821 On ch=1 n=80 v=94
24053 Off ch=1 n=77 v=0
24068 Off ch=1 n=80 v=0
24069 On ch=1 n=74 v=80
24069 On ch=1 n=79 v=94
24069 On ch=1 n=46 v=88
24268 Off ch=1 n=46 v=0
24301 Off ch=1 n=74 v=0
24316 Off ch=1 n=79 v=0
24317 On ch=1 n=77 v=88
24560 Off ch=1 n=77 v=0
24580 On ch=1 n=38 v=92
25121 Off ch=1 n=38 v=0
25122 On ch=1 n=69 v=80
25122 On ch=1 n=74 v=94
25122 On ch=1 n=38 v=87
25370 Off ch=1 n=38 v=0
25371 On ch=1 n=38 v=87
25599 Off ch=1 n=69 v=0
25629 Off ch=1 n=74 v=0
25629 Off ch=1 n=38 v=0
25630 On ch=1 n=38 v=88
25888 On ch=1 n=74 v=80
25888 On ch=1 n=81 v=94
26382 Off ch=1 n=38 v=0
26383 On ch=1 n=38 v=87
26644 Off ch=1 n=74 v=0
26644 Off ch=1 n=81 v=0
26644 Off ch=1 n=38 v=0
26645 On ch=1 n=73 v=83
26645 On ch=1 n=80 v=97
26645 On ch=1 n=38 v=90
26892 Off ch=1 n=73 v=0
26907 Off ch=1 n=80 v=0
26908 On ch=1 n=74 v=80
26908 On ch=1 n=81 v=94
27139 Off ch=1 n=74 v=0
27154 Off ch=1 n=81 v=0
27154 Off ch=1 n=38 v=0
27155 On ch=1 n=73 v=80
27155 On ch=1 n=80 v=94
27155 On ch=1 n=38 v=87
27387 Off ch=1 n=73 v=0
27402 Off ch=1 n=80 v=0
27402 Off ch=1 n=38 v=0
27403 On ch=1 n=72 v=80
27403 On ch=1 n=77 v=94
27403 On ch=1 n=38 v=87
27644 Off ch=1 n=72 v=0
27659 Off ch=1 n=77 v=0
27659 Off ch=1 n=38 v=0
27660 On ch=1 n=38 v=88
27916 Off ch=1 n=38 v=0
27917 On ch=1 n=38 v=87
28164 Off ch=1 n=38 v=0
28165 On ch=1 n=38 v=87
28412 Off ch=1 n=38 v=0
28413 On ch=1 n=38 v=87
28656 Off ch=1 n=38 v=0
28676 On ch=1 n=81 v=93
28676 On ch=1 n=34 v=91
29217 Off ch=1 n=81 v=0
29217 Off ch=1 n=34 v=0
29218 On ch=1 n=77 v=80
29218 On ch=1 n=81 v=94
29218 On ch=1 n=34 v=86
29451 Off ch=1 n=77 v=0
29466 Off ch=1 n=81 v=0
29466 Off ch=1 n=34 v=0
29467 On ch=1 n=74 v=80
29467 On ch=1 n=80 v=94
29467 On ch=1 n=34 v=86
29710 Off ch=1 n=74 v=0
29710 Off ch=1 n=34 v=0
29725 Off ch=1 n=80 v=0
29726 On ch=1 n=46 v=89
29968 Off ch=1 n=46 v=0
29984 On ch=1 n=80 v=88
29984 On ch=1 n=34 v=86
30215 Off ch=1 n=80 v=0
30231 On ch=1 n=76 v=80
30231 On ch=1 n=79 v=94
30463 Off ch=1 n=76 v=0
30478 Off ch=1 n=79 v=0
30478 Off ch=1 n=34 v=0
30479 On ch=1 n=74 v=88
30479 On ch=1 n=34 v=86
30725 Off ch=1 n=74 v=0
30725 Off ch=1 n=34 v=0
30741 On ch=1 n=81 v=91
30988 Off ch=1 n=81 v=0
31004 On ch=1 n=77 v=88
31004 On ch=1 n=34 v=86
31235 Off ch=1 n=77 v=0
31235 Off ch=1 n=34 v=0
31251 On ch=1 n=74 v=80
31251 On ch=1 n=81 v=94
31251 On ch=1 n=46 v=88
31483 Off ch=1 n=74 v=0
31498 Off ch=1 n=81 v=0
31499 On ch=1 n=77 v=80
31499 On ch=1 n=80 v=94
31740 Off ch=1 n=77 v=0
31755 Off ch=1 n=80 v=0
31755 Off ch=1 n=46 v=0
31756 On ch=1 n=74 v=89
31756 On ch=1 n=46 v=89
31953 Off ch=1 n=46 v=0
31997 Off ch=1 n=74 v=0
32013 On ch=1 n=77 v=80
32013 On ch=1 n=80 v=94
32245 Off ch=1 n=77 v=0
32260 Off ch=1 n=80 v=0
32261 On ch=1 n=74 v=80
32261 On ch=1 n=79 v=94
32261 On ch=1 n=46 v=88
32460 Off ch=1 n=46 v=0
32493 Off ch=1 n=74 v=0
32508 Off ch=1 n=79 v=0
32509 On ch=1 n=77 v=88
32752 Off ch=1 n=77 v=0
32772 On ch=1 n=70 v=85
32772 On ch=1 n=73 v=99
32772 On ch=1 n=37 v=92
33562 Off ch=1 n=70 v=0
33562 Off ch=1 n=73 v=0
33563 On ch=1 n=73 v=80
33563 On ch=1 n=76 v=94
34296 Off ch=1 n=73 v=0
34326 Off ch=1 n=76 v=0
34327 On ch=1 n=76 v=80
34327 On ch=1 n=82 v=94
34806 Off ch=1 n=76 v=0
34836 Off ch=1 n=82 v=0
34836 Off ch=1 n=37 v=0
34837 On ch=1 n=74 v=83
34837 On ch=1 n=81 v=97
34837 On ch=1 n=38 v=90
35594 Off ch=1 n=74 v=0
35594 Off ch=1 n=81 v=0
35595 On ch=1 n=69 v=80
35595 On ch=1 n=77 v=94
36326 Off ch=1 n=69 v=0
36356 Off ch=1 n=77 v=0
36357 On ch=1 n=65 v=80
36357 On ch=1 n=74 v=94
36833 Off ch=1 n=65 v=0
36863 Off ch=1 n=74 v=0
36863 Off ch=1 n=38 v=0
36868 On ch=1 n=70 v=85
36868 On ch=1 n=73 v=99
36868 On ch=1 n=40 v=92
37658 Off ch=1 n=70 v=0
37658 Off ch=1 n=73 v=0
37659 On ch=1 n=73 v=80
37659 On ch=1 n=76 v=94
38392 Off ch=1 n=73 v=0
38422 Off ch=1 n=76 v=0
38423 On ch=1 n=76 v=80
38423 On ch=1 n=82 v=94
38902 Off ch=1 n=76 v=0
38932 Off ch=1 n=82 v=0
38932 Off ch=1 n=40 v=0
38933 On ch=1 n=74 v=83
38933 On ch=1 n=81 v=97
38933 On ch=1 n=38 v=90
39690 Off ch=1 n=74 v=0
39690 Off ch=1 n=81 v=0
39691 On ch=1 n=69 v=80
39691 On ch=1 n=74 v=94
39932 Off ch=1 n=69 v=0
39947 Off ch=1 n=74 v=0
40959 Off ch=1 n=38 v=0
40964 On ch=1 n=70 v=85
40964 On ch=1 n=73 v=99
40964 On ch=1 n=37 v=92
41754 Off ch=1 n=70 v=0
41754 Off ch=1 n=73 v=0
41755 On ch=1 n=73 v=80
41755 On ch=1 n=76 v=94
42488 Off ch=1 n=73 v=0
42518 Off ch=1 n=76 v=0
42519 On ch=1 n=76 v=80
42519 On ch=1 n=82 v=94
42998 Off ch=1 n=76 v=0
43028 Off ch=1 n=82 v=0
43028 Off ch=1 n=37 v=0
43029 On ch=1 n=74 v=83
43029 On ch=1 n=81 v=97
43029 On ch=1 n=38 v=90
43786 Off ch=1 n=74 v=0
43786 Off ch=1 n=81 v=0
43787 On ch=1 n=69 v=80
43787 On ch=1 n=77 v=94
44518 Off ch=1 n=69 v=0
44548 Off ch=1 n=77 v=0
44549 On ch=1 n=65 v=80
44549 On ch=1 n=74 v=94
45025 Off ch=1 n=65 v=0
45055 Off ch=1 n=74 v=0
45055 Off ch=1 n=38 v=0
45060 On ch=1 n=70 v=85
45060 On ch=1 n=76 v=99
45060 On ch=1 n=40 v=92
45850 Off ch=1 n=70 v=0
45850 Off ch=1 n=76 v=0
45851 On ch=1 n=73 v=80
45851 On ch=1 n=79 v=94
46584 Off ch=1 n=73 v=0
46614 Off ch=1 n=79 v=0
46615 On ch=1 n=76 v=80
46615 On ch=1 n=82 v=94
47094 Off ch=1 n=76 v=0
47124 Off ch=1 n=82 v=0
47124 Off ch=1 n=40 v=0
47125 On ch=1 n=73 v=83
47125 On ch=1 n=81 v=97
47125 On ch=1 n=45 v=91
47882 Off ch=1 n=73 v=0
47882 Off ch=1 n=81 v=0
47883 On ch=1 n=76 v=80
47883 On ch=1 n=83 v=94
48614 Off ch=1 n=76 v=0
48644 Off ch=1 n=83 v=0
48645 On ch=1 n=79 v=80
48645 On ch=1 n=85 v=94
49121 Off ch=1 n=79 v=0
49151 Off ch=1 n=85 v=0
49151 Off ch=1 n=45 v=0
49156 On ch=1 n=81 v=85
49156 On ch=1 n=86 v=99
49156 On ch=1 n=38 v=92
49390 Off ch=1 n=38 v=0
49448 Off ch=1 n=81 v=0
49448 Off ch=1 n=86 v=0
49449 On ch=1 n=81 v=80
49449 On ch=1 n=86 v=94
49682 Off ch=1 n=81 v=0
49697 Off ch=1 n=86 v=0
49698 On ch=1 n=69 v=80
49698 On ch=1 n=74 v=94
49698 On ch=1 n=38 v=87
49898 Off ch=1 n=38 v=0
49946 Off ch=1 n=69 v=0
49946 Off ch=1 n=74 v=0
49947 On ch=1 n=69 v=80
49947 On ch=1 n=74 v=90
50464 On ch=1 n=38 v=87
50695 Off ch=1 n=38 v=0
50711 On ch=1 n=36 v=86
51190 Off ch=1 n=36 v=0
51221 On ch=1 n=38 v=90
51621 Off ch=1 n=38 v=0
52449 Par ch=1 c=7 v=102
53247 Off ch=1 n=69 v=0
53247 Off ch=1 n=74 v=0
53252 On ch=1 n=53 v=85
53252 On ch=1 n=58 v=99
53252 On ch=1 n=34 v=91
53486 Off ch=1 n=53 v=0
53486 Off ch=1 n=58 v=0
53486 Off ch=1 n=34 v=0
53794 On ch=1 n=53 v=80
53794 On ch=1 n=58 v=94
53794 On ch=1 n=34 v=86
53994 Off ch=1 n=53 v=0
53994 Off ch=1 n=58 v=0
53994 Off ch=1 n=34 v=0
54302 On ch=1 n=58 v=81
54302 On ch=1 n=62 v=95
54544 Off ch=1 n=58 v=0
54559 Off ch=1 n=62 v=0
54560 On ch=1 n=62 v=80
54560 On ch=1 n=65 v=94
55316 Off ch=1 n=62 v=0
55316 Off ch=1 n=65 v=0
55317 On ch=1 n=55 v=83
55317 On ch=1 n=60 v=97
55317 On ch=1 n=36 v=89
55519 Off ch=1 n=55 v=0
55519 Off ch=1 n=60 v=0
55519 Off ch=1 n=36 v=0
55827 On ch=1 n=55 v=80
55827 On ch=1 n=60 v=94
55827 On ch=1 n=36 v=86
56024 Off ch=1 n=55 v=0
56024 Off ch=1 n=60 v=0
56024 Off ch=1 n=36 v=0
56332 On ch=1 n=60 v=81
56332 On ch=1 n=64 v=95
56573 Off ch=1 n=60 v=0
56588 Off ch=1 n=64 v=0
56589 On ch=1 n=64 v=80
56589 On ch=1 n=67 v=94
57343 Off ch=1 n=64 v=0
57343 Off ch=1 n=67 v=0
57348 On ch=1 n=81 v=85
57348 On ch=1 n=86 v=99
57348 On ch=1 n=38 v=92
57582 Off ch=1 n=38 v=0
57640 Off ch=1 n=81 v=0
57640 Off ch=1 n=86 v=0
57641 On ch=1 n=81 v=80
57641 On ch=1 n=86 v=94
57874 Off ch=1 n=81 v=0
57889 Off ch=1 n=86 v=0
57890 On ch=1 n=69 v=80
57890 On ch=1 n=74 v=94
57890 On ch=1 n=38 v=87
58090 Off ch=1 n=38 v=0
58138 Off ch=1 n=69 v=0
58138 Off ch=1 n=74 v=0
58139 On ch=1 n=69 v=80
58139 On ch=1 n=74 v=90
58656 On ch=1 n=38 v=87
58887 Off ch=1 n=38 v=0
58903 On ch=1 n=36 v=86
59382 Off ch=1 n=36 v=0
59413 On ch=1 n=38 v=90
59813 Off ch=1 n=38 v=0
61439 Off ch=1 n=69 v=0
61439 Off ch=1 n=74 v=0
61444 On ch=1 n=53 v=73
61444 On ch=1 n=58 v=87
61444 On ch=1 n=34 v=79
61678 Off ch=1 n=53 v=0
61678 Off ch=1 n=58 v=0
61678 Off ch=1 n=34 v=0
61986 On ch=1 n=53 v=68
61986 On ch=1 n=58 v=82
61986 On ch=1 n=34 v=74
62186 Off ch=1 n=53 v=0
62186 Off ch=1 n=58 v=0
62186 Off ch=1 n=34 v=0
62494 On ch=1 n=58 v=81
62494 On ch=1 n=62 v=95
62736 Off ch=1 n=58 v=0
62751 Off ch=1 n=62 v=0
62752 On ch=1 n=62 v=80
62752 On ch=1 n=65 v=94
63508 Off ch=1 n=62 v=0
63508 Off ch=1 n=65 v=0
63509 On ch=1 n=55 v=83
63509 On ch=1 n=60 v=97
63509 On ch=1 n=36 v=77
63711 Off ch=1 n=36 v=0
63909 Off ch=1 n=55 v=0
63909 Off ch=1 n=60 v=0
64019 On ch=1 n=36 v=74
64216 Off ch=1 n=36 v=0
64524 On ch=1 n=33 v=86
64737 Par ch=1 c=7 v=110
64765 Off ch=1 n=33 v=0
64781 On ch=1 n=36 v=86
65535 Off ch=1 n=36 v=0
65536 Par ch=1 c=7 v=102
65536 Par ch=1 c=7 v=110
65539 Par ch=1 c=100 v=0
65539 Par ch=1 c=101 v=0
65539 Par ch=1 c=100 v=0
65539 Par ch=1 c=101 v=0
65540 Par ch=1 c=6 v=12
65540 Par ch=1 c=6 v=12
65541 Par ch=1 c=38 v=0
65541 Par ch=1 c=38 v=0
65546 Par ch=1 c=7 v=102
65546 Par ch=1 c=7 v=110
65546 On ch=1 n=69 v=85
65546 On ch=1 n=74 v=95
65546 On ch=1 n=38 v=92
65832 Off ch=1 n=69 v=0
65832 Off ch=1 n=74 v=0
65833 On ch=1 n=69 v=80
65833 On ch=1 n=74 v=94
66023 Off ch=1 n=69 v=0
66023 Off ch=1 n=74 v=0
66081 Off ch=1 n=38 v=0
66082 On ch=1 n=38 v=87
66330 Off ch=1 n=38 v=0
66331 On ch=1 n=67 v=80
66331 On ch=1 n=72 v=94
66331 On ch=1 n=38 v=87
66574 Off ch=1 n=67 v=0
66589 Off ch=1 n=72 v=0
66589 Off ch=1 n=38 v=0
66590 On ch=1 n=38 v=88
66848 On ch=1 n=67 v=80
66848 On ch=1 n=71 v=94
67064 Off ch=1 n=38 v=0
67343 On ch=1 n=38 v=87
67604 Off ch=1 n=38 v=0
67605 On ch=1 n=38 v=90
68114 Off ch=1 n=38 v=0
68115 On ch=1 n=38 v=87
68362 Off ch=1 n=67 v=0
68362 Off ch=1 n=71 v=0
68362 Off ch=1 n=38 v=0
68363 On ch=1 n=62 v=88
68363 On ch=1 n=38 v=87
68619 Off ch=1 n=38 v=0
68620 On ch=1 n=38 v=88
68876 Off ch=1 n=62 v=0
68876 Off ch=1 n=38 v=0
68877 On ch=1 n=62 v=80
68877 On ch=1 n=64 v=94
68877 On ch=1 n=38 v=87
69109 Off ch=1 n=62 v=0
69124 Off ch=1 n=64 v=0
69124 Off ch=1 n=38 v=0
69125 On ch=1 n=60 v=80
69125 On ch=1 n=65 v=94
69125 On ch=1 n=38 v=87
69372 Off ch=1 n=60 v=0
69372 Off ch=1 n=65 v=0
69372 Off ch=1 n=38 v=0
69373 On ch=1 n=60 v=80
69373 On ch=1 n=67 v=94
69373 On ch=1 n=38 v=87
69616 Off ch=1 n=60 v=0
69616 Off ch=1 n=38 v=0
69631 Off ch=1 n=67 v=0
69636 On ch=1 n=62 v=85
69636 On ch=1 n=69 v=99
69636 On ch=1 n=34 v=91
70177 Off ch=1 n=34 v=0
70178 On ch=1 n=34 v=86
70426 Off ch=1 n=62 v=0
70426 Off ch=1 n=69 v=0
70426 Off ch=1 n=34 v=0
70427 On ch=1 n=58 v=80
70427 On ch=1 n=62 v=94
70427 On ch=1 n=34 v=86
70670 Off ch=1 n=34 v=0
70686 On ch=1 n=46 v=89
71086 Off ch=1 n=46 v=0
71160 Off ch=1 n=58 v=0
71190 Off ch=1 n=62 v=0
71191 On ch=1 n=62 v=80
71191 On ch=1 n=69 v=94
71670 Off ch=1 n=62 v=0
71700 Off ch=1 n=69 v=0
71701 On ch=1 n=60 v=83
71701 On ch=1 n=67 v=97
71701 On ch=1 n=36 v=89
71948 Off ch=1 n=60 v=0
71963 Off ch=1 n=67 v=0
71963 Off ch=1 n=36 v=0
71964 On ch=1 n=67 v=80
71964 On ch=1 n=72 v=94
71964 On ch=1 n=36 v=86
72195 Off ch=1 n=36 v=0
72211 On ch=1 n=48 v=88
72443 Off ch=1 n=48 v=0
72459 On ch=1 n=36 v=86
72715 Off ch=1 n=36 v=0
72716 On ch=1 n=36 v=87
72972 Off ch=1 n=36 v=0
72973 On ch=1 n=36 v=86
73220 Off ch=1 n=36 v=0
73221 On ch=1 n=36 v=86
73468 Off ch=1 n=36 v=0
73469 On ch=1 n=36 v=86
73712 Off ch=1 n=36 v=0
73727 Off ch=1 n=67 v=0
73727 Off ch=1 n=72 v=0
73732 On ch=1 n=69 v=85
73732 On ch=1 n=74 v=99
73732 On ch=1 n=38 v=92
74024 Off ch=1 n=69 v=0
74024 Off ch=1 n=74 v=0
74025 On ch=1 n=69 v=80
74025 On ch=1 n=74 v=94
74215 Off ch=1 n=69 v=0
74215 Off ch=1 n=74 v=0
74273 Off ch=1 n=38 v=0
74274 On ch=1 n=38 v=87
74522 Off ch=1 n=38 v=0
74523 On ch=1 n=67 v=80
74523 On ch=1 n=72 v=94
74523 On ch=1 n=38 v=87
74766 Off ch=1 n=67 v=0
74781 Off ch=1 n=72 v=0
74781 Off ch=1 n=38 v=0
74782 On ch=1 n=38 v=88
75040 On ch=1 n=67 v=80
75040 On ch=1 n=71 v=94
75256 Off ch=1 n=38 v=0
75535 On ch=1 n=38 v=87
75796 Off ch=1 n=38 v=0
75797 On ch=1 n=38 v=90
76306 Off ch=1 n=38 v=0
76307 On ch=1 n=38 v=87
76554 Off ch=1 n=67 v=0
76554 Off ch=1 n=71 v=0
76554 Off ch=1 n=38 v=0
76555 On ch=1 n=62 v=88
76555 On ch=1 n=38 v=87
76811 Off ch=1 n=38 v=0
76812 On ch=1 n=38 v=88
77068 Off ch=1 n=62 v=0
77068 Off ch=1 n=38 v=0
77069 On ch=1 n=62 v=80
77069 On ch=1 n=64 v=94
77069 On ch=1 n=38 v=87
77301 Off ch=1 n=62 v=0
77316 Off ch=1 n=64 v=0
77316 Off ch=1 n=38 v=0
77317 On ch=1 n=60 v=80
77317 On ch=1 n=65 v=94
77317 On ch=1 n=38 v=87
77564 Off ch=1 n=60 v=0
77564 Off ch=1 n=65 v=0
77564 Off ch=1 n=38 v=0
77565 On ch=1 n=60 v=80
77565 On ch=1 n=67 v=94
77565 On ch=1 n=38 v=87
77808 Off ch=1 n=60 v=0
77808 Off ch=1 n=38 v=0
77823 Off ch=1 n=67 v=0
77828 On ch=1 n=62 v=85
77828 On ch=1 n=69 v=99
77828 On ch=1 n=34 v=91
78369 Off ch=1 n=34 v=0
78370 On ch=1 n=34 v=86
78618 Off ch=1 n=62 v=0
78618 Off ch=1 n=69 v=0
78618 Off ch=1 n=34 v=0
78619 On ch=1 n=58 v=80
78619 On ch=1 n=62 v=94
78619 On ch=1 n=34 v=86
78862 Off ch=1 n=34 v=0
78878 On ch=1 n=46 v=89
79278 Off ch=1 n=46 v=0
79352 Off ch=1 n=58 v=0
79382 Off ch=1 n=62 v=0
79383 On ch=1 n=62 v=80
79383 On ch=1 n=69 v=94
79862 Off ch=1 n=62 v=0
79892 Off ch=1 n=69 v=0
79893 On ch=1 n=60 v=83
79893 On ch=1 n=67 v=97
79893 On ch=1 n=36 v=89
80155 Off ch=1 n=60 v=0
80155 Off ch=1 n=67 v=0
80155 Off ch=1 n=36 v=0
80156 On ch=1 n=60 v=88
80156 On ch=1 n=36 v=86
80387 Off ch=1 n=36 v=0
80403 On ch=1 n=48 v=88
80635 Off ch=1 n=48 v=0
80651 On ch=1 n=36 v=86
80907 Off ch=1 n=36 v=0
80908 On ch=1 n=36 v=87
81164 Off ch=1 n=36 v=0
81165 On ch=1 n=36 v=86
81412 Off ch=1 n=36 v=0
81413 On ch=1 n=36 v=86
81660 Off ch=1 n=36 v=0
81661 On ch=1 n=36 v=86
81904 Off ch=1 n=36 v=0
81919 Off ch=1 n=60 v=0
81924 On ch=1 n=38 v=92
82465 Off ch=1 n=38 v=0
82466 On ch=1 n=69 v=80
82466 On ch=1 n=74 v=94
82466 On ch=1 n=38 v=87
82666 Off ch=1 n=69 v=0
82666 Off ch=1 n=74 v=0
82714 Off ch=1 n=38 v=0
82715 On ch=1 n=38 v=87
82973 Off ch=1 n=38 v=0
82974 On ch=1 n=38 v=88
83232 On ch=1 n=74 v=80
83232 On ch=1 n=81 v=94
83448 Off ch=1 n=38 v=0
83527 Off ch=1 n=74 v=0
83527 Off ch=1 n=81 v=0
83727 On ch=1 n=38 v=87
83988 Off ch=1 n=38 v=0
83989 On ch=1 n=73 v=83
83989 On ch=1 n=80 v=97
83989 On ch=1 n=38 v=90
84236 Off ch=1 n=73 v=0
84251 Off ch=1 n=80 v=0
84252 On ch=1 n=74 v=80
84252 On ch=1 n=81 v=94
84483 Off ch=1 n=74 v=0
84498 Off ch=1 n=81 v=0
84498 Off ch=1 n=38 v=0
84499 On ch=1 n=73 v=80
84499 On ch=1 n=80 v=94
84499 On ch=1 n=38 v=87
84731 Off ch=1 n=73 v=0
84746 Off ch=1 n=80 v=0
84746 Off ch=1 n=38 v=0
84747 On ch=1 n=72 v=80
84747 On ch=1 n=77 v=94
84747 On ch=1 n=38 v=87
84988 Off ch=1 n=72 v=0
85003 Off ch=1 n=77 v=0
85003 Off ch=1 n=38 v=0
85004 On ch=1 n=38 v=88
85260 Off ch=1 n=38 v=0
85261 On ch=1 n=38 v=87
85508 Off ch=1 n=38 v=0
85509 On ch=1 n=38 v=87
85756 Off ch=1 n=38 v=0
85757 On ch=1 n=38 v=87
86000 Off ch=1 n=38 v=0
86020 On ch=1 n=81 v=93
86020 On ch=1 n=34 v=91
86561 Off ch=1 n=81 v=0
86561 Off ch=1 n=34 v=0
86562 On ch=1 n=77 v=80
86562 On ch=1 n=81 v=94
86562 On ch=1 n=34 v=86
86795 Off ch=1 n=77 v=0
86810 Off ch=1 n=81 v=0
86810 Off ch=1 n=34 v=0
86811 On ch=1 n=74 v=80
86811 On ch=1 n=80 v=94
86811 On ch=1 n=34 v=86
87054 Off ch=1 n=74 v=0
87054 Off ch=1 n=34 v=0
87069 Off ch=1 n=80 v=0
87070 On ch=1 n=46 v=89
87312 Off ch=1 n=46 v=0
87328 On ch=1 n=80 v=88
87328 On ch=1 n=34 v=86
87559 Off ch=1 n=80 v=0
87575 On ch=1 n=76 v=80
87575 On ch=1 n=79 v=94
87807 Off ch=1 n=76 v=0
87822 Off ch=1 n=79 v=0
87822 Off ch=1 n=34 v=0
87823 On ch=1 n=74 v=88
87823 On ch=1 n=34 v=86
88069 Off ch=1 n=74 v=0
88069 Off ch=1 n=34 v=0
88085 On ch=1 n=81 v=91
88332 Off ch=1 n=81 v=0
88348 On ch=1 n=77 v=88
88348 On ch=1 n=34 v=86
88579 Off ch=1 n=77 v=0
88579 Off ch=1 n=34 v=0
88595 On ch=1 n=74 v=80
88595 On ch=1 n=81 v=94
88595 On ch=1 n=46 v=88
88827 Off ch=1 n=74 v=0
88842 Off ch=1 n=81 v=0
88843 On ch=1 n=77 v=80
88843 On ch=1 n=80 v=94
89084 Off ch=1 n=77 v=0
89099 Off ch=1 n=80 v=0
89099 Off ch=1 n=46 v=0
89100 On ch=1 n=74 v=89
89100 On ch=1 n=46 v=89
89297 Off ch=1 n=46 v=0
89341 Off ch=1 n=74 v=0
89357 On ch=1 n=77 v=80
89357 On ch=1 n=80 v=94
89589 Off ch=1 n=77 v=0
89604 Off ch=1 n=80 v=0
89605 On ch=1 n=74 v=80
89605 On ch=1 n=79 v=94
89605 On ch=1 n=46 v=88
89804 Off ch=1 n=46 v=0
89837 Off ch=1 n=74 v=0
89852 Off ch=1 n=79 v=0
89853 On ch=1 n=77 v=88
90096 Off ch=1 n=77 v=0
90116 On ch=1 n=38 v=92
90657 Off ch=1 n=38 v=0
90658 On ch=1 n=69 v=80
90658 On ch=1 n=74 v=94
90658 On ch=1 n=38 v=87
90906 Off ch=1 n=38 v=0
90907 On ch=1 n=38 v=87
91135 Off ch=1 n=69 v=0
91165 Off ch=1 n=74 v=0
91165 Off ch=1 n=38 v=0
91166 On ch=1 n=38 v=88
91424 On ch=1 n=74 v=80
91424 On ch=1 n=81 v=94
91918 Off ch=1 n=38 v=0
91919 On ch=1 n=38 v=87
92180 Off ch=1 n=74 v=0
92180 Off ch=1 n=81 v=0
92180 Off ch=1 n=38 v=0
92181 On ch=1 n=73 v=83
92181 On ch=1 n=80 v=97
92181 On ch=1 n=38 v=90
92428 Off ch=1 n=73 v=0
92443 Off ch=1 n=80 v=0
92444 On ch=1 n=74 v=80
92444 On ch=1 n=81 v=94
92675 Off ch=1 n=74 v=0
92690 Off ch=1 n=81 v=0
92690 Off ch=1 n=38 v=0
92691 On ch=1 n=73 v=80
92691 On ch=1 n=80 v=94
92691 On ch=1 n=38 v=87
92923 Off ch=1 n=73 v=0
92938 Off ch=1 n=80 v=0
92938 Off ch=1 n=38 v=0
92939 On ch=1 n=72 v=80
92939 On ch=1 n=77 v=94
92939 On ch=1 n=38 v=87
93180 Off ch=1 n=72 v=0
93195 Off ch=1 n=77 v=0
93195 Off ch=1 n=38 v=0
93196 On ch=1 n=38 v=88
93452 Off ch=1 n=38 v=0
93453 On ch=1 n=38 v=87
93700 Off ch=1 n=38 v=0
93701 On ch=1 n=38 v=87
93948 Off ch=1 n=38 v=0
93949 On ch=1 n=38 v=87
94192 Off ch=1 n=38 v=0
94212 On ch=1 n=81 v=93
94212 On ch=1 n=34 v=91
94753 Off ch=1 n=81 v=0
94753 Off ch=1 n=34 v=0
94754 On ch=1 n=77 v=80
94754 On ch=1 n=81 v=94
94754 On ch=1 n=34 v=86
94987 Off ch=1 n=77 v=0
95002 Off ch=1 n=81 v=0
95002 Off ch=1 n=34 v=0
95003 On ch=1 n=74 v=80
95003 On ch=1 n=80 v=94
95003 On ch=1 n=34 v=86
95246 Off ch=1 n=74 v=0
95246 Off ch=1 n=34 v=0
95261 Off ch=1 n=80 v=0
95262 On ch=1 n=46 v=89
95504 Off ch=1 n=46 v=0
95520 On ch=1 n=80 v=88
95520 On ch=1 n=34 v=86
95751 Off ch=1 n=80 v=0
95767 On ch=1 n=76 v=80
95767 On ch=1 n=79 v=94
95999 Off ch=1 n=76 v=0
96014 Off ch=1 n=79 v=0
96014 Off ch=1 n=34 v=0
96015 On ch=1 n=74 v=88
96015 On ch=1 n=34 v=86
96261 Off ch=1 n=74 v=0
96261 Off ch=1 n=34 v=0
96277 On ch=1 n=81 v=91
96524 Off ch=1 n=81 v=0
96540 On ch=1 n=77 v=88
96540 On ch=1 n=34 v=86
96771 Off ch=1 n=77 v=0
96771 Off ch=1 n=34 v=0
96787 On ch=1 n=74 v=80
96787 On ch=1 n=81 v=94
96787 On ch=1 n=46 v=88
97019 Off ch=1 n=74 v=0
97034 Off ch=1 n=81 v=0
97035 On ch=1 n=77 v=80
97035 On ch=1 n=80 v=94
97276 Off ch=1 n=77 v=0
97291 Off ch=1 n=80 v=0
97291 Off ch=1 n=46 v=0
97292 On ch=1 n=74 v=89
97292 On ch=1 n=46 v=89
97489 Off ch=1 n=46 v=0
97533 Off ch=1 n=74 v=0
97549 On ch=1 n=77 v=80
97549 On ch=1 n=80 v=94
97781 Off ch=1 n=77 v=0
97796 Off ch=1 n=80 v=0
97797 On ch=1 n=74 v=80
97797 On ch=1 n=79 v=94
97797 On ch=1 n=46 v=88
97996 Off ch=1 n=46 v=0
98029 Off ch=1 n=74 v=0
98044 Off ch=1 n=79 v=0
98045 On ch=1 n=77 v=88
98288 Off ch=1 n=77 v=0
98308 On ch=1 n=70 v=85
98308 On ch=1 n=73 v=99
98308 On ch=1 n=37 v=92
99098 Off ch=1 n=70 v=0
99098 Off ch=1 n=73 v=0
99099 On ch=1 n=73 v=80
99099 On ch=1 n=76 v=94
99832 Off ch=1 n=73 v=0
99862 Off ch=1 n=76 v=0
99863 On ch=1 n=76 v=80
99863 On ch=1 n=82 v=94
100342 Off ch=1 n=76 v=0
100372 Off ch=1 n=82 v=0
100372 Off ch=1 n=37 v=0
100373 On ch=1 n=74 v=83
100373 On ch=1 n=81 v=97
100373 On ch=1 n=38 v=90
101130 Off ch=1 n=74 v=0
101130 Off ch=1 n=81 v=0
101131 On ch=1 n=69 v=80
101131 On ch=1 n=77 v=94
101862 Off ch=1 n=69 v=0
101892 Off ch=1 n=77 v=0
101893 On ch=1 n=65 v=80
101893 On ch=1 n=74 v=94
102369 Off ch=1 n=65 v=0
102399 Off ch=1 n=74 v=0
102399 Off ch=1 n=38 v=0
102404 On ch=1 n=70 v=85
102404 On ch=1 n=73 v=99
102404 On ch=1 n=40 v=92
103194 Off ch=1 n=70 v=0
103194 Off ch=1 n=73 v=0
103195 On ch=1 n=73 v=80
103195 On ch=1 n=76 v=94
103928 Off ch=1 n=73 v=0
103958 Off ch=1 n=76 v=0
103959 On ch=1 n=76 v=80
103959 On ch=1 n=82 v=94
104438 Off ch=1 n=76 v=0
104468 Off ch=1 n=82 v=0
104468 Off ch=1 n=40 v=0
104469 On ch=1 n=74 v=83
104469 On ch=1 n=81 v=97
104469 On ch=1 n=38 v=90
105226 Off ch=1 n=74 v=0
105226 Off ch=1 n=81 v=0
105227 On ch=1 n=69 v=80
105227 On ch=1 n=74 v=94
105468 Off ch=1 n=69 v=0
105483 Off ch=1 n=74 v=0
106495 Off ch=1 n=38 v=0
106500 On ch=1 n=70 v=85
106500 On ch=1 n=73 v=99
106500 On ch=1 n=37 v=92
107290 Off ch=1 n=70 v=0
107290 Off ch=1 n=73 v=0
107291 On ch=1 n=73 v=80
107291 On ch=1 n=76 v=94
108024 Off ch=1 n=73 v=0
108054 Off ch=1 n=76 v=0
108055 On ch=1 n=76 v=80
108055 On ch=1 n=82 v=94
108534 Off ch=1 n=76 v=0
108564 Off ch=1 n=82 v=0
108564 Off ch=1 n=37 v=0
108565 On ch=1 n=74 v=83
108565 On ch=1 n=81 v=97
108565 On ch=1 n=38 v=90
109322 Off ch=1 n=74 v=0
109322 Off ch=1 n=81 v=0
109323 On ch=1 n=69 v=80
109323 On ch=1 n=77 v=94
110054 Off ch=1 n=69 v=0
110084 Off ch=1 n=77 v=0
110085 On ch=1 n=65 v=80
110085 On ch=1 n=74 v=94
110561 Off ch=1 n=65 v=0
110591 Off ch=1 n=74 v=0
110591 Off ch=1 n=38 v=0
110596 On ch=1 n=70 v=85
110596 On ch=1 n=76 v=99
110596 On ch=1 n=40 v=92
111386 Off ch=1 n=70 v=0
111386 Off ch=1 n=76 v=0
111387 On ch=1 n=73 v=80
111387 On ch=1 n=79 v=94
112120 Off ch=1 n=73 v=0
112150 Off ch=1 n=79 v=0
112151 On ch=1 n=76 v=80
112151 On ch=1 n=82 v=94
112630 Off ch=1 n=76 v=0
112660 Off ch=1 n=82 v=0
112660 Off ch=1 n=40 v=0
112661 On ch=1 n=73 v=83
112661 On ch=1 n=81 v=97
112661 On ch=1 n=45 v=91
113418 Off ch=1 n=73 v=0
113418 Off ch=1 n=81 v=0
113419 On ch=1 n=76 v=80
113419 On ch=1 n=83 v=94
114150 Off ch=1 n=76 v=0
114180 Off ch=1 n=83 v=0
114181 On ch=1 n=79 v=80
114181 On ch=1 n=85 v=94
114657 Off ch=1 n=79 v=0
114687 Off ch=1 n=85 v=0
114687 Off ch=1 n=45 v=0
114692 On ch=1 n=81 v=85
114692 On ch=1 n=86 v=99
114692 On ch=1 n=38 v=92
114926 Off ch=1 n=38 v=0
114984 Off ch=1 n=81 v=0
114984 Off ch=1 n=86 v=0
114985 On ch=1 n=81 v=80
114985 On ch=1 n=86 v=94
115218 Off ch=1 n=81 v=0
115233 Off ch=1 n=86 v=0
115234 On ch=1 n=69 v=80
115234 On ch=1 n=74 v=94
115234 On ch=1 n=38 v=87
115434 Off ch=1 n=38 v=0
115482 Off ch=1 n=69 v=0
115482 Off ch=1 n=74 v=0
115483 On ch=1 n=69 v=80
115483 On ch=1 n=74 v=90
116000 On ch=1 n=38 v=87
116231 Off ch=1 n=38 v=0
116247 On ch=1 n=36 v=86
116726 Off ch=1 n=36 v=0
116757 On ch=1 n=38 v=90
117157 Off ch=1 n=38 v=0
117985 Par ch=1 c=7 v=102
118783 Off ch=1 n=69 v=0
118783 Off ch=1 n=74 v=0
118788 On ch=1 n=53 v=85
118788 On ch=1 n=58 v=99
118788 On ch=1 n=34 v=91
119022 Off ch=1 n=53 v=0
119022 Off ch=1 n=58 v=0
119022 Off ch=1 n=34 v=0
119330 On ch=1 n=53 v=80
119330 On ch=1 n=58 v=94
119330 On ch=1 n=34 v=86
119530 Off ch=1 n=53 v=0
119530 Off ch=1 n=58 v=0
119530 Off ch=1 n=34 v=0
119838 On ch=1 n=58 v=81
119838 On ch=1 n=62 v=95
120080 Off ch=1 n=58 v=0
120095 Off ch=1 n=62 v=0
120096 On ch=1 n=62 v=80
120096 On ch=1 n=65 v=94
120852 Off ch=1 n=62 v=0
120852 Off ch=1 n=65 v=0
120853 On ch=1 n=55 v=83
120853 On ch=1 n=60 v=97
120853 On ch=1 n=36 v=89
121055 Off ch=1 n=55 v=0
121055 Off ch=1 n=60 v=0
121055 Off ch=1 n=36 v=0
121363 On ch=1 n=55 v=80
121363 On ch=1 n=60 v=94
121363 On ch=1 n=36 v=86
121560 Off ch=1 n=55 v=0
121560 Off ch=1 n=60 v=0
121560 Off ch=1 n=36 v=0
121868 On ch=1 n=60 v=81
121868 On ch=1 n=64 v=95
122109 Off ch=1 n=60 v=0
122124 Off ch=1 n=64 v=0
122125 On ch=1 n=64 v=80
122125 On ch=1 n=67 v=94
122879 Off ch=1 n=64 v=0
122879 Off ch=1 n=67 v=0
122884 On ch=1 n=81 v=85
122884 On ch=1 n=86 v=99
122884 On ch=1 n=38 v=92
123118 Off ch=1 n=38 v=0
123176 Off ch=1 n=81 v=0
123176 Off ch=1 n=86 v=0
123177 On ch=1 n=81 v=80
123177 On ch=1 n=86 v=94
123410 Off ch=1 n=81 v=0
123425 Off ch=1 n=86 v=0
123426 On ch=1 n=69 v=80
123426 On ch=1 n=74 v=94
123426 On ch=1 n=38 v=87
123626 Off ch=1 n=38 v=0
123674 Off ch=1 n=69 v=0
123674 Off ch=1 n=74 v=0
123675 On ch=1 n=69 v=80
123675 On ch=1 n=74 v=90
124192 On ch=1 n=38 v=87
124423 Off ch=1 n=38 v=0
124439 On ch=1 n=36 v=86
124918 Off ch=1 n=36 v=0
124949 On ch=1 n=38 v=90
125349 Off ch=1 n=38 v=0
126975 Off ch=1 n=69 v=0
126975 Off ch=1 n=74 v=0
126980 On ch=1 n=53 v=73
126980 On ch=1 n=58 v=87
126980 On ch=1 n=34 v=79
127214 Off ch=1 n=53 v=0
127214 Off ch=1 n=58 v=0
127214 Off ch=1 n=34 v=0
127522 On ch=1 n=53 v=68
127522 On ch=1 n=58 v=82
127522 On ch=1 n=34 v=74
127722 Off ch=1 n=53 v=0
127722 Off ch=1 n=58 v=0
127722 Off ch=1 n=34 v=0
128030 On ch=1 n=58 v=81
128030 On ch=1 n=62 v=95
128272 Off ch=1 n=58 v=0
128287 Off ch=1 n=62 v=0
128288 On ch=1 n=62 v=80
128288 On ch=1 n=65 v=94
129044 Off ch=1 n=62 v=0
129044 Off ch=1 n=65 v=0
129045 On ch=1 n=55 v=83
129045 On ch=1 n=60 v=97
129045 On ch=1 n=36 v=77
129247 Off ch=1 n=36 v=0
129445 Off ch=1 n=55 v=0
129445 Off ch=1 n=60 v=0
129555 On ch=1 n=36 v=74
129752 Off ch=1 n=36 v=0
130060 On ch=1 n=33 v=86
130273 Par ch=1 c=7 v=110
130301 Off ch=1 n=33 v=0
130317 On ch=1 n=36 v=86
131071 Off ch=1 n=36 v=0
131071 Meta TrkEnd
TrkEnd
