MFile 1 2 1024
MTrk
0 SMPTE 0 0 0 0 0
0 TimeSig 4/4 24 8
0 KeySig 254 minor
0 Tempo 333333
0 Tempo 333333
0 Tempo 333334
16384 Tempo 333334
59392 Tempo 333334
59648 Tempo 335300
59904 Tempo 337176
60160 Tempo 339074
60416 Tempo 340993
60672 Tempo 342935
60928 Tempo 344898
61184 Tempo 345829
61696 Tempo 333334
81920 TimeSig 3/4 24 8
84992 TimeSig 4/4 24 8
128000 Tempo 333334
128256 Tempo 335300
128512 Tempo 337176
128768 Tempo 339074
129024 Tempo 340993
129280 Tempo 342935
129536 Tempo 344898
129792 Tempo 345829
130304 Tempo 333334
158720 TimeSig 2/4 24 8
160768 TimeSig 4/4 24 8
171008 Tempo 333334
171264 Tempo 334314
171520 Tempo 335300
171776 Tempo 336180
172032 Tempo 337176
172288 Tempo 338066
172544 Tempo 339074
172800 Tempo 339974
173056 Tempo 333334
187392 Tempo 333334
187648 Tempo 334314
187904 Tempo 335300
188160 Tempo 336180
188416 Tempo 337176
188672 Tempo 338066
188928 Tempo 339074
189184 Tempo 339974
189440 Tempo 333334
203776 Tempo 333334
204032 Tempo 334314
204288 Tempo 335300
204544 Tempo 336180
204800 Tempo 337176
205056 Tempo 338066
205312 Tempo 339074
205568 Tempo 339974
205824 Tempo 333334
220160 Tempo 333334
220416 Tempo 334314
220672 Tempo 335300
220928 Tempo 336180
221184 Tempo 337176
221440 Tempo 338066
221696 Tempo 339074
221952 Tempo 339974
222208 Tempo 333334
242688 Tempo 333334
285696 Tempo 333334
285952 Tempo 335300
286208 Tempo 337176
286464 Tempo 339074
286720 Tempo 340993
286976 Tempo 342935
287232 Tempo 344898
287488 Tempo 345829
288000 Tempo 333334
308224 TimeSig 3/4 24 8
311296 TimeSig 4/4 24 8
354304 Tempo 333334
354560 Tempo 335300
354816 Tempo 337176
355072 Tempo 339074
355328 Tempo 340993
355584 Tempo 342935
355840 Tempo 344898
356096 Tempo 345829
356608 Tempo 333334
385024 TimeSig 2/4 24 8
387072 TimeSig 4/4 24 8
397312 Tempo 333334
397568 Tempo 334314
397824 Tempo 335300
398080 Tempo 336180
398336 Tempo 337176
398592 Tempo 338066
398848 Tempo 339074
399104 Tempo 339974
399360 Tempo 333334
413696 Tempo 333334
413952 Tempo 334314
414208 Tempo 335300
414464 Tempo 336180
414720 Tempo 337176
414976 Tempo 338066
415232 Tempo 339074
415488 Tempo 339974
415744 Tempo 333334
430080 Tempo 333334
430336 Tempo 334314
430592 Tempo 335300
430848 Tempo 336180
431104 Tempo 337176
431360 Tempo 338066
431616 Tempo 339074
431872 Tempo 339974
432128 Tempo 333334
446464 Tempo 333334
446720 Tempo 334314
446976 Tempo 335300
447232 Tempo 336180
447488 Tempo 337176
447744 Tempo 338066
448000 Tempo 339074
448256 Tempo 339974
448512 Tempo 333334
469022 Meta TrkEnd
TrkEnd
MTrk
0 Meta 0x09  53 6d 61 72 74 4d 75 73 69 63 20 53 6f 66 74 53 79 6e 74 68 20 31
0 Meta TrkName "Acoustic Grand Piano"
0 PrCh ch=1 p=0
0 Par ch=1 c=7 v=101
0 Par ch=1 c=10 v=64
0 Par ch=1 c=7 v=102
0 Par ch=1 c=7 v=110
3 Par ch=1 c=100 v=0
3 Par ch=1 c=101 v=0
3 Par ch=1 c=100 v=0
3 Par ch=1 c=101 v=0
4 Par ch=1 c=6 v=12
4 Par ch=1 c=6 v=12
5 Par ch=1 c=38 v=0
5 Par ch=1 c=38 v=0
10 Par ch=1 c=7 v=102
10 Par ch=1 c=7 v=110
10 On ch=1 n=67 v=57
10 On ch=1 n=43 v=56
10 On ch=1 n=50 v=56
10 On ch=1 n=55 v=66
546 On ch=1 n=74 v=52
576 Off ch=1 n=67 v=0
1054 On ch=1 n=79 v=53
1084 Off ch=1 n=74 v=0
1559 On ch=1 n=67 v=52
1589 Off ch=1 n=79 v=0
2069 On ch=1 n=79 v=55
2099 Off ch=1 n=67 v=0
2579 On ch=1 n=67 v=52
2609 Off ch=1 n=79 v=0
3084 On ch=1 n=74 v=53
3114 Off ch=1 n=67 v=0
3589 On ch=1 n=79 v=52
3619 Off ch=1 n=74 v=0
4100 On ch=1 n=67 v=57
4126 Off ch=1 n=79 v=0
4642 On ch=1 n=74 v=52
4672 Off ch=1 n=67 v=0
5150 On ch=1 n=79 v=53
5180 Off ch=1 n=74 v=0
5655 On ch=1 n=70 v=52
5685 Off ch=1 n=79 v=0
6165 On ch=1 n=69 v=55
6195 Off ch=1 n=70 v=0
6675 On ch=1 n=65 v=52
6705 Off ch=1 n=69 v=0
7180 On ch=1 n=62 v=53
7210 Off ch=1 n=65 v=0
7685 On ch=1 n=65 v=52
7715 Off ch=1 n=62 v=0
8191 Off ch=1 n=43 v=0
8191 Off ch=1 n=50 v=0
8191 Off ch=1 n=55 v=0
8196 On ch=1 n=67 v=57
8222 Off ch=1 n=65 v=0
8401 Par ch=1 c=7 v=102
8738 On ch=1 n=74 v=52
8768 Off ch=1 n=67 v=0
9246 On ch=1 n=79 v=53
9276 Off ch=1 n=74 v=0
9751 On ch=1 n=67 v=52
9781 Off ch=1 n=79 v=0
10261 On ch=1 n=79 v=55
10291 Off ch=1 n=67 v=0
10771 On ch=1 n=67 v=52
10801 Off ch=1 n=79 v=0
11276 On ch=1 n=74 v=53
11306 Off ch=1 n=67 v=0
11781 On ch=1 n=79 v=52
11811 Off ch=1 n=74 v=0
12292 On ch=1 n=67 v=57
12318 Off ch=1 n=79 v=0
12834 On ch=1 n=74 v=52
12864 Off ch=1 n=67 v=0
13342 On ch=1 n=79 v=53
13372 Off ch=1 n=74 v=0
13847 On ch=1 n=70 v=52
13877 Off ch=1 n=79 v=0
14357 On ch=1 n=69 v=55
14387 Off ch=1 n=70 v=0
14867 On ch=1 n=65 v=52
14897 Off ch=1 n=69 v=0
15372 On ch=1 n=62 v=53
15402 Off ch=1 n=65 v=0
15877 On ch=1 n=65 v=52
15907 Off ch=1 n=62 v=0
16388 On ch=1 n=67 v=77
16388 On ch=1 n=79 v=91
16388 On ch=1 n=43 v=57
16414 Off ch=1 n=65 v=0
16930 On ch=1 n=55 v=52
16960 Off ch=1 n=43 v=0
17437 Off ch=1 n=67 v=0
17437 Off ch=1 n=79 v=0
17438 On ch=1 n=67 v=65
17438 On ch=1 n=43 v=53
17468 Off ch=1 n=55 v=0
17943 On ch=1 n=55 v=52
17973 Off ch=1 n=43 v=0
18453 On ch=1 n=43 v=55
18483 Off ch=1 n=55 v=0
18962 Off ch=1 n=67 v=0
18963 On ch=1 n=67 v=64
18963 On ch=1 n=55 v=52
18993 Off ch=1 n=43 v=0
19468 On ch=1 n=43 v=53
19498 Off ch=1 n=55 v=0
19973 On ch=1 n=55 v=52
20003 Off ch=1 n=43 v=0
20479 Off ch=1 n=67 v=0
20484 On ch=1 n=67 v=69
20484 On ch=1 n=43 v=57
20510 Off ch=1 n=55 v=0
21026 On ch=1 n=55 v=52
21056 Off ch=1 n=43 v=0
21534 On ch=1 n=43 v=53
21564 Off ch=1 n=55 v=0
22039 On ch=1 n=55 v=52
22069 Off ch=1 n=43 v=0
22548 Off ch=1 n=67 v=0
22549 On ch=1 n=67 v=75
22549 On ch=1 n=79 v=89
22549 On ch=1 n=43 v=55
22579 Off ch=1 n=55 v=0
23028 Off ch=1 n=67 v=0
23058 Off ch=1 n=79 v=0
23059 On ch=1 n=69 v=72
23059 On ch=1 n=81 v=86
23059 On ch=1 n=55 v=52
23089 Off ch=1 n=43 v=0
23533 Off ch=1 n=69 v=0
23563 Off ch=1 n=81 v=0
23564 On ch=1 n=43 v=53
23594 Off ch=1 n=55 v=0
24069 On ch=1 n=70 v=72
24069 On ch=1 n=82 v=86
24069 On ch=1 n=55 v=52
24099 Off ch=1 n=43 v=0
24545 Off ch=1 n=70 v=0
24575 Off ch=1 n=82 v=0
24580 On ch=1 n=63 v=77
24580 On ch=1 n=75 v=91
24580 On ch=1 n=39 v=56
24606 Off ch=1 n=55 v=0
25122 On ch=1 n=51 v=52
25152 Off ch=1 n=39 v=0
25629 Off ch=1 n=63 v=0
25629 Off ch=1 n=75 v=0
25630 On ch=1 n=63 v=65
25630 On ch=1 n=39 v=52
25660 Off ch=1 n=51 v=0
26135 On ch=1 n=51 v=52
26165 Off ch=1 n=39 v=0
26645 On ch=1 n=39 v=54
26675 Off ch=1 n=51 v=0
27154 Off ch=1 n=63 v=0
27155 On ch=1 n=63 v=64
27155 On ch=1 n=51 v=52
27185 Off ch=1 n=39 v=0
27660 On ch=1 n=39 v=52
27690 Off ch=1 n=51 v=0
28165 On ch=1 n=51 v=52
28195 Off ch=1 n=39 v=0
28671 Off ch=1 n=63 v=0
28676 On ch=1 n=65 v=77
28676 On ch=1 n=77 v=91
28676 On ch=1 n=41 v=57
28702 Off ch=1 n=51 v=0
29218 On ch=1 n=53 v=52
29248 Off ch=1 n=41 v=0
29725 Off ch=1 n=65 v=0
29725 Off ch=1 n=77 v=0
29726 On ch=1 n=65 v=65
29726 On ch=1 n=41 v=53
29756 Off ch=1 n=53 v=0
30231 On ch=1 n=53 v=52
30261 Off ch=1 n=41 v=0
30741 On ch=1 n=41 v=55
30771 Off ch=1 n=53 v=0
31250 Off ch=1 n=65 v=0
31251 On ch=1 n=65 v=52
31251 On ch=1 n=53 v=52
31281 Off ch=1 n=41 v=0
31755 Off ch=1 n=65 v=0
31756 On ch=1 n=65 v=73
31756 On ch=1 n=77 v=87
31756 On ch=1 n=41 v=53
31786 Off ch=1 n=53 v=0
32261 On ch=1 n=53 v=52
32291 Off ch=1 n=41 v=0
32767 Off ch=1 n=65 v=0
32767 Off ch=1 n=77 v=0
32772 On ch=1 n=67 v=77
32772 On ch=1 n=79 v=91
32772 On ch=1 n=43 v=57
32798 Off ch=1 n=53 v=0
33314 On ch=1 n=55 v=52
33344 Off ch=1 n=43 v=0
33821 Off ch=1 n=67 v=0
33821 Off ch=1 n=79 v=0
33822 On ch=1 n=67 v=65
33822 On ch=1 n=43 v=53
33852 Off ch=1 n=55 v=0
34327 On ch=1 n=55 v=52
34357 Off ch=1 n=43 v=0
34837 On ch=1 n=43 v=55
34867 Off ch=1 n=55 v=0
35346 Off ch=1 n=67 v=0
35347 On ch=1 n=67 v=64
35347 On ch=1 n=55 v=52
35377 Off ch=1 n=43 v=0
35852 On ch=1 n=43 v=53
35882 Off ch=1 n=55 v=0
36357 On ch=1 n=55 v=52
36387 Off ch=1 n=43 v=0
36863 Off ch=1 n=67 v=0
36868 On ch=1 n=67 v=69
36868 On ch=1 n=43 v=57
36894 Off ch=1 n=55 v=0
37410 On ch=1 n=55 v=52
37440 Off ch=1 n=43 v=0
37918 On ch=1 n=43 v=53
37948 Off ch=1 n=55 v=0
38423 On ch=1 n=55 v=52
38453 Off ch=1 n=43 v=0
38932 Off ch=1 n=67 v=0
38933 On ch=1 n=67 v=75
38933 On ch=1 n=79 v=89
38933 On ch=1 n=43 v=55
38963 Off ch=1 n=55 v=0
39412 Off ch=1 n=67 v=0
39442 Off ch=1 n=79 v=0
39443 On ch=1 n=69 v=72
39443 On ch=1 n=81 v=86
39443 On ch=1 n=55 v=52
39473 Off ch=1 n=43 v=0
39917 Off ch=1 n=69 v=0
39947 Off ch=1 n=81 v=0
39948 On ch=1 n=43 v=53
39978 Off ch=1 n=55 v=0
40453 On ch=1 n=70 v=72
40453 On ch=1 n=82 v=86
40453 On ch=1 n=55 v=52
40483 Off ch=1 n=43 v=0
40929 Off ch=1 n=70 v=0
40959 Off ch=1 n=82 v=0
40964 On ch=1 n=63 v=77
40964 On ch=1 n=75 v=91
40964 On ch=1 n=39 v=56
40990 Off ch=1 n=55 v=0
41506 On ch=1 n=51 v=52
41536 Off ch=1 n=39 v=0
42013 Off ch=1 n=63 v=0
42013 Off ch=1 n=75 v=0
42014 On ch=1 n=63 v=65
42014 On ch=1 n=39 v=52
42044 Off ch=1 n=51 v=0
42519 On ch=1 n=51 v=52
42549 Off ch=1 n=39 v=0
43029 On ch=1 n=39 v=54
43059 Off ch=1 n=51 v=0
43538 Off ch=1 n=63 v=0
43539 On ch=1 n=63 v=64
43539 On ch=1 n=51 v=52
43569 Off ch=1 n=39 v=0
44044 On ch=1 n=39 v=52
44074 Off ch=1 n=51 v=0
44549 On ch=1 n=51 v=52
44579 Off ch=1 n=39 v=0
45055 Off ch=1 n=63 v=0
45060 On ch=1 n=65 v=77
45060 On ch=1 n=77 v=91
45060 On ch=1 n=41 v=57
45086 Off ch=1 n=51 v=0
45602 On ch=1 n=53 v=52
45632 Off ch=1 n=41 v=0
46109 Off ch=1 n=65 v=0
46109 Off ch=1 n=77 v=0
46110 On ch=1 n=65 v=65
46110 On ch=1 n=41 v=53
46140 Off ch=1 n=53 v=0
46615 On ch=1 n=53 v=52
46645 Off ch=1 n=41 v=0
47125 On ch=1 n=41 v=55
47155 Off ch=1 n=53 v=0
47634 Off ch=1 n=65 v=0
47635 On ch=1 n=65 v=52
47635 On ch=1 n=53 v=52
47665 Off ch=1 n=41 v=0
48139 Off ch=1 n=65 v=0
48140 On ch=1 n=65 v=73
48140 On ch=1 n=77 v=87
48140 On ch=1 n=41 v=53
48170 Off ch=1 n=53 v=0
48645 On ch=1 n=53 v=52
48675 Off ch=1 n=41 v=0
49151 Off ch=1 n=65 v=0
49151 Off ch=1 n=77 v=0
49156 On ch=1 n=72 v=61
49156 On ch=1 n=75 v=75
49156 On ch=1 n=39 v=56
49182 Off ch=1 n=53 v=0
49698 On ch=1 n=51 v=52
49728 Off ch=1 n=39 v=0
50205 Off ch=1 n=72 v=0
50205 Off ch=1 n=75 v=0
50206 On ch=1 n=70 v=57
50206 On ch=1 n=74 v=71
50206 On ch=1 n=39 v=52
50236 Off ch=1 n=51 v=0
50711 On ch=1 n=51 v=52
50741 Off ch=1 n=39 v=0
51220 Off ch=1 n=70 v=0
51220 Off ch=1 n=74 v=0
51221 On ch=1 n=69 v=59
51221 On ch=1 n=72 v=73
51221 On ch=1 n=39 v=54
51251 Off ch=1 n=51 v=0
51731 On ch=1 n=51 v=52
51761 Off ch=1 n=39 v=0
52235 Off ch=1 n=69 v=0
52235 Off ch=1 n=72 v=0
52236 On ch=1 n=67 v=57
52236 On ch=1 n=70 v=71
52236 On ch=1 n=39 v=52
52266 Off ch=1 n=51 v=0
52741 On ch=1 n=51 v=52
52771 Off ch=1 n=39 v=0
53247 Off ch=1 n=67 v=0
53247 Off ch=1 n=70 v=0
53252 On ch=1 n=65 v=61
53252 On ch=1 n=69 v=75
53252 On ch=1 n=39 v=56
53278 Off ch=1 n=51 v=0
53763 Off ch=1 n=65 v=0
53793 Off ch=1 n=69 v=0
53794 On ch=1 n=70 v=64
53794 On ch=1 n=51 v=52
53824 Off ch=1 n=39 v=0
54027 Off ch=1 n=70 v=0
54043 On ch=1 n=69 v=64
54286 Off ch=1 n=69 v=0
54302 On ch=1 n=67 v=65
54302 On ch=1 n=39 v=52
54332 Off ch=1 n=51 v=0
54776 Off ch=1 n=67 v=0
54807 On ch=1 n=65 v=56
54807 On ch=1 n=69 v=66
54807 On ch=1 n=51 v=52
54837 Off ch=1 n=39 v=0
55317 On ch=1 n=39 v=54
55347 Off ch=1 n=51 v=0
55826 Off ch=1 n=65 v=0
55826 Off ch=1 n=69 v=0
55827 On ch=1 n=62 v=56
55827 On ch=1 n=65 v=70
55827 On ch=1 n=51 v=52
55857 Off ch=1 n=39 v=0
56301 Off ch=1 n=62 v=0
56331 Off ch=1 n=65 v=0
56332 On ch=1 n=63 v=57
56332 On ch=1 n=67 v=71
56332 On ch=1 n=39 v=52
56362 Off ch=1 n=51 v=0
56806 Off ch=1 n=63 v=0
56836 Off ch=1 n=67 v=0
56837 On ch=1 n=65 v=56
56837 On ch=1 n=69 v=70
56837 On ch=1 n=51 v=52
56867 Off ch=1 n=39 v=0
57313 Off ch=1 n=65 v=0
57343 Off ch=1 n=69 v=0
57348 On ch=1 n=69 v=61
57348 On ch=1 n=72 v=75
57348 On ch=1 n=38 v=56
57374 Off ch=1 n=51 v=0
57890 On ch=1 n=50 v=52
57920 Off ch=1 n=38 v=0
58397 Off ch=1 n=69 v=0
58397 Off ch=1 n=72 v=0
58398 On ch=1 n=67 v=57
58398 On ch=1 n=70 v=71
58398 On ch=1 n=38 v=52
58428 Off ch=1 n=50 v=0
58872 Off ch=1 n=67 v=0
58902 Off ch=1 n=70 v=0
58903 On ch=1 n=65 v=56
58903 On ch=1 n=69 v=70
58903 On ch=1 n=50 v=52
58933 Off ch=1 n=38 v=0
59382 Off ch=1 n=65 v=0
59412 Off ch=1 n=69 v=0
59413 On ch=1 n=38 v=54
59443 Off ch=1 n=50 v=0
59923 On ch=1 n=65 v=56
59923 On ch=1 n=69 v=70
59923 On ch=1 n=50 v=52
59953 Off ch=1 n=38 v=0
60397 Off ch=1 n=65 v=0
60427 Off ch=1 n=69 v=0
60428 On ch=1 n=67 v=57
60428 On ch=1 n=70 v=71
60428 On ch=1 n=38 v=52
60458 Off ch=1 n=50 v=0
60902 Off ch=1 n=67 v=0
60932 Off ch=1 n=70 v=0
60933 On ch=1 n=69 v=56
60933 On ch=1 n=72 v=70
60933 On ch=1 n=50 v=52
60963 Off ch=1 n=38 v=0
61439 Off ch=1 n=69 v=0
61439 Off ch=1 n=72 v=0
61444 On ch=1 n=69 v=61
61444 On ch=1 n=72 v=75
61444 On ch=1 n=43 v=57
61470 Off ch=1 n=50 v=0
61986 On ch=1 n=55 v=52
62016 Off ch=1 n=43 v=0
62493 Off ch=1 n=69 v=0
62493 Off ch=1 n=72 v=0
62494 On ch=1 n=70 v=45
62494 On ch=1 n=74 v=59
62494 On ch=1 n=43 v=53
62524 Off ch=1 n=55 v=0
62998 Off ch=1 n=70 v=0
62998 Off ch=1 n=74 v=0
62999 On ch=1 n=70 v=44
62999 On ch=1 n=74 v=54
62999 On ch=1 n=55 v=52
63029 Off ch=1 n=43 v=0
63508 Off ch=1 n=74 v=0
63509 On ch=1 n=43 v=55
63539 Off ch=1 n=70 v=0
63539 Off ch=1 n=55 v=0
63697 Par ch=1 c=7 v=110
64019 On ch=1 n=55 v=52
64049 Off ch=1 n=43 v=0
64524 On ch=1 n=70 v=57
64524 On ch=1 n=74 v=71
64524 On ch=1 n=43 v=53
64554 Off ch=1 n=55 v=0
65029 On ch=1 n=55 v=52
65059 Off ch=1 n=43 v=0
65535 Off ch=1 n=70 v=0
65535 Off ch=1 n=74 v=0
65540 On ch=1 n=70 v=61
65540 On ch=1 n=75 v=75
65540 On ch=1 n=39 v=56
65566 Off ch=1 n=55 v=0
66082 On ch=1 n=51 v=52
66112 Off ch=1 n=39 v=0
66589 Off ch=1 n=70 v=0
66589 Off ch=1 n=75 v=0
66590 On ch=1 n=67 v=45
66590 On ch=1 n=70 v=59
66590 On ch=1 n=39 v=52
66620 Off ch=1 n=51 v=0
67094 Off ch=1 n=67 v=0
67094 Off ch=1 n=70 v=0
67095 On ch=1 n=67 v=44
67095 On ch=1 n=70 v=58
67095 On ch=1 n=51 v=52
67125 Off ch=1 n=39 v=0
67604 Off ch=1 n=70 v=0
67605 On ch=1 n=39 v=54
67635 Off ch=1 n=67 v=0
67635 Off ch=1 n=51 v=0
68115 On ch=1 n=51 v=52
68145 Off ch=1 n=39 v=0
68620 On ch=1 n=70 v=57
68620 On ch=1 n=75 v=71
68620 On ch=1 n=39 v=52
68650 Off ch=1 n=51 v=0
69125 On ch=1 n=51 v=52
69155 Off ch=1 n=39 v=0
69631 Off ch=1 n=70 v=0
69631 Off ch=1 n=75 v=0
69636 On ch=1 n=72 v=61
69636 On ch=1 n=77 v=75
69636 On ch=1 n=41 v=57
69662 Off ch=1 n=51 v=0
70178 On ch=1 n=53 v=52
70208 Off ch=1 n=41 v=0
70685 Off ch=1 n=72 v=0
70685 Off ch=1 n=77 v=0
70686 On ch=1 n=69 v=45
70686 On ch=1 n=72 v=59
70686 On ch=1 n=41 v=53
70716 Off ch=1 n=53 v=0
71190 Off ch=1 n=69 v=0
71190 Off ch=1 n=72 v=0
71191 On ch=1 n=69 v=44
71191 On ch=1 n=72 v=58
71191 On ch=1 n=53 v=52
71221 Off ch=1 n=41 v=0
71700 Off ch=1 n=72 v=0
71701 On ch=1 n=41 v=55
71731 Off ch=1 n=69 v=0
71731 Off ch=1 n=53 v=0
72211 On ch=1 n=53 v=52
72241 Off ch=1 n=41 v=0
72716 On ch=1 n=72 v=57
72716 On ch=1 n=77 v=71
72716 On ch=1 n=41 v=53
72746 Off ch=1 n=53 v=0
73221 On ch=1 n=53 v=52
73251 Off ch=1 n=41 v=0
73727 Off ch=1 n=72 v=0
73727 Off ch=1 n=77 v=0
73732 On ch=1 n=73 v=61
73732 On ch=1 n=78 v=75
73732 On ch=1 n=42 v=57
73758 Off ch=1 n=53 v=0
74274 On ch=1 n=54 v=52
74304 Off ch=1 n=42 v=0
74781 Off ch=1 n=73 v=0
74781 Off ch=1 n=78 v=0
74782 On ch=1 n=70 v=45
74782 On ch=1 n=73 v=59
74782 On ch=1 n=42 v=53
74812 Off ch=1 n=54 v=0
75286 Off ch=1 n=70 v=0
75286 Off ch=1 n=73 v=0
75287 On ch=1 n=70 v=44
75287 On ch=1 n=73 v=58
75287 On ch=1 n=54 v=52
75317 Off ch=1 n=42 v=0
75796 Off ch=1 n=73 v=0
75797 On ch=1 n=42 v=55
75827 Off ch=1 n=70 v=0
75827 Off ch=1 n=54 v=0
76307 On ch=1 n=54 v=52
76337 Off ch=1 n=42 v=0
76812 On ch=1 n=73 v=57
76812 On ch=1 n=78 v=71
76812 On ch=1 n=42 v=53
76842 Off ch=1 n=54 v=0
77317 On ch=1 n=54 v=52
77347 Off ch=1 n=42 v=0
77823 Off ch=1 n=73 v=0
77823 Off ch=1 n=78 v=0
77828 On ch=1 n=79 v=69
77828 On ch=1 n=43 v=61
77828 On ch=1 n=55 v=75
77854 Off ch=1 n=54 v=0
78339 Off ch=1 n=79 v=0
78370 On ch=1 n=74 v=64
78847 Off ch=1 n=74 v=0
78878 On ch=1 n=79 v=65
79352 Off ch=1 n=79 v=0
79382 Off ch=1 n=43 v=0
79382 Off ch=1 n=55 v=0
79383 On ch=1 n=80 v=64
79383 On ch=1 n=44 v=56
79383 On ch=1 n=56 v=70
79862 Off ch=1 n=80 v=0
79893 On ch=1 n=75 v=67
80372 Off ch=1 n=75 v=0
80403 On ch=1 n=80 v=64
80877 Off ch=1 n=80 v=0
80907 Off ch=1 n=44 v=0
80907 Off ch=1 n=56 v=0
80908 On ch=1 n=81 v=65
80908 On ch=1 n=45 v=57
80908 On ch=1 n=57 v=71
81382 Off ch=1 n=81 v=0
81413 On ch=1 n=75 v=64
81889 Off ch=1 n=75 v=0
81924 On ch=1 n=81 v=69
82433 Off ch=1 n=81 v=0
82433 Off ch=1 n=45 v=0
82463 Off ch=1 n=57 v=0
82464 On ch=1 n=82 v=64
82464 On ch=1 n=46 v=56
82464 On ch=1 n=58 v=70
82939 Off ch=1 n=82 v=0
82970 On ch=1 n=77 v=65
83448 Off ch=1 n=77 v=0
83479 On ch=1 n=82 v=64
83955 Off ch=1 n=82 v=0
83985 Off ch=1 n=46 v=0
83985 Off ch=1 n=58 v=0
83986 On ch=1 n=83 v=67
83986 On ch=1 n=47 v=59
83986 On ch=1 n=59 v=73
84225 Off ch=1 n=83 v=0
84241 On ch=1 n=84 v=64
84471 Off ch=1 n=84 v=0
84487 On ch=1 n=85 v=64
84717 Off ch=1 n=85 v=0
84733 On ch=1 n=86 v=64
84976 Off ch=1 n=86 v=0
84991 Off ch=1 n=47 v=0
84991 Off ch=1 n=59 v=0
84996 On ch=1 n=67 v=77
84996 On ch=1 n=79 v=91
84996 On ch=1 n=43 v=57
85538 On ch=1 n=55 v=52
85568 Off ch=1 n=43 v=0
86045 Off ch=1 n=67 v=0
86045 Off ch=1 n=79 v=0
86046 On ch=1 n=67 v=65
86046 On ch=1 n=43 v=53
86076 Off ch=1 n=55 v=0
86551 On ch=1 n=55 v=52
86581 Off ch=1 n=43 v=0
87061 On ch=1 n=43 v=55
87091 Off ch=1 n=55 v=0
87570 Off ch=1 n=67 v=0
87571 On ch=1 n=67 v=64
87571 On ch=1 n=55 v=52
87601 Off ch=1 n=43 v=0
88076 On ch=1 n=43 v=53
88106 Off ch=1 n=55 v=0
88581 On ch=1 n=55 v=52
88611 Off ch=1 n=43 v=0
89087 Off ch=1 n=67 v=0
89092 On ch=1 n=67 v=69
89092 On ch=1 n=43 v=57
89118 Off ch=1 n=55 v=0
89634 On ch=1 n=55 v=52
89664 Off ch=1 n=43 v=0
90142 On ch=1 n=43 v=53
90172 Off ch=1 n=55 v=0
90647 On ch=1 n=55 v=52
90677 Off ch=1 n=43 v=0
91156 Off ch=1 n=67 v=0
91157 On ch=1 n=67 v=75
91157 On ch=1 n=79 v=89
91157 On ch=1 n=43 v=55
91187 Off ch=1 n=55 v=0
91636 Off ch=1 n=67 v=0
91666 Off ch=1 n=79 v=0
91667 On ch=1 n=69 v=72
91667 On ch=1 n=81 v=86
91667 On ch=1 n=55 v=52
91697 Off ch=1 n=43 v=0
92141 Off ch=1 n=69 v=0
92171 Off ch=1 n=81 v=0
92172 On ch=1 n=43 v=53
92202 Off ch=1 n=55 v=0
92677 On ch=1 n=70 v=72
92677 On ch=1 n=82 v=86
92677 On ch=1 n=55 v=52
92707 Off ch=1 n=43 v=0
93153 Off ch=1 n=70 v=0
93183 Off ch=1 n=82 v=0
93188 On ch=1 n=63 v=77
93188 On ch=1 n=75 v=91
93188 On ch=1 n=39 v=56
93214 Off ch=1 n=55 v=0
93730 On ch=1 n=51 v=52
93760 Off ch=1 n=39 v=0
94237 Off ch=1 n=63 v=0
94237 Off ch=1 n=75 v=0
94238 On ch=1 n=63 v=65
94238 On ch=1 n=39 v=52
94268 Off ch=1 n=51 v=0
94743 On ch=1 n=51 v=52
94773 Off ch=1 n=39 v=0
95253 On ch=1 n=39 v=54
95283 Off ch=1 n=51 v=0
95762 Off ch=1 n=63 v=0
95763 On ch=1 n=63 v=64
95763 On ch=1 n=51 v=52
95793 Off ch=1 n=39 v=0
96268 On ch=1 n=39 v=52
96298 Off ch=1 n=51 v=0
96773 On ch=1 n=51 v=52
96803 Off ch=1 n=39 v=0
97279 Off ch=1 n=63 v=0
97284 On ch=1 n=65 v=77
97284 On ch=1 n=77 v=91
97284 On ch=1 n=41 v=57
97310 Off ch=1 n=51 v=0
97826 On ch=1 n=53 v=52
97856 Off ch=1 n=41 v=0
98333 Off ch=1 n=65 v=0
98333 Off ch=1 n=77 v=0
98334 On ch=1 n=65 v=65
98334 On ch=1 n=41 v=53
98364 Off ch=1 n=53 v=0
98839 On ch=1 n=53 v=52
98869 Off ch=1 n=41 v=0
99349 On ch=1 n=41 v=55
99379 Off ch=1 n=53 v=0
99858 Off ch=1 n=65 v=0
99859 On ch=1 n=65 v=52
99859 On ch=1 n=53 v=52
99889 Off ch=1 n=41 v=0
100363 Off ch=1 n=65 v=0
100364 On ch=1 n=65 v=73
100364 On ch=1 n=77 v=87
100364 On ch=1 n=41 v=53
100394 Off ch=1 n=53 v=0
100869 On ch=1 n=53 v=52
100899 Off ch=1 n=41 v=0
101375 Off ch=1 n=65 v=0
101375 Off ch=1 n=77 v=0
101380 On ch=1 n=67 v=77
101380 On ch=1 n=79 v=91
101380 On ch=1 n=43 v=57
101406 Off ch=1 n=53 v=0
101922 On ch=1 n=55 v=52
101952 Off ch=1 n=43 v=0
102429 Off ch=1 n=67 v=0
102429 Off ch=1 n=79 v=0
102430 On ch=1 n=67 v=65
102430 On ch=1 n=43 v=53
102460 Off ch=1 n=55 v=0
102935 On ch=1 n=55 v=52
102965 Off ch=1 n=43 v=0
103445 On ch=1 n=43 v=55
103475 Off ch=1 n=55 v=0
103954 Off ch=1 n=67 v=0
103955 On ch=1 n=67 v=64
103955 On ch=1 n=55 v=52
103985 Off ch=1 n=43 v=0
104460 On ch=1 n=43 v=53
104490 Off ch=1 n=55 v=0
104965 On ch=1 n=55 v=52
104995 Off ch=1 n=43 v=0
105471 Off ch=1 n=67 v=0
105476 On ch=1 n=67 v=69
105476 On ch=1 n=43 v=57
105502 Off ch=1 n=55 v=0
106018 On ch=1 n=55 v=52
106048 Off ch=1 n=43 v=0
106526 On ch=1 n=43 v=53
106556 Off ch=1 n=55 v=0
107031 On ch=1 n=55 v=52
107061 Off ch=1 n=43 v=0
107540 Off ch=1 n=67 v=0
107541 On ch=1 n=67 v=75
107541 On ch=1 n=79 v=89
107541 On ch=1 n=43 v=55
107571 Off ch=1 n=55 v=0
108020 Off ch=1 n=67 v=0
108050 Off ch=1 n=79 v=0
108051 On ch=1 n=69 v=72
108051 On ch=1 n=81 v=86
108051 On ch=1 n=55 v=52
108081 Off ch=1 n=43 v=0
108525 Off ch=1 n=69 v=0
108555 Off ch=1 n=81 v=0
108556 On ch=1 n=43 v=53
108586 Off ch=1 n=55 v=0
109061 On ch=1 n=70 v=72
109061 On ch=1 n=82 v=86
109061 On ch=1 n=55 v=52
109091 Off ch=1 n=43 v=0
109537 Off ch=1 n=70 v=0
109567 Off ch=1 n=82 v=0
109572 On ch=1 n=63 v=77
109572 On ch=1 n=75 v=91
109572 On ch=1 n=39 v=56
109598 Off ch=1 n=55 v=0
110114 On ch=1 n=51 v=52
110144 Off ch=1 n=39 v=0
110621 Off ch=1 n=63 v=0
110621 Off ch=1 n=75 v=0
110622 On ch=1 n=63 v=65
110622 On ch=1 n=39 v=52
110652 Off ch=1 n=51 v=0
111127 On ch=1 n=51 v=52
111157 Off ch=1 n=39 v=0
111637 On ch=1 n=39 v=54
111667 Off ch=1 n=51 v=0
112146 Off ch=1 n=63 v=0
112147 On ch=1 n=63 v=64
112147 On ch=1 n=51 v=52
112177 Off ch=1 n=39 v=0
112652 On ch=1 n=39 v=52
112682 Off ch=1 n=51 v=0
113157 On ch=1 n=51 v=52
113187 Off ch=1 n=39 v=0
113663 Off ch=1 n=63 v=0
113668 On ch=1 n=65 v=77
113668 On ch=1 n=77 v=91
113668 On ch=1 n=41 v=57
113694 Off ch=1 n=51 v=0
114210 On ch=1 n=53 v=52
114240 Off ch=1 n=41 v=0
114717 Off ch=1 n=65 v=0
114717 Off ch=1 n=77 v=0
114718 On ch=1 n=65 v=65
114718 On ch=1 n=41 v=53
114748 Off ch=1 n=53 v=0
115223 On ch=1 n=53 v=52
115253 Off ch=1 n=41 v=0
115733 On ch=1 n=41 v=55
115763 Off ch=1 n=53 v=0
116242 Off ch=1 n=65 v=0
116243 On ch=1 n=65 v=52
116243 On ch=1 n=53 v=52
116273 Off ch=1 n=41 v=0
116747 Off ch=1 n=65 v=0
116748 On ch=1 n=65 v=73
116748 On ch=1 n=77 v=87
116748 On ch=1 n=41 v=53
116778 Off ch=1 n=53 v=0
117253 On ch=1 n=53 v=52
117283 Off ch=1 n=41 v=0
117759 Off ch=1 n=65 v=0
117759 Off ch=1 n=77 v=0
117764 On ch=1 n=72 v=61
117764 On ch=1 n=75 v=75
117764 On ch=1 n=39 v=56
117790 Off ch=1 n=53 v=0
118306 On ch=1 n=51 v=52
118336 Off ch=1 n=39 v=0
118813 Off ch=1 n=72 v=0
118813 Off ch=1 n=75 v=0
118814 On ch=1 n=70 v=57
118814 On ch=1 n=74 v=71
118814 On ch=1 n=39 v=52
118844 Off ch=1 n=51 v=0
119319 On ch=1 n=51 v=52
119349 Off ch=1 n=39 v=0
119828 Off ch=1 n=70 v=0
119828 Off ch=1 n=74 v=0
119829 On ch=1 n=69 v=59
119829 On ch=1 n=72 v=73
119829 On ch=1 n=39 v=54
119859 Off ch=1 n=51 v=0
120339 On ch=1 n=51 v=52
120369 Off ch=1 n=39 v=0
120843 Off ch=1 n=69 v=0
120843 Off ch=1 n=72 v=0
120844 On ch=1 n=67 v=57
120844 On ch=1 n=70 v=71
120844 On ch=1 n=39 v=52
120874 Off ch=1 n=51 v=0
121349 On ch=1 n=51 v=52
121379 Off ch=1 n=39 v=0
121855 Off ch=1 n=67 v=0
121855 Off ch=1 n=70 v=0
121860 On ch=1 n=65 v=61
121860 On ch=1 n=69 v=75
121860 On ch=1 n=39 v=56
121886 Off ch=1 n=51 v=0
122371 Off ch=1 n=65 v=0
122401 Off ch=1 n=69 v=0
122402 On ch=1 n=70 v=64
122402 On ch=1 n=51 v=52
122432 Off ch=1 n=39 v=0
122635 Off ch=1 n=70 v=0
122651 On ch=1 n=69 v=64
122894 Off ch=1 n=69 v=0
122910 On ch=1 n=67 v=65
122910 On ch=1 n=39 v=52
122940 Off ch=1 n=51 v=0
123384 Off ch=1 n=67 v=0
123415 On ch=1 n=65 v=56
123415 On ch=1 n=69 v=66
123415 On ch=1 n=51 v=52
123445 Off ch=1 n=39 v=0
123925 On ch=1 n=39 v=54
123955 Off ch=1 n=51 v=0
124434 Off ch=1 n=65 v=0
124434 Off ch=1 n=69 v=0
124435 On ch=1 n=62 v=56
124435 On ch=1 n=65 v=70
124435 On ch=1 n=51 v=52
124465 Off ch=1 n=39 v=0
124909 Off ch=1 n=62 v=0
124939 Off ch=1 n=65 v=0
124940 On ch=1 n=63 v=57
124940 On ch=1 n=67 v=71
124940 On ch=1 n=39 v=52
124970 Off ch=1 n=51 v=0
125414 Off ch=1 n=63 v=0
125444 Off ch=1 n=67 v=0
125445 On ch=1 n=65 v=56
125445 On ch=1 n=69 v=70
125445 On ch=1 n=51 v=52
125475 Off ch=1 n=39 v=0
125921 Off ch=1 n=65 v=0
125951 Off ch=1 n=69 v=0
125956 On ch=1 n=69 v=61
125956 On ch=1 n=72 v=75
125956 On ch=1 n=38 v=56
125982 Off ch=1 n=51 v=0
126498 On ch=1 n=50 v=52
126528 Off ch=1 n=38 v=0
127005 Off ch=1 n=69 v=0
127005 Off ch=1 n=72 v=0
127006 On ch=1 n=67 v=57
127006 On ch=1 n=70 v=71
127006 On ch=1 n=38 v=52
127036 Off ch=1 n=50 v=0
127480 Off ch=1 n=67 v=0
127510 Off ch=1 n=70 v=0
127511 On ch=1 n=65 v=56
127511 On ch=1 n=69 v=70
127511 On ch=1 n=50 v=52
127541 Off ch=1 n=38 v=0
127990 Off ch=1 n=65 v=0
128020 Off ch=1 n=69 v=0
128021 On ch=1 n=38 v=54
128051 Off ch=1 n=50 v=0
128531 On ch=1 n=65 v=56
128531 On ch=1 n=69 v=70
128531 On ch=1 n=50 v=52
128561 Off ch=1 n=38 v=0
129005 Off ch=1 n=65 v=0
129035 Off ch=1 n=69 v=0
129036 On ch=1 n=67 v=57
129036 On ch=1 n=70 v=71
129036 On ch=1 n=38 v=52
129066 Off ch=1 n=50 v=0
129510 Off ch=1 n=67 v=0
129540 Off ch=1 n=70 v=0
129541 On ch=1 n=69 v=56
129541 On ch=1 n=72 v=70
129541 On ch=1 n=50 v=52
129571 Off ch=1 n=38 v=0
130047 Off ch=1 n=69 v=0
130047 Off ch=1 n=72 v=0
130052 On ch=1 n=69 v=61
130052 On ch=1 n=72 v=75
130052 On ch=1 n=43 v=57
130078 Off ch=1 n=50 v=0
130594 On ch=1 n=55 v=52
130624 Off ch=1 n=43 v=0
131101 Off ch=1 n=69 v=0
131101 Off ch=1 n=72 v=0
131102 On ch=1 n=70 v=45
131102 On ch=1 n=74 v=59
131102 On ch=1 n=43 v=53
131132 Off ch=1 n=55 v=0
131606 Off ch=1 n=70 v=0
131606 Off ch=1 n=74 v=0
131607 On ch=1 n=70 v=44
131607 On ch=1 n=74 v=54
131607 On ch=1 n=55 v=52
131637 Off ch=1 n=43 v=0
132116 Off ch=1 n=74 v=0
132117 On ch=1 n=43 v=55
132147 Off ch=1 n=70 v=0
132147 Off ch=1 n=55 v=0
132627 On ch=1 n=55 v=52
132657 Off ch=1 n=43 v=0
133132 On ch=1 n=70 v=57
133132 On ch=1 n=74 v=71
133132 On ch=1 n=43 v=53
133162 Off ch=1 n=55 v=0
133637 On ch=1 n=55 v=52
133667 Off ch=1 n=43 v=0
134143 Off ch=1 n=70 v=0
134143 Off ch=1 n=74 v=0
134148 On ch=1 n=70 v=61
134148 On ch=1 n=75 v=75
134148 On ch=1 n=39 v=56
134174 Off ch=1 n=55 v=0
134690 On ch=1 n=51 v=52
134720 Off ch=1 n=39 v=0
135197 Off ch=1 n=70 v=0
135197 Off ch=1 n=75 v=0
135198 On ch=1 n=67 v=45
135198 On ch=1 n=70 v=59
135198 On ch=1 n=39 v=52
135228 Off ch=1 n=51 v=0
135702 Off ch=1 n=67 v=0
135702 Off ch=1 n=70 v=0
135703 On ch=1 n=67 v=44
135703 On ch=1 n=70 v=58
135703 On ch=1 n=51 v=52
135733 Off ch=1 n=39 v=0
136212 Off ch=1 n=70 v=0
136213 On ch=1 n=39 v=54
136243 Off ch=1 n=67 v=0
136243 Off ch=1 n=51 v=0
136723 On ch=1 n=51 v=52
136753 Off ch=1 n=39 v=0
137228 On ch=1 n=70 v=57
137228 On ch=1 n=75 v=71
137228 On ch=1 n=39 v=52
137258 Off ch=1 n=51 v=0
137733 On ch=1 n=51 v=52
137763 Off ch=1 n=39 v=0
138239 Off ch=1 n=70 v=0
138239 Off ch=1 n=75 v=0
138244 On ch=1 n=72 v=61
138244 On ch=1 n=77 v=75
138244 On ch=1 n=41 v=57
138270 Off ch=1 n=51 v=0
138786 On ch=1 n=53 v=52
138816 Off ch=1 n=41 v=0
139293 Off ch=1 n=72 v=0
139293 Off ch=1 n=77 v=0
139294 On ch=1 n=69 v=45
139294 On ch=1 n=72 v=59
139294 On ch=1 n=41 v=53
139324 Off ch=1 n=53 v=0
139798 Off ch=1 n=69 v=0
139798 Off ch=1 n=72 v=0
139799 On ch=1 n=69 v=44
139799 On ch=1 n=72 v=58
139799 On ch=1 n=53 v=52
139829 Off ch=1 n=41 v=0
140308 Off ch=1 n=72 v=0
140309 On ch=1 n=41 v=55
140339 Off ch=1 n=69 v=0
140339 Off ch=1 n=53 v=0
140819 On ch=1 n=53 v=52
140849 Off ch=1 n=41 v=0
141324 On ch=1 n=72 v=57
141324 On ch=1 n=77 v=71
141324 On ch=1 n=41 v=53
141354 Off ch=1 n=53 v=0
141829 On ch=1 n=53 v=52
141859 Off ch=1 n=41 v=0
142335 Off ch=1 n=72 v=0
142335 Off ch=1 n=77 v=0
142340 On ch=1 n=73 v=61
142340 On ch=1 n=78 v=75
142340 On ch=1 n=42 v=57
142366 Off ch=1 n=53 v=0
142882 On ch=1 n=54 v=52
142912 Off ch=1 n=42 v=0
143389 Off ch=1 n=73 v=0
143389 Off ch=1 n=78 v=0
143390 On ch=1 n=70 v=45
143390 On ch=1 n=73 v=59
143390 On ch=1 n=42 v=53
143420 Off ch=1 n=54 v=0
143894 Off ch=1 n=70 v=0
143894 Off ch=1 n=73 v=0
143895 On ch=1 n=70 v=44
143895 On ch=1 n=73 v=58
143895 On ch=1 n=54 v=52
143925 Off ch=1 n=42 v=0
144404 Off ch=1 n=73 v=0
144405 On ch=1 n=42 v=55
144435 Off ch=1 n=70 v=0
144435 Off ch=1 n=54 v=0
144915 On ch=1 n=54 v=52
144945 Off ch=1 n=42 v=0
145420 On ch=1 n=73 v=57
145420 On ch=1 n=78 v=71
145420 On ch=1 n=42 v=53
145450 Off ch=1 n=54 v=0
145925 On ch=1 n=54 v=52
145955 Off ch=1 n=42 v=0
146431 Off ch=1 n=73 v=0
146431 Off ch=1 n=78 v=0
146436 On ch=1 n=79 v=69
146436 On ch=1 n=43 v=56
146436 On ch=1 n=50 v=56
146436 On ch=1 n=55 v=66
146462 Off ch=1 n=54 v=0
146947 Off ch=1 n=79 v=0
146978 On ch=1 n=74 v=64
147455 Off ch=1 n=74 v=0
147486 On ch=1 n=72 v=65
147960 Off ch=1 n=72 v=0
147991 On ch=1 n=67 v=64
148470 Off ch=1 n=67 v=0
148501 On ch=1 n=62 v=67
148980 Off ch=1 n=62 v=0
149011 On ch=1 n=60 v=64
149485 Off ch=1 n=60 v=0
149516 On ch=1 n=55 v=65
149990 Off ch=1 n=55 v=0
150021 On ch=1 n=50 v=64
150497 Off ch=1 n=50 v=0
150527 Off ch=1 n=43 v=0
150527 Off ch=1 n=50 v=0
150527 Off ch=1 n=55 v=0
150532 On ch=1 n=67 v=69
150532 On ch=1 n=43 v=49
150532 On ch=1 n=50 v=49
150532 On ch=1 n=55 v=59
151073 Off ch=1 n=67 v=0
151073 Off ch=1 n=43 v=0
151073 Off ch=1 n=50 v=0
151073 Off ch=1 n=55 v=0
151074 On ch=1 n=67 v=64
151074 On ch=1 n=43 v=44
151074 On ch=1 n=50 v=44
151074 On ch=1 n=55 v=58
151551 Off ch=1 n=67 v=0
151581 Off ch=1 n=55 v=0
151582 On ch=1 n=65 v=57
151582 On ch=1 n=77 v=67
151582 On ch=1 n=41 v=57
151582 On ch=1 n=53 v=71
151612 Off ch=1 n=43 v=0
151612 Off ch=1 n=50 v=0
152596 Off ch=1 n=65 v=0
152596 Off ch=1 n=77 v=0
152596 Off ch=1 n=41 v=0
152596 Off ch=1 n=53 v=0
152597 On ch=1 n=65 v=59
152597 On ch=1 n=77 v=69
152597 On ch=1 n=41 v=59
152597 On ch=1 n=53 v=73
153611 Off ch=1 n=65 v=0
153611 Off ch=1 n=77 v=0
153611 Off ch=1 n=41 v=0
153611 Off ch=1 n=53 v=0
153612 On ch=1 n=67 v=53
153612 On ch=1 n=43 v=45
153612 On ch=1 n=50 v=45
153612 On ch=1 n=55 v=59
154116 Off ch=1 n=67 v=0
154116 Off ch=1 n=43 v=0
154116 Off ch=1 n=50 v=0
154116 Off ch=1 n=55 v=0
154117 On ch=1 n=67 v=52
154117 On ch=1 n=43 v=44
154117 On ch=1 n=50 v=44
154117 On ch=1 n=55 v=58
154623 Off ch=1 n=55 v=0
154628 On ch=1 n=65 v=61
154628 On ch=1 n=77 v=75
154628 On ch=1 n=41 v=61
154628 On ch=1 n=53 v=75
154654 Off ch=1 n=67 v=0
154654 Off ch=1 n=43 v=0
154654 Off ch=1 n=50 v=0
155677 Off ch=1 n=65 v=0
155677 Off ch=1 n=77 v=0
155677 Off ch=1 n=41 v=0
155677 Off ch=1 n=53 v=0
155678 On ch=1 n=67 v=53
155678 On ch=1 n=43 v=45
155678 On ch=1 n=50 v=45
155678 On ch=1 n=55 v=59
156182 Off ch=1 n=67 v=0
156182 Off ch=1 n=43 v=0
156182 Off ch=1 n=50 v=0
156182 Off ch=1 n=55 v=0
156183 On ch=1 n=67 v=52
156183 On ch=1 n=43 v=44
156183 On ch=1 n=50 v=44
156183 On ch=1 n=55 v=58
156692 Off ch=1 n=55 v=0
156693 On ch=1 n=65 v=59
156693 On ch=1 n=77 v=69
156693 On ch=1 n=41 v=59
156693 On ch=1 n=53 v=73
156723 Off ch=1 n=67 v=0
156723 Off ch=1 n=43 v=0
156723 Off ch=1 n=50 v=0
157707 Off ch=1 n=65 v=0
157707 Off ch=1 n=77 v=0
157707 Off ch=1 n=41 v=0
157707 Off ch=1 n=53 v=0
157708 On ch=1 n=65 v=57
157708 On ch=1 n=77 v=67
157708 On ch=1 n=41 v=57
157708 On ch=1 n=53 v=71
158719 Off ch=1 n=65 v=0
158719 Off ch=1 n=77 v=0
158719 Off ch=1 n=41 v=0
158719 Off ch=1 n=53 v=0
158720 On ch=1 n=67 v=57
158720 On ch=1 n=43 v=49
158720 On ch=1 n=50 v=49
158720 On ch=1 n=55 v=63
159258 Off ch=1 n=67 v=0
159258 Off ch=1 n=43 v=0
159258 Off ch=1 n=50 v=0
159258 Off ch=1 n=55 v=0
159259 On ch=1 n=67 v=52
159259 On ch=1 n=43 v=44
159259 On ch=1 n=50 v=44
159259 On ch=1 n=55 v=58
159766 Off ch=1 n=55 v=0
159767 On ch=1 n=65 v=59
159767 On ch=1 n=77 v=73
159767 On ch=1 n=41 v=59
159767 On ch=1 n=53 v=73
159797 Off ch=1 n=67 v=0
159797 Off ch=1 n=43 v=0
159797 Off ch=1 n=50 v=0
160767 Off ch=1 n=65 v=0
160767 Off ch=1 n=77 v=0
160767 Off ch=1 n=41 v=0
160767 Off ch=1 n=53 v=0
160772 On ch=1 n=67 v=57
160772 On ch=1 n=43 v=56
160772 On ch=1 n=50 v=56
160772 On ch=1 n=55 v=70
161314 On ch=1 n=74 v=52
161344 Off ch=1 n=67 v=0
161822 On ch=1 n=79 v=53
161852 Off ch=1 n=74 v=0
162327 On ch=1 n=67 v=52
162357 Off ch=1 n=79 v=0
162837 On ch=1 n=79 v=55
162867 Off ch=1 n=67 v=0
163347 On ch=1 n=67 v=52
163377 Off ch=1 n=79 v=0
163852 On ch=1 n=74 v=53
163882 Off ch=1 n=67 v=0
164357 On ch=1 n=79 v=52
164387 Off ch=1 n=74 v=0
164868 On ch=1 n=67 v=57
164894 Off ch=1 n=79 v=0
165410 On ch=1 n=74 v=52
165440 Off ch=1 n=67 v=0
165918 On ch=1 n=79 v=53
165948 Off ch=1 n=74 v=0
166423 On ch=1 n=70 v=52
166453 Off ch=1 n=79 v=0
166933 On ch=1 n=69 v=55
166963 Off ch=1 n=70 v=0
167443 On ch=1 n=65 v=52
167473 Off ch=1 n=69 v=0
167948 On ch=1 n=62 v=53
167978 Off ch=1 n=65 v=0
168453 On ch=1 n=65 v=52
168483 Off ch=1 n=62 v=0
168959 Off ch=1 n=43 v=0
168959 Off ch=1 n=50 v=0
168959 Off ch=1 n=55 v=0
168964 On ch=1 n=67 v=77
168964 On ch=1 n=79 v=91
168964 On ch=1 n=43 v=49
168964 On ch=1 n=50 v=63
168990 Off ch=1 n=65 v=0
169505 Off ch=1 n=43 v=0
169505 Off ch=1 n=50 v=0
169506 On ch=1 n=43 v=44
169506 On ch=1 n=50 v=58
170013 Off ch=1 n=67 v=0
170013 Off ch=1 n=79 v=0
170013 Off ch=1 n=50 v=0
170014 On ch=1 n=50 v=57
170014 On ch=1 n=55 v=71
170044 Off ch=1 n=43 v=0
171538 Off ch=1 n=50 v=0
171538 Off ch=1 n=55 v=0
171539 On ch=1 n=50 v=56
171539 On ch=1 n=55 v=66
173055 Off ch=1 n=50 v=0
173055 Off ch=1 n=55 v=0
173060 On ch=1 n=50 v=61
173060 On ch=1 n=55 v=71
174614 Off ch=1 n=50 v=0
174614 Off ch=1 n=55 v=0
174615 On ch=1 n=50 v=56
174615 On ch=1 n=55 v=70
175634 Off ch=1 n=50 v=0
175634 Off ch=1 n=55 v=0
175635 On ch=1 n=43 v=56
175635 On ch=1 n=50 v=70
176109 Off ch=1 n=43 v=0
176139 Off ch=1 n=50 v=0
176140 On ch=1 n=50 v=57
176140 On ch=1 n=55 v=71
176644 Off ch=1 n=50 v=0
176644 Off ch=1 n=55 v=0
176645 On ch=1 n=50 v=56
176645 On ch=1 n=55 v=70
177151 Off ch=1 n=50 v=0
177151 Off ch=1 n=55 v=0
177156 On ch=1 n=43 v=61
177156 On ch=1 n=50 v=75
177697 Off ch=1 n=43 v=0
177697 Off ch=1 n=50 v=0
177698 On ch=1 n=43 v=56
177698 On ch=1 n=50 v=70
178175 Off ch=1 n=43 v=0
178205 Off ch=1 n=50 v=0
178206 On ch=1 n=50 v=57
178206 On ch=1 n=55 v=71
179220 Off ch=1 n=50 v=0
179220 Off ch=1 n=55 v=0
179221 On ch=1 n=43 v=59
179221 On ch=1 n=50 v=73
179700 Off ch=1 n=43 v=0
179730 Off ch=1 n=50 v=0
179731 On ch=1 n=50 v=56
179731 On ch=1 n=55 v=70
180740 Off ch=1 n=50 v=0
180740 Off ch=1 n=55 v=0
180741 On ch=1 n=50 v=56
180741 On ch=1 n=55 v=66
181247 Off ch=1 n=50 v=0
181247 Off ch=1 n=55 v=0
181252 On ch=1 n=74 v=77
181252 On ch=1 n=86 v=91
181252 On ch=1 n=43 v=56
181252 On ch=1 n=50 v=56
181252 On ch=1 n=55 v=70
182806 Off ch=1 n=74 v=0
182806 Off ch=1 n=86 v=0
182807 On ch=1 n=73 v=60
182807 On ch=1 n=85 v=74
183826 Off ch=1 n=85 v=0
183827 On ch=1 n=72 v=72
183827 On ch=1 n=84 v=86
183857 Off ch=1 n=73 v=0
184836 Off ch=1 n=72 v=0
184836 Off ch=1 n=84 v=0
184837 On ch=1 n=69 v=72
184837 On ch=1 n=81 v=86
185313 Off ch=1 n=69 v=0
185313 Off ch=1 n=81 v=0
185343 Off ch=1 n=43 v=0
185343 Off ch=1 n=50 v=0
185343 Off ch=1 n=55 v=0
185348 On ch=1 n=45 v=49
185348 On ch=1 n=52 v=63
185889 Off ch=1 n=45 v=0
185889 Off ch=1 n=52 v=0
185890 On ch=1 n=45 v=44
185890 On ch=1 n=52 v=58
186397 Off ch=1 n=52 v=0
186398 On ch=1 n=52 v=57
186398 On ch=1 n=57 v=71
186428 Off ch=1 n=45 v=0
187922 Off ch=1 n=52 v=0
187922 Off ch=1 n=57 v=0
187923 On ch=1 n=52 v=56
187923 On ch=1 n=57 v=66
189439 Off ch=1 n=52 v=0
189439 Off ch=1 n=57 v=0
189444 On ch=1 n=52 v=61
189444 On ch=1 n=57 v=71
190998 Off ch=1 n=52 v=0
190998 Off ch=1 n=57 v=0
190999 On ch=1 n=52 v=56
190999 On ch=1 n=57 v=66
192018 Off ch=1 n=52 v=0
192018 Off ch=1 n=57 v=0
192019 On ch=1 n=45 v=56
192019 On ch=1 n=52 v=70
192493 Off ch=1 n=45 v=0
192523 Off ch=1 n=52 v=0
192524 On ch=1 n=52 v=57
192524 On ch=1 n=57 v=71
193028 Off ch=1 n=52 v=0
193028 Off ch=1 n=57 v=0
193029 On ch=1 n=52 v=56
193029 On ch=1 n=57 v=70
193535 Off ch=1 n=52 v=0
193535 Off ch=1 n=57 v=0
193540 On ch=1 n=45 v=61
193540 On ch=1 n=52 v=75
194081 Off ch=1 n=45 v=0
194081 Off ch=1 n=52 v=0
194082 On ch=1 n=45 v=56
194082 On ch=1 n=52 v=70
194559 Off ch=1 n=45 v=0
194589 Off ch=1 n=52 v=0
194590 On ch=1 n=52 v=57
194590 On ch=1 n=57 v=71
196114 Off ch=1 n=52 v=0
196114 Off ch=1 n=57 v=0
196115 On ch=1 n=52 v=56
196115 On ch=1 n=57 v=66
197631 Off ch=1 n=52 v=0
197631 Off ch=1 n=57 v=0
197636 On ch=1 n=69 v=65
197636 On ch=1 n=81 v=75
197636 On ch=1 n=45 v=56
197636 On ch=1 n=52 v=56
197636 On ch=1 n=57 v=70
197928 Off ch=1 n=69 v=0
197928 Off ch=1 n=81 v=0
197929 On ch=1 n=69 v=60
197929 On ch=1 n=81 v=70
198177 Off ch=1 n=69 v=0
198177 Off ch=1 n=81 v=0
198178 On ch=1 n=69 v=72
198178 On ch=1 n=81 v=86
198655 Off ch=1 n=69 v=0
198685 Off ch=1 n=81 v=0
199191 On ch=1 n=64 v=72
199191 On ch=1 n=76 v=86
200180 Off ch=1 n=64 v=0
200210 Off ch=1 n=76 v=0
200211 On ch=1 n=65 v=72
200211 On ch=1 n=77 v=86
201220 Off ch=1 n=65 v=0
201220 Off ch=1 n=77 v=0
201221 On ch=1 n=66 v=72
201221 On ch=1 n=78 v=86
201697 Off ch=1 n=66 v=0
201727 Off ch=1 n=78 v=0
201727 Off ch=1 n=45 v=0
201727 Off ch=1 n=52 v=0
201727 Off ch=1 n=57 v=0
201732 On ch=1 n=67 v=77
201732 On ch=1 n=79 v=91
201732 On ch=1 n=43 v=49
201732 On ch=1 n=50 v=63
202273 Off ch=1 n=43 v=0
202273 Off ch=1 n=50 v=0
202274 On ch=1 n=43 v=44
202274 On ch=1 n=50 v=58
202781 Off ch=1 n=67 v=0
202781 Off ch=1 n=79 v=0
202781 Off ch=1 n=50 v=0
202782 On ch=1 n=50 v=57
202782 On ch=1 n=55 v=71
202812 Off ch=1 n=43 v=0
204306 Off ch=1 n=50 v=0
204306 Off ch=1 n=55 v=0
204307 On ch=1 n=50 v=56
204307 On ch=1 n=55 v=66
205823 Off ch=1 n=50 v=0
205823 Off ch=1 n=55 v=0
205828 On ch=1 n=50 v=61
205828 On ch=1 n=55 v=71
207382 Off ch=1 n=50 v=0
207382 Off ch=1 n=55 v=0
207383 On ch=1 n=50 v=56
207383 On ch=1 n=55 v=70
208402 Off ch=1 n=50 v=0
208402 Off ch=1 n=55 v=0
208403 On ch=1 n=43 v=56
208403 On ch=1 n=50 v=70
208877 Off ch=1 n=43 v=0
208907 Off ch=1 n=50 v=0
208908 On ch=1 n=50 v=57
208908 On ch=1 n=55 v=71
209412 Off ch=1 n=50 v=0
209412 Off ch=1 n=55 v=0
209413 On ch=1 n=50 v=56
209413 On ch=1 n=55 v=70
209919 Off ch=1 n=50 v=0
209919 Off ch=1 n=55 v=0
209924 On ch=1 n=43 v=61
209924 On ch=1 n=50 v=75
210465 Off ch=1 n=43 v=0
210465 Off ch=1 n=50 v=0
210466 On ch=1 n=43 v=56
210466 On ch=1 n=50 v=70
210943 Off ch=1 n=43 v=0
210973 Off ch=1 n=50 v=0
210974 On ch=1 n=50 v=57
210974 On ch=1 n=55 v=71
211988 Off ch=1 n=50 v=0
211988 Off ch=1 n=55 v=0
211989 On ch=1 n=43 v=59
211989 On ch=1 n=50 v=73
212468 Off ch=1 n=43 v=0
212498 Off ch=1 n=50 v=0
212499 On ch=1 n=50 v=56
212499 On ch=1 n=55 v=70
213508 Off ch=1 n=50 v=0
213508 Off ch=1 n=55 v=0
213509 On ch=1 n=50 v=56
213509 On ch=1 n=55 v=66
214015 Off ch=1 n=50 v=0
214015 Off ch=1 n=55 v=0
214020 On ch=1 n=74 v=77
214020 On ch=1 n=86 v=91
214020 On ch=1 n=43 v=56
214020 On ch=1 n=50 v=56
214020 On ch=1 n=55 v=70
215574 Off ch=1 n=74 v=0
215574 Off ch=1 n=86 v=0
215575 On ch=1 n=73 v=60
215575 On ch=1 n=85 v=74
216594 Off ch=1 n=85 v=0
216595 On ch=1 n=72 v=72
216595 On ch=1 n=84 v=86
216625 Off ch=1 n=73 v=0
217604 Off ch=1 n=72 v=0
217604 Off ch=1 n=84 v=0
217605 On ch=1 n=69 v=72
217605 On ch=1 n=81 v=86
218081 Off ch=1 n=69 v=0
218081 Off ch=1 n=81 v=0
218111 Off ch=1 n=43 v=0
218111 Off ch=1 n=50 v=0
218111 Off ch=1 n=55 v=0
218116 On ch=1 n=45 v=49
218116 On ch=1 n=52 v=63
218657 Off ch=1 n=45 v=0
218657 Off ch=1 n=52 v=0
218658 On ch=1 n=45 v=44
218658 On ch=1 n=52 v=58
219165 Off ch=1 n=52 v=0
219166 On ch=1 n=52 v=57
219166 On ch=1 n=57 v=71
219196 Off ch=1 n=45 v=0
220690 Off ch=1 n=52 v=0
220690 Off ch=1 n=57 v=0
220691 On ch=1 n=52 v=56
220691 On ch=1 n=57 v=66
222207 Off ch=1 n=52 v=0
222207 Off ch=1 n=57 v=0
222212 On ch=1 n=52 v=61
222212 On ch=1 n=57 v=71
223766 Off ch=1 n=52 v=0
223766 Off ch=1 n=57 v=0
223767 On ch=1 n=52 v=56
223767 On ch=1 n=57 v=66
224786 Off ch=1 n=52 v=0
224786 Off ch=1 n=57 v=0
224787 On ch=1 n=45 v=56
224787 On ch=1 n=52 v=70
225261 Off ch=1 n=45 v=0
225291 Off ch=1 n=52 v=0
225292 On ch=1 n=52 v=57
225292 On ch=1 n=57 v=71
225796 Off ch=1 n=52 v=0
225796 Off ch=1 n=57 v=0
225797 On ch=1 n=52 v=56
225797 On ch=1 n=57 v=70
226303 Off ch=1 n=52 v=0
226303 Off ch=1 n=57 v=0
226308 On ch=1 n=45 v=61
226308 On ch=1 n=52 v=75
226849 Off ch=1 n=45 v=0
226849 Off ch=1 n=52 v=0
226850 On ch=1 n=45 v=56
226850 On ch=1 n=52 v=70
227327 Off ch=1 n=45 v=0
227357 Off ch=1 n=52 v=0
227358 On ch=1 n=52 v=57
227358 On ch=1 n=57 v=71
228882 Off ch=1 n=52 v=0
228882 Off ch=1 n=57 v=0
228883 On ch=1 n=52 v=56
228883 On ch=1 n=57 v=66
230399 Off ch=1 n=52 v=0
230399 Off ch=1 n=57 v=0
230404 On ch=1 n=69 v=65
230404 On ch=1 n=81 v=75
230404 On ch=1 n=45 v=56
230404 On ch=1 n=52 v=56
230404 On ch=1 n=57 v=70
230696 Off ch=1 n=69 v=0
230696 Off ch=1 n=81 v=0
230697 On ch=1 n=69 v=60
230697 On ch=1 n=81 v=70
230945 Off ch=1 n=69 v=0
230945 Off ch=1 n=81 v=0
230946 On ch=1 n=69 v=72
230946 On ch=1 n=81 v=86
231423 Off ch=1 n=69 v=0
231453 Off ch=1 n=81 v=0
231959 On ch=1 n=64 v=72
231959 On ch=1 n=76 v=86
232948 Off ch=1 n=64 v=0
232978 Off ch=1 n=76 v=0
232979 On ch=1 n=65 v=72
232979 On ch=1 n=77 v=86
233988 Off ch=1 n=65 v=0
233988 Off ch=1 n=77 v=0
233989 On ch=1 n=66 v=60
233989 On ch=1 n=78 v=74
234495 Off ch=1 n=78 v=0
234495 Off ch=1 n=45 v=0
234495 Off ch=1 n=52 v=0
234495 Off ch=1 n=57 v=0
234500 On ch=1 n=67 v=65
234500 On ch=1 n=79 v=79
234500 On ch=1 n=43 v=56
234500 On ch=1 n=50 v=56
234500 On ch=1 n=55 v=70
234526 Off ch=1 n=66 v=0
235041 Off ch=1 n=79 v=0
235042 On ch=1 n=74 v=52
235072 Off ch=1 n=67 v=0
235550 On ch=1 n=79 v=53
235580 Off ch=1 n=74 v=0
236055 On ch=1 n=67 v=52
236085 Off ch=1 n=79 v=0
236565 On ch=1 n=79 v=55
236595 Off ch=1 n=67 v=0
237075 On ch=1 n=67 v=52
237105 Off ch=1 n=79 v=0
237580 On ch=1 n=74 v=53
237610 Off ch=1 n=67 v=0
238085 On ch=1 n=79 v=52
238115 Off ch=1 n=74 v=0
238596 On ch=1 n=67 v=57
238622 Off ch=1 n=79 v=0
239138 On ch=1 n=74 v=52
239168 Off ch=1 n=67 v=0
239646 On ch=1 n=79 v=53
239676 Off ch=1 n=74 v=0
240151 On ch=1 n=70 v=52
240181 Off ch=1 n=79 v=0
240661 On ch=1 n=69 v=55
240691 Off ch=1 n=70 v=0
241171 On ch=1 n=65 v=52
241201 Off ch=1 n=69 v=0
241676 On ch=1 n=62 v=53
241706 Off ch=1 n=65 v=0
242181 On ch=1 n=65 v=52
242211 Off ch=1 n=62 v=0
242687 Off ch=1 n=43 v=0
242687 Off ch=1 n=50 v=0
242687 Off ch=1 n=55 v=0
242692 On ch=1 n=67 v=77
242692 On ch=1 n=79 v=91
242692 On ch=1 n=43 v=57
242718 Off ch=1 n=65 v=0
243234 On ch=1 n=55 v=52
243264 Off ch=1 n=43 v=0
243741 Off ch=1 n=67 v=0
243741 Off ch=1 n=79 v=0
243742 On ch=1 n=67 v=65
243742 On ch=1 n=43 v=53
243772 Off ch=1 n=55 v=0
244247 On ch=1 n=55 v=52
244277 Off ch=1 n=43 v=0
244757 On ch=1 n=43 v=55
244787 Off ch=1 n=55 v=0
245266 Off ch=1 n=67 v=0
245267 On ch=1 n=67 v=64
245267 On ch=1 n=55 v=52
245297 Off ch=1 n=43 v=0
245772 On ch=1 n=43 v=53
245802 Off ch=1 n=55 v=0
246277 On ch=1 n=55 v=52
246307 Off ch=1 n=43 v=0
246783 Off ch=1 n=67 v=0
246788 On ch=1 n=67 v=69
246788 On ch=1 n=43 v=57
246814 Off ch=1 n=55 v=0
247330 On ch=1 n=55 v=52
247360 Off ch=1 n=43 v=0
247838 On ch=1 n=43 v=53
247868 Off ch=1 n=55 v=0
248343 On ch=1 n=55 v=52
248373 Off ch=1 n=43 v=0
248852 Off ch=1 n=67 v=0
248853 On ch=1 n=67 v=75
248853 On ch=1 n=79 v=89
248853 On ch=1 n=43 v=55
248883 Off ch=1 n=55 v=0
249332 Off ch=1 n=67 v=0
249362 Off ch=1 n=79 v=0
249363 On ch=1 n=69 v=72
249363 On ch=1 n=81 v=86
249363 On ch=1 n=55 v=52
249393 Off ch=1 n=43 v=0
249837 Off ch=1 n=69 v=0
249867 Off ch=1 n=81 v=0
249868 On ch=1 n=43 v=53
249898 Off ch=1 n=55 v=0
250373 On ch=1 n=70 v=72
250373 On ch=1 n=82 v=86
250373 On ch=1 n=55 v=52
250403 Off ch=1 n=43 v=0
250849 Off ch=1 n=70 v=0
250879 Off ch=1 n=82 v=0
250884 On ch=1 n=63 v=77
250884 On ch=1 n=75 v=91
250884 On ch=1 n=39 v=56
250910 Off ch=1 n=55 v=0
251426 On ch=1 n=51 v=52
251456 Off ch=1 n=39 v=0
251933 Off ch=1 n=63 v=0
251933 Off ch=1 n=75 v=0
251934 On ch=1 n=63 v=65
251934 On ch=1 n=39 v=52
251964 Off ch=1 n=51 v=0
252439 On ch=1 n=51 v=52
252469 Off ch=1 n=39 v=0
252949 On ch=1 n=39 v=54
252979 Off ch=1 n=51 v=0
253458 Off ch=1 n=63 v=0
253459 On ch=1 n=63 v=64
253459 On ch=1 n=51 v=52
253489 Off ch=1 n=39 v=0
253964 On ch=1 n=39 v=52
253994 Off ch=1 n=51 v=0
254469 On ch=1 n=51 v=52
254499 Off ch=1 n=39 v=0
254975 Off ch=1 n=63 v=0
254980 On ch=1 n=65 v=77
254980 On ch=1 n=77 v=91
254980 On ch=1 n=41 v=57
255006 Off ch=1 n=51 v=0
255522 On ch=1 n=53 v=52
255552 Off ch=1 n=41 v=0
256029 Off ch=1 n=65 v=0
256029 Off ch=1 n=77 v=0
256030 On ch=1 n=65 v=65
256030 On ch=1 n=41 v=53
256060 Off ch=1 n=53 v=0
256535 On ch=1 n=53 v=52
256565 Off ch=1 n=41 v=0
257045 On ch=1 n=41 v=55
257075 Off ch=1 n=53 v=0
257554 Off ch=1 n=65 v=0
257555 On ch=1 n=65 v=52
257555 On ch=1 n=53 v=52
257585 Off ch=1 n=41 v=0
258059 Off ch=1 n=65 v=0
258060 On ch=1 n=65 v=73
258060 On ch=1 n=77 v=87
258060 On ch=1 n=41 v=53
258090 Off ch=1 n=53 v=0
258565 On ch=1 n=53 v=52
258595 Off ch=1 n=41 v=0
259071 Off ch=1 n=65 v=0
259071 Off ch=1 n=77 v=0
259076 On ch=1 n=67 v=77
259076 On ch=1 n=79 v=91
259076 On ch=1 n=43 v=57
259102 Off ch=1 n=53 v=0
259618 On ch=1 n=55 v=52
259648 Off ch=1 n=43 v=0
260125 Off ch=1 n=67 v=0
260125 Off ch=1 n=79 v=0
260126 On ch=1 n=67 v=65
260126 On ch=1 n=43 v=53
260156 Off ch=1 n=55 v=0
260631 On ch=1 n=55 v=52
260661 Off ch=1 n=43 v=0
261141 On ch=1 n=43 v=55
261171 Off ch=1 n=55 v=0
261650 Off ch=1 n=67 v=0
261651 On ch=1 n=67 v=64
261651 On ch=1 n=55 v=52
261681 Off ch=1 n=43 v=0
262156 On ch=1 n=43 v=53
262186 Off ch=1 n=55 v=0
262661 On ch=1 n=55 v=52
262691 Off ch=1 n=43 v=0
263167 Off ch=1 n=67 v=0
263172 On ch=1 n=67 v=69
263172 On ch=1 n=43 v=57
263198 Off ch=1 n=55 v=0
263714 On ch=1 n=55 v=52
263744 Off ch=1 n=43 v=0
264222 On ch=1 n=43 v=53
264252 Off ch=1 n=55 v=0
264727 On ch=1 n=55 v=52
264757 Off ch=1 n=43 v=0
265236 Off ch=1 n=67 v=0
265237 On ch=1 n=67 v=75
265237 On ch=1 n=79 v=89
265237 On ch=1 n=43 v=55
265267 Off ch=1 n=55 v=0
265716 Off ch=1 n=67 v=0
265746 Off ch=1 n=79 v=0
265747 On ch=1 n=69 v=72
265747 On ch=1 n=81 v=86
265747 On ch=1 n=55 v=52
265777 Off ch=1 n=43 v=0
266221 Off ch=1 n=69 v=0
266251 Off ch=1 n=81 v=0
266252 On ch=1 n=43 v=53
266282 Off ch=1 n=55 v=0
266757 On ch=1 n=70 v=72
266757 On ch=1 n=82 v=86
266757 On ch=1 n=55 v=52
266787 Off ch=1 n=43 v=0
267233 Off ch=1 n=70 v=0
267263 Off ch=1 n=82 v=0
267268 On ch=1 n=63 v=77
267268 On ch=1 n=75 v=91
267268 On ch=1 n=39 v=56
267294 Off ch=1 n=55 v=0
267810 On ch=1 n=51 v=52
267840 Off ch=1 n=39 v=0
268317 Off ch=1 n=63 v=0
268317 Off ch=1 n=75 v=0
268318 On ch=1 n=63 v=65
268318 On ch=1 n=39 v=52
268348 Off ch=1 n=51 v=0
268823 On ch=1 n=51 v=52
268853 Off ch=1 n=39 v=0
269333 On ch=1 n=39 v=54
269363 Off ch=1 n=51 v=0
269842 Off ch=1 n=63 v=0
269843 On ch=1 n=63 v=64
269843 On ch=1 n=51 v=52
269873 Off ch=1 n=39 v=0
270348 On ch=1 n=39 v=52
270378 Off ch=1 n=51 v=0
270853 On ch=1 n=51 v=52
270883 Off ch=1 n=39 v=0
271359 Off ch=1 n=63 v=0
271364 On ch=1 n=65 v=77
271364 On ch=1 n=77 v=91
271364 On ch=1 n=41 v=57
271390 Off ch=1 n=51 v=0
271906 On ch=1 n=53 v=52
271936 Off ch=1 n=41 v=0
272413 Off ch=1 n=65 v=0
272413 Off ch=1 n=77 v=0
272414 On ch=1 n=65 v=65
272414 On ch=1 n=41 v=53
272444 Off ch=1 n=53 v=0
272919 On ch=1 n=53 v=52
272949 Off ch=1 n=41 v=0
273429 On ch=1 n=41 v=55
273459 Off ch=1 n=53 v=0
273938 Off ch=1 n=65 v=0
273939 On ch=1 n=65 v=52
273939 On ch=1 n=53 v=52
273969 Off ch=1 n=41 v=0
274443 Off ch=1 n=65 v=0
274444 On ch=1 n=65 v=73
274444 On ch=1 n=77 v=87
274444 On ch=1 n=41 v=53
274474 Off ch=1 n=53 v=0
274949 On ch=1 n=53 v=52
274979 Off ch=1 n=41 v=0
275455 Off ch=1 n=65 v=0
275455 Off ch=1 n=77 v=0
275460 On ch=1 n=72 v=61
275460 On ch=1 n=75 v=75
275460 On ch=1 n=39 v=56
275486 Off ch=1 n=53 v=0
276002 On ch=1 n=51 v=52
276032 Off ch=1 n=39 v=0
276509 Off ch=1 n=72 v=0
276509 Off ch=1 n=75 v=0
276510 On ch=1 n=70 v=57
276510 On ch=1 n=74 v=71
276510 On ch=1 n=39 v=52
276540 Off ch=1 n=51 v=0
277015 On ch=1 n=51 v=52
277045 Off ch=1 n=39 v=0
277524 Off ch=1 n=70 v=0
277524 Off ch=1 n=74 v=0
277525 On ch=1 n=69 v=59
277525 On ch=1 n=72 v=73
277525 On ch=1 n=39 v=54
277555 Off ch=1 n=51 v=0
278035 On ch=1 n=51 v=52
278065 Off ch=1 n=39 v=0
278539 Off ch=1 n=69 v=0
278539 Off ch=1 n=72 v=0
278540 On ch=1 n=67 v=57
278540 On ch=1 n=70 v=71
278540 On ch=1 n=39 v=52
278570 Off ch=1 n=51 v=0
279045 On ch=1 n=51 v=52
279075 Off ch=1 n=39 v=0
279551 Off ch=1 n=67 v=0
279551 Off ch=1 n=70 v=0
279556 On ch=1 n=65 v=61
279556 On ch=1 n=69 v=75
279556 On ch=1 n=39 v=56
279582 Off ch=1 n=51 v=0
280067 Off ch=1 n=65 v=0
280097 Off ch=1 n=69 v=0
280098 On ch=1 n=70 v=64
280098 On ch=1 n=51 v=52
280128 Off ch=1 n=39 v=0
280331 Off ch=1 n=70 v=0
280347 On ch=1 n=69 v=64
280590 Off ch=1 n=69 v=0
280606 On ch=1 n=67 v=65
280606 On ch=1 n=39 v=52
280636 Off ch=1 n=51 v=0
281080 Off ch=1 n=67 v=0
281111 On ch=1 n=65 v=56
281111 On ch=1 n=69 v=66
281111 On ch=1 n=51 v=52
281141 Off ch=1 n=39 v=0
281621 On ch=1 n=39 v=54
281651 Off ch=1 n=51 v=0
282130 Off ch=1 n=65 v=0
282130 Off ch=1 n=69 v=0
282131 On ch=1 n=62 v=56
282131 On ch=1 n=65 v=70
282131 On ch=1 n=51 v=52
282161 Off ch=1 n=39 v=0
282605 Off ch=1 n=62 v=0
282635 Off ch=1 n=65 v=0
282636 On ch=1 n=63 v=57
282636 On ch=1 n=67 v=71
282636 On ch=1 n=39 v=52
282666 Off ch=1 n=51 v=0
283110 Off ch=1 n=63 v=0
283140 Off ch=1 n=67 v=0
283141 On ch=1 n=65 v=56
283141 On ch=1 n=69 v=70
283141 On ch=1 n=51 v=52
283171 Off ch=1 n=39 v=0
283617 Off ch=1 n=65 v=0
283647 Off ch=1 n=69 v=0
283652 On ch=1 n=69 v=61
283652 On ch=1 n=72 v=75
283652 On ch=1 n=38 v=56
283678 Off ch=1 n=51 v=0
284194 On ch=1 n=50 v=52
284224 Off ch=1 n=38 v=0
284701 Off ch=1 n=69 v=0
284701 Off ch=1 n=72 v=0
284702 On ch=1 n=67 v=57
284702 On ch=1 n=70 v=71
284702 On ch=1 n=38 v=52
284732 Off ch=1 n=50 v=0
285176 Off ch=1 n=67 v=0
285206 Off ch=1 n=70 v=0
285207 On ch=1 n=65 v=56
285207 On ch=1 n=69 v=70
285207 On ch=1 n=50 v=52
285237 Off ch=1 n=38 v=0
285686 Off ch=1 n=65 v=0
285716 Off ch=1 n=69 v=0
285717 On ch=1 n=38 v=54
285747 Off ch=1 n=50 v=0
286227 On ch=1 n=65 v=56
286227 On ch=1 n=69 v=70
286227 On ch=1 n=50 v=52
286257 Off ch=1 n=38 v=0
286701 Off ch=1 n=65 v=0
286731 Off ch=1 n=69 v=0
286732 On ch=1 n=67 v=57
286732 On ch=1 n=70 v=71
286732 On ch=1 n=38 v=52
286762 Off ch=1 n=50 v=0
287206 Off ch=1 n=67 v=0
287236 Off ch=1 n=70 v=0
287237 On ch=1 n=69 v=56
287237 On ch=1 n=72 v=70
287237 On ch=1 n=50 v=52
287267 Off ch=1 n=38 v=0
287743 Off ch=1 n=69 v=0
287743 Off ch=1 n=72 v=0
287748 On ch=1 n=69 v=61
287748 On ch=1 n=72 v=75
287748 On ch=1 n=43 v=57
287774 Off ch=1 n=50 v=0
288290 On ch=1 n=55 v=52
288320 Off ch=1 n=43 v=0
288797 Off ch=1 n=69 v=0
288797 Off ch=1 n=72 v=0
288798 On ch=1 n=70 v=45
288798 On ch=1 n=74 v=59
288798 On ch=1 n=43 v=53
288828 Off ch=1 n=55 v=0
289302 Off ch=1 n=70 v=0
289302 Off ch=1 n=74 v=0
289303 On ch=1 n=70 v=44
289303 On ch=1 n=74 v=54
289303 On ch=1 n=55 v=52
289333 Off ch=1 n=43 v=0
289812 Off ch=1 n=74 v=0
289813 On ch=1 n=43 v=55
289843 Off ch=1 n=70 v=0
289843 Off ch=1 n=55 v=0
290323 On ch=1 n=55 v=52
290353 Off ch=1 n=43 v=0
290828 On ch=1 n=70 v=57
290828 On ch=1 n=74 v=71
290828 On ch=1 n=43 v=53
290858 Off ch=1 n=55 v=0
291333 On ch=1 n=55 v=52
291363 Off ch=1 n=43 v=0
291839 Off ch=1 n=70 v=0
291839 Off ch=1 n=74 v=0
291844 On ch=1 n=70 v=61
291844 On ch=1 n=75 v=75
291844 On ch=1 n=39 v=56
291870 Off ch=1 n=55 v=0
292386 On ch=1 n=51 v=52
292416 Off ch=1 n=39 v=0
292893 Off ch=1 n=70 v=0
292893 Off ch=1 n=75 v=0
292894 On ch=1 n=67 v=45
292894 On ch=1 n=70 v=59
292894 On ch=1 n=39 v=52
292924 Off ch=1 n=51 v=0
293398 Off ch=1 n=67 v=0
293398 Off ch=1 n=70 v=0
293399 On ch=1 n=67 v=44
293399 On ch=1 n=70 v=58
293399 On ch=1 n=51 v=52
293429 Off ch=1 n=39 v=0
293908 Off ch=1 n=70 v=0
293909 On ch=1 n=39 v=54
293939 Off ch=1 n=67 v=0
293939 Off ch=1 n=51 v=0
294419 On ch=1 n=51 v=52
294449 Off ch=1 n=39 v=0
294924 On ch=1 n=70 v=57
294924 On ch=1 n=75 v=71
294924 On ch=1 n=39 v=52
294954 Off ch=1 n=51 v=0
295429 On ch=1 n=51 v=52
295459 Off ch=1 n=39 v=0
295935 Off ch=1 n=70 v=0
295935 Off ch=1 n=75 v=0
295940 On ch=1 n=72 v=61
295940 On ch=1 n=77 v=75
295940 On ch=1 n=41 v=57
295966 Off ch=1 n=51 v=0
296482 On ch=1 n=53 v=52
296512 Off ch=1 n=41 v=0
296989 Off ch=1 n=72 v=0
296989 Off ch=1 n=77 v=0
296990 On ch=1 n=69 v=45
296990 On ch=1 n=72 v=59
296990 On ch=1 n=41 v=53
297020 Off ch=1 n=53 v=0
297494 Off ch=1 n=69 v=0
297494 Off ch=1 n=72 v=0
297495 On ch=1 n=69 v=44
297495 On ch=1 n=72 v=58
297495 On ch=1 n=53 v=52
297525 Off ch=1 n=41 v=0
298004 Off ch=1 n=72 v=0
298005 On ch=1 n=41 v=55
298035 Off ch=1 n=69 v=0
298035 Off ch=1 n=53 v=0
298515 On ch=1 n=53 v=52
298545 Off ch=1 n=41 v=0
299020 On ch=1 n=72 v=57
299020 On ch=1 n=77 v=71
299020 On ch=1 n=41 v=53
299050 Off ch=1 n=53 v=0
299525 On ch=1 n=53 v=52
299555 Off ch=1 n=41 v=0
300031 Off ch=1 n=72 v=0
300031 Off ch=1 n=77 v=0
300036 On ch=1 n=73 v=61
300036 On ch=1 n=78 v=75
300036 On ch=1 n=42 v=57
300062 Off ch=1 n=53 v=0
300578 On ch=1 n=54 v=52
300608 Off ch=1 n=42 v=0
301085 Off ch=1 n=73 v=0
301085 Off ch=1 n=78 v=0
301086 On ch=1 n=70 v=45
301086 On ch=1 n=73 v=59
301086 On ch=1 n=42 v=53
301116 Off ch=1 n=54 v=0
301590 Off ch=1 n=70 v=0
301590 Off ch=1 n=73 v=0
301591 On ch=1 n=70 v=44
301591 On ch=1 n=73 v=58
301591 On ch=1 n=54 v=52
301621 Off ch=1 n=42 v=0
302100 Off ch=1 n=73 v=0
302101 On ch=1 n=42 v=55
302131 Off ch=1 n=70 v=0
302131 Off ch=1 n=54 v=0
302611 On ch=1 n=54 v=52
302641 Off ch=1 n=42 v=0
303116 On ch=1 n=73 v=57
303116 On ch=1 n=78 v=71
303116 On ch=1 n=42 v=53
303146 Off ch=1 n=54 v=0
303621 On ch=1 n=54 v=52
303651 Off ch=1 n=42 v=0
304127 Off ch=1 n=73 v=0
304127 Off ch=1 n=78 v=0
304132 On ch=1 n=79 v=69
304132 On ch=1 n=43 v=61
304132 On ch=1 n=55 v=75
304158 Off ch=1 n=54 v=0
304643 Off ch=1 n=79 v=0
304674 On ch=1 n=74 v=64
305151 Off ch=1 n=74 v=0
305182 On ch=1 n=79 v=65
305656 Off ch=1 n=79 v=0
305686 Off ch=1 n=43 v=0
305686 Off ch=1 n=55 v=0
305687 On ch=1 n=80 v=64
305687 On ch=1 n=44 v=56
305687 On ch=1 n=56 v=70
306166 Off ch=1 n=80 v=0
306197 On ch=1 n=75 v=67
306676 Off ch=1 n=75 v=0
306707 On ch=1 n=80 v=64
307181 Off ch=1 n=80 v=0
307211 Off ch=1 n=44 v=0
307211 Off ch=1 n=56 v=0
307212 On ch=1 n=81 v=65
307212 On ch=1 n=45 v=57
307212 On ch=1 n=57 v=71
307686 Off ch=1 n=81 v=0
307717 On ch=1 n=75 v=64
308193 Off ch=1 n=75 v=0
308228 On ch=1 n=81 v=69
308737 Off ch=1 n=81 v=0
308737 Off ch=1 n=45 v=0
308767 Off ch=1 n=57 v=0
308768 On ch=1 n=82 v=64
308768 On ch=1 n=46 v=56
308768 On ch=1 n=58 v=70
309243 Off ch=1 n=82 v=0
309274 On ch=1 n=77 v=65
309752 Off ch=1 n=77 v=0
309783 On ch=1 n=82 v=64
310259 Off ch=1 n=82 v=0
310289 Off ch=1 n=46 v=0
310289 Off ch=1 n=58 v=0
310290 On ch=1 n=83 v=67
310290 On ch=1 n=47 v=59
310290 On ch=1 n=59 v=73
310529 Off ch=1 n=83 v=0
310545 On ch=1 n=84 v=64
310775 Off ch=1 n=84 v=0
310791 On ch=1 n=85 v=64
311021 Off ch=1 n=85 v=0
311037 On ch=1 n=86 v=64
311280 Off ch=1 n=86 v=0
311295 Off ch=1 n=47 v=0
311295 Off ch=1 n=59 v=0
311300 On ch=1 n=67 v=77
311300 On ch=1 n=79 v=91
311300 On ch=1 n=43 v=57
311842 On ch=1 n=55 v=52
311872 Off ch=1 n=43 v=0
312349 Off ch=1 n=67 v=0
312349 Off ch=1 n=79 v=0
312350 On ch=1 n=67 v=65
312350 On ch=1 n=43 v=53
312380 Off ch=1 n=55 v=0
312855 On ch=1 n=55 v=52
312885 Off ch=1 n=43 v=0
313365 On ch=1 n=43 v=55
313395 Off ch=1 n=55 v=0
313874 Off ch=1 n=67 v=0
313875 On ch=1 n=67 v=64
313875 On ch=1 n=55 v=52
313905 Off ch=1 n=43 v=0
314380 On ch=1 n=43 v=53
314410 Off ch=1 n=55 v=0
314885 On ch=1 n=55 v=52
314915 Off ch=1 n=43 v=0
315391 Off ch=1 n=67 v=0
315396 On ch=1 n=67 v=69
315396 On ch=1 n=43 v=57
315422 Off ch=1 n=55 v=0
315938 On ch=1 n=55 v=52
315968 Off ch=1 n=43 v=0
316446 On ch=1 n=43 v=53
316476 Off ch=1 n=55 v=0
316951 On ch=1 n=55 v=52
316981 Off ch=1 n=43 v=0
317460 Off ch=1 n=67 v=0
317461 On ch=1 n=67 v=75
317461 On ch=1 n=79 v=89
317461 On ch=1 n=43 v=55
317491 Off ch=1 n=55 v=0
317940 Off ch=1 n=67 v=0
317970 Off ch=1 n=79 v=0
317971 On ch=1 n=69 v=72
317971 On ch=1 n=81 v=86
317971 On ch=1 n=55 v=52
318001 Off ch=1 n=43 v=0
318445 Off ch=1 n=69 v=0
318475 Off ch=1 n=81 v=0
318476 On ch=1 n=43 v=53
318506 Off ch=1 n=55 v=0
318981 On ch=1 n=70 v=72
318981 On ch=1 n=82 v=86
318981 On ch=1 n=55 v=52
319011 Off ch=1 n=43 v=0
319457 Off ch=1 n=70 v=0
319487 Off ch=1 n=82 v=0
319492 On ch=1 n=63 v=77
319492 On ch=1 n=75 v=91
319492 On ch=1 n=39 v=56
319518 Off ch=1 n=55 v=0
320034 On ch=1 n=51 v=52
320064 Off ch=1 n=39 v=0
320541 Off ch=1 n=63 v=0
320541 Off ch=1 n=75 v=0
320542 On ch=1 n=63 v=65
320542 On ch=1 n=39 v=52
320572 Off ch=1 n=51 v=0
321047 On ch=1 n=51 v=52
321077 Off ch=1 n=39 v=0
321557 On ch=1 n=39 v=54
321587 Off ch=1 n=51 v=0
322066 Off ch=1 n=63 v=0
322067 On ch=1 n=63 v=64
322067 On ch=1 n=51 v=52
322097 Off ch=1 n=39 v=0
322572 On ch=1 n=39 v=52
322602 Off ch=1 n=51 v=0
323077 On ch=1 n=51 v=52
323107 Off ch=1 n=39 v=0
323583 Off ch=1 n=63 v=0
323588 On ch=1 n=65 v=77
323588 On ch=1 n=77 v=91
323588 On ch=1 n=41 v=57
323614 Off ch=1 n=51 v=0
324130 On ch=1 n=53 v=52
324160 Off ch=1 n=41 v=0
324637 Off ch=1 n=65 v=0
324637 Off ch=1 n=77 v=0
324638 On ch=1 n=65 v=65
324638 On ch=1 n=41 v=53
324668 Off ch=1 n=53 v=0
325143 On ch=1 n=53 v=52
325173 Off ch=1 n=41 v=0
325653 On ch=1 n=41 v=55
325683 Off ch=1 n=53 v=0
326162 Off ch=1 n=65 v=0
326163 On ch=1 n=65 v=52
326163 On ch=1 n=53 v=52
326193 Off ch=1 n=41 v=0
326667 Off ch=1 n=65 v=0
326668 On ch=1 n=65 v=73
326668 On ch=1 n=77 v=87
326668 On ch=1 n=41 v=53
326698 Off ch=1 n=53 v=0
327173 On ch=1 n=53 v=52
327203 Off ch=1 n=41 v=0
327679 Off ch=1 n=65 v=0
327679 Off ch=1 n=77 v=0
327684 On ch=1 n=67 v=77
327684 On ch=1 n=79 v=91
327684 On ch=1 n=43 v=57
327710 Off ch=1 n=53 v=0
328226 On ch=1 n=55 v=52
328256 Off ch=1 n=43 v=0
328733 Off ch=1 n=67 v=0
328733 Off ch=1 n=79 v=0
328734 On ch=1 n=67 v=65
328734 On ch=1 n=43 v=53
328764 Off ch=1 n=55 v=0
329239 On ch=1 n=55 v=52
329269 Off ch=1 n=43 v=0
329749 On ch=1 n=43 v=55
329779 Off ch=1 n=55 v=0
330258 Off ch=1 n=67 v=0
330259 On ch=1 n=67 v=64
330259 On ch=1 n=55 v=52
330289 Off ch=1 n=43 v=0
330764 On ch=1 n=43 v=53
330794 Off ch=1 n=55 v=0
331269 On ch=1 n=55 v=52
331299 Off ch=1 n=43 v=0
331775 Off ch=1 n=67 v=0
331780 On ch=1 n=67 v=69
331780 On ch=1 n=43 v=57
331806 Off ch=1 n=55 v=0
332322 On ch=1 n=55 v=52
332352 Off ch=1 n=43 v=0
332830 On ch=1 n=43 v=53
332860 Off ch=1 n=55 v=0
333335 On ch=1 n=55 v=52
333365 Off ch=1 n=43 v=0
333844 Off ch=1 n=67 v=0
333845 On ch=1 n=67 v=75
333845 On ch=1 n=79 v=89
333845 On ch=1 n=43 v=55
333875 Off ch=1 n=55 v=0
334324 Off ch=1 n=67 v=0
334354 Off ch=1 n=79 v=0
334355 On ch=1 n=69 v=72
334355 On ch=1 n=81 v=86
334355 On ch=1 n=55 v=52
334385 Off ch=1 n=43 v=0
334829 Off ch=1 n=69 v=0
334859 Off ch=1 n=81 v=0
334860 On ch=1 n=43 v=53
334890 Off ch=1 n=55 v=0
335365 On ch=1 n=70 v=72
335365 On ch=1 n=82 v=86
335365 On ch=1 n=55 v=52
335395 Off ch=1 n=43 v=0
335841 Off ch=1 n=70 v=0
335871 Off ch=1 n=82 v=0
335876 On ch=1 n=63 v=77
335876 On ch=1 n=75 v=91
335876 On ch=1 n=39 v=56
335902 Off ch=1 n=55 v=0
336418 On ch=1 n=51 v=52
336448 Off ch=1 n=39 v=0
336925 Off ch=1 n=63 v=0
336925 Off ch=1 n=75 v=0
336926 On ch=1 n=63 v=65
336926 On ch=1 n=39 v=52
336956 Off ch=1 n=51 v=0
337431 On ch=1 n=51 v=52
337461 Off ch=1 n=39 v=0
337941 On ch=1 n=39 v=54
337971 Off ch=1 n=51 v=0
338450 Off ch=1 n=63 v=0
338451 On ch=1 n=63 v=64
338451 On ch=1 n=51 v=52
338481 Off ch=1 n=39 v=0
338956 On ch=1 n=39 v=52
338986 Off ch=1 n=51 v=0
339461 On ch=1 n=51 v=52
339491 Off ch=1 n=39 v=0
339967 Off ch=1 n=63 v=0
339972 On ch=1 n=65 v=77
339972 On ch=1 n=77 v=91
339972 On ch=1 n=41 v=57
339998 Off ch=1 n=51 v=0
340514 On ch=1 n=53 v=52
340544 Off ch=1 n=41 v=0
341021 Off ch=1 n=65 v=0
341021 Off ch=1 n=77 v=0
341022 On ch=1 n=65 v=65
341022 On ch=1 n=41 v=53
341052 Off ch=1 n=53 v=0
341527 On ch=1 n=53 v=52
341557 Off ch=1 n=41 v=0
342037 On ch=1 n=41 v=55
342067 Off ch=1 n=53 v=0
342546 Off ch=1 n=65 v=0
342547 On ch=1 n=65 v=52
342547 On ch=1 n=53 v=52
342577 Off ch=1 n=41 v=0
343051 Off ch=1 n=65 v=0
343052 On ch=1 n=65 v=73
343052 On ch=1 n=77 v=87
343052 On ch=1 n=41 v=53
343082 Off ch=1 n=53 v=0
343557 On ch=1 n=53 v=52
343587 Off ch=1 n=41 v=0
344063 Off ch=1 n=65 v=0
344063 Off ch=1 n=77 v=0
344068 On ch=1 n=72 v=61
344068 On ch=1 n=75 v=75
344068 On ch=1 n=39 v=56
344094 Off ch=1 n=53 v=0
344610 On ch=1 n=51 v=52
344640 Off ch=1 n=39 v=0
345117 Off ch=1 n=72 v=0
345117 Off ch=1 n=75 v=0
345118 On ch=1 n=70 v=57
345118 On ch=1 n=74 v=71
345118 On ch=1 n=39 v=52
345148 Off ch=1 n=51 v=0
345623 On ch=1 n=51 v=52
345653 Off ch=1 n=39 v=0
346132 Off ch=1 n=70 v=0
346132 Off ch=1 n=74 v=0
346133 On ch=1 n=69 v=59
346133 On ch=1 n=72 v=73
346133 On ch=1 n=39 v=54
346163 Off ch=1 n=51 v=0
346643 On ch=1 n=51 v=52
346673 Off ch=1 n=39 v=0
347147 Off ch=1 n=69 v=0
347147 Off ch=1 n=72 v=0
347148 On ch=1 n=67 v=57
347148 On ch=1 n=70 v=71
347148 On ch=1 n=39 v=52
347178 Off ch=1 n=51 v=0
347653 On ch=1 n=51 v=52
347683 Off ch=1 n=39 v=0
348159 Off ch=1 n=67 v=0
348159 Off ch=1 n=70 v=0
348164 On ch=1 n=65 v=61
348164 On ch=1 n=69 v=75
348164 On ch=1 n=39 v=56
348190 Off ch=1 n=51 v=0
348675 Off ch=1 n=65 v=0
348705 Off ch=1 n=69 v=0
348706 On ch=1 n=70 v=64
348706 On ch=1 n=51 v=52
348736 Off ch=1 n=39 v=0
348939 Off ch=1 n=70 v=0
348955 On ch=1 n=69 v=64
349198 Off ch=1 n=69 v=0
349214 On ch=1 n=67 v=65
349214 On ch=1 n=39 v=52
349244 Off ch=1 n=51 v=0
349688 Off ch=1 n=67 v=0
349719 On ch=1 n=65 v=56
349719 On ch=1 n=69 v=66
349719 On ch=1 n=51 v=52
349749 Off ch=1 n=39 v=0
350229 On ch=1 n=39 v=54
350259 Off ch=1 n=51 v=0
350738 Off ch=1 n=65 v=0
350738 Off ch=1 n=69 v=0
350739 On ch=1 n=62 v=56
350739 On ch=1 n=65 v=70
350739 On ch=1 n=51 v=52
350769 Off ch=1 n=39 v=0
351213 Off ch=1 n=62 v=0
351243 Off ch=1 n=65 v=0
351244 On ch=1 n=63 v=57
351244 On ch=1 n=67 v=71
351244 On ch=1 n=39 v=52
351274 Off ch=1 n=51 v=0
351718 Off ch=1 n=63 v=0
351748 Off ch=1 n=67 v=0
351749 On ch=1 n=65 v=56
351749 On ch=1 n=69 v=70
351749 On ch=1 n=51 v=52
351779 Off ch=1 n=39 v=0
352225 Off ch=1 n=65 v=0
352255 Off ch=1 n=69 v=0
352260 On ch=1 n=69 v=61
352260 On ch=1 n=72 v=75
352260 On ch=1 n=38 v=56
352286 Off ch=1 n=51 v=0
352802 On ch=1 n=50 v=52
352832 Off ch=1 n=38 v=0
353309 Off ch=1 n=69 v=0
353309 Off ch=1 n=72 v=0
353310 On ch=1 n=67 v=57
353310 On ch=1 n=70 v=71
353310 On ch=1 n=38 v=52
353340 Off ch=1 n=50 v=0
353784 Off ch=1 n=67 v=0
353814 Off ch=1 n=70 v=0
353815 On ch=1 n=65 v=56
353815 On ch=1 n=69 v=70
353815 On ch=1 n=50 v=52
353845 Off ch=1 n=38 v=0
354294 Off ch=1 n=65 v=0
354324 Off ch=1 n=69 v=0
354325 On ch=1 n=38 v=54
354355 Off ch=1 n=50 v=0
354835 On ch=1 n=65 v=56
354835 On ch=1 n=69 v=70
354835 On ch=1 n=50 v=52
354865 Off ch=1 n=38 v=0
355309 Off ch=1 n=65 v=0
355339 Off ch=1 n=69 v=0
355340 On ch=1 n=67 v=57
355340 On ch=1 n=70 v=71
355340 On ch=1 n=38 v=52
355370 Off ch=1 n=50 v=0
355814 Off ch=1 n=67 v=0
355844 Off ch=1 n=70 v=0
355845 On ch=1 n=69 v=56
355845 On ch=1 n=72 v=70
355845 On ch=1 n=50 v=52
355875 Off ch=1 n=38 v=0
356351 Off ch=1 n=69 v=0
356351 Off ch=1 n=72 v=0
356356 On ch=1 n=69 v=61
356356 On ch=1 n=72 v=75
356356 On ch=1 n=43 v=57
356382 Off ch=1 n=50 v=0
356898 On ch=1 n=55 v=52
356928 Off ch=1 n=43 v=0
357405 Off ch=1 n=69 v=0
357405 Off ch=1 n=72 v=0
357406 On ch=1 n=70 v=45
357406 On ch=1 n=74 v=59
357406 On ch=1 n=43 v=53
357436 Off ch=1 n=55 v=0
357910 Off ch=1 n=70 v=0
357910 Off ch=1 n=74 v=0
357911 On ch=1 n=70 v=44
357911 On ch=1 n=74 v=54
357911 On ch=1 n=55 v=52
357941 Off ch=1 n=43 v=0
358420 Off ch=1 n=74 v=0
358421 On ch=1 n=43 v=55
358451 Off ch=1 n=70 v=0
358451 Off ch=1 n=55 v=0
358931 On ch=1 n=55 v=52
358961 Off ch=1 n=43 v=0
359436 On ch=1 n=70 v=57
359436 On ch=1 n=74 v=71
359436 On ch=1 n=43 v=53
359466 Off ch=1 n=55 v=0
359941 On ch=1 n=55 v=52
359971 Off ch=1 n=43 v=0
360447 Off ch=1 n=70 v=0
360447 Off ch=1 n=74 v=0
360452 On ch=1 n=70 v=61
360452 On ch=1 n=75 v=75
360452 On ch=1 n=39 v=56
360478 Off ch=1 n=55 v=0
360994 On ch=1 n=51 v=52
361024 Off ch=1 n=39 v=0
361501 Off ch=1 n=70 v=0
361501 Off ch=1 n=75 v=0
361502 On ch=1 n=67 v=45
361502 On ch=1 n=70 v=59
361502 On ch=1 n=39 v=52
361532 Off ch=1 n=51 v=0
362006 Off ch=1 n=67 v=0
362006 Off ch=1 n=70 v=0
362007 On ch=1 n=67 v=44
362007 On ch=1 n=70 v=58
362007 On ch=1 n=51 v=52
362037 Off ch=1 n=39 v=0
362516 Off ch=1 n=70 v=0
362517 On ch=1 n=39 v=54
362547 Off ch=1 n=67 v=0
362547 Off ch=1 n=51 v=0
363027 On ch=1 n=51 v=52
363057 Off ch=1 n=39 v=0
363532 On ch=1 n=70 v=57
363532 On ch=1 n=75 v=71
363532 On ch=1 n=39 v=52
363562 Off ch=1 n=51 v=0
364037 On ch=1 n=51 v=52
364067 Off ch=1 n=39 v=0
364543 Off ch=1 n=70 v=0
364543 Off ch=1 n=75 v=0
364548 On ch=1 n=72 v=61
364548 On ch=1 n=77 v=75
364548 On ch=1 n=41 v=57
364574 Off ch=1 n=51 v=0
365090 On ch=1 n=53 v=52
365120 Off ch=1 n=41 v=0
365597 Off ch=1 n=72 v=0
365597 Off ch=1 n=77 v=0
365598 On ch=1 n=69 v=45
365598 On ch=1 n=72 v=59
365598 On ch=1 n=41 v=53
365628 Off ch=1 n=53 v=0
366102 Off ch=1 n=69 v=0
366102 Off ch=1 n=72 v=0
366103 On ch=1 n=69 v=44
366103 On ch=1 n=72 v=58
366103 On ch=1 n=53 v=52
366133 Off ch=1 n=41 v=0
366612 Off ch=1 n=72 v=0
366613 On ch=1 n=41 v=55
366643 Off ch=1 n=69 v=0
366643 Off ch=1 n=53 v=0
367123 On ch=1 n=53 v=52
367153 Off ch=1 n=41 v=0
367628 On ch=1 n=72 v=57
367628 On ch=1 n=77 v=71
367628 On ch=1 n=41 v=53
367658 Off ch=1 n=53 v=0
368133 On ch=1 n=53 v=52
368163 Off ch=1 n=41 v=0
368639 Off ch=1 n=72 v=0
368639 Off ch=1 n=77 v=0
368644 On ch=1 n=73 v=61
368644 On ch=1 n=78 v=75
368644 On ch=1 n=42 v=57
368670 Off ch=1 n=53 v=0
369186 On ch=1 n=54 v=52
369216 Off ch=1 n=42 v=0
369693 Off ch=1 n=73 v=0
369693 Off ch=1 n=78 v=0
369694 On ch=1 n=70 v=45
369694 On ch=1 n=73 v=59
369694 On ch=1 n=42 v=53
369724 Off ch=1 n=54 v=0
370198 Off ch=1 n=70 v=0
370198 Off ch=1 n=73 v=0
370199 On ch=1 n=70 v=44
370199 On ch=1 n=73 v=58
370199 On ch=1 n=54 v=52
370229 Off ch=1 n=42 v=0
370708 Off ch=1 n=73 v=0
370709 On ch=1 n=42 v=55
370739 Off ch=1 n=70 v=0
370739 Off ch=1 n=54 v=0
371219 On ch=1 n=54 v=52
371249 Off ch=1 n=42 v=0
371724 On ch=1 n=73 v=57
371724 On ch=1 n=78 v=71
371724 On ch=1 n=42 v=53
371754 Off ch=1 n=54 v=0
372229 On ch=1 n=54 v=52
372259 Off ch=1 n=42 v=0
372735 Off ch=1 n=73 v=0
372735 Off ch=1 n=78 v=0
372740 On ch=1 n=79 v=69
372740 On ch=1 n=43 v=56
372740 On ch=1 n=50 v=56
372740 On ch=1 n=55 v=66
372766 Off ch=1 n=54 v=0
373251 Off ch=1 n=79 v=0
373282 On ch=1 n=74 v=64
373759 Off ch=1 n=74 v=0
373790 On ch=1 n=72 v=65
374264 Off ch=1 n=72 v=0
374295 On ch=1 n=67 v=64
374774 Off ch=1 n=67 v=0
374805 On ch=1 n=62 v=67
375284 Off ch=1 n=62 v=0
375315 On ch=1 n=60 v=64
375789 Off ch=1 n=60 v=0
375820 On ch=1 n=55 v=65
376294 Off ch=1 n=55 v=0
376325 On ch=1 n=50 v=64
376801 Off ch=1 n=50 v=0
376831 Off ch=1 n=43 v=0
376831 Off ch=1 n=50 v=0
376831 Off ch=1 n=55 v=0
376836 On ch=1 n=67 v=69
376836 On ch=1 n=43 v=49
376836 On ch=1 n=50 v=49
376836 On ch=1 n=55 v=59
377377 Off ch=1 n=67 v=0
377377 Off ch=1 n=43 v=0
377377 Off ch=1 n=50 v=0
377377 Off ch=1 n=55 v=0
377378 On ch=1 n=67 v=64
377378 On ch=1 n=43 v=44
377378 On ch=1 n=50 v=44
377378 On ch=1 n=55 v=58
377855 Off ch=1 n=67 v=0
377885 Off ch=1 n=55 v=0
377886 On ch=1 n=65 v=57
377886 On ch=1 n=77 v=67
377886 On ch=1 n=41 v=57
377886 On ch=1 n=53 v=71
377916 Off ch=1 n=43 v=0
377916 Off ch=1 n=50 v=0
378900 Off ch=1 n=65 v=0
378900 Off ch=1 n=77 v=0
378900 Off ch=1 n=41 v=0
378900 Off ch=1 n=53 v=0
378901 On ch=1 n=65 v=59
378901 On ch=1 n=77 v=69
378901 On ch=1 n=41 v=59
378901 On ch=1 n=53 v=73
379915 Off ch=1 n=65 v=0
379915 Off ch=1 n=77 v=0
379915 Off ch=1 n=41 v=0
379915 Off ch=1 n=53 v=0
379916 On ch=1 n=67 v=53
379916 On ch=1 n=43 v=45
379916 On ch=1 n=50 v=45
379916 On ch=1 n=55 v=59
380420 Off ch=1 n=67 v=0
380420 Off ch=1 n=43 v=0
380420 Off ch=1 n=50 v=0
380420 Off ch=1 n=55 v=0
380421 On ch=1 n=67 v=52
380421 On ch=1 n=43 v=44
380421 On ch=1 n=50 v=44
380421 On ch=1 n=55 v=58
380927 Off ch=1 n=55 v=0
380932 On ch=1 n=65 v=61
380932 On ch=1 n=77 v=75
380932 On ch=1 n=41 v=61
380932 On ch=1 n=53 v=75
380958 Off ch=1 n=67 v=0
380958 Off ch=1 n=43 v=0
380958 Off ch=1 n=50 v=0
381981 Off ch=1 n=65 v=0
381981 Off ch=1 n=77 v=0
381981 Off ch=1 n=41 v=0
381981 Off ch=1 n=53 v=0
381982 On ch=1 n=67 v=53
381982 On ch=1 n=43 v=45
381982 On ch=1 n=50 v=45
381982 On ch=1 n=55 v=59
382486 Off ch=1 n=67 v=0
382486 Off ch=1 n=43 v=0
382486 Off ch=1 n=50 v=0
382486 Off ch=1 n=55 v=0
382487 On ch=1 n=67 v=52
382487 On ch=1 n=43 v=44
382487 On ch=1 n=50 v=44
382487 On ch=1 n=55 v=58
382996 Off ch=1 n=55 v=0
382997 On ch=1 n=65 v=59
382997 On ch=1 n=77 v=69
382997 On ch=1 n=41 v=59
382997 On ch=1 n=53 v=73
383027 Off ch=1 n=67 v=0
383027 Off ch=1 n=43 v=0
383027 Off ch=1 n=50 v=0
384011 Off ch=1 n=65 v=0
384011 Off ch=1 n=77 v=0
384011 Off ch=1 n=41 v=0
384011 Off ch=1 n=53 v=0
384012 On ch=1 n=65 v=57
384012 On ch=1 n=77 v=67
384012 On ch=1 n=41 v=57
384012 On ch=1 n=53 v=71
385023 Off ch=1 n=65 v=0
385023 Off ch=1 n=77 v=0
385023 Off ch=1 n=41 v=0
385023 Off ch=1 n=53 v=0
385024 On ch=1 n=67 v=57
385024 On ch=1 n=43 v=49
385024 On ch=1 n=50 v=49
385024 On ch=1 n=55 v=63
385562 Off ch=1 n=67 v=0
385562 Off ch=1 n=43 v=0
385562 Off ch=1 n=50 v=0
385562 Off ch=1 n=55 v=0
385563 On ch=1 n=67 v=52
385563 On ch=1 n=43 v=44
385563 On ch=1 n=50 v=44
385563 On ch=1 n=55 v=58
386070 Off ch=1 n=55 v=0
386071 On ch=1 n=65 v=59
386071 On ch=1 n=77 v=73
386071 On ch=1 n=41 v=59
386071 On ch=1 n=53 v=73
386101 Off ch=1 n=67 v=0
386101 Off ch=1 n=43 v=0
386101 Off ch=1 n=50 v=0
387071 Off ch=1 n=65 v=0
387071 Off ch=1 n=77 v=0
387071 Off ch=1 n=41 v=0
387071 Off ch=1 n=53 v=0
387076 On ch=1 n=67 v=57
387076 On ch=1 n=43 v=56
387076 On ch=1 n=50 v=56
387076 On ch=1 n=55 v=70
387618 On ch=1 n=74 v=52
387648 Off ch=1 n=67 v=0
388126 On ch=1 n=79 v=53
388156 Off ch=1 n=74 v=0
388631 On ch=1 n=67 v=52
388661 Off ch=1 n=79 v=0
389141 On ch=1 n=79 v=55
389171 Off ch=1 n=67 v=0
389651 On ch=1 n=67 v=52
389681 Off ch=1 n=79 v=0
390156 On ch=1 n=74 v=53
390186 Off ch=1 n=67 v=0
390661 On ch=1 n=79 v=52
390691 Off ch=1 n=74 v=0
391172 On ch=1 n=67 v=57
391198 Off ch=1 n=79 v=0
391714 On ch=1 n=74 v=52
391744 Off ch=1 n=67 v=0
392222 On ch=1 n=79 v=53
392252 Off ch=1 n=74 v=0
392727 On ch=1 n=70 v=52
392757 Off ch=1 n=79 v=0
393237 On ch=1 n=69 v=55
393267 Off ch=1 n=70 v=0
393747 On ch=1 n=65 v=52
393777 Off ch=1 n=69 v=0
394252 On ch=1 n=62 v=53
394282 Off ch=1 n=65 v=0
394757 On ch=1 n=65 v=52
394787 Off ch=1 n=62 v=0
395263 Off ch=1 n=43 v=0
395263 Off ch=1 n=50 v=0
395263 Off ch=1 n=55 v=0
395268 On ch=1 n=67 v=77
395268 On ch=1 n=79 v=91
395268 On ch=1 n=43 v=49
395268 On ch=1 n=50 v=63
395294 Off ch=1 n=65 v=0
395809 Off ch=1 n=43 v=0
395809 Off ch=1 n=50 v=0
395810 On ch=1 n=43 v=44
395810 On ch=1 n=50 v=58
396317 Off ch=1 n=67 v=0
396317 Off ch=1 n=79 v=0
396317 Off ch=1 n=50 v=0
396318 On ch=1 n=50 v=57
396318 On ch=1 n=55 v=71
396348 Off ch=1 n=43 v=0
397842 Off ch=1 n=50 v=0
397842 Off ch=1 n=55 v=0
397843 On ch=1 n=50 v=56
397843 On ch=1 n=55 v=66
399359 Off ch=1 n=50 v=0
399359 Off ch=1 n=55 v=0
399364 On ch=1 n=50 v=61
399364 On ch=1 n=55 v=71
400918 Off ch=1 n=50 v=0
400918 Off ch=1 n=55 v=0
400919 On ch=1 n=50 v=56
400919 On ch=1 n=55 v=70
401938 Off ch=1 n=50 v=0
401938 Off ch=1 n=55 v=0
401939 On ch=1 n=43 v=56
401939 On ch=1 n=50 v=70
402413 Off ch=1 n=43 v=0
402443 Off ch=1 n=50 v=0
402444 On ch=1 n=50 v=57
402444 On ch=1 n=55 v=71
402948 Off ch=1 n=50 v=0
402948 Off ch=1 n=55 v=0
402949 On ch=1 n=50 v=56
402949 On ch=1 n=55 v=70
403455 Off ch=1 n=50 v=0
403455 Off ch=1 n=55 v=0
403460 On ch=1 n=43 v=61
403460 On ch=1 n=50 v=75
404001 Off ch=1 n=43 v=0
404001 Off ch=1 n=50 v=0
404002 On ch=1 n=43 v=56
404002 On ch=1 n=50 v=70
404479 Off ch=1 n=43 v=0
404509 Off ch=1 n=50 v=0
404510 On ch=1 n=50 v=57
404510 On ch=1 n=55 v=71
405524 Off ch=1 n=50 v=0
405524 Off ch=1 n=55 v=0
405525 On ch=1 n=43 v=59
405525 On ch=1 n=50 v=73
406004 Off ch=1 n=43 v=0
406034 Off ch=1 n=50 v=0
406035 On ch=1 n=50 v=56
406035 On ch=1 n=55 v=70
407044 Off ch=1 n=50 v=0
407044 Off ch=1 n=55 v=0
407045 On ch=1 n=50 v=56
407045 On ch=1 n=55 v=66
407551 Off ch=1 n=50 v=0
407551 Off ch=1 n=55 v=0
407556 On ch=1 n=74 v=77
407556 On ch=1 n=86 v=91
407556 On ch=1 n=43 v=56
407556 On ch=1 n=50 v=56
407556 On ch=1 n=55 v=70
409110 Off ch=1 n=74 v=0
409110 Off ch=1 n=86 v=0
409111 On ch=1 n=73 v=60
409111 On ch=1 n=85 v=74
410130 Off ch=1 n=85 v=0
410131 On ch=1 n=72 v=72
410131 On ch=1 n=84 v=86
410161 Off ch=1 n=73 v=0
411140 Off ch=1 n=72 v=0
411140 Off ch=1 n=84 v=0
411141 On ch=1 n=69 v=72
411141 On ch=1 n=81 v=86
411617 Off ch=1 n=69 v=0
411617 Off ch=1 n=81 v=0
411647 Off ch=1 n=43 v=0
411647 Off ch=1 n=50 v=0
411647 Off ch=1 n=55 v=0
411652 On ch=1 n=45 v=49
411652 On ch=1 n=52 v=63
412193 Off ch=1 n=45 v=0
412193 Off ch=1 n=52 v=0
412194 On ch=1 n=45 v=44
412194 On ch=1 n=52 v=58
412701 Off ch=1 n=52 v=0
412702 On ch=1 n=52 v=57
412702 On ch=1 n=57 v=71
412732 Off ch=1 n=45 v=0
414226 Off ch=1 n=52 v=0
414226 Off ch=1 n=57 v=0
414227 On ch=1 n=52 v=56
414227 On ch=1 n=57 v=66
415743 Off ch=1 n=52 v=0
415743 Off ch=1 n=57 v=0
415748 On ch=1 n=52 v=61
415748 On ch=1 n=57 v=71
417302 Off ch=1 n=52 v=0
417302 Off ch=1 n=57 v=0
417303 On ch=1 n=52 v=56
417303 On ch=1 n=57 v=66
418322 Off ch=1 n=52 v=0
418322 Off ch=1 n=57 v=0
418323 On ch=1 n=45 v=56
418323 On ch=1 n=52 v=70
418797 Off ch=1 n=45 v=0
418827 Off ch=1 n=52 v=0
418828 On ch=1 n=52 v=57
418828 On ch=1 n=57 v=71
419332 Off ch=1 n=52 v=0
419332 Off ch=1 n=57 v=0
419333 On ch=1 n=52 v=56
419333 On ch=1 n=57 v=70
419839 Off ch=1 n=52 v=0
419839 Off ch=1 n=57 v=0
419844 On ch=1 n=45 v=61
419844 On ch=1 n=52 v=75
420385 Off ch=1 n=45 v=0
420385 Off ch=1 n=52 v=0
420386 On ch=1 n=45 v=56
420386 On ch=1 n=52 v=70
420863 Off ch=1 n=45 v=0
420893 Off ch=1 n=52 v=0
420894 On ch=1 n=52 v=57
420894 On ch=1 n=57 v=71
422418 Off ch=1 n=52 v=0
422418 Off ch=1 n=57 v=0
422419 On ch=1 n=52 v=56
422419 On ch=1 n=57 v=66
423935 Off ch=1 n=52 v=0
423935 Off ch=1 n=57 v=0
423940 On ch=1 n=69 v=65
423940 On ch=1 n=81 v=75
423940 On ch=1 n=45 v=56
423940 On ch=1 n=52 v=56
423940 On ch=1 n=57 v=70
424232 Off ch=1 n=69 v=0
424232 Off ch=1 n=81 v=0
424233 On ch=1 n=69 v=60
424233 On ch=1 n=81 v=70
424481 Off ch=1 n=69 v=0
424481 Off ch=1 n=81 v=0
424482 On ch=1 n=69 v=72
424482 On ch=1 n=81 v=86
424959 Off ch=1 n=69 v=0
424989 Off ch=1 n=81 v=0
425495 On ch=1 n=64 v=72
425495 On ch=1 n=76 v=86
426484 Off ch=1 n=64 v=0
426514 Off ch=1 n=76 v=0
426515 On ch=1 n=65 v=72
426515 On ch=1 n=77 v=86
427524 Off ch=1 n=65 v=0
427524 Off ch=1 n=77 v=0
427525 On ch=1 n=66 v=72
427525 On ch=1 n=78 v=86
428001 Off ch=1 n=66 v=0
428031 Off ch=1 n=78 v=0
428031 Off ch=1 n=45 v=0
428031 Off ch=1 n=52 v=0
428031 Off ch=1 n=57 v=0
428036 On ch=1 n=67 v=77
428036 On ch=1 n=79 v=91
428036 On ch=1 n=43 v=49
428036 On ch=1 n=50 v=63
428577 Off ch=1 n=43 v=0
428577 Off ch=1 n=50 v=0
428578 On ch=1 n=43 v=44
428578 On ch=1 n=50 v=58
429085 Off ch=1 n=67 v=0
429085 Off ch=1 n=79 v=0
429085 Off ch=1 n=50 v=0
429086 On ch=1 n=50 v=57
429086 On ch=1 n=55 v=71
429116 Off ch=1 n=43 v=0
430610 Off ch=1 n=50 v=0
430610 Off ch=1 n=55 v=0
430611 On ch=1 n=50 v=56
430611 On ch=1 n=55 v=66
432127 Off ch=1 n=50 v=0
432127 Off ch=1 n=55 v=0
432132 On ch=1 n=50 v=61
432132 On ch=1 n=55 v=71
433686 Off ch=1 n=50 v=0
433686 Off ch=1 n=55 v=0
433687 On ch=1 n=50 v=56
433687 On ch=1 n=55 v=70
434706 Off ch=1 n=50 v=0
434706 Off ch=1 n=55 v=0
434707 On ch=1 n=43 v=56
434707 On ch=1 n=50 v=70
435181 Off ch=1 n=43 v=0
435211 Off ch=1 n=50 v=0
435212 On ch=1 n=50 v=57
435212 On ch=1 n=55 v=71
435716 Off ch=1 n=50 v=0
435716 Off ch=1 n=55 v=0
435717 On ch=1 n=50 v=56
435717 On ch=1 n=55 v=70
436223 Off ch=1 n=50 v=0
436223 Off ch=1 n=55 v=0
436228 On ch=1 n=43 v=61
436228 On ch=1 n=50 v=75
436769 Off ch=1 n=43 v=0
436769 Off ch=1 n=50 v=0
436770 On ch=1 n=43 v=56
436770 On ch=1 n=50 v=70
437247 Off ch=1 n=43 v=0
437277 Off ch=1 n=50 v=0
437278 On ch=1 n=50 v=57
437278 On ch=1 n=55 v=71
438292 Off ch=1 n=50 v=0
438292 Off ch=1 n=55 v=0
438293 On ch=1 n=43 v=59
438293 On ch=1 n=50 v=73
438772 Off ch=1 n=43 v=0
438802 Off ch=1 n=50 v=0
438803 On ch=1 n=50 v=56
438803 On ch=1 n=55 v=70
439812 Off ch=1 n=50 v=0
439812 Off ch=1 n=55 v=0
439813 On ch=1 n=50 v=56
439813 On ch=1 n=55 v=66
440319 Off ch=1 n=50 v=0
440319 Off ch=1 n=55 v=0
440324 On ch=1 n=74 v=77
440324 On ch=1 n=86 v=91
440324 On ch=1 n=43 v=56
440324 On ch=1 n=50 v=56
440324 On ch=1 n=55 v=70
441878 Off ch=1 n=74 v=0
441878 Off ch=1 n=86 v=0
441879 On ch=1 n=73 v=60
441879 On ch=1 n=85 v=74
442898 Off ch=1 n=85 v=0
442899 On ch=1 n=72 v=72
442899 On ch=1 n=84 v=86
442929 Off ch=1 n=73 v=0
443908 Off ch=1 n=72 v=0
443908 Off ch=1 n=84 v=0
443909 On ch=1 n=69 v=72
443909 On ch=1 n=81 v=86
444385 Off ch=1 n=69 v=0
444385 Off ch=1 n=81 v=0
444415 Off ch=1 n=43 v=0
444415 Off ch=1 n=50 v=0
444415 Off ch=1 n=55 v=0
444420 On ch=1 n=45 v=49
444420 On ch=1 n=52 v=63
444961 Off ch=1 n=45 v=0
444961 Off ch=1 n=52 v=0
444962 On ch=1 n=45 v=44
444962 On ch=1 n=52 v=58
445469 Off ch=1 n=52 v=0
445470 On ch=1 n=52 v=57
445470 On ch=1 n=57 v=71
445500 Off ch=1 n=45 v=0
446994 Off ch=1 n=52 v=0
446994 Off ch=1 n=57 v=0
446995 On ch=1 n=52 v=56
446995 On ch=1 n=57 v=66
448511 Off ch=1 n=52 v=0
448511 Off ch=1 n=57 v=0
448516 On ch=1 n=52 v=61
448516 On ch=1 n=57 v=71
450070 Off ch=1 n=52 v=0
450070 Off ch=1 n=57 v=0
450071 On ch=1 n=52 v=56
450071 On ch=1 n=57 v=66
451090 Off ch=1 n=52 v=0
451090 Off ch=1 n=57 v=0
451091 On ch=1 n=45 v=56
451091 On ch=1 n=52 v=70
451565 Off ch=1 n=45 v=0
451595 Off ch=1 n=52 v=0
451596 On ch=1 n=52 v=57
451596 On ch=1 n=57 v=71
452100 Off ch=1 n=52 v=0
452100 Off ch=1 n=57 v=0
452101 On ch=1 n=52 v=56
452101 On ch=1 n=57 v=70
452607 Off ch=1 n=52 v=0
452607 Off ch=1 n=57 v=0
452612 On ch=1 n=45 v=61
452612 On ch=1 n=52 v=75
453153 Off ch=1 n=45 v=0
453153 Off ch=1 n=52 v=0
453154 On ch=1 n=45 v=56
453154 On ch=1 n=52 v=70
453631 Off ch=1 n=45 v=0
453661 Off ch=1 n=52 v=0
453662 On ch=1 n=52 v=57
453662 On ch=1 n=57 v=71
455186 Off ch=1 n=52 v=0
455186 Off ch=1 n=57 v=0
455187 On ch=1 n=52 v=56
455187 On ch=1 n=57 v=66
456703 Off ch=1 n=52 v=0
456703 Off ch=1 n=57 v=0
456708 On ch=1 n=69 v=65
456708 On ch=1 n=81 v=75
456708 On ch=1 n=45 v=56
456708 On ch=1 n=52 v=56
456708 On ch=1 n=57 v=70
457000 Off ch=1 n=69 v=0
457000 Off ch=1 n=81 v=0
457001 On ch=1 n=69 v=60
457001 On ch=1 n=81 v=70
457249 Off ch=1 n=69 v=0
457249 Off ch=1 n=81 v=0
457250 On ch=1 n=69 v=72
457250 On ch=1 n=81 v=86
457727 Off ch=1 n=69 v=0
457757 Off ch=1 n=81 v=0
458263 On ch=1 n=64 v=72
458263 On ch=1 n=76 v=86
459252 Off ch=1 n=64 v=0
459282 Off ch=1 n=76 v=0
459283 On ch=1 n=65 v=72
459283 On ch=1 n=77 v=86
460292 Off ch=1 n=65 v=0
460292 Off ch=1 n=77 v=0
460293 On ch=1 n=66 v=60
460293 On ch=1 n=78 v=74
460799 Off ch=1 n=78 v=0
460799 Off ch=1 n=45 v=0
460799 Off ch=1 n=52 v=0
460799 Off ch=1 n=57 v=0
460804 On ch=1 n=67 v=65
460804 On ch=1 n=79 v=79
460804 On ch=1 n=43 v=56
460804 On ch=1 n=50 v=56
460804 On ch=1 n=55 v=70
460830 Off ch=1 n=66 v=0
461345 Off ch=1 n=79 v=0
461346 On ch=1 n=74 v=52
461376 Off ch=1 n=67 v=0
461854 On ch=1 n=79 v=53
461884 Off ch=1 n=74 v=0
462359 On ch=1 n=67 v=52
462389 Off ch=1 n=79 v=0
462869 On ch=1 n=79 v=55
462899 Off ch=1 n=67 v=0
463379 On ch=1 n=67 v=52
463409 Off ch=1 n=79 v=0
463884 On ch=1 n=74 v=53
463914 Off ch=1 n=67 v=0
464389 On ch=1 n=79 v=52
464419 Off ch=1 n=74 v=0
464900 On ch=1 n=67 v=57
464926 Off ch=1 n=79 v=0
465442 On ch=1 n=74 v=52
465472 Off ch=1 n=67 v=0
465950 On ch=1 n=79 v=53
465980 Off ch=1 n=74 v=0
466455 On ch=1 n=70 v=52
466485 Off ch=1 n=79 v=0
466965 On ch=1 n=69 v=55
466995 Off ch=1 n=70 v=0
467475 On ch=1 n=65 v=52
467505 Off ch=1 n=69 v=0
467980 On ch=1 n=62 v=53
468010 Off ch=1 n=65 v=0
468485 On ch=1 n=65 v=52
468515 Off ch=1 n=62 v=0
468991 Off ch=1 n=43 v=0
468991 Off ch=1 n=50 v=0
468991 Off ch=1 n=55 v=0
469022 Off ch=1 n=65 v=0
469022 Meta TrkEnd
TrkEnd
