MFile 1 2 192
MTrk
0 SeqSpec 05 0f 1c 32 30 31 38 2e 30 31 2e 30 31 01 03
0 SeqSpec 05 0f 2d 4d 69 63 72 6f 73 6f 66 74 20 53 61 6e 73 20 53 65 72 69 66 2c 38 2e 32 35 2c 46 61 6c 73 65 2c 46 61 6c 73 65 2c 31 2c 30
0 SeqSpec 05 0f 12 03 03 7f 7f 00 ff 01 04 34 41 6c 74 6f 2d 66 61 6c 61 6e 74 65 73 20 28 44 69 73 70 6f 73 69 74 69 76 6f 20 64 65 20 48 69 67 68 20 44 65 66 69 6e 69 74 69 6f 6e 20 41 75 64 69 6f 29
0 Meta TrkName "He's A Pirate"
0 Meta Text "By Written by Klaus Badelt"
0 Meta Copyright "Arrangement © 2004 Cerullean Pictures "
0 Meta Copyright "Original Score © Walt Disney Pictures"
0 Meta Text "Generated by NoteWorthy Composer"
0 Tempo 300000
0 KeySig 255 major
0 TimeSig 6/8 24 8
0 Meta TrkEnd
TrkEnd
MTrk
0 SeqSpec 05 0f 09 4c 48
0 SeqSpec 05 0f 06 47 65 6e 65 72 61 6c 20 4d 49 44 49 20 2d 20 4d 69 63 72 6f 73 6f 66 74 20 47 53 20 57 61 76 65 74 61 62 6c 65 20 53 79 6e 74 68
0 Par ch=1 c=10 v=64
0 Par ch=1 c=7 v=127
0 Par ch=1 c=10 v=64
0 Par ch=1 c=7 v=127
0 Meta TrkName "Piano"
0 TimeSig 6/8 24 8
0 Meta 0x21 00
0 Par ch=1 c=64 v=0
0 PrCh ch=1 p=0
0 Par ch=1 c=7 v=127
0 Par ch=1 c=10 v=64
0 PrCh ch=1 p=0
0 Par ch=1 c=7 v=127
0 Par ch=1 c=10 v=64
0 Par ch=1 c=64 v=127
0 On ch=1 n=62 v=110
160 On ch=1 n=62 v=0
192 On ch=1 n=62 v=110
286 On ch=1 n=62 v=0
288 On ch=1 n=62 v=110
448 On ch=1 n=62 v=0
480 On ch=1 n=62 v=110
574 On ch=1 n=62 v=0
576 On ch=1 n=62 v=110
736 On ch=1 n=62 v=0
768 On ch=1 n=62 v=110
862 On ch=1 n=62 v=0
864 On ch=1 n=62 v=110
958 On ch=1 n=62 v=0
960 On ch=1 n=62 v=110
1054 On ch=1 n=62 v=0
1056 On ch=1 n=62 v=110
1150 On ch=1 n=62 v=0
1152 On ch=1 n=62 v=110
1312 On ch=1 n=62 v=0
1344 On ch=1 n=62 v=110
1438 On ch=1 n=62 v=0
1440 On ch=1 n=62 v=110
1600 On ch=1 n=62 v=0
1632 On ch=1 n=62 v=110
1726 On ch=1 n=62 v=0
1728 On ch=1 n=62 v=110
1888 On ch=1 n=62 v=0
1920 On ch=1 n=62 v=110
2014 On ch=1 n=62 v=0
2016 On ch=1 n=62 v=110
2110 On ch=1 n=62 v=0
2112 On ch=1 n=62 v=110
2206 On ch=1 n=62 v=0
2208 On ch=1 n=62 v=110
2302 On ch=1 n=62 v=0
2304 Par ch=1 c=64 v=127
2304 Par ch=1 c=64 v=0
2304 On ch=1 n=62 v=110
2304 On ch=1 n=26 v=110
2304 On ch=1 n=38 v=110
2464 On ch=1 n=62 v=0
2496 On ch=1 n=62 v=110
2590 On ch=1 n=62 v=0
2592 On ch=1 n=62 v=110
2752 On ch=1 n=62 v=0
2784 On ch=1 n=62 v=110
2832 Off ch=1 n=38 v=0
2832 Off ch=1 n=26 v=0
2878 On ch=1 n=62 v=0
2880 On ch=1 n=62 v=110
2880 On ch=1 n=26 v=110
2880 On ch=1 n=38 v=110
3040 On ch=1 n=62 v=0
3072 On ch=1 n=62 v=110
3136 Off ch=1 n=38 v=0
3136 Off ch=1 n=26 v=0
3166 On ch=1 n=62 v=0
3168 On ch=1 n=62 v=110
3168 On ch=1 n=26 v=110
3168 On ch=1 n=38 v=110
3262 On ch=1 n=62 v=0
3264 On ch=1 n=57 v=110
3358 On ch=1 n=57 v=0
3360 On ch=1 n=60 v=110
3424 Off ch=1 n=38 v=0
3424 Off ch=1 n=26 v=0
3454 On ch=1 n=60 v=0
3456 Par ch=1 c=64 v=127
3456 Par ch=1 c=64 v=0
3456 Par ch=1 c=64 v=0
3456 Par ch=1 c=64 v=127
3456 On ch=1 n=53 v=110
3456 On ch=1 n=57 v=110
3456 On ch=1 n=62 v=110
3456 On ch=1 n=38 v=110
3456 On ch=1 n=50 v=110
3616 Off ch=1 n=50 v=0
3616 Off ch=1 n=38 v=0
3616 On ch=1 n=53 v=0
3616 On ch=1 n=57 v=0
3616 On ch=1 n=62 v=0
3648 On ch=1 n=53 v=110
3648 On ch=1 n=57 v=110
3648 On ch=1 n=62 v=110
3648 On ch=1 n=38 v=110
3648 On ch=1 n=50 v=110
3742 Off ch=1 n=50 v=0
3742 Off ch=1 n=38 v=0
3744 On ch=1 n=38 v=110
3744 On ch=1 n=50 v=110
3808 On ch=1 n=53 v=0
3808 On ch=1 n=57 v=0
3808 On ch=1 n=62 v=0
3840 On ch=1 n=53 v=110
3840 On ch=1 n=57 v=110
3840 On ch=1 n=62 v=110
3904 Off ch=1 n=50 v=0
3904 Off ch=1 n=38 v=0
3934 On ch=1 n=53 v=0
3934 On ch=1 n=57 v=0
3934 On ch=1 n=62 v=0
3936 On ch=1 n=57 v=110
3936 On ch=1 n=60 v=110
3936 On ch=1 n=64 v=110
3936 On ch=1 n=36 v=110
3936 On ch=1 n=48 v=110
4030 Off ch=1 n=48 v=0
4030 Off ch=1 n=36 v=0
4030 On ch=1 n=57 v=0
4030 On ch=1 n=60 v=0
4030 On ch=1 n=64 v=0
4032 Par ch=1 c=64 v=127
4032 Par ch=1 c=64 v=0
4032 Par ch=1 c=64 v=0
4032 Par ch=1 c=64 v=127
4032 On ch=1 n=58 v=110
4032 On ch=1 n=62 v=110
4032 On ch=1 n=65 v=110
4032 On ch=1 n=34 v=110
4032 On ch=1 n=46 v=110
4192 Off ch=1 n=46 v=0
4192 Off ch=1 n=34 v=0
4192 On ch=1 n=58 v=0
4192 On ch=1 n=62 v=0
4192 On ch=1 n=65 v=0
4224 On ch=1 n=58 v=110
4224 On ch=1 n=62 v=110
4224 On ch=1 n=65 v=110
4224 On ch=1 n=34 v=110
4224 On ch=1 n=46 v=110
4318 Off ch=1 n=46 v=0
4318 Off ch=1 n=34 v=0
4320 On ch=1 n=34 v=110
4320 On ch=1 n=46 v=110
4384 On ch=1 n=58 v=0
4384 On ch=1 n=62 v=0
4384 On ch=1 n=65 v=0
4416 On ch=1 n=58 v=110
4416 On ch=1 n=62 v=110
4416 On ch=1 n=65 v=110
4480 Off ch=1 n=46 v=0
4480 Off ch=1 n=34 v=0
4510 On ch=1 n=58 v=0
4510 On ch=1 n=62 v=0
4510 On ch=1 n=65 v=0
4512 On ch=1 n=62 v=110
4512 On ch=1 n=67 v=110
4512 On ch=1 n=34 v=110
4512 On ch=1 n=46 v=110
4606 Off ch=1 n=46 v=0
4606 Off ch=1 n=34 v=0
4606 On ch=1 n=62 v=0
4606 On ch=1 n=67 v=0
4608 Par ch=1 c=64 v=127
4608 Par ch=1 c=64 v=0
4608 Par ch=1 c=64 v=0
4608 Par ch=1 c=64 v=127
4608 On ch=1 n=57 v=110
4608 On ch=1 n=60 v=110
4608 On ch=1 n=64 v=110
4608 On ch=1 n=33 v=110
4608 On ch=1 n=45 v=110
4768 Off ch=1 n=45 v=0
4768 Off ch=1 n=33 v=0
4768 On ch=1 n=57 v=0
4768 On ch=1 n=60 v=0
4768 On ch=1 n=64 v=0
4800 On ch=1 n=57 v=110
4800 On ch=1 n=60 v=110
4800 On ch=1 n=64 v=110
4800 On ch=1 n=33 v=110
4800 On ch=1 n=45 v=110
4894 Off ch=1 n=45 v=0
4894 Off ch=1 n=33 v=0
4896 On ch=1 n=33 v=110
4896 On ch=1 n=45 v=110
4960 On ch=1 n=57 v=0
4960 On ch=1 n=60 v=0
4960 On ch=1 n=64 v=0
4992 On ch=1 n=57 v=110
4992 On ch=1 n=62 v=110
5056 Off ch=1 n=45 v=0
5056 Off ch=1 n=33 v=0
5086 On ch=1 n=57 v=0
5086 On ch=1 n=62 v=0
5088 On ch=1 n=55 v=110
5088 On ch=1 n=60 v=110
5088 On ch=1 n=33 v=110
5088 On ch=1 n=45 v=110
5182 Off ch=1 n=45 v=0
5182 Off ch=1 n=33 v=0
5182 On ch=1 n=55 v=0
5182 On ch=1 n=60 v=0
5184 Par ch=1 c=64 v=127
5184 Par ch=1 c=64 v=0
5184 Par ch=1 c=64 v=0
5184 Par ch=1 c=64 v=127
5184 On ch=1 n=57 v=110
5184 On ch=1 n=60 v=110
5184 On ch=1 n=38 v=110
5184 On ch=1 n=50 v=110
5278 On ch=1 n=57 v=0
5278 On ch=1 n=60 v=0
5280 On ch=1 n=57 v=110
5280 On ch=1 n=62 v=110
5344 Off ch=1 n=50 v=0
5344 Off ch=1 n=38 v=0
5376 On ch=1 n=38 v=110
5376 On ch=1 n=50 v=110
5440 On ch=1 n=57 v=0
5440 On ch=1 n=62 v=0
5470 Off ch=1 n=50 v=0
5470 Off ch=1 n=38 v=0
5472 On ch=1 n=38 v=110
5472 On ch=1 n=50 v=110
5568 On ch=1 n=57 v=110
5632 Off ch=1 n=50 v=0
5632 Off ch=1 n=38 v=0
5662 On ch=1 n=57 v=0
5664 On ch=1 n=60 v=110
5664 On ch=1 n=38 v=110
5664 On ch=1 n=50 v=110
5758 Off ch=1 n=50 v=0
5758 Off ch=1 n=38 v=0
5758 On ch=1 n=60 v=0
5760 Par ch=1 c=64 v=127
5760 Par ch=1 c=64 v=0
5760 Par ch=1 c=64 v=0
5760 Par ch=1 c=64 v=127
5760 On ch=1 n=53 v=110
5760 On ch=1 n=58 v=110
5760 On ch=1 n=62 v=110
5760 On ch=1 n=34 v=110
5760 On ch=1 n=46 v=110
5920 Off ch=1 n=46 v=0
5920 Off ch=1 n=34 v=0
5920 On ch=1 n=53 v=0
5920 On ch=1 n=58 v=0
5920 On ch=1 n=62 v=0
5952 On ch=1 n=53 v=110
5952 On ch=1 n=58 v=110
5952 On ch=1 n=62 v=110
5952 On ch=1 n=34 v=110
5952 On ch=1 n=46 v=110
6046 Off ch=1 n=46 v=0
6046 Off ch=1 n=34 v=0
6048 On ch=1 n=34 v=110
6048 On ch=1 n=46 v=110
6112 On ch=1 n=53 v=0
6112 On ch=1 n=58 v=0
6112 On ch=1 n=62 v=0
6144 On ch=1 n=58 v=110
6144 On ch=1 n=62 v=110
6208 Off ch=1 n=46 v=0
6208 Off ch=1 n=34 v=0
6238 On ch=1 n=58 v=0
6238 On ch=1 n=62 v=0
6240 On ch=1 n=58 v=110
6240 On ch=1 n=64 v=110
6240 On ch=1 n=34 v=110
6240 On ch=1 n=46 v=110
6334 Off ch=1 n=46 v=0
6334 Off ch=1 n=34 v=0
6334 On ch=1 n=58 v=0
6334 On ch=1 n=64 v=0
6336 Par ch=1 c=64 v=127
6336 Par ch=1 c=64 v=0
6336 Par ch=1 c=64 v=0
6336 Par ch=1 c=64 v=127
6336 On ch=1 n=57 v=110
6336 On ch=1 n=60 v=110
6336 On ch=1 n=65 v=110
6336 On ch=1 n=29 v=110
6336 On ch=1 n=41 v=110
6496 Off ch=1 n=41 v=0
6496 Off ch=1 n=29 v=0
6496 On ch=1 n=57 v=0
6496 On ch=1 n=60 v=0
6496 On ch=1 n=65 v=0
6528 On ch=1 n=57 v=110
6528 On ch=1 n=60 v=110
6528 On ch=1 n=65 v=110
6528 On ch=1 n=29 v=110
6528 On ch=1 n=41 v=110
6622 Off ch=1 n=41 v=0
6622 Off ch=1 n=29 v=0
6624 On ch=1 n=29 v=110
6624 On ch=1 n=41 v=110
6688 On ch=1 n=57 v=0
6688 On ch=1 n=60 v=0
6688 On ch=1 n=65 v=0
6720 On ch=1 n=60 v=110
6720 On ch=1 n=65 v=110
6784 Off ch=1 n=41 v=0
6784 Off ch=1 n=29 v=0
6814 On ch=1 n=60 v=0
6814 On ch=1 n=65 v=0
6816 On ch=1 n=60 v=110
6816 On ch=1 n=67 v=110
6816 On ch=1 n=29 v=110
6816 On ch=1 n=41 v=110
6910 Off ch=1 n=41 v=0
6910 Off ch=1 n=29 v=0
6910 On ch=1 n=60 v=0
6910 On ch=1 n=67 v=0
6912 Par ch=1 c=64 v=127
6912 Par ch=1 c=64 v=0
6912 Par ch=1 c=64 v=0
6912 Par ch=1 c=64 v=127
6912 On ch=1 n=60 v=110
6912 On ch=1 n=64 v=110
6912 On ch=1 n=36 v=110
6912 On ch=1 n=48 v=110
7072 Off ch=1 n=48 v=0
7072 Off ch=1 n=36 v=0
7072 On ch=1 n=60 v=0
7072 On ch=1 n=64 v=0
7104 On ch=1 n=60 v=110
7104 On ch=1 n=64 v=110
7104 On ch=1 n=36 v=110
7104 On ch=1 n=48 v=110
7198 Off ch=1 n=48 v=0
7198 Off ch=1 n=36 v=0
7200 On ch=1 n=33 v=110
7200 On ch=1 n=45 v=110
7264 On ch=1 n=60 v=0
7264 On ch=1 n=64 v=0
7296 On ch=1 n=57 v=110
7296 On ch=1 n=62 v=110
7360 Off ch=1 n=45 v=0
7360 Off ch=1 n=33 v=0
7390 On ch=1 n=57 v=0
7390 On ch=1 n=62 v=0
7392 On ch=1 n=60 v=110
7392 On ch=1 n=33 v=110
7392 On ch=1 n=45 v=110
7486 Off ch=1 n=45 v=0
7486 Off ch=1 n=33 v=0
7486 On ch=1 n=60 v=0
7488 Par ch=1 c=64 v=127
7488 Par ch=1 c=64 v=0
7488 Par ch=1 c=64 v=0
7488 Par ch=1 c=64 v=127
7488 On ch=1 n=53 v=110
7488 On ch=1 n=57 v=110
7488 On ch=1 n=62 v=110
7488 On ch=1 n=38 v=110
7488 On ch=1 n=50 v=110
7648 Off ch=1 n=50 v=0
7648 Off ch=1 n=38 v=0
7648 On ch=1 n=53 v=0
7648 On ch=1 n=57 v=0
7648 On ch=1 n=62 v=0
7680 On ch=1 n=38 v=110
7680 On ch=1 n=50 v=110
7774 Off ch=1 n=50 v=0
7774 Off ch=1 n=38 v=0
7776 On ch=1 n=38 v=110
7776 On ch=1 n=50 v=110
7872 On ch=1 n=57 v=110
7936 Off ch=1 n=50 v=0
7936 Off ch=1 n=38 v=0
7966 On ch=1 n=57 v=0
7968 On ch=1 n=60 v=110
7968 On ch=1 n=38 v=110
7968 On ch=1 n=50 v=110
8062 Off ch=1 n=50 v=0
8062 Off ch=1 n=38 v=0
8062 On ch=1 n=60 v=0
8064 Par ch=1 c=64 v=127
8064 Par ch=1 c=64 v=0
8064 Par ch=1 c=64 v=0
8064 Par ch=1 c=64 v=127
8064 On ch=1 n=53 v=110
8064 On ch=1 n=57 v=110
8064 On ch=1 n=62 v=110
8064 On ch=1 n=38 v=110
8064 On ch=1 n=50 v=110
8224 Off ch=1 n=50 v=0
8224 Off ch=1 n=38 v=0
8224 On ch=1 n=53 v=0
8224 On ch=1 n=57 v=0
8224 On ch=1 n=62 v=0
8256 On ch=1 n=53 v=110
8256 On ch=1 n=57 v=110
8256 On ch=1 n=62 v=110
8256 On ch=1 n=38 v=110
8256 On ch=1 n=50 v=110
8350 Off ch=1 n=50 v=0
8350 Off ch=1 n=38 v=0
8352 On ch=1 n=38 v=110
8352 On ch=1 n=50 v=110
8416 On ch=1 n=53 v=0
8416 On ch=1 n=57 v=0
8416 On ch=1 n=62 v=0
8448 On ch=1 n=57 v=110
8448 On ch=1 n=62 v=110
8512 Off ch=1 n=50 v=0
8512 Off ch=1 n=38 v=0
8542 On ch=1 n=57 v=0
8542 On ch=1 n=62 v=0
8544 On ch=1 n=57 v=110
8544 On ch=1 n=65 v=110
8544 On ch=1 n=38 v=110
8544 On ch=1 n=50 v=110
8638 Off ch=1 n=50 v=0
8638 Off ch=1 n=38 v=0
8638 On ch=1 n=57 v=0
8638 On ch=1 n=65 v=0
8640 Par ch=1 c=64 v=127
8640 Par ch=1 c=64 v=0
8640 Par ch=1 c=64 v=0
8640 Par ch=1 c=64 v=127
8640 On ch=1 n=58 v=110
8640 On ch=1 n=62 v=110
8640 On ch=1 n=67 v=110
8640 On ch=1 n=34 v=110
8640 On ch=1 n=46 v=110
8800 Off ch=1 n=46 v=0
8800 Off ch=1 n=34 v=0
8800 On ch=1 n=58 v=0
8800 On ch=1 n=62 v=0
8800 On ch=1 n=67 v=0
8832 On ch=1 n=58 v=110
8832 On ch=1 n=62 v=110
8832 On ch=1 n=67 v=110
8832 On ch=1 n=34 v=110
8832 On ch=1 n=46 v=110
8926 Off ch=1 n=46 v=0
8926 Off ch=1 n=34 v=0
8928 On ch=1 n=34 v=110
8928 On ch=1 n=46 v=110
8992 On ch=1 n=58 v=0
8992 On ch=1 n=62 v=0
8992 On ch=1 n=67 v=0
9024 On ch=1 n=62 v=110
9024 On ch=1 n=67 v=110
9088 Off ch=1 n=46 v=0
9088 Off ch=1 n=34 v=0
9118 On ch=1 n=62 v=0
9118 On ch=1 n=67 v=0
9120 On ch=1 n=62 v=110
9120 On ch=1 n=69 v=110
9120 On ch=1 n=34 v=110
9120 On ch=1 n=46 v=110
9214 Off ch=1 n=46 v=0
9214 Off ch=1 n=34 v=0
9214 On ch=1 n=62 v=0
9214 On ch=1 n=69 v=0
9216 Par ch=1 c=64 v=127
9216 Par ch=1 c=64 v=0
9216 Par ch=1 c=64 v=0
9216 Par ch=1 c=64 v=127
9216 On ch=1 n=62 v=110
9216 On ch=1 n=67 v=110
9216 On ch=1 n=70 v=110
9216 On ch=1 n=31 v=110
9216 On ch=1 n=43 v=110
9376 Off ch=1 n=43 v=0
9376 Off ch=1 n=31 v=0
9376 On ch=1 n=62 v=0
9376 On ch=1 n=67 v=0
9376 On ch=1 n=70 v=0
9408 On ch=1 n=62 v=110
9408 On ch=1 n=67 v=110
9408 On ch=1 n=70 v=110
9408 On ch=1 n=31 v=110
9408 On ch=1 n=43 v=110
9502 Off ch=1 n=43 v=0
9502 Off ch=1 n=31 v=0
9504 On ch=1 n=31 v=110
9504 On ch=1 n=43 v=110
9568 On ch=1 n=62 v=0
9568 On ch=1 n=67 v=0
9568 On ch=1 n=70 v=0
9600 On ch=1 n=65 v=110
9600 On ch=1 n=69 v=110
9664 Off ch=1 n=43 v=0
9664 Off ch=1 n=31 v=0
9694 On ch=1 n=65 v=0
9694 On ch=1 n=69 v=0
9696 On ch=1 n=64 v=110
9696 On ch=1 n=67 v=110
9696 On ch=1 n=31 v=110
9696 On ch=1 n=43 v=110
9790 Off ch=1 n=43 v=0
9790 Off ch=1 n=31 v=0
9790 On ch=1 n=64 v=0
9790 On ch=1 n=67 v=0
9792 Par ch=1 c=64 v=127
9792 Par ch=1 c=64 v=0
9792 Par ch=1 c=64 v=0
9792 Par ch=1 c=64 v=127
9792 On ch=1 n=65 v=110
9792 On ch=1 n=69 v=110
9792 On ch=1 n=38 v=110
9792 On ch=1 n=50 v=110
9886 On ch=1 n=65 v=0
9886 On ch=1 n=69 v=0
9888 On ch=1 n=62 v=110
9952 Off ch=1 n=50 v=0
9952 Off ch=1 n=38 v=0
9984 On ch=1 n=38 v=110
9984 On ch=1 n=50 v=110
10048 On ch=1 n=62 v=0
10078 Off ch=1 n=50 v=0
10078 Off ch=1 n=38 v=0
10080 On ch=1 n=38 v=110
10080 On ch=1 n=50 v=110
10176 On ch=1 n=62 v=110
10240 Off ch=1 n=50 v=0
10240 Off ch=1 n=38 v=0
10270 On ch=1 n=62 v=0
10272 On ch=1 n=64 v=110
10272 On ch=1 n=38 v=110
10272 On ch=1 n=50 v=110
10366 Off ch=1 n=50 v=0
10366 Off ch=1 n=38 v=0
10366 On ch=1 n=64 v=0
10368 Par ch=1 c=64 v=127
10368 Par ch=1 c=64 v=0
10368 Par ch=1 c=64 v=0
10368 Par ch=1 c=64 v=127
10368 On ch=1 n=58 v=110
10368 On ch=1 n=62 v=110
10368 On ch=1 n=65 v=110
10368 On ch=1 n=34 v=110
10368 On ch=1 n=46 v=110
10528 Off ch=1 n=46 v=0
10528 Off ch=1 n=34 v=0
10528 On ch=1 n=58 v=0
10528 On ch=1 n=62 v=0
10528 On ch=1 n=65 v=0
10560 On ch=1 n=58 v=110
10560 On ch=1 n=62 v=110
10560 On ch=1 n=65 v=110
10560 On ch=1 n=34 v=110
10560 On ch=1 n=46 v=110
10654 Off ch=1 n=46 v=0
10654 Off ch=1 n=34 v=0
10656 On ch=1 n=34 v=110
10656 On ch=1 n=46 v=110
10720 On ch=1 n=58 v=0
10720 On ch=1 n=62 v=0
10720 On ch=1 n=65 v=0
10752 On ch=1 n=58 v=110
10752 On ch=1 n=62 v=110
10752 On ch=1 n=67 v=110
10816 Off ch=1 n=46 v=0
10816 Off ch=1 n=34 v=0
10848 On ch=1 n=34 v=110
10848 On ch=1 n=46 v=110
10912 On ch=1 n=58 v=0
10912 On ch=1 n=62 v=0
10912 On ch=1 n=67 v=0
10942 Off ch=1 n=46 v=0
10942 Off ch=1 n=34 v=0
10944 Par ch=1 c=64 v=127
10944 Par ch=1 c=64 v=0
10944 Par ch=1 c=64 v=0
10944 Par ch=1 c=64 v=127
10944 On ch=1 n=65 v=110
10944 On ch=1 n=69 v=110
10944 On ch=1 n=38 v=110
10944 On ch=1 n=50 v=110
11038 On ch=1 n=65 v=0
11038 On ch=1 n=69 v=0
11040 On ch=1 n=62 v=110
11104 Off ch=1 n=50 v=0
11104 Off ch=1 n=38 v=0
11136 On ch=1 n=38 v=110
11136 On ch=1 n=50 v=110
11200 On ch=1 n=62 v=0
11230 Off ch=1 n=50 v=0
11230 Off ch=1 n=38 v=0
11232 On ch=1 n=38 v=110
11232 On ch=1 n=50 v=110
11328 On ch=1 n=62 v=110
11392 Off ch=1 n=50 v=0
11392 Off ch=1 n=38 v=0
11422 On ch=1 n=62 v=0
11424 On ch=1 n=65 v=110
11424 On ch=1 n=38 v=110
11424 On ch=1 n=50 v=110
11518 Off ch=1 n=50 v=0
11518 Off ch=1 n=38 v=0
11518 On ch=1 n=65 v=0
11520 Par ch=1 c=64 v=127
11520 Par ch=1 c=64 v=0
11520 Par ch=1 c=64 v=0
11520 Par ch=1 c=64 v=127
11520 On ch=1 n=57 v=110
11520 On ch=1 n=61 v=110
11520 On ch=1 n=64 v=110
11520 On ch=1 n=33 v=110
11520 On ch=1 n=45 v=110
11680 Off ch=1 n=45 v=0
11680 Off ch=1 n=33 v=0
11680 On ch=1 n=57 v=0
11680 On ch=1 n=61 v=0
11680 On ch=1 n=64 v=0
11712 On ch=1 n=57 v=110
11712 On ch=1 n=61 v=110
11712 On ch=1 n=64 v=110
11712 On ch=1 n=33 v=110
11712 On ch=1 n=45 v=110
11806 Off ch=1 n=45 v=0
11806 Off ch=1 n=33 v=0
11808 On ch=1 n=33 v=110
11808 On ch=1 n=45 v=110
11872 On ch=1 n=57 v=0
11872 On ch=1 n=61 v=0
11872 On ch=1 n=64 v=0
11904 On ch=1 n=62 v=110
11904 On ch=1 n=65 v=110
11968 Off ch=1 n=45 v=0
11968 Off ch=1 n=33 v=0
11998 On ch=1 n=62 v=0
11998 On ch=1 n=65 v=0
12000 On ch=1 n=59 v=110
12000 On ch=1 n=62 v=110
12000 On ch=1 n=33 v=110
12000 On ch=1 n=45 v=110
12094 Off ch=1 n=45 v=0
12094 Off ch=1 n=33 v=0
12094 On ch=1 n=59 v=0
12094 On ch=1 n=62 v=0
12096 Par ch=1 c=64 v=0
12096 Par ch=1 c=64 v=127
12096 On ch=1 n=57 v=110
12096 On ch=1 n=61 v=110
12096 On ch=1 n=64 v=110
12096 On ch=1 n=33 v=110
12096 On ch=1 n=45 v=110
12190 On ch=1 n=57 v=0
12190 On ch=1 n=61 v=0
12190 On ch=1 n=64 v=0
12256 Off ch=1 n=45 v=0
12256 Off ch=1 n=33 v=0
12288 On ch=1 n=33 v=110
12288 On ch=1 n=45 v=110
12382 Off ch=1 n=45 v=0
12382 Off ch=1 n=33 v=0
12384 Par ch=1 c=64 v=0
12384 Par ch=1 c=64 v=127
12384 On ch=1 n=33 v=110
12384 On ch=1 n=45 v=110
12480 On ch=1 n=69 v=110
12544 Off ch=1 n=45 v=0
12544 Off ch=1 n=33 v=0
12574 On ch=1 n=69 v=0
12576 On ch=1 n=72 v=110
12576 On ch=1 n=33 v=110
12576 On ch=1 n=45 v=110
12670 Off ch=1 n=45 v=0
12670 Off ch=1 n=33 v=0
12670 On ch=1 n=72 v=0
12672 Par ch=1 c=64 v=127
12672 Par ch=1 c=64 v=0
12672 Par ch=1 c=64 v=0
12672 Par ch=1 c=64 v=127
12672 On ch=1 n=65 v=110
12672 On ch=1 n=69 v=110
12672 On ch=1 n=74 v=110
12672 On ch=1 n=38 v=110
12672 On ch=1 n=50 v=110
12832 Off ch=1 n=50 v=0
12832 Off ch=1 n=38 v=0
12832 On ch=1 n=65 v=0
12832 On ch=1 n=69 v=0
12832 On ch=1 n=74 v=0
12864 On ch=1 n=65 v=110
12864 On ch=1 n=69 v=110
12864 On ch=1 n=74 v=110
12864 On ch=1 n=38 v=110
12864 On ch=1 n=50 v=110
12958 Off ch=1 n=50 v=0
12958 Off ch=1 n=38 v=0
12960 On ch=1 n=38 v=110
12960 On ch=1 n=50 v=110
13024 On ch=1 n=65 v=0
13024 On ch=1 n=69 v=0
13024 On ch=1 n=74 v=0
13056 On ch=1 n=65 v=110
13056 On ch=1 n=69 v=110
13056 On ch=1 n=74 v=110
13120 Off ch=1 n=50 v=0
13120 Off ch=1 n=38 v=0
13150 On ch=1 n=65 v=0
13150 On ch=1 n=69 v=0
13150 On ch=1 n=74 v=0
13152 On ch=1 n=69 v=110
13152 On ch=1 n=72 v=110
13152 On ch=1 n=76 v=110
13152 On ch=1 n=36 v=110
13152 On ch=1 n=48 v=110
13246 Off ch=1 n=48 v=0
13246 Off ch=1 n=36 v=0
13246 On ch=1 n=69 v=0
13246 On ch=1 n=72 v=0
13246 On ch=1 n=76 v=0
13248 Par ch=1 c=64 v=127
13248 Par ch=1 c=64 v=0
13248 Par ch=1 c=64 v=0
13248 Par ch=1 c=64 v=127
13248 On ch=1 n=70 v=110
13248 On ch=1 n=74 v=110
13248 On ch=1 n=77 v=110
13248 On ch=1 n=34 v=110
13248 On ch=1 n=46 v=110
13408 Off ch=1 n=46 v=0
13408 Off ch=1 n=34 v=0
13408 On ch=1 n=70 v=0
13408 On ch=1 n=74 v=0
13408 On ch=1 n=77 v=0
13440 On ch=1 n=70 v=110
13440 On ch=1 n=74 v=110
13440 On ch=1 n=77 v=110
13440 On ch=1 n=34 v=110
13440 On ch=1 n=46 v=110
13534 Off ch=1 n=46 v=0
13534 Off ch=1 n=34 v=0
13536 On ch=1 n=34 v=110
13536 On ch=1 n=46 v=110
13600 On ch=1 n=70 v=0
13600 On ch=1 n=74 v=0
13600 On ch=1 n=77 v=0
13632 On ch=1 n=70 v=110
13632 On ch=1 n=74 v=110
13632 On ch=1 n=77 v=110
13696 Off ch=1 n=46 v=0
13696 Off ch=1 n=34 v=0
13726 On ch=1 n=70 v=0
13726 On ch=1 n=74 v=0
13726 On ch=1 n=77 v=0
13728 On ch=1 n=74 v=110
13728 On ch=1 n=79 v=110
13728 On ch=1 n=34 v=110
13728 On ch=1 n=46 v=110
13822 Off ch=1 n=46 v=0
13822 Off ch=1 n=34 v=0
13822 On ch=1 n=74 v=0
13822 On ch=1 n=79 v=0
13824 Par ch=1 c=64 v=127
13824 Par ch=1 c=64 v=0
13824 Par ch=1 c=64 v=0
13824 Par ch=1 c=64 v=127
13824 On ch=1 n=69 v=110
13824 On ch=1 n=72 v=110
13824 On ch=1 n=76 v=110
13824 On ch=1 n=33 v=110
13824 On ch=1 n=45 v=110
13984 Off ch=1 n=45 v=0
13984 Off ch=1 n=33 v=0
13984 On ch=1 n=69 v=0
13984 On ch=1 n=72 v=0
13984 On ch=1 n=76 v=0
14016 On ch=1 n=69 v=110
14016 On ch=1 n=72 v=110
14016 On ch=1 n=76 v=110
14016 On ch=1 n=33 v=110
14016 On ch=1 n=45 v=110
14110 Off ch=1 n=45 v=0
14110 Off ch=1 n=33 v=0
14112 On ch=1 n=33 v=110
14112 On ch=1 n=45 v=110
14176 On ch=1 n=69 v=0
14176 On ch=1 n=72 v=0
14176 On ch=1 n=76 v=0
14208 On ch=1 n=69 v=110
14208 On ch=1 n=74 v=110
14272 Off ch=1 n=45 v=0
14272 Off ch=1 n=33 v=0
14302 On ch=1 n=69 v=0
14302 On ch=1 n=74 v=0
14304 On ch=1 n=67 v=110
14304 On ch=1 n=72 v=110
14304 On ch=1 n=33 v=110
14304 On ch=1 n=45 v=110
14398 Off ch=1 n=45 v=0
14398 Off ch=1 n=33 v=0
14398 On ch=1 n=67 v=0
14398 On ch=1 n=72 v=0
14400 Par ch=1 c=64 v=127
14400 Par ch=1 c=64 v=0
14400 Par ch=1 c=64 v=0
14400 Par ch=1 c=64 v=127
14400 On ch=1 n=69 v=110
14400 On ch=1 n=72 v=110
14400 On ch=1 n=38 v=110
14400 On ch=1 n=50 v=110
14494 On ch=1 n=69 v=0
14494 On ch=1 n=72 v=0
14496 On ch=1 n=69 v=110
14496 On ch=1 n=74 v=110
14560 Off ch=1 n=50 v=0
14560 Off ch=1 n=38 v=0
14592 On ch=1 n=38 v=110
14592 On ch=1 n=50 v=110
14656 On ch=1 n=69 v=0
14656 On ch=1 n=74 v=0
14686 Off ch=1 n=50 v=0
14686 Off ch=1 n=38 v=0
14688 On ch=1 n=38 v=110
14688 On ch=1 n=50 v=110
14784 On ch=1 n=69 v=110
14848 Off ch=1 n=50 v=0
14848 Off ch=1 n=38 v=0
14878 On ch=1 n=69 v=0
14880 On ch=1 n=72 v=110
14880 On ch=1 n=38 v=110
14880 On ch=1 n=50 v=110
14974 Off ch=1 n=50 v=0
14974 Off ch=1 n=38 v=0
14974 On ch=1 n=72 v=0
14976 Par ch=1 c=64 v=127
14976 Par ch=1 c=64 v=0
14976 Par ch=1 c=64 v=0
14976 Par ch=1 c=64 v=127
14976 On ch=1 n=65 v=110
14976 On ch=1 n=70 v=110
14976 On ch=1 n=74 v=110
14976 On ch=1 n=34 v=110
14976 On ch=1 n=46 v=110
15136 Off ch=1 n=46 v=0
15136 Off ch=1 n=34 v=0
15136 On ch=1 n=65 v=0
15136 On ch=1 n=70 v=0
15136 On ch=1 n=74 v=0
15168 On ch=1 n=65 v=110
15168 On ch=1 n=70 v=110
15168 On ch=1 n=74 v=110
15168 On ch=1 n=34 v=110
15168 On ch=1 n=46 v=110
15262 Off ch=1 n=46 v=0
15262 Off ch=1 n=34 v=0
15264 On ch=1 n=34 v=110
15264 On ch=1 n=46 v=110
15328 On ch=1 n=65 v=0
15328 On ch=1 n=70 v=0
15328 On ch=1 n=74 v=0
15360 On ch=1 n=70 v=110
15360 On ch=1 n=74 v=110
15424 Off ch=1 n=46 v=0
15424 Off ch=1 n=34 v=0
15454 On ch=1 n=70 v=0
15454 On ch=1 n=74 v=0
15456 On ch=1 n=70 v=110
15456 On ch=1 n=76 v=110
15456 On ch=1 n=34 v=110
15456 On ch=1 n=46 v=110
15550 Off ch=1 n=46 v=0
15550 Off ch=1 n=34 v=0
15550 On ch=1 n=70 v=0
15550 On ch=1 n=76 v=0
15552 Par ch=1 c=64 v=127
15552 Par ch=1 c=64 v=0
15552 Par ch=1 c=64 v=0
15552 Par ch=1 c=64 v=127
15552 On ch=1 n=69 v=110
15552 On ch=1 n=72 v=110
15552 On ch=1 n=77 v=110
15552 On ch=1 n=29 v=110
15552 On ch=1 n=41 v=110
15712 Off ch=1 n=41 v=0
15712 Off ch=1 n=29 v=0
15712 On ch=1 n=69 v=0
15712 On ch=1 n=72 v=0
15712 On ch=1 n=77 v=0
15744 On ch=1 n=69 v=110
15744 On ch=1 n=72 v=110
15744 On ch=1 n=77 v=110
15744 On ch=1 n=29 v=110
15744 On ch=1 n=41 v=110
15838 Off ch=1 n=41 v=0
15838 Off ch=1 n=29 v=0
15840 On ch=1 n=29 v=110
15840 On ch=1 n=41 v=110
15904 On ch=1 n=69 v=0
15904 On ch=1 n=72 v=0
15904 On ch=1 n=77 v=0
15936 On ch=1 n=72 v=110
15936 On ch=1 n=77 v=110
16000 Off ch=1 n=41 v=0
16000 Off ch=1 n=29 v=0
16030 On ch=1 n=72 v=0
16030 On ch=1 n=77 v=0
16032 On ch=1 n=72 v=110
16032 On ch=1 n=79 v=110
16032 On ch=1 n=29 v=110
16032 On ch=1 n=41 v=110
16126 Off ch=1 n=41 v=0
16126 Off ch=1 n=29 v=0
16126 On ch=1 n=72 v=0
16126 On ch=1 n=79 v=0
16128 Par ch=1 c=64 v=127
16128 Par ch=1 c=64 v=0
16128 Par ch=1 c=64 v=0
16128 Par ch=1 c=64 v=127
16128 On ch=1 n=72 v=110
16128 On ch=1 n=76 v=110
16128 On ch=1 n=36 v=110
16128 On ch=1 n=48 v=110
16288 Off ch=1 n=48 v=0
16288 Off ch=1 n=36 v=0
16288 On ch=1 n=72 v=0
16288 On ch=1 n=76 v=0
16320 On ch=1 n=72 v=110
16320 On ch=1 n=76 v=110
16320 On ch=1 n=36 v=110
16320 On ch=1 n=48 v=110
16414 Off ch=1 n=48 v=0
16414 Off ch=1 n=36 v=0
16416 Par ch=1 c=64 v=127
16416 Par ch=1 c=64 v=0
16416 On ch=1 n=33 v=110
16416 On ch=1 n=45 v=110
16480 On ch=1 n=72 v=0
16480 On ch=1 n=76 v=0
16512 On ch=1 n=69 v=110
16512 On ch=1 n=74 v=110
16576 Off ch=1 n=45 v=0
16576 Off ch=1 n=33 v=0
16606 On ch=1 n=69 v=0
16606 On ch=1 n=74 v=0
16608 On ch=1 n=72 v=110
16608 On ch=1 n=33 v=110
16608 On ch=1 n=45 v=110
16702 Off ch=1 n=45 v=0
16702 Off ch=1 n=33 v=0
16702 On ch=1 n=72 v=0
16704 Par ch=1 c=64 v=127
16704 Par ch=1 c=64 v=0
16704 Par ch=1 c=64 v=0
16704 Par ch=1 c=64 v=127
16704 On ch=1 n=65 v=110
16704 On ch=1 n=69 v=110
16704 On ch=1 n=74 v=110
16704 On ch=1 n=38 v=110
16704 On ch=1 n=50 v=110
16864 Off ch=1 n=50 v=0
16864 Off ch=1 n=38 v=0
16864 On ch=1 n=65 v=0
16864 On ch=1 n=69 v=0
16864 On ch=1 n=74 v=0
16896 On ch=1 n=38 v=110
16896 On ch=1 n=50 v=110
16990 Off ch=1 n=50 v=0
16990 Off ch=1 n=38 v=0
16992 On ch=1 n=38 v=110
16992 On ch=1 n=50 v=110
17088 On ch=1 n=69 v=110
17152 Off ch=1 n=50 v=0
17152 Off ch=1 n=38 v=0
17182 On ch=1 n=69 v=0
17184 On ch=1 n=72 v=110
17184 On ch=1 n=38 v=110
17184 On ch=1 n=50 v=110
17278 Off ch=1 n=50 v=0
17278 Off ch=1 n=38 v=0
17278 On ch=1 n=72 v=0
17280 Par ch=1 c=64 v=127
17280 Par ch=1 c=64 v=0
17280 Par ch=1 c=64 v=0
17280 Par ch=1 c=64 v=127
17280 On ch=1 n=65 v=110
17280 On ch=1 n=69 v=110
17280 On ch=1 n=74 v=110
17280 On ch=1 n=38 v=110
17280 On ch=1 n=50 v=110
17440 Off ch=1 n=50 v=0
17440 Off ch=1 n=38 v=0
17440 On ch=1 n=65 v=0
17440 On ch=1 n=69 v=0
17440 On ch=1 n=74 v=0
17472 On ch=1 n=65 v=110
17472 On ch=1 n=69 v=110
17472 On ch=1 n=74 v=110
17472 On ch=1 n=38 v=110
17472 On ch=1 n=50 v=110
17566 Off ch=1 n=50 v=0
17566 Off ch=1 n=38 v=0
17568 On ch=1 n=38 v=110
17568 On ch=1 n=50 v=110
17632 On ch=1 n=65 v=0
17632 On ch=1 n=69 v=0
17632 On ch=1 n=74 v=0
17664 On ch=1 n=69 v=110
17664 On ch=1 n=74 v=110
17728 Off ch=1 n=50 v=0
17728 Off ch=1 n=38 v=0
17758 On ch=1 n=69 v=0
17758 On ch=1 n=74 v=0
17760 On ch=1 n=69 v=110
17760 On ch=1 n=77 v=110
17760 On ch=1 n=38 v=110
17760 On ch=1 n=50 v=110
17854 Off ch=1 n=50 v=0
17854 Off ch=1 n=38 v=0
17854 On ch=1 n=69 v=0
17854 On ch=1 n=77 v=0
17856 Par ch=1 c=64 v=127
17856 Par ch=1 c=64 v=0
17856 Par ch=1 c=64 v=0
17856 Par ch=1 c=64 v=127
17856 On ch=1 n=70 v=110
17856 On ch=1 n=74 v=110
17856 On ch=1 n=79 v=110
17856 On ch=1 n=34 v=110
17856 On ch=1 n=46 v=110
18016 Off ch=1 n=46 v=0
18016 Off ch=1 n=34 v=0
18016 On ch=1 n=70 v=0
18016 On ch=1 n=74 v=0
18016 On ch=1 n=79 v=0
18048 On ch=1 n=70 v=110
18048 On ch=1 n=74 v=110
18048 On ch=1 n=79 v=110
18048 On ch=1 n=34 v=110
18048 On ch=1 n=46 v=110
18142 Off ch=1 n=46 v=0
18142 Off ch=1 n=34 v=0
18144 On ch=1 n=34 v=110
18144 On ch=1 n=46 v=110
18208 On ch=1 n=70 v=0
18208 On ch=1 n=74 v=0
18208 On ch=1 n=79 v=0
18240 On ch=1 n=74 v=110
18240 On ch=1 n=79 v=110
18304 Off ch=1 n=46 v=0
18304 Off ch=1 n=34 v=0
18334 On ch=1 n=74 v=0
18334 On ch=1 n=79 v=0
18336 On ch=1 n=74 v=110
18336 On ch=1 n=81 v=110
18336 On ch=1 n=34 v=110
18336 On ch=1 n=46 v=110
18430 Off ch=1 n=46 v=0
18430 Off ch=1 n=34 v=0
18430 On ch=1 n=74 v=0
18430 On ch=1 n=81 v=0
18432 Par ch=1 c=64 v=127
18432 Par ch=1 c=64 v=0
18432 Par ch=1 c=64 v=0
18432 Par ch=1 c=64 v=127
18432 On ch=1 n=74 v=110
18432 On ch=1 n=79 v=110
18432 On ch=1 n=82 v=110
18432 On ch=1 n=31 v=110
18432 On ch=1 n=43 v=110
18592 Off ch=1 n=43 v=0
18592 Off ch=1 n=31 v=0
18592 On ch=1 n=74 v=0
18592 On ch=1 n=79 v=0
18592 On ch=1 n=82 v=0
18624 On ch=1 n=74 v=110
18624 On ch=1 n=79 v=110
18624 On ch=1 n=82 v=110
18624 On ch=1 n=31 v=110
18624 On ch=1 n=43 v=110
18718 Off ch=1 n=43 v=0
18718 Off ch=1 n=31 v=0
18720 On ch=1 n=31 v=110
18720 On ch=1 n=43 v=110
18784 On ch=1 n=74 v=0
18784 On ch=1 n=79 v=0
18784 On ch=1 n=82 v=0
18816 On ch=1 n=77 v=110
18816 On ch=1 n=81 v=110
18880 Off ch=1 n=43 v=0
18880 Off ch=1 n=31 v=0
18910 On ch=1 n=77 v=0
18910 On ch=1 n=81 v=0
18912 On ch=1 n=76 v=110
18912 On ch=1 n=79 v=110
18912 On ch=1 n=31 v=110
18912 On ch=1 n=43 v=110
19006 Off ch=1 n=43 v=0
19006 Off ch=1 n=31 v=0
19006 On ch=1 n=76 v=0
19006 On ch=1 n=79 v=0
19008 Par ch=1 c=64 v=127
19008 Par ch=1 c=64 v=0
19008 Par ch=1 c=64 v=0
19008 Par ch=1 c=64 v=127
19008 On ch=1 n=77 v=110
19008 On ch=1 n=81 v=110
19008 On ch=1 n=38 v=110
19008 On ch=1 n=50 v=110
19102 On ch=1 n=77 v=0
19102 On ch=1 n=81 v=0
19104 On ch=1 n=74 v=110
19168 Off ch=1 n=50 v=0
19168 Off ch=1 n=38 v=0
19200 On ch=1 n=38 v=110
19200 On ch=1 n=50 v=110
19264 On ch=1 n=74 v=0
19294 Off ch=1 n=50 v=0
19294 Off ch=1 n=38 v=0
19296 On ch=1 n=38 v=110
19296 On ch=1 n=50 v=110
19392 On ch=1 n=74 v=110
19456 Off ch=1 n=50 v=0
19456 Off ch=1 n=38 v=0
19486 On ch=1 n=74 v=0
19488 On ch=1 n=76 v=110
19488 On ch=1 n=38 v=110
19488 On ch=1 n=50 v=110
19582 Off ch=1 n=50 v=0
19582 Off ch=1 n=38 v=0
19582 On ch=1 n=76 v=0
19584 Par ch=1 c=64 v=127
19584 Par ch=1 c=64 v=0
19584 Par ch=1 c=64 v=0
19584 Par ch=1 c=64 v=127
19584 On ch=1 n=70 v=110
19584 On ch=1 n=74 v=110
19584 On ch=1 n=77 v=110
19584 On ch=1 n=34 v=110
19584 On ch=1 n=46 v=110
19744 Off ch=1 n=46 v=0
19744 Off ch=1 n=34 v=0
19744 On ch=1 n=70 v=0
19744 On ch=1 n=74 v=0
19744 On ch=1 n=77 v=0
19776 On ch=1 n=70 v=110
19776 On ch=1 n=74 v=110
19776 On ch=1 n=77 v=110
19776 On ch=1 n=34 v=110
19776 On ch=1 n=46 v=110
19870 Off ch=1 n=46 v=0
19870 Off ch=1 n=34 v=0
19872 On ch=1 n=34 v=110
19872 On ch=1 n=46 v=110
19936 On ch=1 n=70 v=0
19936 On ch=1 n=74 v=0
19936 On ch=1 n=77 v=0
19968 On ch=1 n=70 v=110
19968 On ch=1 n=74 v=110
19968 On ch=1 n=79 v=110
20032 Off ch=1 n=46 v=0
20032 Off ch=1 n=34 v=0
20064 On ch=1 n=34 v=110
20064 On ch=1 n=46 v=110
20128 On ch=1 n=70 v=0
20128 On ch=1 n=74 v=0
20128 On ch=1 n=79 v=0
20158 Off ch=1 n=46 v=0
20158 Off ch=1 n=34 v=0
20160 Par ch=1 c=64 v=127
20160 Par ch=1 c=64 v=0
20160 Par ch=1 c=64 v=0
20160 Par ch=1 c=64 v=127
20160 On ch=1 n=77 v=110
20160 On ch=1 n=81 v=110
20160 On ch=1 n=38 v=110
20160 On ch=1 n=50 v=110
20254 On ch=1 n=77 v=0
20254 On ch=1 n=81 v=0
20256 On ch=1 n=74 v=110
20320 Off ch=1 n=50 v=0
20320 Off ch=1 n=38 v=0
20352 On ch=1 n=38 v=110
20352 On ch=1 n=50 v=110
20416 On ch=1 n=74 v=0
20446 Off ch=1 n=50 v=0
20446 Off ch=1 n=38 v=0
20448 On ch=1 n=38 v=110
20448 On ch=1 n=50 v=110
20544 On ch=1 n=74 v=110
20608 Off ch=1 n=50 v=0
20608 Off ch=1 n=38 v=0
20638 On ch=1 n=74 v=0
20640 On ch=1 n=77 v=110
20640 On ch=1 n=38 v=110
20640 On ch=1 n=50 v=110
20734 Off ch=1 n=50 v=0
20734 Off ch=1 n=38 v=0
20734 On ch=1 n=77 v=0
20736 Par ch=1 c=64 v=127
20736 Par ch=1 c=64 v=0
20736 Par ch=1 c=64 v=0
20736 Par ch=1 c=64 v=127
20736 On ch=1 n=69 v=110
20736 On ch=1 n=73 v=110
20736 On ch=1 n=76 v=110
20736 On ch=1 n=33 v=110
20736 On ch=1 n=45 v=110
20896 Off ch=1 n=45 v=0
20896 Off ch=1 n=33 v=0
20896 On ch=1 n=69 v=0
20896 On ch=1 n=73 v=0
20896 On ch=1 n=76 v=0
20928 On ch=1 n=69 v=110
20928 On ch=1 n=73 v=110
20928 On ch=1 n=76 v=110
20928 On ch=1 n=33 v=110
20928 On ch=1 n=45 v=110
21022 Off ch=1 n=45 v=0
21022 Off ch=1 n=33 v=0
21024 On ch=1 n=33 v=110
21024 On ch=1 n=45 v=110
21088 On ch=1 n=69 v=0
21088 On ch=1 n=73 v=0
21088 On ch=1 n=76 v=0
21120 On ch=1 n=74 v=110
21184 Off ch=1 n=45 v=0
21184 Off ch=1 n=33 v=0
21214 On ch=1 n=74 v=0
21216 On ch=1 n=73 v=110
21216 On ch=1 n=33 v=110
21216 On ch=1 n=45 v=110
21310 Off ch=1 n=45 v=0
21310 Off ch=1 n=33 v=0
21310 On ch=1 n=73 v=0
21312 Par ch=1 c=64 v=127
21312 Par ch=1 c=64 v=0
21312 Par ch=1 c=64 v=0
21312 Par ch=1 c=64 v=127
21312 On ch=1 n=69 v=110
21312 On ch=1 n=74 v=110
21312 On ch=1 n=38 v=110
21312 On ch=1 n=50 v=110
21472 Off ch=1 n=50 v=0
21472 Off ch=1 n=38 v=0
21472 On ch=1 n=69 v=0
21472 On ch=1 n=74 v=0
21504 On ch=1 n=69 v=110
21504 On ch=1 n=74 v=110
21504 On ch=1 n=38 v=110
21504 On ch=1 n=50 v=110
21664 Off ch=1 n=50 v=0
21664 Off ch=1 n=38 v=0
21664 On ch=1 n=69 v=0
21664 On ch=1 n=74 v=0
21696 Par ch=1 c=64 v=127
21696 Par ch=1 c=64 v=0
21696 Par ch=1 c=64 v=0
21696 Par ch=1 c=64 v=127
21696 On ch=1 n=69 v=110
21696 On ch=1 n=72 v=110
21696 On ch=1 n=76 v=110
21696 On ch=1 n=36 v=110
21696 On ch=1 n=48 v=110
21856 Off ch=1 n=48 v=0
21856 Off ch=1 n=36 v=0
21856 On ch=1 n=69 v=0
21856 On ch=1 n=72 v=0
21856 On ch=1 n=76 v=0
21888 Par ch=1 c=64 v=0
21888 Par ch=1 c=64 v=127
21888 On ch=1 n=72 v=110
21888 On ch=1 n=74 v=110
21888 On ch=1 n=77 v=110
21888 On ch=1 n=36 v=110
21888 On ch=1 n=48 v=110
22048 Off ch=1 n=48 v=0
22048 Off ch=1 n=36 v=0
22048 On ch=1 n=72 v=0
22048 On ch=1 n=74 v=0
22048 On ch=1 n=77 v=0
22080 On ch=1 n=77 v=110
22080 On ch=1 n=36 v=110
22080 On ch=1 n=48 v=110
22174 On ch=1 n=77 v=0
22176 On ch=1 n=77 v=110
22240 Off ch=1 n=48 v=0
22240 Off ch=1 n=36 v=0
22270 On ch=1 n=77 v=0
22272 Par ch=1 c=64 v=127
22272 Par ch=1 c=64 v=0
22272 Par ch=1 c=64 v=0
22272 Par ch=1 c=64 v=127
22272 On ch=1 n=70 v=110
22272 On ch=1 n=74 v=110
22272 On ch=1 n=79 v=110
22272 On ch=1 n=34 v=110
22272 On ch=1 n=46 v=110
22432 Off ch=1 n=46 v=0
22432 Off ch=1 n=34 v=0
22432 On ch=1 n=70 v=0
22432 On ch=1 n=74 v=0
22432 On ch=1 n=79 v=0
22464 Par ch=1 c=64 v=127
22464 Par ch=1 c=64 v=0
22464 Par ch=1 c=64 v=0
22464 Par ch=1 c=64 v=127
22464 On ch=1 n=74 v=110
22464 On ch=1 n=81 v=110
22464 On ch=1 n=33 v=110
22464 On ch=1 n=45 v=110
22558 On ch=1 n=74 v=0
22558 On ch=1 n=81 v=0
22560 On ch=1 n=77 v=110
22624 Off ch=1 n=45 v=0
22624 Off ch=1 n=33 v=0
22654 On ch=1 n=77 v=0
22656 On ch=1 n=33 v=110
22656 On ch=1 n=45 v=110
22750 Off ch=1 n=45 v=0
22750 Off ch=1 n=33 v=0
22752 On ch=1 n=33 v=110
22752 On ch=1 n=45 v=110
22848 On ch=1 n=69 v=110
22848 On ch=1 n=77 v=110
22912 Off ch=1 n=45 v=0
22912 Off ch=1 n=33 v=0
22942 On ch=1 n=69 v=0
22942 On ch=1 n=77 v=0
22944 On ch=1 n=69 v=110
22944 On ch=1 n=74 v=110
22944 On ch=1 n=33 v=110
22944 On ch=1 n=45 v=110
23038 Off ch=1 n=45 v=0
23038 Off ch=1 n=33 v=0
23038 On ch=1 n=69 v=0
23038 On ch=1 n=74 v=0
23040 On ch=1 n=69 v=110
23040 On ch=1 n=33 v=110
23040 On ch=1 n=45 v=110
23134 On ch=1 n=69 v=0
23200 Off ch=1 n=45 v=0
23200 Off ch=1 n=33 v=0
23232 On ch=1 n=33 v=110
23232 On ch=1 n=45 v=110
23326 Off ch=1 n=45 v=0
23326 Off ch=1 n=33 v=0
23328 On ch=1 n=33 v=110
23328 On ch=1 n=45 v=110
23488 Off ch=1 n=45 v=0
23488 Off ch=1 n=33 v=0
23520 On ch=1 n=33 v=110
23520 On ch=1 n=45 v=110
23614 Off ch=1 n=45 v=0
23614 Off ch=1 n=33 v=0
23616 Par ch=1 c=64 v=127
23616 Par ch=1 c=64 v=0
23616 Par ch=1 c=64 v=0
23616 Par ch=1 c=64 v=127
23616 On ch=1 n=74 v=110
23616 On ch=1 n=79 v=110
23616 On ch=1 n=82 v=110
23616 On ch=1 n=31 v=110
23616 On ch=1 n=43 v=110
23710 On ch=1 n=74 v=0
23710 On ch=1 n=79 v=0
23710 On ch=1 n=82 v=0
23776 Off ch=1 n=43 v=0
23776 Off ch=1 n=31 v=0
23808 On ch=1 n=31 v=110
23808 On ch=1 n=43 v=110
23902 Off ch=1 n=43 v=0
23902 Off ch=1 n=31 v=0
23904 On ch=1 n=31 v=110
23904 On ch=1 n=43 v=110
24000 On ch=1 n=70 v=110
24000 On ch=1 n=79 v=110
24064 Off ch=1 n=43 v=0
24064 Off ch=1 n=31 v=0
24094 On ch=1 n=70 v=0
24094 On ch=1 n=79 v=0
24096 On ch=1 n=70 v=110
24096 On ch=1 n=74 v=110
24096 On ch=1 n=31 v=110
24096 On ch=1 n=43 v=110
24190 Off ch=1 n=43 v=0
24190 Off ch=1 n=31 v=0
24190 On ch=1 n=70 v=0
24190 On ch=1 n=74 v=0
24192 On ch=1 n=70 v=110
24192 On ch=1 n=31 v=110
24192 On ch=1 n=43 v=110
24286 On ch=1 n=70 v=0
24352 Off ch=1 n=43 v=0
24352 Off ch=1 n=31 v=0
24384 On ch=1 n=31 v=110
24384 On ch=1 n=43 v=110
24478 Off ch=1 n=43 v=0
24478 Off ch=1 n=31 v=0
24480 On ch=1 n=31 v=110
24480 On ch=1 n=43 v=110
24640 Off ch=1 n=43 v=0
24640 Off ch=1 n=31 v=0
24672 On ch=1 n=31 v=110
24672 On ch=1 n=43 v=110
24766 Off ch=1 n=43 v=0
24766 Off ch=1 n=31 v=0
24768 Par ch=1 c=64 v=127
24768 Par ch=1 c=64 v=0
24768 Par ch=1 c=64 v=0
24768 Par ch=1 c=64 v=127
24768 On ch=1 n=61 v=110
24768 On ch=1 n=64 v=110
24768 On ch=1 n=33 v=110
24768 On ch=1 n=45 v=110
24862 On ch=1 n=61 v=0
24862 On ch=1 n=64 v=0
24864 On ch=1 n=61 v=110
24864 On ch=1 n=64 v=110
24928 Off ch=1 n=45 v=0
24928 Off ch=1 n=33 v=0
24960 On ch=1 n=33 v=110
24960 On ch=1 n=45 v=110
25024 On ch=1 n=61 v=0
25024 On ch=1 n=64 v=0
25054 Off ch=1 n=45 v=0
25054 Off ch=1 n=33 v=0
25056 Par ch=1 c=64 v=127
25056 Par ch=1 c=64 v=0
25056 On ch=1 n=55 v=110
25056 On ch=1 n=62 v=110
25056 On ch=1 n=33 v=110
25056 On ch=1 n=45 v=110
25216 Off ch=1 n=45 v=0
25216 Off ch=1 n=33 v=0
25248 On ch=1 n=33 v=110
25248 On ch=1 n=45 v=110
25312 On ch=1 n=55 v=0
25312 On ch=1 n=62 v=0
25342 Off ch=1 n=45 v=0
25342 Off ch=1 n=33 v=0
25344 Par ch=1 c=64 v=0
25344 Par ch=1 c=64 v=127
25344 On ch=1 n=57 v=110
25344 On ch=1 n=61 v=110
25344 On ch=1 n=65 v=110
25344 On ch=1 n=33 v=110
25344 On ch=1 n=45 v=110
25504 Off ch=1 n=45 v=0
25504 Off ch=1 n=33 v=0
25536 On ch=1 n=33 v=110
25536 On ch=1 n=45 v=110
25600 On ch=1 n=57 v=0
25600 On ch=1 n=61 v=0
25600 On ch=1 n=65 v=0
25630 Off ch=1 n=45 v=0
25630 Off ch=1 n=33 v=0
25632 On ch=1 n=33 v=110
25632 On ch=1 n=45 v=110
25728 On ch=1 n=65 v=110
25792 Off ch=1 n=45 v=0
25792 Off ch=1 n=33 v=0
25822 On ch=1 n=65 v=0
25824 On ch=1 n=67 v=110
25824 On ch=1 n=33 v=110
25824 On ch=1 n=45 v=110
25918 Off ch=1 n=45 v=0
25918 Off ch=1 n=33 v=0
25918 On ch=1 n=67 v=0
25920 Par ch=1 c=64 v=127
25920 Par ch=1 c=64 v=0
25920 Par ch=1 c=64 v=0
25920 Par ch=1 c=64 v=127
25920 On ch=1 n=62 v=110
25920 On ch=1 n=65 v=110
25920 On ch=1 n=69 v=110
25920 On ch=1 n=38 v=110
25920 On ch=1 n=50 v=110
26080 Off ch=1 n=50 v=0
26080 Off ch=1 n=38 v=0
26080 On ch=1 n=62 v=0
26080 On ch=1 n=65 v=0
26080 On ch=1 n=69 v=0
26112 On ch=1 n=62 v=110
26112 On ch=1 n=65 v=110
26112 On ch=1 n=69 v=110
26112 On ch=1 n=38 v=110
26112 On ch=1 n=50 v=110
26206 Off ch=1 n=50 v=0
26206 Off ch=1 n=38 v=0
26208 On ch=1 n=38 v=110
26208 On ch=1 n=50 v=110
26272 On ch=1 n=62 v=0
26272 On ch=1 n=65 v=0
26272 On ch=1 n=69 v=0
26304 On ch=1 n=62 v=110
26304 On ch=1 n=65 v=110
26304 On ch=1 n=69 v=110
26368 Off ch=1 n=50 v=0
26368 Off ch=1 n=38 v=0
26400 On ch=1 n=38 v=110
26400 On ch=1 n=50 v=110
26464 On ch=1 n=62 v=0
26464 On ch=1 n=65 v=0
26464 On ch=1 n=69 v=0
26494 Off ch=1 n=50 v=0
26494 Off ch=1 n=38 v=0
26496 On ch=1 n=62 v=110
26496 On ch=1 n=65 v=110
26496 On ch=1 n=70 v=110
26496 On ch=1 n=38 v=110
26496 On ch=1 n=50 v=110
26590 On ch=1 n=62 v=0
26590 On ch=1 n=65 v=0
26590 On ch=1 n=70 v=0
26592 Par ch=1 c=64 v=0
26592 Par ch=1 c=64 v=127
26592 On ch=1 n=62 v=110
26592 On ch=1 n=65 v=110
26592 On ch=1 n=69 v=110
26656 Off ch=1 n=50 v=0
26656 Off ch=1 n=38 v=0
26686 On ch=1 n=62 v=0
26686 On ch=1 n=65 v=0
26686 On ch=1 n=69 v=0
26688 On ch=1 n=38 v=110
26688 On ch=1 n=50 v=110
26782 Off ch=1 n=50 v=0
26782 Off ch=1 n=38 v=0
26784 On ch=1 n=38 v=110
26784 On ch=1 n=50 v=110
26878 Off ch=1 n=50 v=0
26878 Off ch=1 n=38 v=0
26880 On ch=1 n=38 v=110
26880 On ch=1 n=50 v=110
26974 Off ch=1 n=50 v=0
26974 Off ch=1 n=38 v=0
26976 On ch=1 n=38 v=110
26976 On ch=1 n=50 v=110
27070 Off ch=1 n=50 v=0
27070 Off ch=1 n=38 v=0
27072 Par ch=1 c=64 v=127
27072 Par ch=1 c=64 v=0
27072 Par ch=1 c=64 v=0
27072 Par ch=1 c=64 v=127
27072 On ch=1 n=60 v=110
27072 On ch=1 n=64 v=110
27072 On ch=1 n=67 v=110
27072 On ch=1 n=36 v=110
27072 On ch=1 n=48 v=110
27232 Off ch=1 n=48 v=0
27232 Off ch=1 n=36 v=0
27232 On ch=1 n=60 v=0
27232 On ch=1 n=64 v=0
27232 On ch=1 n=67 v=0
27264 On ch=1 n=60 v=110
27264 On ch=1 n=64 v=110
27264 On ch=1 n=67 v=110
27264 On ch=1 n=36 v=110
27264 On ch=1 n=48 v=110
27358 Off ch=1 n=48 v=0
27358 Off ch=1 n=36 v=0
27360 On ch=1 n=36 v=110
27360 On ch=1 n=48 v=110
27424 On ch=1 n=60 v=0
27424 On ch=1 n=64 v=0
27424 On ch=1 n=67 v=0
27456 On ch=1 n=60 v=110
27456 On ch=1 n=64 v=110
27456 On ch=1 n=67 v=110
27520 Off ch=1 n=48 v=0
27520 Off ch=1 n=36 v=0
27552 On ch=1 n=36 v=110
27552 On ch=1 n=48 v=110
27616 On ch=1 n=60 v=0
27616 On ch=1 n=64 v=0
27616 On ch=1 n=67 v=0
27646 Off ch=1 n=48 v=0
27646 Off ch=1 n=36 v=0
27648 Par ch=1 c=64 v=127
27648 Par ch=1 c=64 v=0
27648 On ch=1 n=60 v=110
27648 On ch=1 n=64 v=110
27648 On ch=1 n=67 v=110
27648 On ch=1 n=41 v=110
27648 On ch=1 n=53 v=110
27742 On ch=1 n=60 v=0
27742 On ch=1 n=64 v=0
27742 On ch=1 n=67 v=0
27744 Par ch=1 c=64 v=0
27744 Par ch=1 c=64 v=127
27744 On ch=1 n=60 v=110
27744 On ch=1 n=65 v=110
27744 On ch=1 n=69 v=110
27808 Off ch=1 n=53 v=0
27808 Off ch=1 n=41 v=0
27838 On ch=1 n=60 v=0
27838 On ch=1 n=65 v=0
27838 On ch=1 n=69 v=0
27840 On ch=1 n=41 v=110
27840 On ch=1 n=53 v=110
27934 Off ch=1 n=53 v=0
27934 Off ch=1 n=41 v=0
27936 On ch=1 n=41 v=110
27936 On ch=1 n=53 v=110
28030 Off ch=1 n=53 v=0
28030 Off ch=1 n=41 v=0
28032 On ch=1 n=41 v=110
28032 On ch=1 n=53 v=110
28126 Off ch=1 n=53 v=0
28126 Off ch=1 n=41 v=0
28128 On ch=1 n=41 v=110
28128 On ch=1 n=53 v=110
28222 Off ch=1 n=53 v=0
28222 Off ch=1 n=41 v=0
28224 Par ch=1 c=64 v=127
28224 Par ch=1 c=64 v=0
28224 Par ch=1 c=64 v=0
28224 Par ch=1 c=64 v=127
28224 On ch=1 n=62 v=110
28224 On ch=1 n=65 v=110
28224 On ch=1 n=69 v=110
28224 On ch=1 n=38 v=110
28224 On ch=1 n=50 v=110
28384 Off ch=1 n=50 v=0
28384 Off ch=1 n=38 v=0
28384 On ch=1 n=62 v=0
28384 On ch=1 n=65 v=0
28384 On ch=1 n=69 v=0
28416 On ch=1 n=62 v=110
28416 On ch=1 n=65 v=110
28416 On ch=1 n=69 v=110
28416 On ch=1 n=38 v=110
28416 On ch=1 n=50 v=110
28510 Off ch=1 n=50 v=0
28510 Off ch=1 n=38 v=0
28512 On ch=1 n=38 v=110
28512 On ch=1 n=50 v=110
28576 On ch=1 n=62 v=0
28576 On ch=1 n=65 v=0
28576 On ch=1 n=69 v=0
28608 On ch=1 n=62 v=110
28608 On ch=1 n=65 v=110
28608 On ch=1 n=69 v=110
28672 Off ch=1 n=50 v=0
28672 Off ch=1 n=38 v=0
28704 On ch=1 n=38 v=110
28704 On ch=1 n=50 v=110
28768 On ch=1 n=62 v=0
28768 On ch=1 n=65 v=0
28768 On ch=1 n=69 v=0
28798 Off ch=1 n=50 v=0
28798 Off ch=1 n=38 v=0
28800 On ch=1 n=62 v=110
28800 On ch=1 n=65 v=110
28800 On ch=1 n=70 v=110
28800 On ch=1 n=38 v=110
28800 On ch=1 n=50 v=110
28894 On ch=1 n=62 v=0
28894 On ch=1 n=65 v=0
28894 On ch=1 n=70 v=0
28896 Par ch=1 c=64 v=0
28896 Par ch=1 c=64 v=127
28896 On ch=1 n=62 v=110
28896 On ch=1 n=65 v=110
28896 On ch=1 n=69 v=110
28960 Off ch=1 n=50 v=0
28960 Off ch=1 n=38 v=0
28990 On ch=1 n=62 v=0
28990 On ch=1 n=65 v=0
28990 On ch=1 n=69 v=0
28992 On ch=1 n=38 v=110
28992 On ch=1 n=50 v=110
29086 Off ch=1 n=50 v=0
29086 Off ch=1 n=38 v=0
29088 On ch=1 n=38 v=110
29088 On ch=1 n=50 v=110
29182 Off ch=1 n=50 v=0
29182 Off ch=1 n=38 v=0
29184 On ch=1 n=38 v=110
29184 On ch=1 n=50 v=110
29278 Off ch=1 n=50 v=0
29278 Off ch=1 n=38 v=0
29280 On ch=1 n=38 v=110
29280 On ch=1 n=50 v=110
29374 Off ch=1 n=50 v=0
29374 Off ch=1 n=38 v=0
29376 Par ch=1 c=64 v=127
29376 Par ch=1 c=64 v=0
29376 Par ch=1 c=64 v=0
29376 Par ch=1 c=64 v=127
29376 On ch=1 n=61 v=110
29376 On ch=1 n=64 v=110
29376 On ch=1 n=67 v=110
29376 On ch=1 n=33 v=110
29376 On ch=1 n=45 v=110
29536 Off ch=1 n=45 v=0
29536 Off ch=1 n=33 v=0
29536 On ch=1 n=61 v=0
29536 On ch=1 n=64 v=0
29536 On ch=1 n=67 v=0
29568 On ch=1 n=61 v=110
29568 On ch=1 n=65 v=110
29568 On ch=1 n=33 v=110
29568 On ch=1 n=45 v=110
29662 Off ch=1 n=45 v=0
29662 Off ch=1 n=33 v=0
29664 On ch=1 n=33 v=110
29664 On ch=1 n=45 v=110
29728 On ch=1 n=61 v=0
29728 On ch=1 n=65 v=0
29760 On ch=1 n=57 v=110
29760 On ch=1 n=64 v=110
29824 Off ch=1 n=45 v=0
29824 Off ch=1 n=33 v=0
29856 On ch=1 n=33 v=110
29856 On ch=1 n=45 v=110
29920 On ch=1 n=57 v=0
29920 On ch=1 n=64 v=0
29950 Off ch=1 n=45 v=0
29950 Off ch=1 n=33 v=0
29952 Par ch=1 c=64 v=127
29952 Par ch=1 c=64 v=0
29952 Par ch=1 c=64 v=0
29952 Par ch=1 c=64 v=127
29952 On ch=1 n=53 v=110
29952 On ch=1 n=57 v=110
29952 On ch=1 n=62 v=110
29952 On ch=1 n=38 v=110
29952 On ch=1 n=50 v=110
30112 Off ch=1 n=50 v=0
30112 Off ch=1 n=38 v=0
30112 On ch=1 n=53 v=0
30112 On ch=1 n=57 v=0
30112 On ch=1 n=62 v=0
30144 On ch=1 n=38 v=110
30144 On ch=1 n=50 v=110
30238 Off ch=1 n=50 v=0
30238 Off ch=1 n=38 v=0
30240 On ch=1 n=38 v=110
30240 On ch=1 n=50 v=110
30336 On ch=1 n=62 v=110
30400 Off ch=1 n=50 v=0
30400 Off ch=1 n=38 v=0
30430 On ch=1 n=62 v=0
30432 On ch=1 n=64 v=110
30432 On ch=1 n=38 v=110
30432 On ch=1 n=50 v=110
30526 Off ch=1 n=50 v=0
30526 Off ch=1 n=38 v=0
30526 On ch=1 n=64 v=0
30528 Par ch=1 c=64 v=127
30528 Par ch=1 c=64 v=0
30528 Par ch=1 c=64 v=0
30528 Par ch=1 c=64 v=127
30528 On ch=1 n=57 v=110
30528 On ch=1 n=62 v=110
30528 On ch=1 n=65 v=110
30528 On ch=1 n=38 v=110
30528 On ch=1 n=50 v=110
30688 Off ch=1 n=50 v=0
30688 Off ch=1 n=38 v=0
30720 On ch=1 n=38 v=110
30720 On ch=1 n=50 v=110
30814 Off ch=1 n=50 v=0
30814 Off ch=1 n=38 v=0
30816 On ch=1 n=38 v=110
30816 On ch=1 n=50 v=110
30864 On ch=1 n=57 v=0
30864 On ch=1 n=62 v=0
30864 On ch=1 n=65 v=0
30912 On ch=1 n=67 v=110
30976 Off ch=1 n=50 v=0
30976 Off ch=1 n=38 v=0
31006 On ch=1 n=67 v=0
31008 On ch=1 n=69 v=110
31008 On ch=1 n=38 v=110
31008 On ch=1 n=50 v=110
31102 Off ch=1 n=50 v=0
31102 Off ch=1 n=38 v=0
31102 On ch=1 n=69 v=0
31104 Par ch=1 c=64 v=127
31104 Par ch=1 c=64 v=0
31104 Par ch=1 c=64 v=0
31104 Par ch=1 c=64 v=127
31104 On ch=1 n=60 v=110
31104 On ch=1 n=67 v=110
31104 On ch=1 n=36 v=110
31104 On ch=1 n=48 v=110
31264 Off ch=1 n=48 v=0
31264 Off ch=1 n=36 v=0
31264 On ch=1 n=60 v=0
31264 On ch=1 n=67 v=0
31296 On ch=1 n=60 v=110
31296 On ch=1 n=65 v=110
31296 On ch=1 n=36 v=110
31296 On ch=1 n=48 v=110
31390 Off ch=1 n=48 v=0
31390 Off ch=1 n=36 v=0
31392 On ch=1 n=36 v=110
31392 On ch=1 n=48 v=110
31456 On ch=1 n=60 v=0
31456 On ch=1 n=65 v=0
31486 Off ch=1 n=48 v=0
31486 Off ch=1 n=36 v=0
31488 On ch=1 n=60 v=110
31488 On ch=1 n=64 v=110
31488 On ch=1 n=36 v=110
31488 On ch=1 n=48 v=110
31582 Off ch=1 n=48 v=0
31582 Off ch=1 n=36 v=0
31584 On ch=1 n=36 v=110
31584 On ch=1 n=48 v=110
31648 On ch=1 n=60 v=0
31648 On ch=1 n=64 v=0
31678 Off ch=1 n=48 v=0
31678 Off ch=1 n=36 v=0
31680 Par ch=1 c=64 v=127
31680 Par ch=1 c=64 v=0
31680 Par ch=1 c=64 v=0
31680 Par ch=1 c=64 v=127
31680 On ch=1 n=57 v=110
31680 On ch=1 n=60 v=110
31680 On ch=1 n=65 v=110
31680 On ch=1 n=41 v=110
31680 On ch=1 n=53 v=110
31840 Off ch=1 n=53 v=0
31840 Off ch=1 n=41 v=0
31840 On ch=1 n=57 v=0
31840 On ch=1 n=60 v=0
31840 On ch=1 n=65 v=0
31872 On ch=1 n=57 v=110
31872 On ch=1 n=60 v=110
31872 On ch=1 n=67 v=110
31872 On ch=1 n=41 v=110
31872 On ch=1 n=53 v=110
31966 Off ch=1 n=53 v=0
31966 Off ch=1 n=41 v=0
31968 On ch=1 n=41 v=110
31968 On ch=1 n=53 v=110
32032 On ch=1 n=57 v=0
32032 On ch=1 n=60 v=0
32032 On ch=1 n=67 v=0
32062 Off ch=1 n=53 v=0
32062 Off ch=1 n=41 v=0
32064 On ch=1 n=57 v=110
32064 On ch=1 n=60 v=110
32064 On ch=1 n=69 v=110
32064 On ch=1 n=41 v=110
32064 On ch=1 n=53 v=110
32158 Off ch=1 n=53 v=0
32158 Off ch=1 n=41 v=0
32160 On ch=1 n=41 v=110
32160 On ch=1 n=53 v=110
32224 On ch=1 n=57 v=0
32224 On ch=1 n=60 v=0
32224 On ch=1 n=69 v=0
32254 Off ch=1 n=53 v=0
32254 Off ch=1 n=41 v=0
32256 Par ch=1 c=64 v=127
32256 Par ch=1 c=64 v=0
32256 Par ch=1 c=64 v=0
32256 Par ch=1 c=64 v=127
32256 On ch=1 n=60 v=110
32256 On ch=1 n=64 v=110
32256 On ch=1 n=67 v=110
32256 On ch=1 n=36 v=110
32256 On ch=1 n=48 v=110
32416 Off ch=1 n=48 v=0
32416 Off ch=1 n=36 v=0
32416 On ch=1 n=60 v=0
32416 On ch=1 n=64 v=0
32416 On ch=1 n=67 v=0
32448 On ch=1 n=36 v=110
32448 On ch=1 n=48 v=110
32542 Off ch=1 n=48 v=0
32542 Off ch=1 n=36 v=0
32544 On ch=1 n=36 v=110
32544 On ch=1 n=48 v=110
32638 Off ch=1 n=48 v=0
32638 Off ch=1 n=36 v=0
32640 On ch=1 n=65 v=110
32640 On ch=1 n=36 v=110
32640 On ch=1 n=48 v=110
32734 Off ch=1 n=48 v=0
32734 Off ch=1 n=36 v=0
32734 On ch=1 n=65 v=0
32736 On ch=1 n=67 v=110
32736 On ch=1 n=36 v=110
32736 On ch=1 n=48 v=110
32830 Off ch=1 n=48 v=0
32830 Off ch=1 n=36 v=0
32830 On ch=1 n=67 v=0
32832 Par ch=1 c=64 v=127
32832 Par ch=1 c=64 v=0
32832 Par ch=1 c=64 v=0
32832 Par ch=1 c=64 v=127
32832 On ch=1 n=60 v=110
32832 On ch=1 n=65 v=110
32832 On ch=1 n=69 v=110
32832 On ch=1 n=41 v=110
32832 On ch=1 n=53 v=110
32992 Off ch=1 n=53 v=0
32992 Off ch=1 n=41 v=0
32992 On ch=1 n=60 v=0
32992 On ch=1 n=65 v=0
32992 On ch=1 n=69 v=0
33024 On ch=1 n=41 v=110
33024 On ch=1 n=53 v=110
33118 Off ch=1 n=53 v=0
33118 Off ch=1 n=41 v=0
33120 On ch=1 n=41 v=110
33120 On ch=1 n=53 v=110
33214 Off ch=1 n=53 v=0
33214 Off ch=1 n=41 v=0
33216 On ch=1 n=67 v=110
33216 On ch=1 n=41 v=110
33216 On ch=1 n=53 v=110
33310 Off ch=1 n=53 v=0
33310 Off ch=1 n=41 v=0
33310 On ch=1 n=67 v=0
33312 On ch=1 n=65 v=110
33312 On ch=1 n=41 v=110
33312 On ch=1 n=53 v=110
33406 Off ch=1 n=53 v=0
33406 Off ch=1 n=41 v=0
33406 On ch=1 n=65 v=0
33408 Par ch=1 c=64 v=127
33408 Par ch=1 c=64 v=0
33408 Par ch=1 c=64 v=0
33408 Par ch=1 c=64 v=127
33408 On ch=1 n=61 v=110
33408 On ch=1 n=64 v=110
33408 On ch=1 n=33 v=110
33408 On ch=1 n=45 v=110
33568 Off ch=1 n=45 v=0
33568 Off ch=1 n=33 v=0
33568 On ch=1 n=61 v=0
33568 On ch=1 n=64 v=0
33600 On ch=1 n=61 v=110
33600 On ch=1 n=65 v=110
33600 On ch=1 n=33 v=110
33600 On ch=1 n=45 v=110
33694 Off ch=1 n=45 v=0
33694 Off ch=1 n=33 v=0
33696 On ch=1 n=33 v=110
33696 On ch=1 n=45 v=110
33760 On ch=1 n=61 v=0
33760 On ch=1 n=65 v=0
33790 Off ch=1 n=45 v=0
33790 Off ch=1 n=33 v=0
33792 On ch=1 n=61 v=110
33792 On ch=1 n=64 v=110
33792 On ch=1 n=33 v=110
33792 On ch=1 n=45 v=110
33886 Off ch=1 n=45 v=0
33886 Off ch=1 n=33 v=0
33888 On ch=1 n=33 v=110
33888 On ch=1 n=45 v=110
33952 On ch=1 n=61 v=0
33952 On ch=1 n=64 v=0
33982 Off ch=1 n=45 v=0
33982 Off ch=1 n=33 v=0
33984 Par ch=1 c=64 v=127
33984 Par ch=1 c=64 v=0
33984 Par ch=1 c=64 v=0
33984 Par ch=1 c=64 v=127
33984 On ch=1 n=53 v=110
33984 On ch=1 n=57 v=110
33984 On ch=1 n=62 v=110
33984 On ch=1 n=38 v=110
33984 On ch=1 n=50 v=110
34144 Off ch=1 n=50 v=0
34144 Off ch=1 n=38 v=0
34144 On ch=1 n=53 v=0
34144 On ch=1 n=57 v=0
34144 On ch=1 n=62 v=0
34176 On ch=1 n=38 v=110
34176 On ch=1 n=50 v=110
34270 Off ch=1 n=50 v=0
34270 Off ch=1 n=38 v=0
34272 On ch=1 n=38 v=110
34272 On ch=1 n=50 v=110
34368 On ch=1 n=64 v=110
34432 Off ch=1 n=50 v=0
34432 Off ch=1 n=38 v=0
34462 On ch=1 n=64 v=0
34464 On ch=1 n=60 v=110
34464 On ch=1 n=38 v=110
34464 On ch=1 n=50 v=110
34558 Off ch=1 n=50 v=0
34558 Off ch=1 n=38 v=0
34558 On ch=1 n=60 v=0
34560 Par ch=1 c=64 v=127
34560 Par ch=1 c=64 v=0
34560 Par ch=1 c=64 v=0
34560 Par ch=1 c=64 v=127
34560 On ch=1 n=53 v=110
34560 On ch=1 n=57 v=110
34560 On ch=1 n=62 v=110
34560 On ch=1 n=38 v=110
34560 On ch=1 n=50 v=110
34654 On ch=1 n=53 v=0
34654 On ch=1 n=57 v=0
34654 On ch=1 n=62 v=0
34720 Off ch=1 n=50 v=0
34720 Off ch=1 n=38 v=0
34752 On ch=1 n=38 v=110
34752 On ch=1 n=50 v=110
34846 Off ch=1 n=50 v=0
34846 Off ch=1 n=38 v=0
34848 On ch=1 n=38 v=110
34848 On ch=1 n=50 v=110
34942 Off ch=1 n=50 v=0
34942 Off ch=1 n=38 v=0
34944 On ch=1 n=74 v=110
34944 On ch=1 n=38 v=110
34944 On ch=1 n=50 v=110
35038 Off ch=1 n=50 v=0
35038 Off ch=1 n=38 v=0
35038 On ch=1 n=74 v=0
35040 On ch=1 n=76 v=110
35040 On ch=1 n=38 v=110
35040 On ch=1 n=50 v=110
35134 Off ch=1 n=50 v=0
35134 Off ch=1 n=38 v=0
35134 On ch=1 n=76 v=0
35136 Par ch=1 c=64 v=127
35136 Par ch=1 c=64 v=0
35136 Par ch=1 c=64 v=0
35136 Par ch=1 c=64 v=127
35136 On ch=1 n=69 v=110
35136 On ch=1 n=74 v=110
35136 On ch=1 n=77 v=110
35136 On ch=1 n=38 v=110
35136 On ch=1 n=50 v=110
35296 Off ch=1 n=50 v=0
35296 Off ch=1 n=38 v=0
35296 On ch=1 n=69 v=0
35296 On ch=1 n=74 v=0
35296 On ch=1 n=77 v=0
35328 On ch=1 n=38 v=110
35328 On ch=1 n=50 v=110
35422 Off ch=1 n=50 v=0
35422 Off ch=1 n=38 v=0
35424 On ch=1 n=38 v=110
35424 On ch=1 n=50 v=110
35518 Off ch=1 n=50 v=0
35518 Off ch=1 n=38 v=0
35520 On ch=1 n=76 v=110
35520 On ch=1 n=38 v=110
35520 On ch=1 n=50 v=110
35614 Off ch=1 n=50 v=0
35614 Off ch=1 n=38 v=0
35614 On ch=1 n=76 v=0
35616 On ch=1 n=77 v=110
35616 On ch=1 n=38 v=110
35616 On ch=1 n=50 v=110
35710 Off ch=1 n=50 v=0
35710 Off ch=1 n=38 v=0
35710 On ch=1 n=77 v=0
35712 Par ch=1 c=64 v=127
35712 Par ch=1 c=64 v=0
35712 Par ch=1 c=64 v=0
35712 Par ch=1 c=64 v=127
35712 On ch=1 n=72 v=110
35712 On ch=1 n=79 v=110
35712 On ch=1 n=36 v=110
35712 On ch=1 n=48 v=110
35872 Off ch=1 n=48 v=0
35872 Off ch=1 n=36 v=0
35872 On ch=1 n=72 v=0
35872 On ch=1 n=79 v=0
35904 On ch=1 n=72 v=110
35904 On ch=1 n=77 v=110
35904 On ch=1 n=36 v=110
35904 On ch=1 n=48 v=110
35998 Off ch=1 n=48 v=0
35998 Off ch=1 n=36 v=0
36000 On ch=1 n=36 v=110
36000 On ch=1 n=48 v=110
36064 On ch=1 n=72 v=0
36064 On ch=1 n=77 v=0
36094 Off ch=1 n=48 v=0
36094 Off ch=1 n=36 v=0
36096 On ch=1 n=72 v=110
36096 On ch=1 n=79 v=110
36096 On ch=1 n=36 v=110
36096 On ch=1 n=48 v=110
36190 Off ch=1 n=48 v=0
36190 Off ch=1 n=36 v=0
36192 On ch=1 n=36 v=110
36192 On ch=1 n=48 v=110
36256 On ch=1 n=72 v=0
36256 On ch=1 n=79 v=0
36286 Off ch=1 n=48 v=0
36286 Off ch=1 n=36 v=0
36288 Par ch=1 c=64 v=127
36288 Par ch=1 c=64 v=0
36288 Par ch=1 c=64 v=0
36288 Par ch=1 c=64 v=127
36288 On ch=1 n=77 v=110
36288 On ch=1 n=81 v=110
36288 On ch=1 n=41 v=110
36288 On ch=1 n=53 v=110
36448 Off ch=1 n=53 v=0
36448 Off ch=1 n=41 v=0
36448 On ch=1 n=77 v=0
36448 On ch=1 n=81 v=0
36480 On ch=1 n=72 v=110
36480 On ch=1 n=79 v=110
36480 On ch=1 n=41 v=110
36480 On ch=1 n=53 v=110
36574 Off ch=1 n=53 v=0
36574 Off ch=1 n=41 v=0
36576 On ch=1 n=41 v=110
36576 On ch=1 n=53 v=110
36640 On ch=1 n=72 v=0
36640 On ch=1 n=79 v=0
36670 Off ch=1 n=53 v=0
36670 Off ch=1 n=41 v=0
36672 On ch=1 n=72 v=110
36672 On ch=1 n=77 v=110
36672 On ch=1 n=41 v=110
36672 On ch=1 n=53 v=110
36766 Off ch=1 n=53 v=0
36766 Off ch=1 n=41 v=0
36768 On ch=1 n=41 v=110
36768 On ch=1 n=53 v=110
36832 On ch=1 n=72 v=0
36832 On ch=1 n=77 v=0
36862 Off ch=1 n=53 v=0
36862 Off ch=1 n=41 v=0
36864 Par ch=1 c=64 v=127
36864 Par ch=1 c=64 v=0
36864 Par ch=1 c=64 v=0
36864 Par ch=1 c=64 v=127
36864 On ch=1 n=65 v=110
36864 On ch=1 n=70 v=110
36864 On ch=1 n=74 v=110
36864 On ch=1 n=34 v=110
36864 On ch=1 n=46 v=110
37024 Off ch=1 n=46 v=0
37024 Off ch=1 n=34 v=0
37024 On ch=1 n=65 v=0
37024 On ch=1 n=70 v=0
37024 On ch=1 n=74 v=0
37056 On ch=1 n=34 v=110
37056 On ch=1 n=46 v=110
37150 Off ch=1 n=46 v=0
37150 Off ch=1 n=34 v=0
37152 On ch=1 n=34 v=110
37152 On ch=1 n=46 v=110
37246 Off ch=1 n=46 v=0
37246 Off ch=1 n=34 v=0
37248 On ch=1 n=74 v=110
37248 On ch=1 n=34 v=110
37248 On ch=1 n=46 v=110
37342 Off ch=1 n=46 v=0
37342 Off ch=1 n=34 v=0
37342 On ch=1 n=74 v=0
37344 On ch=1 n=76 v=110
37344 On ch=1 n=34 v=110
37344 On ch=1 n=46 v=110
37438 Off ch=1 n=46 v=0
37438 Off ch=1 n=34 v=0
37438 On ch=1 n=76 v=0
37440 Par ch=1 c=64 v=127
37440 Par ch=1 c=64 v=0
37440 Par ch=1 c=64 v=0
37440 Par ch=1 c=64 v=127
37440 On ch=1 n=69 v=110
37440 On ch=1 n=74 v=110
37440 On ch=1 n=77 v=110
37440 On ch=1 n=38 v=110
37440 On ch=1 n=50 v=110
37600 Off ch=1 n=50 v=0
37600 Off ch=1 n=38 v=0
37600 On ch=1 n=69 v=0
37600 On ch=1 n=74 v=0
37600 On ch=1 n=77 v=0
37632 On ch=1 n=69 v=110
37632 On ch=1 n=74 v=110
37632 On ch=1 n=79 v=110
37632 On ch=1 n=38 v=110
37632 On ch=1 n=50 v=110
37726 Off ch=1 n=50 v=0
37726 Off ch=1 n=38 v=0
37728 On ch=1 n=38 v=110
37728 On ch=1 n=50 v=110
37792 On ch=1 n=69 v=0
37792 On ch=1 n=74 v=0
37792 On ch=1 n=79 v=0
37822 Off ch=1 n=50 v=0
37822 Off ch=1 n=38 v=0
37824 On ch=1 n=74 v=110
37824 On ch=1 n=81 v=110
37824 On ch=1 n=38 v=110
37824 On ch=1 n=50 v=110
37918 Off ch=1 n=50 v=0
37918 Off ch=1 n=38 v=0
37920 On ch=1 n=38 v=110
37920 On ch=1 n=50 v=110
37984 On ch=1 n=74 v=0
37984 On ch=1 n=81 v=0
38014 Off ch=1 n=50 v=0
38014 Off ch=1 n=38 v=0
38016 Par ch=1 c=64 v=127
38016 Par ch=1 c=64 v=0
38016 Par ch=1 c=64 v=0
38016 Par ch=1 c=64 v=127
38016 On ch=1 n=70 v=110
38016 On ch=1 n=74 v=110
38016 On ch=1 n=82 v=110
38016 On ch=1 n=31 v=110
38016 On ch=1 n=43 v=110
38176 Off ch=1 n=43 v=0
38176 Off ch=1 n=31 v=0
38176 On ch=1 n=70 v=0
38176 On ch=1 n=74 v=0
38176 On ch=1 n=82 v=0
38208 On ch=1 n=70 v=110
38208 On ch=1 n=74 v=110
38208 On ch=1 n=31 v=110
38208 On ch=1 n=43 v=110
38302 Off ch=1 n=43 v=0
38302 Off ch=1 n=31 v=0
38304 On ch=1 n=31 v=110
38304 On ch=1 n=43 v=110
38368 On ch=1 n=70 v=0
38368 On ch=1 n=74 v=0
38398 Off ch=1 n=43 v=0
38398 Off ch=1 n=31 v=0
38400 On ch=1 n=70 v=110
38400 On ch=1 n=79 v=110
38400 On ch=1 n=31 v=110
38400 On ch=1 n=43 v=110
38494 Off ch=1 n=43 v=0
38494 Off ch=1 n=31 v=0
38496 On ch=1 n=31 v=110
38496 On ch=1 n=43 v=110
38560 On ch=1 n=70 v=0
38560 On ch=1 n=79 v=0
38590 Off ch=1 n=43 v=0
38590 Off ch=1 n=31 v=0
38592 Par ch=1 c=64 v=127
38592 Par ch=1 c=64 v=0
38592 Par ch=1 c=64 v=0
38592 Par ch=1 c=64 v=127
38592 On ch=1 n=69 v=110
38592 On ch=1 n=77 v=110
38592 On ch=1 n=33 v=110
38592 On ch=1 n=45 v=110
38752 Off ch=1 n=45 v=0
38752 Off ch=1 n=33 v=0
38752 On ch=1 n=69 v=0
38752 On ch=1 n=77 v=0
38784 On ch=1 n=33 v=110
38784 On ch=1 n=45 v=110
38878 Off ch=1 n=45 v=0
38878 Off ch=1 n=33 v=0
38880 On ch=1 n=33 v=110
38880 On ch=1 n=45 v=110
38974 Off ch=1 n=45 v=0
38974 Off ch=1 n=33 v=0
38976 On ch=1 n=79 v=110
38976 On ch=1 n=33 v=110
38976 On ch=1 n=45 v=110
39070 Off ch=1 n=45 v=0
39070 Off ch=1 n=33 v=0
39070 On ch=1 n=79 v=0
39072 On ch=1 n=76 v=110
39072 On ch=1 n=33 v=110
39072 On ch=1 n=45 v=110
39166 Off ch=1 n=45 v=0
39166 Off ch=1 n=33 v=0
39166 On ch=1 n=76 v=0
39168 Par ch=1 c=64 v=127
39168 Par ch=1 c=64 v=0
39168 Par ch=1 c=64 v=0
39168 Par ch=1 c=64 v=127
39168 On ch=1 n=69 v=110
39168 On ch=1 n=74 v=110
39168 On ch=1 n=33 v=110
39168 On ch=1 n=45 v=110
39328 Off ch=1 n=45 v=0
39328 Off ch=1 n=33 v=0
39328 On ch=1 n=69 v=0
39328 On ch=1 n=74 v=0
39360 On ch=1 n=33 v=110
39360 On ch=1 n=45 v=110
39454 Off ch=1 n=45 v=0
39454 Off ch=1 n=33 v=0
39456 On ch=1 n=33 v=110
39456 On ch=1 n=45 v=110
39550 Off ch=1 n=45 v=0
39550 Off ch=1 n=33 v=0
39552 On ch=1 n=76 v=110
39552 On ch=1 n=33 v=110
39552 On ch=1 n=45 v=110
39646 Off ch=1 n=45 v=0
39646 Off ch=1 n=33 v=0
39646 On ch=1 n=76 v=0
39648 On ch=1 n=73 v=110
39648 On ch=1 n=33 v=110
39648 On ch=1 n=45 v=110
39742 Off ch=1 n=45 v=0
39742 Off ch=1 n=33 v=0
39742 On ch=1 n=73 v=0
39744 Par ch=1 c=64 v=127
39744 Par ch=1 c=64 v=0
39744 Par ch=1 c=64 v=0
39744 Par ch=1 c=64 v=127
39744 On ch=1 n=74 v=110
39744 On ch=1 n=77 v=110
39744 On ch=1 n=81 v=110
39744 On ch=1 n=38 v=110
39744 On ch=1 n=50 v=110
39904 Off ch=1 n=50 v=0
39904 Off ch=1 n=38 v=0
39904 On ch=1 n=74 v=0
39904 On ch=1 n=77 v=0
39904 On ch=1 n=81 v=0
39936 On ch=1 n=38 v=110
39936 On ch=1 n=50 v=110
40030 Off ch=1 n=50 v=0
40030 Off ch=1 n=38 v=0
40032 On ch=1 n=38 v=110
40032 On ch=1 n=50 v=110
40126 Off ch=1 n=50 v=0
40126 Off ch=1 n=38 v=0
40128 On ch=1 n=38 v=110
40128 On ch=1 n=50 v=110
40222 Off ch=1 n=50 v=0
40222 Off ch=1 n=38 v=0
40224 On ch=1 n=38 v=110
40224 On ch=1 n=50 v=110
40318 Off ch=1 n=50 v=0
40318 Off ch=1 n=38 v=0
40320 Par ch=1 c=64 v=127
40320 Par ch=1 c=64 v=0
40320 Par ch=1 c=64 v=0
40320 Par ch=1 c=64 v=127
40320 On ch=1 n=74 v=110
40320 On ch=1 n=79 v=110
40320 On ch=1 n=82 v=110
40320 On ch=1 n=31 v=110
40320 On ch=1 n=43 v=110
40480 Off ch=1 n=43 v=0
40480 Off ch=1 n=31 v=0
40480 On ch=1 n=74 v=0
40480 On ch=1 n=79 v=0
40480 On ch=1 n=82 v=0
40512 On ch=1 n=31 v=110
40512 On ch=1 n=43 v=110
40606 Off ch=1 n=43 v=0
40606 Off ch=1 n=31 v=0
40608 On ch=1 n=31 v=110
40608 On ch=1 n=43 v=110
40702 Off ch=1 n=43 v=0
40702 Off ch=1 n=31 v=0
40704 On ch=1 n=31 v=110
40704 On ch=1 n=43 v=110
40798 Off ch=1 n=43 v=0
40798 Off ch=1 n=31 v=0
40800 On ch=1 n=31 v=110
40800 On ch=1 n=43 v=110
40894 Off ch=1 n=43 v=0
40894 Off ch=1 n=31 v=0
40896 Par ch=1 c=64 v=127
40896 Par ch=1 c=64 v=0
40896 Par ch=1 c=64 v=0
40896 Par ch=1 c=64 v=127
40896 On ch=1 n=72 v=110
40896 On ch=1 n=77 v=110
40896 On ch=1 n=81 v=110
40896 On ch=1 n=41 v=110
40896 On ch=1 n=53 v=110
41056 Off ch=1 n=53 v=0
41056 Off ch=1 n=41 v=0
41056 On ch=1 n=72 v=0
41056 On ch=1 n=77 v=0
41056 On ch=1 n=81 v=0
41088 On ch=1 n=72 v=110
41088 On ch=1 n=77 v=110
41088 On ch=1 n=81 v=110
41088 On ch=1 n=41 v=110
41088 On ch=1 n=53 v=110
41182 Off ch=1 n=53 v=0
41182 Off ch=1 n=41 v=0
41184 On ch=1 n=41 v=110
41184 On ch=1 n=53 v=110
41248 On ch=1 n=72 v=0
41248 On ch=1 n=77 v=0
41248 On ch=1 n=81 v=0
41280 On ch=1 n=72 v=110
41280 On ch=1 n=77 v=110
41280 On ch=1 n=81 v=110
41344 Off ch=1 n=53 v=0
41344 Off ch=1 n=41 v=0
41376 On ch=1 n=41 v=110
41376 On ch=1 n=53 v=110
41440 On ch=1 n=72 v=0
41440 On ch=1 n=77 v=0
41440 On ch=1 n=81 v=0
41470 Off ch=1 n=53 v=0
41470 Off ch=1 n=41 v=0
41472 Par ch=1 c=64 v=127
41472 Par ch=1 c=64 v=0
41472 On ch=1 n=72 v=110
41472 On ch=1 n=76 v=110
41472 On ch=1 n=81 v=110
41472 On ch=1 n=36 v=110
41472 On ch=1 n=48 v=110
41566 On ch=1 n=72 v=0
41566 On ch=1 n=76 v=0
41566 On ch=1 n=81 v=0
41568 Par ch=1 c=64 v=0
41568 Par ch=1 c=64 v=127
41568 On ch=1 n=79 v=110
41632 Off ch=1 n=48 v=0
41632 Off ch=1 n=36 v=0
41662 On ch=1 n=79 v=0
41664 On ch=1 n=36 v=110
41664 On ch=1 n=48 v=110
41758 Off ch=1 n=48 v=0
41758 Off ch=1 n=36 v=0
41760 On ch=1 n=36 v=110
41760 On ch=1 n=48 v=110
41854 Off ch=1 n=48 v=0
41854 Off ch=1 n=36 v=0
41856 On ch=1 n=36 v=110
41856 On ch=1 n=48 v=110
41950 Off ch=1 n=48 v=0
41950 Off ch=1 n=36 v=0
41952 On ch=1 n=36 v=110
41952 On ch=1 n=48 v=110
42046 Off ch=1 n=48 v=0
42046 Off ch=1 n=36 v=0
42048 Par ch=1 c=64 v=127
42048 Par ch=1 c=64 v=0
42048 Par ch=1 c=64 v=0
42048 Par ch=1 c=64 v=127
42048 On ch=1 n=70 v=110
42048 On ch=1 n=74 v=110
42048 On ch=1 n=79 v=110
42048 On ch=1 n=31 v=110
42048 On ch=1 n=43 v=110
42208 Off ch=1 n=43 v=0
42208 Off ch=1 n=31 v=0
42208 On ch=1 n=70 v=0
42208 On ch=1 n=74 v=0
42208 On ch=1 n=79 v=0
42240 On ch=1 n=31 v=110
42240 On ch=1 n=43 v=110
42334 Off ch=1 n=43 v=0
42334 Off ch=1 n=31 v=0
42336 On ch=1 n=31 v=110
42336 On ch=1 n=43 v=110
42430 Off ch=1 n=43 v=0
42430 Off ch=1 n=31 v=0
42432 On ch=1 n=31 v=110
42432 On ch=1 n=43 v=110
42526 Off ch=1 n=43 v=0
42526 Off ch=1 n=31 v=0
42528 On ch=1 n=31 v=110
42528 On ch=1 n=43 v=110
42622 Off ch=1 n=43 v=0
42622 Off ch=1 n=31 v=0
42624 Par ch=1 c=64 v=127
42624 Par ch=1 c=64 v=0
42624 Par ch=1 c=64 v=0
42624 Par ch=1 c=64 v=127
42624 On ch=1 n=69 v=110
42624 On ch=1 n=74 v=110
42624 On ch=1 n=77 v=110
42624 On ch=1 n=33 v=110
42624 On ch=1 n=45 v=110
42784 Off ch=1 n=45 v=0
42784 Off ch=1 n=33 v=0
42784 On ch=1 n=69 v=0
42784 On ch=1 n=74 v=0
42784 On ch=1 n=77 v=0
42816 On ch=1 n=33 v=110
42816 On ch=1 n=45 v=110
42910 Off ch=1 n=45 v=0
42910 Off ch=1 n=33 v=0
42912 On ch=1 n=33 v=110
42912 On ch=1 n=45 v=110
43006 Off ch=1 n=45 v=0
43006 Off ch=1 n=33 v=0
43008 On ch=1 n=33 v=110
43008 On ch=1 n=45 v=110
43102 Off ch=1 n=45 v=0
43102 Off ch=1 n=33 v=0
43104 On ch=1 n=33 v=110
43104 On ch=1 n=45 v=110
43198 Off ch=1 n=45 v=0
43198 Off ch=1 n=33 v=0
43200 Par ch=1 c=64 v=0
43200 Par ch=1 c=64 v=127
43200 On ch=1 n=69 v=110
43200 On ch=1 n=77 v=110
43200 On ch=1 n=33 v=110
43200 On ch=1 n=45 v=110
43360 Off ch=1 n=45 v=0
43360 Off ch=1 n=33 v=0
43360 On ch=1 n=69 v=0
43360 On ch=1 n=77 v=0
43392 On ch=1 n=69 v=110
43392 On ch=1 n=79 v=110
43392 On ch=1 n=33 v=110
43392 On ch=1 n=45 v=110
43486 Off ch=1 n=45 v=0
43486 Off ch=1 n=33 v=0
43488 On ch=1 n=33 v=110
43488 On ch=1 n=45 v=110
43552 On ch=1 n=69 v=0
43552 On ch=1 n=79 v=0
43582 Off ch=1 n=45 v=0
43582 Off ch=1 n=33 v=0
43584 On ch=1 n=69 v=110
43584 On ch=1 n=76 v=110
43584 On ch=1 n=33 v=110
43584 On ch=1 n=45 v=110
43678 Off ch=1 n=45 v=0
43678 Off ch=1 n=33 v=0
43680 On ch=1 n=33 v=110
43680 On ch=1 n=45 v=110
43744 On ch=1 n=69 v=0
43744 On ch=1 n=76 v=0
43774 Off ch=1 n=45 v=0
43774 Off ch=1 n=33 v=0
43776 Par ch=1 c=64 v=127
43776 Par ch=1 c=64 v=0
43776 Par ch=1 c=64 v=0
43776 Par ch=1 c=64 v=127
43776 On ch=1 n=65 v=110
43776 On ch=1 n=69 v=110
43776 On ch=1 n=74 v=110
43776 On ch=1 n=38 v=110
43776 On ch=1 n=50 v=110
43936 Off ch=1 n=50 v=0
43936 Off ch=1 n=38 v=0
43968 On ch=1 n=38 v=110
43968 On ch=1 n=50 v=110
44032 On ch=1 n=65 v=0
44032 On ch=1 n=69 v=0
44032 On ch=1 n=74 v=0
44062 Off ch=1 n=50 v=0
44062 Off ch=1 n=38 v=0
44064 On ch=1 n=74 v=110
44064 On ch=1 n=38 v=110
44064 On ch=1 n=50 v=110
44158 Off ch=1 n=50 v=0
44158 Off ch=1 n=38 v=0
44158 On ch=1 n=74 v=0
44160 On ch=1 n=76 v=110
44160 On ch=1 n=38 v=110
44160 On ch=1 n=50 v=110
44254 Off ch=1 n=50 v=0
44254 Off ch=1 n=38 v=0
44254 On ch=1 n=76 v=0
44256 On ch=1 n=77 v=110
44256 On ch=1 n=38 v=110
44256 On ch=1 n=50 v=110
44350 Off ch=1 n=50 v=0
44350 Off ch=1 n=38 v=0
44350 On ch=1 n=77 v=0
44352 Par ch=1 c=64 v=127
44352 Par ch=1 c=64 v=0
44352 Par ch=1 c=64 v=0
44352 Par ch=1 c=64 v=127
44352 On ch=1 n=74 v=110
44352 On ch=1 n=77 v=110
44352 On ch=1 n=81 v=110
44352 On ch=1 n=38 v=110
44352 On ch=1 n=50 v=110
44512 Off ch=1 n=50 v=0
44512 Off ch=1 n=38 v=0
44544 On ch=1 n=38 v=110
44544 On ch=1 n=50 v=110
44608 On ch=1 n=74 v=0
44608 On ch=1 n=77 v=0
44608 On ch=1 n=81 v=0
44638 Off ch=1 n=50 v=0
44638 Off ch=1 n=38 v=0
44640 On ch=1 n=74 v=110
44640 On ch=1 n=38 v=110
44640 On ch=1 n=50 v=110
44734 Off ch=1 n=50 v=0
44734 Off ch=1 n=38 v=0
44734 On ch=1 n=74 v=0
44736 On ch=1 n=76 v=110
44736 On ch=1 n=38 v=110
44736 On ch=1 n=50 v=110
44830 Off ch=1 n=50 v=0
44830 Off ch=1 n=38 v=0
44830 On ch=1 n=76 v=0
44832 On ch=1 n=77 v=110
44832 On ch=1 n=38 v=110
44832 On ch=1 n=50 v=110
44926 Off ch=1 n=50 v=0
44926 Off ch=1 n=38 v=0
44926 On ch=1 n=77 v=0
44928 Par ch=1 c=64 v=127
44928 Par ch=1 c=64 v=0
44928 Par ch=1 c=64 v=0
44928 Par ch=1 c=64 v=127
44928 On ch=1 n=74 v=110
44928 On ch=1 n=77 v=110
44928 On ch=1 n=82 v=110
44928 On ch=1 n=34 v=110
44928 On ch=1 n=46 v=110
45088 Off ch=1 n=46 v=0
45088 Off ch=1 n=34 v=0
45120 On ch=1 n=34 v=110
45120 On ch=1 n=46 v=110
45184 On ch=1 n=74 v=0
45184 On ch=1 n=77 v=0
45184 On ch=1 n=82 v=0
45214 Off ch=1 n=46 v=0
45214 Off ch=1 n=34 v=0
45216 On ch=1 n=74 v=110
45216 On ch=1 n=34 v=110
45216 On ch=1 n=46 v=110
45310 Off ch=1 n=46 v=0
45310 Off ch=1 n=34 v=0
45310 On ch=1 n=74 v=0
45312 On ch=1 n=76 v=110
45312 On ch=1 n=34 v=110
45312 On ch=1 n=46 v=110
45406 Off ch=1 n=46 v=0
45406 Off ch=1 n=34 v=0
45406 On ch=1 n=76 v=0
45408 On ch=1 n=77 v=110
45408 On ch=1 n=34 v=110
45408 On ch=1 n=46 v=110
45502 Off ch=1 n=46 v=0
45502 Off ch=1 n=34 v=0
45502 On ch=1 n=77 v=0
45504 Par ch=1 c=64 v=127
45504 Par ch=1 c=64 v=0
45504 Par ch=1 c=64 v=0
45504 Par ch=1 c=64 v=127
45504 On ch=1 n=72 v=110
45504 On ch=1 n=77 v=110
45504 On ch=1 n=81 v=110
45504 On ch=1 n=41 v=110
45504 On ch=1 n=53 v=110
45664 Off ch=1 n=53 v=0
45664 Off ch=1 n=41 v=0
45664 On ch=1 n=72 v=0
45664 On ch=1 n=77 v=0
45664 On ch=1 n=81 v=0
45696 On ch=1 n=72 v=110
45696 On ch=1 n=77 v=110
45696 On ch=1 n=81 v=110
45696 On ch=1 n=41 v=110
45696 On ch=1 n=53 v=110
45790 Off ch=1 n=53 v=0
45790 Off ch=1 n=41 v=0
45792 On ch=1 n=41 v=110
45792 On ch=1 n=53 v=110
45856 On ch=1 n=72 v=0
45856 On ch=1 n=77 v=0
45856 On ch=1 n=81 v=0
45886 Off ch=1 n=53 v=0
45886 Off ch=1 n=41 v=0
45888 On ch=1 n=77 v=110
45888 On ch=1 n=84 v=110
45888 On ch=1 n=41 v=110
45888 On ch=1 n=53 v=110
45982 Off ch=1 n=53 v=0
45982 Off ch=1 n=41 v=0
45984 On ch=1 n=41 v=110
45984 On ch=1 n=53 v=110
46048 On ch=1 n=77 v=0
46048 On ch=1 n=84 v=0
46078 Off ch=1 n=53 v=0
46078 Off ch=1 n=41 v=0
46080 Par ch=1 c=64 v=127
46080 Par ch=1 c=64 v=0
46080 Par ch=1 c=64 v=0
46080 Par ch=1 c=64 v=127
46080 On ch=1 n=72 v=110
46080 On ch=1 n=76 v=110
46080 On ch=1 n=81 v=110
46080 On ch=1 n=36 v=110
46080 On ch=1 n=48 v=110
46174 On ch=1 n=72 v=0
46174 On ch=1 n=76 v=0
46174 On ch=1 n=81 v=0
46176 On ch=1 n=79 v=110
46240 Off ch=1 n=48 v=0
46240 Off ch=1 n=36 v=0
46270 On ch=1 n=79 v=0
46272 On ch=1 n=36 v=110
46272 On ch=1 n=48 v=110
46366 Off ch=1 n=48 v=0
46366 Off ch=1 n=36 v=0
46368 On ch=1 n=36 v=110
46368 On ch=1 n=48 v=110
46462 Off ch=1 n=48 v=0
46462 Off ch=1 n=36 v=0
46464 On ch=1 n=36 v=110
46464 On ch=1 n=48 v=110
46558 Off ch=1 n=48 v=0
46558 Off ch=1 n=36 v=0
46560 On ch=1 n=36 v=110
46560 On ch=1 n=48 v=110
46654 Off ch=1 n=48 v=0
46654 Off ch=1 n=36 v=0
46656 Par ch=1 c=64 v=127
46656 Par ch=1 c=64 v=0
46656 Par ch=1 c=64 v=0
46656 Par ch=1 c=64 v=127
46656 On ch=1 n=70 v=110
46656 On ch=1 n=74 v=110
46656 On ch=1 n=79 v=110
46656 On ch=1 n=31 v=110
46656 On ch=1 n=43 v=110
46816 Off ch=1 n=43 v=0
46816 Off ch=1 n=31 v=0
46816 On ch=1 n=70 v=0
46816 On ch=1 n=74 v=0
46816 On ch=1 n=79 v=0
46848 On ch=1 n=31 v=110
46848 On ch=1 n=43 v=110
46942 Off ch=1 n=43 v=0
46942 Off ch=1 n=31 v=0
46944 On ch=1 n=31 v=110
46944 On ch=1 n=43 v=110
47038 Off ch=1 n=43 v=0
47038 Off ch=1 n=31 v=0
47040 On ch=1 n=31 v=110
47040 On ch=1 n=43 v=110
47134 Off ch=1 n=43 v=0
47134 Off ch=1 n=31 v=0
47136 On ch=1 n=31 v=110
47136 On ch=1 n=43 v=110
47230 Off ch=1 n=43 v=0
47230 Off ch=1 n=31 v=0
47232 Par ch=1 c=64 v=127
47232 Par ch=1 c=64 v=0
47232 Par ch=1 c=64 v=0
47232 Par ch=1 c=64 v=127
47232 On ch=1 n=69 v=110
47232 On ch=1 n=74 v=110
47232 On ch=1 n=77 v=110
47232 On ch=1 n=33 v=110
47232 On ch=1 n=45 v=110
47392 Off ch=1 n=45 v=0
47392 Off ch=1 n=33 v=0
47392 On ch=1 n=69 v=0
47392 On ch=1 n=74 v=0
47392 On ch=1 n=77 v=0
47424 On ch=1 n=33 v=110
47424 On ch=1 n=45 v=110
47518 Off ch=1 n=45 v=0
47518 Off ch=1 n=33 v=0
47520 On ch=1 n=33 v=110
47520 On ch=1 n=45 v=110
47614 Off ch=1 n=45 v=0
47614 Off ch=1 n=33 v=0
47616 On ch=1 n=33 v=110
47616 On ch=1 n=45 v=110
47710 Off ch=1 n=45 v=0
47710 Off ch=1 n=33 v=0
47712 On ch=1 n=33 v=110
47712 On ch=1 n=45 v=110
47806 Off ch=1 n=45 v=0
47806 Off ch=1 n=33 v=0
47808 Par ch=1 c=64 v=0
47808 Par ch=1 c=64 v=127
47808 On ch=1 n=69 v=110
47808 On ch=1 n=77 v=110
47808 On ch=1 n=33 v=110
47808 On ch=1 n=45 v=110
47968 Off ch=1 n=45 v=0
47968 Off ch=1 n=33 v=0
47968 On ch=1 n=69 v=0
47968 On ch=1 n=77 v=0
48000 On ch=1 n=69 v=110
48000 On ch=1 n=79 v=110
48000 On ch=1 n=33 v=110
48000 On ch=1 n=45 v=110
48094 Off ch=1 n=45 v=0
48094 Off ch=1 n=33 v=0
48096 On ch=1 n=33 v=110
48096 On ch=1 n=45 v=110
48160 On ch=1 n=69 v=0
48160 On ch=1 n=79 v=0
48190 Off ch=1 n=45 v=0
48190 Off ch=1 n=33 v=0
48192 On ch=1 n=69 v=110
48192 On ch=1 n=76 v=110
48192 On ch=1 n=33 v=110
48192 On ch=1 n=45 v=110
48286 Off ch=1 n=45 v=0
48286 Off ch=1 n=33 v=0
48288 On ch=1 n=33 v=110
48288 On ch=1 n=45 v=110
48352 On ch=1 n=69 v=0
48352 On ch=1 n=76 v=0
48382 Off ch=1 n=45 v=0
48382 Off ch=1 n=33 v=0
48384 Par ch=1 c=64 v=127
48384 Par ch=1 c=64 v=0
48384 Par ch=1 c=64 v=0
48384 Par ch=1 c=64 v=127
48384 On ch=1 n=65 v=110
48384 On ch=1 n=69 v=110
48384 On ch=1 n=74 v=110
48384 On ch=1 n=38 v=110
48384 On ch=1 n=50 v=110
48640 Off ch=1 n=50 v=0
48640 Off ch=1 n=38 v=0
48640 On ch=1 n=65 v=0
48640 On ch=1 n=69 v=0
48640 On ch=1 n=74 v=0
48672 On ch=1 n=38 v=110
48672 On ch=1 n=50 v=110
48766 Off ch=1 n=50 v=0
48766 Off ch=1 n=38 v=0
48768 On ch=1 n=38 v=110
48768 On ch=1 n=50 v=110
48862 Off ch=1 n=50 v=0
48862 Off ch=1 n=38 v=0
48864 On ch=1 n=38 v=110
48864 On ch=1 n=50 v=110
48958 Off ch=1 n=50 v=0
48958 Off ch=1 n=38 v=0
48960 Par ch=1 c=64 v=127
48960 Par ch=1 c=64 v=0
48960 On ch=1 n=62 v=110
48960 On ch=1 n=26 v=110
48960 On ch=1 n=38 v=110
49680 Off ch=1 n=38 v=0
49680 Off ch=1 n=26 v=0
49680 On ch=1 n=62 v=0
49680 Meta TrkEnd
TrkEnd
