MFile 1 2 480
MTrk
0 SeqSpec 05 0f 1c 32 30 31 38 2e 30 31 2e 30 31 01 03
0 SeqSpec 05 0f 2d 4d 69 63 72 6f 73 6f 66 74 20 53 61 6e 73 20 53 65 72 69 66 2c 38 2e 32 35 2c 46 61 6c 73 65 2c 46 61 6c 73 65 2c 31 2c 30
0 SeqSpec 05 0f 12 03 03 7f 7f 00 ff 01 04 34 41 6c 74 6f 2d 66 61 6c 61 6e 74 65 73 20 28 44 69 73 70 6f 73 69 74 69 76 6f 20 64 65 20 48 69 67 68 20 44 65 66 69 6e 69 74 69 6f 6e 20 41 75 64 69 6f 29
0 TimeSig 4/4 24 8
0 Tempo 500000
0 Meta Marker "Marker ##"
61440 Meta Marker " "
159360 Meta Marker "Marker ##"
221280 Meta Marker " "
221280 Meta TrkEnd
TrkEnd
MTrk
0 SeqSpec 05 0f 09 48 48
0 SeqSpec 05 0f 06 47 65 6e 65 72 61 6c 20 4d 49 44 49 20 2d 20 4d 69 63 72 6f 73 6f 66 74 20 47 53 20 57 61 76 65 74 61 62 6c 65 20 53 79 6e 74 68
0 PrCh ch=1 p=0
0 Meta TrkName "Both"
0 Meta InstrName "Classic Electric Piano"
0 KeySig 1 major
0 SMPTE 32 0 0 0 0
0 On ch=1 n=76 v=81
0 Par ch=1 c=64 v=127
0 Par ch=1 c=64 v=127
0 On ch=1 n=52 v=73
62 Par ch=1 c=64 v=0
62 Par ch=1 c=64 v=0
182 Par ch=1 c=64 v=127
182 Par ch=1 c=64 v=127
461 Off ch=1 n=52 v=64
480 On ch=1 n=55 v=45
480 On ch=1 n=59 v=56
716 Off ch=1 n=76 v=64
720 On ch=1 n=71 v=91
940 Off ch=1 n=59 v=64
940 Off ch=1 n=55 v=64
1440 On ch=1 n=55 v=64
1440 On ch=1 n=59 v=59
1676 Off ch=1 n=71 v=64
1680 On ch=1 n=69 v=76
1900 Off ch=1 n=59 v=64
1900 Off ch=1 n=55 v=64
1916 Off ch=1 n=69 v=64
1920 On ch=1 n=67 v=94
1920 On ch=1 n=52 v=69
2156 Off ch=1 n=67 v=64
2160 On ch=1 n=69 v=81
2380 Off ch=1 n=52 v=64
2400 Meta Text "Marble Machine Piano Version"
2400 Meta Text "Marble Machine Piano Version"
2400 On ch=1 n=55 v=72
2400 On ch=1 n=59 v=73
2636 Off ch=1 n=69 v=64
2640 On ch=1 n=71 v=92
2860 Off ch=1 n=59 v=64
2860 Off ch=1 n=55 v=64
3116 Off ch=1 n=71 v=64
3120 On ch=1 n=67 v=75
3356 Off ch=1 n=67 v=64
3360 On ch=1 n=69 v=76
3360 On ch=1 n=55 v=77
3360 On ch=1 n=59 v=85
3596 Off ch=1 n=69 v=64
3600 On ch=1 n=74 v=99
3820 Off ch=1 n=59 v=64
3820 Off ch=1 n=55 v=64
3840 Par ch=1 c=64 v=0
3840 Par ch=1 c=64 v=0
3840 Par ch=1 c=64 v=127
3840 Par ch=1 c=64 v=127
3840 On ch=1 n=55 v=94
3902 Par ch=1 c=64 v=0
3902 Par ch=1 c=64 v=0
4022 Par ch=1 c=64 v=127
4022 Par ch=1 c=64 v=127
4301 Off ch=1 n=55 v=64
4320 On ch=1 n=59 v=77
4320 On ch=1 n=62 v=73
4556 Off ch=1 n=74 v=64
4560 On ch=1 n=71 v=90
4780 Off ch=1 n=62 v=64
4780 Off ch=1 n=59 v=64
5280 On ch=1 n=59 v=76
5280 On ch=1 n=62 v=49
5516 Off ch=1 n=71 v=64
5520 On ch=1 n=69 v=85
5740 Off ch=1 n=62 v=64
5740 Off ch=1 n=59 v=64
5756 Off ch=1 n=69 v=64
5760 On ch=1 n=67 v=85
5760 On ch=1 n=55 v=85
5996 Off ch=1 n=67 v=64
6000 On ch=1 n=69 v=85
6220 Off ch=1 n=55 v=64
6240 On ch=1 n=59 v=78
6240 On ch=1 n=62 v=57
6480 On ch=1 n=66 v=94
6700 Off ch=1 n=62 v=64
6700 Off ch=1 n=59 v=64
6770 Off ch=1 n=69 v=64
6913 Off ch=1 n=66 v=64
6960 On ch=1 n=67 v=85
7200 On ch=1 n=69 v=89
7200 On ch=1 n=59 v=86
7200 On ch=1 n=62 v=76
7212 Off ch=1 n=67 v=64
7440 On ch=1 n=74 v=97
7479 Off ch=1 n=69 v=64
7661 Off ch=1 n=62 v=64
7661 Off ch=1 n=59 v=64
7680 Par ch=1 c=64 v=0
7680 Par ch=1 c=64 v=0
7680 Par ch=1 c=64 v=127
7680 Par ch=1 c=64 v=127
7680 On ch=1 n=54 v=73
7742 Par ch=1 c=64 v=0
7742 Par ch=1 c=64 v=0
7862 Par ch=1 c=64 v=127
7862 Par ch=1 c=64 v=127
8141 Off ch=1 n=54 v=64
8160 On ch=1 n=59 v=66
8160 On ch=1 n=62 v=71
8207 Off ch=1 n=74 v=64
8400 On ch=1 n=71 v=80
8620 Off ch=1 n=62 v=64
8620 Off ch=1 n=59 v=64
9120 On ch=1 n=59 v=70
9120 On ch=1 n=62 v=78
9176 Off ch=1 n=71 v=64
9360 On ch=1 n=74 v=82
9580 Off ch=1 n=62 v=64
9580 Off ch=1 n=59 v=64
9600 On ch=1 n=72 v=80
9600 On ch=1 n=54 v=73
9710 Off ch=1 n=74 v=64
9840 On ch=1 n=71 v=75
9841 Off ch=1 n=72 v=64
10060 Off ch=1 n=54 v=64
10080 On ch=1 n=59 v=61
10080 On ch=1 n=62 v=61
10320 On ch=1 n=69 v=87
10380 Off ch=1 n=71 v=64
10540 Off ch=1 n=62 v=64
10540 Off ch=1 n=59 v=64
10787 Off ch=1 n=69 v=64
10800 On ch=1 n=67 v=87
11031 Off ch=1 n=67 v=64
11040 On ch=1 n=69 v=94
11040 On ch=1 n=59 v=63
11040 On ch=1 n=62 v=67
11280 On ch=1 n=64 v=77
11500 Off ch=1 n=62 v=64
11500 Off ch=1 n=59 v=64
11520 Par ch=1 c=64 v=0
11520 Par ch=1 c=64 v=0
11520 Par ch=1 c=64 v=127
11520 Par ch=1 c=64 v=127
11520 On ch=1 n=48 v=74
11537 Off ch=1 n=69 v=64
11582 Par ch=1 c=64 v=0
11582 Par ch=1 c=64 v=0
11702 Par ch=1 c=64 v=127
11702 Par ch=1 c=64 v=127
11760 Off ch=1 n=48 v=64
12000 On ch=1 n=52 v=68
12000 On ch=1 n=57 v=55
12026 Off ch=1 n=57 v=64
12083 Off ch=1 n=52 v=64
12240 On ch=1 n=71 v=82
12889 Off ch=1 n=64 v=64
12960 On ch=1 n=52 v=71
12960 On ch=1 n=57 v=55
12983 Off ch=1 n=71 v=64
12985 Off ch=1 n=57 v=64
13051 Off ch=1 n=52 v=64
13200 On ch=1 n=74 v=89
13440 On ch=1 n=72 v=83
13440 On ch=1 n=50 v=77
13483 Par ch=1 c=64 v=127
13483 Par ch=1 c=64 v=127
13494 Par ch=1 c=64 v=0
13494 Par ch=1 c=64 v=0
13552 Off ch=1 n=74 v=64
13564 Par ch=1 c=64 v=127
13564 Par ch=1 c=64 v=127
13680 On ch=1 n=71 v=81
13692 Off ch=1 n=72 v=64
13700 Off ch=1 n=50 v=64
13920 On ch=1 n=54 v=71
13920 On ch=1 n=59 v=78
13976 Off ch=1 n=59 v=64
13993 Off ch=1 n=54 v=64
14160 On ch=1 n=69 v=89
14211 Off ch=1 n=71 v=64
14640 On ch=1 n=67 v=90
14666 Off ch=1 n=69 v=64
14880 On ch=1 n=69 v=86
14880 On ch=1 n=54 v=64
14880 On ch=1 n=59 v=74
14902 Off ch=1 n=67 v=64
14976 Off ch=1 n=54 v=64
14988 Off ch=1 n=59 v=64
15120 On ch=1 n=76 v=94
15360 Par ch=1 c=64 v=0
15360 Par ch=1 c=64 v=0
15360 Par ch=1 c=64 v=127
15360 Par ch=1 c=64 v=127
15360 On ch=1 n=52 v=71
15422 Par ch=1 c=64 v=0
15422 Par ch=1 c=64 v=0
15542 Par ch=1 c=64 v=127
15542 Par ch=1 c=64 v=127
15634 Off ch=1 n=52 v=64
15840 On ch=1 n=55 v=71
15840 On ch=1 n=59 v=73
15873 Off ch=1 n=76 v=64
15906 Off ch=1 n=55 v=64
15918 Off ch=1 n=59 v=64
16040 Off ch=1 n=69 v=64
16080 On ch=1 n=71 v=89
16800 On ch=1 n=55 v=65
16800 On ch=1 n=59 v=73
16867 Off ch=1 n=55 v=64
16875 Off ch=1 n=59 v=64
17040 On ch=1 n=69 v=84
17078 Off ch=1 n=71 v=64
17280 On ch=1 n=67 v=84
17280 On ch=1 n=52 v=75
17291 Off ch=1 n=69 v=64
17505 Off ch=1 n=52 v=64
17520 On ch=1 n=69 v=79
17555 Off ch=1 n=67 v=64
17760 On ch=1 n=55 v=62
17760 On ch=1 n=59 v=59
17823 Off ch=1 n=59 v=64
17831 Off ch=1 n=55 v=64
18000 On ch=1 n=71 v=71
18017 Off ch=1 n=69 v=64
18480 On ch=1 n=67 v=84
18501 Off ch=1 n=71 v=64
18720 On ch=1 n=69 v=89
18720 On ch=1 n=55 v=73
18720 On ch=1 n=59 v=73
18770 Off ch=1 n=67 v=64
18802 Off ch=1 n=55 v=64
18846 Off ch=1 n=59 v=64
18960 On ch=1 n=74 v=90
19200 Par ch=1 c=64 v=0
19200 Par ch=1 c=64 v=0
19200 Par ch=1 c=64 v=127
19200 Par ch=1 c=64 v=127
19200 On ch=1 n=55 v=88
19262 Par ch=1 c=64 v=0
19262 Par ch=1 c=64 v=0
19382 Par ch=1 c=64 v=127
19382 Par ch=1 c=64 v=127
19519 Off ch=1 n=55 v=64
19680 On ch=1 n=59 v=75
19680 On ch=1 n=62 v=71
19760 Off ch=1 n=62 v=64
19767 Off ch=1 n=59 v=64
19794 Off ch=1 n=69 v=64
19920 On ch=1 n=71 v=87
19939 Off ch=1 n=74 v=64
20640 On ch=1 n=59 v=71
20640 On ch=1 n=62 v=70
20721 Off ch=1 n=59 v=64
20731 Off ch=1 n=62 v=64
20813 Off ch=1 n=71 v=64
20880 On ch=1 n=74 v=82
21120 On ch=1 n=72 v=83
21120 On ch=1 n=55 v=85
21130 Off ch=1 n=74 v=64
21360 On ch=1 n=71 v=92
21370 Off ch=1 n=72 v=64
21372 Off ch=1 n=55 v=64
21600 On ch=1 n=59 v=85
21600 On ch=1 n=62 v=78
21673 Off ch=1 n=62 v=64
21692 Off ch=1 n=59 v=64
21697 Off ch=1 n=71 v=64
21840 On ch=1 n=69 v=94
22256 Off ch=1 n=69 v=64
22320 On ch=1 n=67 v=83
22560 On ch=1 n=69 v=92
22560 On ch=1 n=59 v=69
22560 On ch=1 n=62 v=75
22650 Off ch=1 n=67 v=64
22672 Off ch=1 n=62 v=64
22678 Off ch=1 n=59 v=64
22800 On ch=1 n=74 v=102
23040 Par ch=1 c=64 v=0
23040 Par ch=1 c=64 v=0
23040 Par ch=1 c=64 v=127
23040 Par ch=1 c=64 v=127
23040 On ch=1 n=47 v=63
23102 Par ch=1 c=64 v=0
23102 Par ch=1 c=64 v=0
23222 Par ch=1 c=64 v=127
23222 Par ch=1 c=64 v=127
23326 Off ch=1 n=47 v=64
23520 On ch=1 n=50 v=70
23520 On ch=1 n=54 v=69
23538 Off ch=1 n=74 v=64
23573 Off ch=1 n=69 v=64
23594 Off ch=1 n=50 v=64
23594 Off ch=1 n=54 v=64
23760 On ch=1 n=71 v=97
24480 On ch=1 n=69 v=101
24480 On ch=1 n=50 v=72
24480 On ch=1 n=54 v=81
24510 Off ch=1 n=71 v=64
24546 Off ch=1 n=50 v=64
24577 Off ch=1 n=54 v=64
24692 Off ch=1 n=69 v=64
24720 On ch=1 n=76 v=88
24960 On ch=1 n=47 v=72
25127 Off ch=1 n=47 v=64
25187 Off ch=1 n=76 v=64
25200 On ch=1 n=71 v=94
25440 On ch=1 n=50 v=59
25440 On ch=1 n=54 v=58
25479 Off ch=1 n=50 v=64
25490 Off ch=1 n=54 v=64
25649 Off ch=1 n=71 v=64
25680 On ch=1 n=69 v=107
26094 Off ch=1 n=69 v=64
26160 On ch=1 n=67 v=92
26400 On ch=1 n=66 v=107
26400 On ch=1 n=50 v=64
26400 On ch=1 n=54 v=82
26444 Off ch=1 n=50 v=64
26524 Off ch=1 n=54 v=64
26640 On ch=1 n=64 v=105
26668 Off ch=1 n=67 v=64
26796 Off ch=1 n=66 v=64
26880 Par ch=1 c=64 v=0
26880 Par ch=1 c=64 v=0
26880 Par ch=1 c=64 v=127
26880 Par ch=1 c=64 v=127
26880 On ch=1 n=45 v=85
26942 Par ch=1 c=64 v=0
26942 Par ch=1 c=64 v=0
27062 Par ch=1 c=64 v=127
27062 Par ch=1 c=64 v=127
27120 On ch=1 n=59 v=90
27141 Off ch=1 n=64 v=64
27360 On ch=1 n=60 v=78
27397 Off ch=1 n=59 v=64
27494 Off ch=1 n=45 v=64
27600 On ch=1 n=66 v=85
27735 Off ch=1 n=60 v=64
27840 On ch=1 n=60 v=86
27840 On ch=1 n=52 v=85
27840 On ch=1 n=57 v=82
27875 Off ch=1 n=66 v=64
28080 On ch=1 n=64 v=100
28083 Off ch=1 n=60 v=64
28320 On ch=1 n=67 v=92
28323 Off ch=1 n=64 v=64
28440 Off ch=1 n=57 v=64
28454 Off ch=1 n=52 v=64
28487 Off ch=1 n=67 v=64
28560 On ch=1 n=62 v=81
28560 On ch=1 n=47 v=79
28799 Off ch=1 n=62 v=64
28800 On ch=1 n=66 v=95
28843 Par ch=1 c=64 v=127
28843 Par ch=1 c=64 v=127
28854 Par ch=1 c=64 v=0
28854 Par ch=1 c=64 v=0
28924 Par ch=1 c=64 v=127
28924 Par ch=1 c=64 v=127
29039 Off ch=1 n=66 v=64
29040 On ch=1 n=69 v=99
29280 Off ch=1 n=47 v=64
29280 On ch=1 n=64 v=82
29302 Off ch=1 n=69 v=64
29427 Off ch=1 n=64 v=64
29520 On ch=1 n=71 v=94
29760 On ch=1 n=66 v=95
29760 On ch=1 n=50 v=85
29760 On ch=1 n=54 v=85
29818 Off ch=1 n=71 v=64
29998 Off ch=1 n=66 v=64
30000 On ch=1 n=67 v=109
30240 On ch=1 n=69 v=94
30374 Off ch=1 n=54 v=64
30374 Off ch=1 n=50 v=64
30480 On ch=1 n=76 v=97
30490 Off ch=1 n=67 v=64
30720 Par ch=1 c=64 v=0
30720 Par ch=1 c=64 v=0
30720 Par ch=1 c=64 v=127
30720 Par ch=1 c=64 v=127
30720 On ch=1 n=36 v=98
30720 On ch=1 n=48 v=73
30782 Par ch=1 c=64 v=0
30782 Par ch=1 c=64 v=0
30902 Par ch=1 c=64 v=127
30902 Par ch=1 c=64 v=127
31200 On ch=1 n=55 v=51
31200 On ch=1 n=59 v=62
31245 Off ch=1 n=55 v=64
31258 Off ch=1 n=59 v=64
31320 Off ch=1 n=48 v=64
31355 Off ch=1 n=69 v=64
31440 On ch=1 n=71 v=105
31450 Off ch=1 n=76 v=64
32160 On ch=1 n=55 v=70
32160 On ch=1 n=59 v=65
32229 Off ch=1 n=55 v=64
32254 Off ch=1 n=59 v=64
32383 Off ch=1 n=71 v=64
32400 On ch=1 n=69 v=90
32640 On ch=1 n=67 v=108
32640 On ch=1 n=48 v=82
32690 Off ch=1 n=69 v=64
32880 On ch=1 n=69 v=95
32888 Off ch=1 n=67 v=64
32914 Off ch=1 n=48 v=64
33120 On ch=1 n=55 v=78
33120 On ch=1 n=59 v=79
33191 Off ch=1 n=55 v=64
33194 Off ch=1 n=59 v=64
33343 Off ch=1 n=69 v=64
33360 On ch=1 n=71 v=106
33840 On ch=1 n=67 v=89
33908 Off ch=1 n=71 v=64
34080 On ch=1 n=69 v=90
34080 On ch=1 n=55 v=83
34080 On ch=1 n=59 v=91
34134 Off ch=1 n=67 v=64
34168 Off ch=1 n=55 v=64
34195 Off ch=1 n=59 v=64
34320 On ch=1 n=74 v=102
34339 Off ch=1 n=36 v=64
34378 Off ch=1 n=69 v=64
34560 Par ch=1 c=64 v=0
34560 Par ch=1 c=64 v=0
34560 Par ch=1 c=64 v=127
34560 Par ch=1 c=64 v=127
34560 On ch=1 n=38 v=94
34560 On ch=1 n=50 v=94
34622 Par ch=1 c=64 v=0
34622 Par ch=1 c=64 v=0
34742 Par ch=1 c=64 v=127
34742 Par ch=1 c=64 v=127
35040 On ch=1 n=54 v=77
35040 On ch=1 n=59 v=73
35041 Off ch=1 n=50 v=64
35111 Off ch=1 n=59 v=64
35120 Off ch=1 n=54 v=64
35280 On ch=1 n=71 v=104
35328 Off ch=1 n=74 v=64
36000 On ch=1 n=54 v=76
36000 On ch=1 n=59 v=49
36067 Off ch=1 n=59 v=64
36088 Off ch=1 n=54 v=64
36218 Off ch=1 n=71 v=64
36240 On ch=1 n=69 v=99
36480 On ch=1 n=67 v=99
36480 On ch=1 n=50 v=85
36499 Off ch=1 n=69 v=64
36686 Off ch=1 n=50 v=64
36720 On ch=1 n=69 v=99
36732 Off ch=1 n=67 v=64
36960 On ch=1 n=54 v=78
36960 On ch=1 n=59 v=57
37024 Off ch=1 n=59 v=64
37038 Off ch=1 n=54 v=64
37171 Off ch=1 n=69 v=64
37200 On ch=1 n=66 v=108
37633 Off ch=1 n=66 v=64
37680 On ch=1 n=67 v=99
37920 On ch=1 n=69 v=103
37920 On ch=1 n=54 v=86
37920 On ch=1 n=59 v=76
37932 Off ch=1 n=67 v=64
38021 Off ch=1 n=59 v=64
38029 Off ch=1 n=54 v=64
38060 Off ch=1 n=38 v=64
38160 On ch=1 n=74 v=102
38400 Par ch=1 c=64 v=0
38400 Par ch=1 c=64 v=0
38400 Par ch=1 c=64 v=127
38400 Par ch=1 c=64 v=127
38400 On ch=1 n=40 v=94
38400 On ch=1 n=52 v=73
38462 Par ch=1 c=64 v=0
38462 Par ch=1 c=64 v=0
38582 Par ch=1 c=64 v=127
38582 Par ch=1 c=64 v=127
38858 Off ch=1 n=52 v=64
38880 On ch=1 n=55 v=66
38880 On ch=1 n=59 v=71
38924 Off ch=1 n=55 v=64
38927 Off ch=1 n=74 v=64
38960 Off ch=1 n=59 v=64
39009 Off ch=1 n=69 v=64
39120 On ch=1 n=71 v=94
39840 On ch=1 n=55 v=70
39840 On ch=1 n=59 v=78
39896 Off ch=1 n=71 v=64
39922 Off ch=1 n=55 v=64
39930 Off ch=1 n=59 v=64
40080 On ch=1 n=74 v=96
40320 On ch=1 n=72 v=94
40320 On ch=1 n=52 v=73
40430 Off ch=1 n=74 v=64
40560 On ch=1 n=71 v=89
40561 Off ch=1 n=72 v=64
40583 Off ch=1 n=52 v=64
40800 On ch=1 n=55 v=61
40800 On ch=1 n=59 v=61
40879 Off ch=1 n=55 v=64
40883 Off ch=1 n=59 v=64
41040 On ch=1 n=69 v=101
41100 Off ch=1 n=71 v=64
41507 Off ch=1 n=69 v=64
41520 On ch=1 n=67 v=101
41751 Off ch=1 n=67 v=64
41760 On ch=1 n=69 v=108
41760 On ch=1 n=55 v=63
41760 On ch=1 n=59 v=67
41900 Off ch=1 n=40 v=64
41902 Off ch=1 n=55 v=64
41944 Off ch=1 n=59 v=64
42000 On ch=1 n=64 v=91
42240 Par ch=1 c=64 v=0
42240 Par ch=1 c=64 v=0
42240 Par ch=1 c=64 v=127
42240 Par ch=1 c=64 v=127
42240 On ch=1 n=45 v=102
42257 Off ch=1 n=69 v=64
42302 Par ch=1 c=64 v=0
42302 Par ch=1 c=64 v=0
42422 Par ch=1 c=64 v=127
42422 Par ch=1 c=64 v=127
42690 Off ch=1 n=64 v=64
42720 On ch=1 n=57 v=55
42720 On ch=1 n=60 v=68
42746 Off ch=1 n=57 v=64
42803 Off ch=1 n=60 v=64
42960 On ch=1 n=71 v=96
43680 On ch=1 n=57 v=55
43680 On ch=1 n=60 v=71
43704 Off ch=1 n=71 v=64
43706 Off ch=1 n=57 v=64
43771 Off ch=1 n=60 v=64
43920 On ch=1 n=74 v=103
44160 Off ch=1 n=45 v=64
44160 On ch=1 n=72 v=97
44160 On ch=1 n=47 v=89
44203 Par ch=1 c=64 v=127
44203 Par ch=1 c=64 v=127
44214 Par ch=1 c=64 v=0
44214 Par ch=1 c=64 v=0
44272 Off ch=1 n=74 v=64
44284 Par ch=1 c=64 v=127
44284 Par ch=1 c=64 v=127
44400 On ch=1 n=71 v=95
44412 Off ch=1 n=72 v=64
44640 On ch=1 n=59 v=71
44713 Off ch=1 n=59 v=64
44880 On ch=1 n=69 v=103
44931 Off ch=1 n=71 v=64
45360 On ch=1 n=67 v=104
45386 Off ch=1 n=69 v=64
45600 On ch=1 n=69 v=100
45600 On ch=1 n=59 v=64
45622 Off ch=1 n=67 v=64
45696 Off ch=1 n=59 v=64
45840 On ch=1 n=76 v=108
46080 Par ch=1 c=64 v=0
46080 Par ch=1 c=64 v=0
46080 Par ch=1 c=64 v=127
46080 Par ch=1 c=64 v=127
46080 On ch=1 n=36 v=81
46080 On ch=1 n=48 v=94
46100 Off ch=1 n=47 v=64
46142 Par ch=1 c=64 v=0
46142 Par ch=1 c=64 v=0
46262 Par ch=1 c=64 v=127
46262 Par ch=1 c=64 v=127
46560 On ch=1 n=55 v=51
46560 On ch=1 n=59 v=62
46593 Off ch=1 n=76 v=64
46605 Off ch=1 n=55 v=64
46618 Off ch=1 n=59 v=64
46680 Off ch=1 n=48 v=64
46760 Off ch=1 n=69 v=64
46800 On ch=1 n=71 v=103
47520 On ch=1 n=55 v=70
47520 On ch=1 n=59 v=65
47588 Off ch=1 n=55 v=64
47614 Off ch=1 n=59 v=64
47760 On ch=1 n=69 v=98
47798 Off ch=1 n=71 v=64
48000 On ch=1 n=67 v=98
48000 On ch=1 n=48 v=82
48011 Off ch=1 n=69 v=64
48240 On ch=1 n=69 v=93
48274 Off ch=1 n=48 v=64
48275 Off ch=1 n=67 v=64
48480 On ch=1 n=55 v=78
48480 On ch=1 n=59 v=79
48551 Off ch=1 n=55 v=64
48554 Off ch=1 n=59 v=64
48720 On ch=1 n=71 v=85
48737 Off ch=1 n=69 v=64
49200 On ch=1 n=67 v=98
49221 Off ch=1 n=71 v=64
49440 On ch=1 n=69 v=103
49440 On ch=1 n=55 v=83
49440 On ch=1 n=59 v=91
49490 Off ch=1 n=67 v=64
49528 Off ch=1 n=55 v=64
49555 Off ch=1 n=59 v=64
49680 On ch=1 n=74 v=104
49699 Off ch=1 n=36 v=64
49920 Par ch=1 c=64 v=0
49920 Par ch=1 c=64 v=0
49920 Par ch=1 c=64 v=127
49920 Par ch=1 c=64 v=127
49920 On ch=1 n=38 v=94
49920 On ch=1 n=50 v=94
49982 Par ch=1 c=64 v=0
49982 Par ch=1 c=64 v=0
50102 Par ch=1 c=64 v=127
50102 Par ch=1 c=64 v=127
50400 On ch=1 n=54 v=77
50400 On ch=1 n=59 v=73
50401 Off ch=1 n=50 v=64
50471 Off ch=1 n=59 v=64
50480 Off ch=1 n=54 v=64
50514 Off ch=1 n=69 v=64
50640 On ch=1 n=71 v=101
50659 Off ch=1 n=74 v=64
51360 On ch=1 n=54 v=76
51360 On ch=1 n=59 v=49
51427 Off ch=1 n=59 v=64
51448 Off ch=1 n=54 v=64
51533 Off ch=1 n=71 v=64
51600 On ch=1 n=74 v=96
51840 On ch=1 n=72 v=97
51840 On ch=1 n=50 v=85
51850 Off ch=1 n=74 v=64
52046 Off ch=1 n=50 v=64
52080 On ch=1 n=71 v=106
52090 Off ch=1 n=72 v=64
52320 On ch=1 n=54 v=78
52320 On ch=1 n=59 v=57
52384 Off ch=1 n=59 v=64
52398 Off ch=1 n=54 v=64
52417 Off ch=1 n=71 v=64
52560 On ch=1 n=69 v=108
52976 Off ch=1 n=69 v=64
53040 On ch=1 n=67 v=97
53280 On ch=1 n=54 v=86
53280 On ch=1 n=59 v=76
53280 On ch=1 n=69 v=106
53370 Off ch=1 n=67 v=64
53381 Off ch=1 n=59 v=64
53389 Off ch=1 n=54 v=64
53420 Off ch=1 n=38 v=64
53520 On ch=1 n=74 v=105
53760 Par ch=1 c=64 v=0
53760 Par ch=1 c=64 v=0
53760 Par ch=1 c=64 v=127
53760 Par ch=1 c=64 v=127
53760 On ch=1 n=40 v=94
53760 On ch=1 n=52 v=73
53822 Par ch=1 c=64 v=0
53822 Par ch=1 c=64 v=0
53942 Par ch=1 c=64 v=127
53942 Par ch=1 c=64 v=127
54218 Off ch=1 n=52 v=64
54240 On ch=1 n=55 v=66
54240 On ch=1 n=59 v=71
54258 Off ch=1 n=74 v=64
54284 Off ch=1 n=55 v=64
54293 Off ch=1 n=69 v=64
54320 Off ch=1 n=59 v=64
54480 On ch=1 n=71 v=102
55200 On ch=1 n=69 v=104
55200 On ch=1 n=55 v=70
55200 On ch=1 n=59 v=78
55231 Off ch=1 n=71 v=64
55282 Off ch=1 n=55 v=64
55290 Off ch=1 n=59 v=64
55412 Off ch=1 n=69 v=64
55440 On ch=1 n=76 v=102
55680 On ch=1 n=47 v=73
55697 Off ch=1 n=40 v=64
55705 Par ch=1 c=64 v=127
55705 Par ch=1 c=64 v=127
55749 Par ch=1 c=64 v=0
55749 Par ch=1 c=64 v=0
55810 Par ch=1 c=64 v=127
55810 Par ch=1 c=64 v=127
55907 Off ch=1 n=76 v=64
55920 On ch=1 n=71 v=108
55943 Off ch=1 n=47 v=64
56160 On ch=1 n=54 v=61
56160 On ch=1 n=59 v=61
56239 Off ch=1 n=54 v=64
56243 Off ch=1 n=59 v=64
56369 Off ch=1 n=71 v=64
56400 On ch=1 n=69 v=99
56814 Off ch=1 n=69 v=64
56880 On ch=1 n=67 v=106
57120 On ch=1 n=66 v=99
57120 On ch=1 n=54 v=63
57120 On ch=1 n=59 v=67
57262 Off ch=1 n=54 v=64
57304 Off ch=1 n=59 v=64
57360 On ch=1 n=64 v=108
57388 Off ch=1 n=67 v=64
57516 Off ch=1 n=66 v=64
57600 Par ch=1 c=64 v=0
57600 Par ch=1 c=64 v=0
57600 Par ch=1 c=64 v=127
57600 Par ch=1 c=64 v=127
57600 On ch=1 n=52 v=73
57662 Par ch=1 c=64 v=0
57662 Par ch=1 c=64 v=0
57782 Par ch=1 c=64 v=127
57782 Par ch=1 c=64 v=127
57861 Off ch=1 n=64 v=64
58058 Off ch=1 n=52 v=64
58080 On ch=1 n=55 v=66
58080 On ch=1 n=59 v=71
58124 Off ch=1 n=55 v=64
58160 Off ch=1 n=59 v=64
59040 On ch=1 n=55 v=70
59040 On ch=1 n=59 v=78
59122 Off ch=1 n=55 v=64
59130 Off ch=1 n=59 v=64
59520 On ch=1 n=52 v=73
59563 Par ch=1 c=64 v=127
59563 Par ch=1 c=64 v=127
59574 Par ch=1 c=64 v=0
59574 Par ch=1 c=64 v=0
59644 Par ch=1 c=64 v=127
59644 Par ch=1 c=64 v=127
59978 Off ch=1 n=52 v=64
60839 Par ch=1 c=64 v=127
60840 Par ch=1 c=64 v=0
60840 Par ch=1 c=64 v=127
61173 On ch=1 n=76 v=90
61439 Par ch=1 c=64 v=127
61440 Par ch=1 c=64 v=0
61440 Par ch=1 c=64 v=0
61440 On ch=1 n=64 v=77
61440 Par ch=1 c=64 v=127
61440 Par ch=1 c=64 v=127
61440 On ch=1 n=52 v=77
61450 Off ch=1 n=76 v=64
61502 Par ch=1 c=64 v=0
61502 Par ch=1 c=64 v=0
61622 Par ch=1 c=64 v=127
61622 Par ch=1 c=64 v=127
61680 On ch=1 n=71 v=51
61680 On ch=1 n=55 v=73
61785 Off ch=1 n=71 v=64
61798 Off ch=1 n=52 v=64
61798 Off ch=1 n=64 v=64
61920 On ch=1 n=76 v=90
61920 On ch=1 n=59 v=75
62038 Off ch=1 n=55 v=64
62160 On ch=1 n=64 v=64
62160 On ch=1 n=60 v=94
62197 Off ch=1 n=76 v=64
62278 Off ch=1 n=59 v=64
62342 Off ch=1 n=64 v=64
62400 On ch=1 n=71 v=51
62400 On ch=1 n=59 v=75
62505 Off ch=1 n=71 v=64
62518 Off ch=1 n=60 v=64
62640 On ch=1 n=76 v=75
62640 On ch=1 n=55 v=73
62758 Off ch=1 n=59 v=64
62880 On ch=1 n=64 v=73
62880 On ch=1 n=52 v=77
62977 Off ch=1 n=76 v=64
62998 Off ch=1 n=55 v=64
63120 On ch=1 n=71 v=46
63120 On ch=1 n=55 v=73
63166 Off ch=1 n=64 v=64
63198 Off ch=1 n=71 v=64
63238 Off ch=1 n=52 v=64
63360 On ch=1 n=76 v=78
63360 On ch=1 n=59 v=75
63478 Off ch=1 n=55 v=64
63600 On ch=1 n=64 v=53
63600 On ch=1 n=60 v=102
63667 Off ch=1 n=76 v=64
63718 Off ch=1 n=59 v=64
63840 On ch=1 n=71 v=50
63840 On ch=1 n=59 v=75
63858 Off ch=1 n=64 v=64
63956 Off ch=1 n=71 v=64
63958 Off ch=1 n=60 v=64
64080 On ch=1 n=76 v=86
64080 On ch=1 n=55 v=89
64198 Off ch=1 n=59 v=64
64320 On ch=1 n=64 v=65
64320 On ch=1 n=52 v=84
64394 Off ch=1 n=76 v=64
64438 Off ch=1 n=55 v=64
64480 Off ch=1 n=64 v=64
64560 On ch=1 n=71 v=54
64560 On ch=1 n=55 v=64
64678 Off ch=1 n=52 v=64
64699 Off ch=1 n=71 v=64
64800 On ch=1 n=59 v=58
64918 Off ch=1 n=55 v=64
65040 On ch=1 n=74 v=85
65040 On ch=1 n=55 v=68
65158 Off ch=1 n=59 v=64
65280 Par ch=1 c=64 v=0
65280 Par ch=1 c=64 v=0
65280 On ch=1 n=62 v=77
65280 Par ch=1 c=64 v=127
65280 Par ch=1 c=64 v=127
65280 On ch=1 n=50 v=77
65342 Par ch=1 c=64 v=0
65342 Par ch=1 c=64 v=0
65398 Off ch=1 n=55 v=64
65400 Off ch=1 n=74 v=64
65462 Par ch=1 c=64 v=127
65462 Par ch=1 c=64 v=127
65520 On ch=1 n=67 v=74
65520 On ch=1 n=55 v=73
65625 Off ch=1 n=67 v=64
65638 Off ch=1 n=50 v=64
65638 Off ch=1 n=62 v=64
65760 On ch=1 n=74 v=90
65760 On ch=1 n=57 v=89
65878 Off ch=1 n=55 v=64
66000 On ch=1 n=62 v=64
66000 On ch=1 n=59 v=86
66037 Off ch=1 n=74 v=64
66159 Off ch=1 n=57 v=64
66182 Off ch=1 n=62 v=64
66240 On ch=1 n=67 v=74
66240 On ch=1 n=57 v=89
66345 Off ch=1 n=67 v=64
66480 Off ch=1 n=59 v=64
66480 On ch=1 n=74 v=67
66480 On ch=1 n=55 v=73
66639 Off ch=1 n=57 v=64
66720 On ch=1 n=62 v=73
66720 On ch=1 n=50 v=77
66817 Off ch=1 n=74 v=64
66838 Off ch=1 n=55 v=64
66960 On ch=1 n=67 v=69
66960 On ch=1 n=55 v=73
67006 Off ch=1 n=62 v=64
67038 Off ch=1 n=67 v=64
67078 Off ch=1 n=50 v=64
67200 On ch=1 n=74 v=70
67200 On ch=1 n=57 v=89
67318 Off ch=1 n=55 v=64
67440 On ch=1 n=62 v=53
67440 On ch=1 n=59 v=86
67507 Off ch=1 n=74 v=64
67599 Off ch=1 n=57 v=64
67680 On ch=1 n=67 v=73
67680 On ch=1 n=57 v=89
67699 Off ch=1 n=62 v=64
67796 Off ch=1 n=67 v=64
67920 Off ch=1 n=59 v=64
67920 On ch=1 n=74 v=86
67920 On ch=1 n=55 v=73
68079 Off ch=1 n=57 v=64
68160 On ch=1 n=62 v=65
68160 On ch=1 n=50 v=77
68234 Off ch=1 n=74 v=64
68278 Off ch=1 n=55 v=64
68320 Off ch=1 n=62 v=64
68400 On ch=1 n=71 v=71
68400 On ch=1 n=55 v=73
68518 Off ch=1 n=50 v=64
68539 Off ch=1 n=71 v=64
68640 On ch=1 n=62 v=73
68640 On ch=1 n=59 v=77
68748 Off ch=1 n=62 v=64
68758 Off ch=1 n=55 v=64
68880 On ch=1 n=74 v=85
68880 On ch=1 n=55 v=77
68998 Off ch=1 n=59 v=64
69120 Par ch=1 c=64 v=0
69120 Par ch=1 c=64 v=0
69120 On ch=1 n=62 v=77
69120 Par ch=1 c=64 v=127
69120 Par ch=1 c=64 v=127
69120 On ch=1 n=50 v=77
69182 Par ch=1 c=64 v=0
69182 Par ch=1 c=64 v=0
69238 Off ch=1 n=55 v=64
69240 Off ch=1 n=74 v=64
69302 Par ch=1 c=64 v=127
69302 Par ch=1 c=64 v=127
69360 On ch=1 n=66 v=64
69360 On ch=1 n=54 v=73
69465 Off ch=1 n=66 v=64
69478 Off ch=1 n=50 v=64
69478 Off ch=1 n=62 v=64
69600 On ch=1 n=74 v=90
69600 On ch=1 n=57 v=89
69718 Off ch=1 n=54 v=64
69840 On ch=1 n=62 v=64
69840 On ch=1 n=59 v=86
69877 Off ch=1 n=74 v=64
69999 Off ch=1 n=57 v=64
70022 Off ch=1 n=62 v=64
70080 On ch=1 n=66 v=64
70080 On ch=1 n=57 v=89
70185 Off ch=1 n=66 v=64
70320 Off ch=1 n=59 v=64
70320 On ch=1 n=74 v=67
70320 On ch=1 n=54 v=73
70479 Off ch=1 n=57 v=64
70560 On ch=1 n=62 v=73
70560 On ch=1 n=50 v=77
70657 Off ch=1 n=74 v=64
70678 Off ch=1 n=54 v=64
70800 On ch=1 n=66 v=59
70800 On ch=1 n=54 v=73
70846 Off ch=1 n=62 v=64
70878 Off ch=1 n=66 v=64
70918 Off ch=1 n=50 v=64
71040 On ch=1 n=74 v=70
71040 On ch=1 n=57 v=89
71158 Off ch=1 n=54 v=64
71280 On ch=1 n=62 v=53
71280 On ch=1 n=59 v=86
71347 Off ch=1 n=74 v=64
71439 Off ch=1 n=57 v=64
71520 On ch=1 n=66 v=63
71520 On ch=1 n=57 v=89
71539 Off ch=1 n=62 v=64
71636 Off ch=1 n=66 v=64
71760 Off ch=1 n=59 v=64
71760 On ch=1 n=74 v=86
71760 On ch=1 n=54 v=73
71919 Off ch=1 n=57 v=64
72000 On ch=1 n=62 v=65
72000 On ch=1 n=50 v=77
72074 Off ch=1 n=74 v=64
72118 Off ch=1 n=54 v=64
72160 Off ch=1 n=62 v=64
72240 On ch=1 n=71 v=71
72240 On ch=1 n=54 v=73
72358 Off ch=1 n=50 v=64
72379 Off ch=1 n=71 v=64
72480 On ch=1 n=62 v=73
72480 On ch=1 n=59 v=77
72588 Off ch=1 n=62 v=64
72598 Off ch=1 n=54 v=64
72720 On ch=1 n=67 v=85
72720 On ch=1 n=54 v=77
72838 Off ch=1 n=59 v=64
72960 Par ch=1 c=64 v=0
72960 Par ch=1 c=64 v=0
72960 On ch=1 n=64 v=77
72960 Par ch=1 c=64 v=127
72960 Par ch=1 c=64 v=127
72960 On ch=1 n=48 v=77
73022 Par ch=1 c=64 v=0
73022 Par ch=1 c=64 v=0
73078 Off ch=1 n=54 v=64
73080 Off ch=1 n=67 v=64
73142 Par ch=1 c=64 v=127
73142 Par ch=1 c=64 v=127
73200 On ch=1 n=66 v=51
73200 On ch=1 n=55 v=73
73305 Off ch=1 n=66 v=64
73318 Off ch=1 n=48 v=64
73318 Off ch=1 n=64 v=64
73440 On ch=1 n=67 v=90
73440 On ch=1 n=59 v=58
73558 Off ch=1 n=55 v=64
73680 On ch=1 n=64 v=64
73680 On ch=1 n=60 v=77
73717 Off ch=1 n=67 v=64
73798 Off ch=1 n=59 v=64
73862 Off ch=1 n=64 v=64
73920 On ch=1 n=66 v=51
73920 On ch=1 n=59 v=58
74025 Off ch=1 n=66 v=64
74038 Off ch=1 n=60 v=64
74160 On ch=1 n=67 v=75
74160 On ch=1 n=55 v=73
74278 Off ch=1 n=59 v=64
74400 On ch=1 n=64 v=73
74400 On ch=1 n=52 v=77
74497 Off ch=1 n=67 v=64
74518 Off ch=1 n=55 v=64
74640 On ch=1 n=69 v=90
74686 Off ch=1 n=64 v=64
74758 Off ch=1 n=52 v=64
74880 On ch=1 n=50 v=96
74923 Par ch=1 c=64 v=127
74923 Par ch=1 c=64 v=127
74934 Par ch=1 c=64 v=0
74934 Par ch=1 c=64 v=0
75004 Par ch=1 c=64 v=127
75004 Par ch=1 c=64 v=127
75120 On ch=1 n=62 v=71
75238 Off ch=1 n=50 v=64
75360 On ch=1 n=64 v=71
75360 Off ch=1 n=62 v=64
75480 Off ch=1 n=69 v=64
75600 On ch=1 n=66 v=90
75646 Off ch=1 n=64 v=64
75840 On ch=1 n=54 v=86
75840 On ch=1 n=59 v=86
75877 Off ch=1 n=66 v=64
76080 On ch=1 n=67 v=75
76185 Off ch=1 n=67 v=64
76198 Off ch=1 n=59 v=64
76198 Off ch=1 n=54 v=64
76320 On ch=1 n=69 v=75
76560 On ch=1 n=76 v=86
76657 Off ch=1 n=69 v=64
76665 Off ch=1 n=76 v=64
76800 Par ch=1 c=64 v=0
76800 Par ch=1 c=64 v=0
76800 On ch=1 n=64 v=77
76800 Par ch=1 c=64 v=127
76800 Par ch=1 c=64 v=127
76800 On ch=1 n=52 v=77
76862 Par ch=1 c=64 v=0
76862 Par ch=1 c=64 v=0
76982 Par ch=1 c=64 v=127
76982 Par ch=1 c=64 v=127
77040 On ch=1 n=71 v=51
77040 On ch=1 n=55 v=73
77145 Off ch=1 n=71 v=64
77158 Off ch=1 n=52 v=64
77158 Off ch=1 n=64 v=64
77280 On ch=1 n=76 v=90
77280 On ch=1 n=59 v=96
77398 Off ch=1 n=55 v=64
77520 On ch=1 n=64 v=64
77520 On ch=1 n=60 v=96
77557 Off ch=1 n=76 v=64
77638 Off ch=1 n=59 v=64
77702 Off ch=1 n=64 v=64
77760 On ch=1 n=71 v=51
77760 On ch=1 n=59 v=96
77865 Off ch=1 n=71 v=64
77878 Off ch=1 n=60 v=64
78000 On ch=1 n=76 v=75
78000 On ch=1 n=55 v=73
78118 Off ch=1 n=59 v=64
78240 On ch=1 n=64 v=73
78240 On ch=1 n=52 v=77
78337 Off ch=1 n=76 v=64
78358 Off ch=1 n=55 v=64
78480 On ch=1 n=71 v=46
78480 On ch=1 n=55 v=73
78526 Off ch=1 n=64 v=64
78558 Off ch=1 n=71 v=64
78598 Off ch=1 n=52 v=64
78720 On ch=1 n=76 v=78
78720 On ch=1 n=59 v=96
78838 Off ch=1 n=55 v=64
78960 On ch=1 n=64 v=53
78960 On ch=1 n=60 v=96
79027 Off ch=1 n=76 v=64
79078 Off ch=1 n=59 v=64
79200 On ch=1 n=71 v=50
79200 On ch=1 n=59 v=96
79218 Off ch=1 n=64 v=64
79316 Off ch=1 n=71 v=64
79318 Off ch=1 n=60 v=64
79440 On ch=1 n=76 v=86
79440 On ch=1 n=55 v=89
79558 Off ch=1 n=59 v=64
79680 On ch=1 n=64 v=65
79680 On ch=1 n=52 v=84
79754 Off ch=1 n=76 v=64
79798 Off ch=1 n=55 v=64
79840 Off ch=1 n=64 v=64
79920 On ch=1 n=76 v=82
79920 On ch=1 n=55 v=64
80038 Off ch=1 n=52 v=64
80059 Off ch=1 n=76 v=64
80160 On ch=1 n=59 v=58
80278 Off ch=1 n=55 v=64
80400 On ch=1 n=74 v=85
80400 On ch=1 n=55 v=68
80518 Off ch=1 n=59 v=64
80640 Par ch=1 c=64 v=0
80640 Par ch=1 c=64 v=0
80640 On ch=1 n=62 v=77
80640 Par ch=1 c=64 v=127
80640 Par ch=1 c=64 v=127
80640 On ch=1 n=50 v=77
80702 Par ch=1 c=64 v=0
80702 Par ch=1 c=64 v=0
80758 Off ch=1 n=55 v=64
80760 Off ch=1 n=74 v=64
80822 Par ch=1 c=64 v=127
80822 Par ch=1 c=64 v=127
80880 On ch=1 n=67 v=74
80880 On ch=1 n=55 v=73
80985 Off ch=1 n=67 v=64
80998 Off ch=1 n=50 v=64
80998 Off ch=1 n=62 v=64
81120 On ch=1 n=74 v=90
81120 On ch=1 n=57 v=89
81238 Off ch=1 n=55 v=64
81360 On ch=1 n=62 v=64
81360 On ch=1 n=59 v=86
81397 Off ch=1 n=74 v=64
81519 Off ch=1 n=57 v=64
81542 Off ch=1 n=62 v=64
81600 On ch=1 n=67 v=74
81600 On ch=1 n=57 v=89
81705 Off ch=1 n=67 v=64
81840 Off ch=1 n=59 v=64
81840 On ch=1 n=74 v=67
81840 On ch=1 n=55 v=73
81999 Off ch=1 n=57 v=64
82080 On ch=1 n=62 v=73
82080 On ch=1 n=50 v=77
82177 Off ch=1 n=74 v=64
82198 Off ch=1 n=55 v=64
82320 On ch=1 n=67 v=69
82320 On ch=1 n=55 v=73
82366 Off ch=1 n=62 v=64
82398 Off ch=1 n=67 v=64
82438 Off ch=1 n=50 v=64
82560 On ch=1 n=74 v=70
82560 On ch=1 n=57 v=89
82678 Off ch=1 n=55 v=64
82800 On ch=1 n=62 v=53
82800 On ch=1 n=59 v=86
82867 Off ch=1 n=74 v=64
82959 Off ch=1 n=57 v=64
83040 On ch=1 n=67 v=73
83040 On ch=1 n=57 v=89
83059 Off ch=1 n=62 v=64
83156 Off ch=1 n=67 v=64
83280 Off ch=1 n=59 v=64
83280 On ch=1 n=74 v=86
83280 On ch=1 n=55 v=73
83439 Off ch=1 n=57 v=64
83520 On ch=1 n=62 v=65
83520 On ch=1 n=50 v=77
83594 Off ch=1 n=74 v=64
83638 Off ch=1 n=55 v=64
83680 Off ch=1 n=62 v=64
83760 On ch=1 n=71 v=71
83760 On ch=1 n=55 v=73
83878 Off ch=1 n=50 v=64
83899 Off ch=1 n=71 v=64
84000 On ch=1 n=67 v=73
84000 On ch=1 n=59 v=77
84108 Off ch=1 n=67 v=64
84118 Off ch=1 n=55 v=64
84240 On ch=1 n=78 v=85
84240 On ch=1 n=55 v=77
84358 Off ch=1 n=59 v=64
84480 Par ch=1 c=64 v=0
84480 Par ch=1 c=64 v=0
84480 On ch=1 n=66 v=77
84480 Par ch=1 c=64 v=127
84480 Par ch=1 c=64 v=127
84480 On ch=1 n=47 v=77
84542 Par ch=1 c=64 v=0
84542 Par ch=1 c=64 v=0
84598 Off ch=1 n=55 v=64
84600 Off ch=1 n=78 v=64
84662 Par ch=1 c=64 v=127
84662 Par ch=1 c=64 v=127
84720 On ch=1 n=71 v=64
84720 On ch=1 n=50 v=73
84825 Off ch=1 n=71 v=64
84838 Off ch=1 n=47 v=64
84838 Off ch=1 n=66 v=64
84960 On ch=1 n=78 v=90
84960 On ch=1 n=54 v=94
85078 Off ch=1 n=50 v=64
85200 On ch=1 n=66 v=64
85200 On ch=1 n=55 v=97
85237 Off ch=1 n=78 v=64
85318 Off ch=1 n=54 v=64
85382 Off ch=1 n=66 v=64
85440 On ch=1 n=71 v=64
85440 On ch=1 n=54 v=94
85545 Off ch=1 n=71 v=64
85558 Off ch=1 n=55 v=64
85680 On ch=1 n=78 v=67
85680 On ch=1 n=50 v=73
85798 Off ch=1 n=54 v=64
85920 On ch=1 n=66 v=73
85920 On ch=1 n=47 v=77
86017 Off ch=1 n=78 v=64
86038 Off ch=1 n=50 v=64
86160 On ch=1 n=71 v=59
86160 On ch=1 n=50 v=73
86206 Off ch=1 n=66 v=64
86238 Off ch=1 n=71 v=64
86278 Off ch=1 n=47 v=64
86400 On ch=1 n=78 v=70
86400 On ch=1 n=54 v=94
86518 Off ch=1 n=50 v=64
86640 On ch=1 n=66 v=53
86640 On ch=1 n=55 v=97
86707 Off ch=1 n=78 v=64
86758 Off ch=1 n=54 v=64
86880 On ch=1 n=71 v=63
86880 On ch=1 n=54 v=94
86899 Off ch=1 n=66 v=64
86996 Off ch=1 n=71 v=64
86998 Off ch=1 n=55 v=64
87120 On ch=1 n=78 v=96
87120 On ch=1 n=50 v=81
87238 Off ch=1 n=54 v=64
87360 On ch=1 n=66 v=65
87360 On ch=1 n=47 v=85
87434 Off ch=1 n=78 v=64
87478 Off ch=1 n=50 v=64
87520 Off ch=1 n=66 v=64
87600 On ch=1 n=78 v=106
87600 On ch=1 n=50 v=81
87718 Off ch=1 n=47 v=64
87739 Off ch=1 n=78 v=64
87840 On ch=1 n=66 v=73
87840 On ch=1 n=54 v=85
87948 Off ch=1 n=66 v=64
87958 Off ch=1 n=50 v=64
88080 On ch=1 n=76 v=104
88080 On ch=1 n=55 v=94
88198 Off ch=1 n=54 v=64
88320 Par ch=1 c=64 v=0
88320 Par ch=1 c=64 v=0
88320 On ch=1 n=69 v=77
88320 Par ch=1 c=64 v=127
88320 Par ch=1 c=64 v=127
88320 On ch=1 n=57 v=103
88382 Par ch=1 c=64 v=0
88382 Par ch=1 c=64 v=0
88438 Off ch=1 n=55 v=64
88440 Off ch=1 n=76 v=64
88502 Par ch=1 c=64 v=127
88502 Par ch=1 c=64 v=127
88560 On ch=1 n=72 v=51
88560 On ch=1 n=59 v=73
88665 Off ch=1 n=72 v=64
88678 Off ch=1 n=57 v=64
88678 Off ch=1 n=69 v=64
88800 On ch=1 n=76 v=90
88800 On ch=1 n=60 v=58
88918 Off ch=1 n=59 v=64
89040 On ch=1 n=69 v=64
89040 On ch=1 n=64 v=75
89077 Off ch=1 n=76 v=64
89158 Off ch=1 n=60 v=64
89222 Off ch=1 n=69 v=64
89280 On ch=1 n=72 v=51
89280 On ch=1 n=60 v=58
89385 Off ch=1 n=72 v=64
89398 Off ch=1 n=64 v=64
89520 On ch=1 n=76 v=90
89520 On ch=1 n=59 v=73
89638 Off ch=1 n=60 v=64
89760 On ch=1 n=69 v=88
89760 On ch=1 n=57 v=96
89857 Off ch=1 n=76 v=64
89878 Off ch=1 n=59 v=64
90000 On ch=1 n=78 v=92
90046 Off ch=1 n=69 v=64
90118 Off ch=1 n=57 v=64
90240 On ch=1 n=59 v=96
90283 Par ch=1 c=64 v=127
90283 Par ch=1 c=64 v=127
90294 Par ch=1 c=64 v=0
90294 Par ch=1 c=64 v=0
90364 Par ch=1 c=64 v=127
90364 Par ch=1 c=64 v=127
90480 On ch=1 n=71 v=103
90598 Off ch=1 n=59 v=64
90720 On ch=1 n=72 v=100
90775 Off ch=1 n=71 v=64
90840 Off ch=1 n=78 v=64
90960 On ch=1 n=79 v=107
91166 Off ch=1 n=72 v=64
91200 On ch=1 n=62 v=100
91200 On ch=1 n=66 v=100
91274 Off ch=1 n=79 v=64
91440 On ch=1 n=74 v=102
91558 Off ch=1 n=66 v=64
91558 Off ch=1 n=62 v=64
91680 On ch=1 n=76 v=102
91851 Off ch=1 n=74 v=64
91920 On ch=1 n=83 v=102
92106 Off ch=1 n=76 v=64
92160 Par ch=1 c=64 v=0
92160 Par ch=1 c=64 v=0
92160 On ch=1 n=71 v=77
92160 Par ch=1 c=64 v=127
92160 Par ch=1 c=64 v=127
92160 On ch=1 n=48 v=77
92222 Par ch=1 c=64 v=0
92222 Par ch=1 c=64 v=0
92342 Par ch=1 c=64 v=127
92342 Par ch=1 c=64 v=127
92400 On ch=1 n=76 v=51
92400 On ch=1 n=55 v=73
92505 Off ch=1 n=76 v=64
92518 Off ch=1 n=48 v=64
92518 Off ch=1 n=71 v=64
92552 Off ch=1 n=83 v=64
92640 On ch=1 n=83 v=90
92640 On ch=1 n=59 v=75
92758 Off ch=1 n=55 v=64
92880 On ch=1 n=71 v=64
92880 On ch=1 n=60 v=94
92917 Off ch=1 n=83 v=64
92998 Off ch=1 n=59 v=64
93062 Off ch=1 n=71 v=64
93120 On ch=1 n=76 v=51
93120 On ch=1 n=59 v=75
93225 Off ch=1 n=76 v=64
93238 Off ch=1 n=60 v=64
93360 On ch=1 n=83 v=75
93360 On ch=1 n=55 v=73
93478 Off ch=1 n=59 v=64
93600 On ch=1 n=71 v=73
93600 On ch=1 n=48 v=77
93696 Off ch=1 n=83 v=64
93718 Off ch=1 n=55 v=64
93840 On ch=1 n=76 v=46
93840 On ch=1 n=55 v=73
93886 Off ch=1 n=71 v=64
93918 Off ch=1 n=76 v=64
93958 Off ch=1 n=48 v=64
94080 On ch=1 n=83 v=78
94080 On ch=1 n=59 v=75
94198 Off ch=1 n=55 v=64
94320 On ch=1 n=71 v=53
94320 On ch=1 n=60 v=102
94387 Off ch=1 n=83 v=64
94438 Off ch=1 n=59 v=64
94560 On ch=1 n=76 v=50
94560 On ch=1 n=59 v=75
94579 Off ch=1 n=71 v=64
94676 Off ch=1 n=76 v=64
94678 Off ch=1 n=60 v=64
94800 On ch=1 n=83 v=86
94800 On ch=1 n=55 v=89
94918 Off ch=1 n=59 v=64
95040 On ch=1 n=71 v=65
95040 On ch=1 n=48 v=84
95114 Off ch=1 n=83 v=64
95158 Off ch=1 n=55 v=64
95200 Off ch=1 n=71 v=64
95280 On ch=1 n=83 v=88
95280 On ch=1 n=55 v=64
95398 Off ch=1 n=48 v=64
95419 Off ch=1 n=83 v=64
95520 On ch=1 n=59 v=58
95638 Off ch=1 n=55 v=64
95760 On ch=1 n=78 v=85
95760 On ch=1 n=55 v=68
95878 Off ch=1 n=59 v=64
96000 Par ch=1 c=64 v=0
96000 Par ch=1 c=64 v=0
96000 On ch=1 n=66 v=77
96000 Par ch=1 c=64 v=127
96000 Par ch=1 c=64 v=127
96000 On ch=1 n=50 v=77
96062 Par ch=1 c=64 v=0
96062 Par ch=1 c=64 v=0
96117 Off ch=1 n=55 v=64
96183 Par ch=1 c=64 v=127
96183 Par ch=1 c=64 v=127
96240 On ch=1 n=71 v=74
96240 On ch=1 n=55 v=73
96345 Off ch=1 n=71 v=64
96357 Off ch=1 n=50 v=64
96357 Off ch=1 n=66 v=64
96480 Off ch=1 n=78 v=0
96480 On ch=1 n=78 v=90
96480 On ch=1 n=57 v=89
96503 Off ch=1 n=78 v=64
96597 Off ch=1 n=55 v=64
96720 On ch=1 n=66 v=64
96720 On ch=1 n=59 v=86
96879 Off ch=1 n=57 v=64
96902 Off ch=1 n=66 v=64
96960 On ch=1 n=71 v=74
96960 On ch=1 n=57 v=89
97065 Off ch=1 n=71 v=64
97200 Off ch=1 n=59 v=64
97200 On ch=1 n=78 v=67
97200 On ch=1 n=55 v=73
97359 Off ch=1 n=57 v=64
97440 On ch=1 n=66 v=73
97440 On ch=1 n=50 v=77
97558 Off ch=1 n=55 v=64
97680 On ch=1 n=71 v=69
97680 On ch=1 n=55 v=73
97726 Off ch=1 n=66 v=64
97758 Off ch=1 n=71 v=64
97798 Off ch=1 n=50 v=64
97920 Off ch=1 n=78 v=64
97920 On ch=1 n=57 v=89
98038 Off ch=1 n=55 v=64
98160 On ch=1 n=66 v=53
98160 On ch=1 n=59 v=86
98319 Off ch=1 n=57 v=64
98400 On ch=1 n=71 v=73
98400 On ch=1 n=57 v=89
98419 Off ch=1 n=66 v=64
98516 Off ch=1 n=71 v=64
98640 Off ch=1 n=59 v=64
98640 On ch=1 n=78 v=86
98640 On ch=1 n=55 v=73
98799 Off ch=1 n=57 v=64
98880 On ch=1 n=66 v=65
98880 On ch=1 n=50 v=77
98998 Off ch=1 n=55 v=64
99040 Off ch=1 n=66 v=64
99120 Off ch=1 n=78 v=0
99120 On ch=1 n=78 v=71
99120 On ch=1 n=55 v=73
99238 Off ch=1 n=50 v=64
99338 Off ch=1 n=78 v=64
99360 On ch=1 n=66 v=73
99360 On ch=1 n=59 v=77
99468 Off ch=1 n=66 v=64
99478 Off ch=1 n=55 v=64
99600 On ch=1 n=79 v=85
99600 On ch=1 n=55 v=77
99718 Off ch=1 n=59 v=64
99840 Par ch=1 c=64 v=0
99840 Par ch=1 c=64 v=0
99840 On ch=1 n=67 v=77
99840 Par ch=1 c=64 v=127
99840 Par ch=1 c=64 v=127
99840 On ch=1 n=52 v=94
99902 Par ch=1 c=64 v=0
99902 Par ch=1 c=64 v=0
99958 Off ch=1 n=55 v=64
99960 Off ch=1 n=79 v=64
100022 Par ch=1 c=64 v=127
100022 Par ch=1 c=64 v=127
100080 On ch=1 n=71 v=74
100080 On ch=1 n=55 v=73
100185 Off ch=1 n=71 v=64
100198 Off ch=1 n=67 v=64
100320 On ch=1 n=79 v=82
100320 On ch=1 n=59 v=75
100369 Off ch=1 n=52 v=64
100438 Off ch=1 n=55 v=64
100560 On ch=1 n=67 v=64
100560 On ch=1 n=60 v=94
100678 Off ch=1 n=59 v=64
100742 Off ch=1 n=67 v=64
100800 On ch=1 n=71 v=74
100800 On ch=1 n=59 v=75
100819 Off ch=1 n=79 v=64
100905 Off ch=1 n=71 v=64
100918 Off ch=1 n=60 v=64
101040 On ch=1 n=79 v=86
101040 On ch=1 n=55 v=73
101158 Off ch=1 n=59 v=64
101280 On ch=1 n=67 v=73
101280 On ch=1 n=52 v=77
101398 Off ch=1 n=55 v=64
101520 On ch=1 n=71 v=69
101520 Off ch=1 n=79 v=64
101520 On ch=1 n=55 v=73
101566 Off ch=1 n=67 v=64
101598 Off ch=1 n=71 v=64
101638 Off ch=1 n=52 v=64
101760 On ch=1 n=79 v=92
101760 On ch=1 n=59 v=75
101878 Off ch=1 n=55 v=64
102000 On ch=1 n=67 v=53
102000 On ch=1 n=60 v=102
102118 Off ch=1 n=59 v=64
102143 Off ch=1 n=79 v=64
102240 On ch=1 n=71 v=73
102240 On ch=1 n=59 v=75
102259 Off ch=1 n=67 v=64
102356 Off ch=1 n=71 v=64
102358 Off ch=1 n=60 v=64
102480 On ch=1 n=79 v=94
102480 On ch=1 n=55 v=89
102598 Off ch=1 n=59 v=64
102720 On ch=1 n=67 v=65
102720 On ch=1 n=52 v=84
102838 Off ch=1 n=55 v=64
102880 Off ch=1 n=67 v=64
102920 Off ch=1 n=79 v=64
102960 On ch=1 n=79 v=94
102960 On ch=1 n=55 v=64
103078 Off ch=1 n=52 v=64
103200 On ch=1 n=67 v=73
103200 On ch=1 n=59 v=68
103308 Off ch=1 n=67 v=64
103318 Off ch=1 n=55 v=64
103400 Off ch=1 n=79 v=64
103440 On ch=1 n=74 v=91
103440 On ch=1 n=54 v=81
103558 Off ch=1 n=59 v=64
103667 Off ch=1 n=74 v=64
103680 Off ch=1 n=54 v=64
103680 Par ch=1 c=64 v=0
103680 Par ch=1 c=64 v=0
103680 On ch=1 n=67 v=77
103680 Par ch=1 c=64 v=127
103680 Par ch=1 c=64 v=127
103680 On ch=1 n=55 v=99
103742 Par ch=1 c=64 v=0
103742 Par ch=1 c=64 v=0
103862 Par ch=1 c=64 v=127
103862 Par ch=1 c=64 v=127
103920 On ch=1 n=71 v=51
103920 On ch=1 n=59 v=73
104025 Off ch=1 n=71 v=64
104038 Off ch=1 n=55 v=64
104038 Off ch=1 n=67 v=64
104160 On ch=1 n=74 v=90
104160 On ch=1 n=60 v=58
104278 Off ch=1 n=59 v=64
104400 On ch=1 n=67 v=64
104400 On ch=1 n=62 v=77
104436 Off ch=1 n=74 v=64
104518 Off ch=1 n=60 v=64
104582 Off ch=1 n=67 v=64
104640 On ch=1 n=71 v=51
104640 On ch=1 n=60 v=58
104745 Off ch=1 n=71 v=64
104758 Off ch=1 n=62 v=64
104880 On ch=1 n=74 v=75
104880 On ch=1 n=59 v=73
104998 Off ch=1 n=60 v=64
105120 On ch=1 n=67 v=77
105120 On ch=1 n=55 v=99
105208 Par ch=1 c=64 v=127
105208 Par ch=1 c=64 v=127
105216 Off ch=1 n=74 v=64
105238 Off ch=1 n=59 v=64
105360 On ch=1 n=71 v=51
105360 On ch=1 n=59 v=73
105465 Off ch=1 n=71 v=64
105478 Off ch=1 n=55 v=64
105478 Off ch=1 n=67 v=64
105600 On ch=1 n=74 v=90
105600 On ch=1 n=60 v=58
105718 Off ch=1 n=59 v=64
105840 On ch=1 n=67 v=64
105840 On ch=1 n=62 v=77
105876 Off ch=1 n=74 v=64
105958 Off ch=1 n=60 v=64
106022 Off ch=1 n=67 v=64
106080 On ch=1 n=71 v=51
106080 On ch=1 n=60 v=58
106185 Off ch=1 n=71 v=64
106198 Off ch=1 n=62 v=64
106320 On ch=1 n=74 v=75
106320 On ch=1 n=59 v=73
106438 Off ch=1 n=60 v=64
106560 On ch=1 n=67 v=64
106560 On ch=1 n=55 v=99
106656 Off ch=1 n=74 v=64
106678 Off ch=1 n=59 v=64
106742 Off ch=1 n=67 v=64
106800 On ch=1 n=71 v=75
106800 On ch=1 n=59 v=73
106918 Off ch=1 n=55 v=64
107040 On ch=1 n=67 v=64
107040 On ch=1 n=62 v=77
107136 Off ch=1 n=71 v=64
107158 Off ch=1 n=59 v=64
107222 Off ch=1 n=67 v=64
107280 On ch=1 n=76 v=85
107280 On ch=1 n=59 v=58
107398 Off ch=1 n=62 v=64
107520 Par ch=1 c=64 v=0
107520 Par ch=1 c=64 v=0
107520 On ch=1 n=64 v=79
107520 Par ch=1 c=64 v=127
107520 Par ch=1 c=64 v=127
107520 On ch=1 n=48 v=79
107582 Par ch=1 c=64 v=0
107582 Par ch=1 c=64 v=0
107638 Off ch=1 n=59 v=64
107640 Off ch=1 n=76 v=64
107702 Par ch=1 c=64 v=127
107702 Par ch=1 c=64 v=127
107760 On ch=1 n=71 v=81
107760 On ch=1 n=55 v=75
107865 Off ch=1 n=71 v=64
107877 Off ch=1 n=48 v=64
107877 Off ch=1 n=64 v=64
108000 On ch=1 n=76 v=92
108000 On ch=1 n=59 v=77
108117 Off ch=1 n=55 v=64
108240 On ch=1 n=64 v=66
108240 On ch=1 n=60 v=96
108277 Off ch=1 n=76 v=64
108357 Off ch=1 n=59 v=64
108422 Off ch=1 n=64 v=64
108480 On ch=1 n=71 v=81
108480 On ch=1 n=59 v=77
108585 Off ch=1 n=71 v=64
108598 Off ch=1 n=60 v=64
108720 On ch=1 n=76 v=77
108720 On ch=1 n=55 v=75
108838 Off ch=1 n=59 v=64
108960 On ch=1 n=64 v=75
108960 On ch=1 n=48 v=79
109057 Off ch=1 n=76 v=64
109078 Off ch=1 n=55 v=64
109200 On ch=1 n=71 v=76
109200 On ch=1 n=55 v=75
109246 Off ch=1 n=64 v=64
109278 Off ch=1 n=71 v=64
109318 Off ch=1 n=48 v=64
109440 On ch=1 n=76 v=80
109440 On ch=1 n=59 v=77
109558 Off ch=1 n=55 v=64
109680 On ch=1 n=64 v=55
109680 On ch=1 n=60 v=104
109747 Off ch=1 n=76 v=64
109798 Off ch=1 n=59 v=64
109920 On ch=1 n=71 v=80
109920 On ch=1 n=59 v=77
109938 Off ch=1 n=64 v=64
110036 Off ch=1 n=71 v=64
110038 Off ch=1 n=60 v=64
110160 On ch=1 n=76 v=88
110160 On ch=1 n=55 v=91
110278 Off ch=1 n=59 v=64
110400 On ch=1 n=64 v=67
110400 On ch=1 n=48 v=86
110474 Off ch=1 n=76 v=64
110518 Off ch=1 n=55 v=64
110560 Off ch=1 n=64 v=64
110640 On ch=1 n=76 v=90
110640 On ch=1 n=55 v=66
110758 Off ch=1 n=48 v=64
110778 Off ch=1 n=76 v=64
110880 On ch=1 n=59 v=60
110998 Off ch=1 n=55 v=64
111120 On ch=1 n=78 v=87
111120 On ch=1 n=55 v=70
111238 Off ch=1 n=59 v=64
111360 Par ch=1 c=64 v=0
111360 Par ch=1 c=64 v=0
111360 On ch=1 n=66 v=79
111360 Par ch=1 c=64 v=127
111360 Par ch=1 c=64 v=127
111360 On ch=1 n=50 v=75
111422 Par ch=1 c=64 v=0
111422 Par ch=1 c=64 v=0
111478 Off ch=1 n=55 v=64
111480 Off ch=1 n=78 v=64
111542 Par ch=1 c=64 v=127
111542 Par ch=1 c=64 v=127
111600 On ch=1 n=71 v=76
111600 On ch=1 n=55 v=75
111705 Off ch=1 n=71 v=64
111718 Off ch=1 n=66 v=64
111762 Off ch=1 n=50 v=64
111840 On ch=1 n=78 v=92
111840 On ch=1 n=57 v=91
111958 Off ch=1 n=55 v=64
112080 On ch=1 n=66 v=66
112080 On ch=1 n=59 v=88
112117 Off ch=1 n=78 v=64
112239 Off ch=1 n=57 v=64
112262 Off ch=1 n=66 v=64
112320 On ch=1 n=71 v=76
112320 On ch=1 n=57 v=91
112425 Off ch=1 n=71 v=64
112560 Off ch=1 n=59 v=64
112560 On ch=1 n=78 v=69
112560 On ch=1 n=55 v=75
112719 Off ch=1 n=57 v=64
112800 On ch=1 n=66 v=75
112800 On ch=1 n=50 v=79
112897 Off ch=1 n=78 v=64
112918 Off ch=1 n=55 v=64
113040 On ch=1 n=71 v=71
113040 On ch=1 n=55 v=75
113086 Off ch=1 n=66 v=64
113118 Off ch=1 n=71 v=64
113158 Off ch=1 n=50 v=64
113280 On ch=1 n=78 v=72
113280 On ch=1 n=57 v=91
113398 Off ch=1 n=55 v=64
113520 On ch=1 n=66 v=55
113520 On ch=1 n=59 v=88
113587 Off ch=1 n=78 v=64
113679 Off ch=1 n=57 v=64
113760 On ch=1 n=71 v=75
113760 On ch=1 n=57 v=91
113779 Off ch=1 n=66 v=64
113876 Off ch=1 n=71 v=64
114000 Off ch=1 n=59 v=64
114000 On ch=1 n=78 v=88
114000 On ch=1 n=55 v=75
114159 Off ch=1 n=57 v=64
114240 On ch=1 n=66 v=67
114240 On ch=1 n=50 v=79
114314 Off ch=1 n=78 v=64
114358 Off ch=1 n=55 v=64
114400 Off ch=1 n=66 v=64
114480 On ch=1 n=78 v=73
114480 On ch=1 n=55 v=75
114598 Off ch=1 n=50 v=64
114619 Off ch=1 n=78 v=64
114720 On ch=1 n=66 v=65
114720 On ch=1 n=59 v=69
114828 Off ch=1 n=66 v=64
114838 Off ch=1 n=55 v=64
114960 On ch=1 n=78 v=77
114960 On ch=1 n=55 v=69
115078 Off ch=1 n=59 v=64
115200 Par ch=1 c=64 v=0
115200 Par ch=1 c=64 v=0
115200 On ch=1 n=66 v=69
115200 Par ch=1 c=64 v=127
115200 Par ch=1 c=64 v=127
115200 On ch=1 n=52 v=86
115262 Par ch=1 c=64 v=0
115262 Par ch=1 c=64 v=0
115318 Off ch=1 n=55 v=64
115320 Off ch=1 n=78 v=64
115382 Par ch=1 c=64 v=127
115382 Par ch=1 c=64 v=127
115440 On ch=1 n=71 v=66
115440 On ch=1 n=55 v=65
115545 Off ch=1 n=71 v=64
115558 Off ch=1 n=66 v=64
115680 On ch=1 n=78 v=74
115680 On ch=1 n=59 v=67
115728 Off ch=1 n=52 v=64
115798 Off ch=1 n=55 v=64
115920 On ch=1 n=66 v=56
115920 On ch=1 n=60 v=86
116038 Off ch=1 n=59 v=64
116102 Off ch=1 n=66 v=64
116160 On ch=1 n=71 v=66
116160 On ch=1 n=59 v=67
116179 Off ch=1 n=78 v=64
116265 Off ch=1 n=71 v=64
116278 Off ch=1 n=60 v=64
116400 On ch=1 n=78 v=78
116400 On ch=1 n=55 v=65
116518 Off ch=1 n=59 v=64
116640 On ch=1 n=66 v=65
116640 On ch=1 n=52 v=69
116758 Off ch=1 n=55 v=64
116880 On ch=1 n=71 v=61
116880 Off ch=1 n=78 v=64
116880 On ch=1 n=55 v=65
116926 Off ch=1 n=66 v=64
116958 Off ch=1 n=71 v=64
116998 Off ch=1 n=52 v=64
117120 On ch=1 n=78 v=84
117120 On ch=1 n=59 v=59
117238 Off ch=1 n=55 v=64
117360 On ch=1 n=66 v=45
117360 On ch=1 n=60 v=59
117503 Off ch=1 n=78 v=64
117600 Off ch=1 n=59 v=0
117600 On ch=1 n=71 v=65
117600 On ch=1 n=59 v=59
117619 Off ch=1 n=66 v=64
117649 Off ch=1 n=59 v=64
117716 Off ch=1 n=71 v=64
117840 On ch=1 n=78 v=86
117840 On ch=1 n=55 v=59
117889 Off ch=1 n=60 v=64
118080 On ch=1 n=66 v=67
118080 On ch=1 n=52 v=69
118240 Off ch=1 n=66 v=64
118280 Off ch=1 n=78 v=64
118320 Off ch=1 n=55 v=0
118320 On ch=1 n=78 v=96
118320 On ch=1 n=55 v=69
118369 Off ch=1 n=55 v=64
118560 On ch=1 n=66 v=75
118560 On ch=1 n=59 v=69
118609 Off ch=1 n=52 v=64
118668 Off ch=1 n=66 v=64
118760 Off ch=1 n=78 v=64
118800 On ch=1 n=76 v=96
118800 On ch=1 n=55 v=69
118849 Off ch=1 n=55 v=64
119035 Off ch=1 n=76 v=64
119040 Par ch=1 c=64 v=0
119040 Par ch=1 c=64 v=0
119040 Par ch=1 c=64 v=127
119040 Par ch=1 c=64 v=127
119040 On ch=1 n=57 v=91
119089 Off ch=1 n=59 v=64
119102 Par ch=1 c=64 v=0
119102 Par ch=1 c=64 v=0
119223 Par ch=1 c=64 v=127
119223 Par ch=1 c=64 v=127
119280 On ch=1 n=71 v=90
119397 Off ch=1 n=57 v=64
119520 On ch=1 n=72 v=78
119557 Off ch=1 n=71 v=64
119760 On ch=1 n=78 v=102
119895 Off ch=1 n=72 v=64
120000 On ch=1 n=72 v=86
120000 On ch=1 n=60 v=92
120000 On ch=1 n=64 v=92
120035 Off ch=1 n=78 v=64
120240 On ch=1 n=76 v=86
120243 Off ch=1 n=72 v=64
120358 Off ch=1 n=64 v=64
120358 Off ch=1 n=60 v=64
120480 On ch=1 n=79 v=102
120483 Off ch=1 n=76 v=64
120647 Off ch=1 n=79 v=64
120720 On ch=1 n=74 v=81
120720 On ch=1 n=59 v=96
120958 Off ch=1 n=74 v=64
120960 On ch=1 n=78 v=81
121003 Par ch=1 c=64 v=127
121003 Par ch=1 c=64 v=127
121014 Par ch=1 c=64 v=0
121014 Par ch=1 c=64 v=0
121084 Par ch=1 c=64 v=127
121084 Par ch=1 c=64 v=127
121198 Off ch=1 n=78 v=64
121200 On ch=1 n=81 v=102
121440 On ch=1 n=76 v=68
121462 Off ch=1 n=81 v=64
121586 Off ch=1 n=76 v=64
121680 On ch=1 n=83 v=102
121920 On ch=1 n=78 v=81
121920 On ch=1 n=62 v=80
121920 On ch=1 n=66 v=80
121978 Off ch=1 n=83 v=64
122159 Off ch=1 n=78 v=64
122160 On ch=1 n=79 v=102
122278 Off ch=1 n=66 v=64
122278 Off ch=1 n=62 v=64
122400 On ch=1 n=81 v=98
122520 Off ch=1 n=59 v=64
122640 On ch=1 n=88 v=93
122650 Off ch=1 n=79 v=64
122879 Par ch=1 c=64 v=127
122880 Par ch=1 c=64 v=0
122880 Par ch=1 c=64 v=0
122880 Par ch=1 c=64 v=127
122880 Par ch=1 c=64 v=127
122880 On ch=1 n=48 v=89
122942 Par ch=1 c=64 v=0
122942 Par ch=1 c=64 v=0
122969 Off ch=1 n=81 v=64
123062 Par ch=1 c=64 v=127
123062 Par ch=1 c=64 v=127
123120 On ch=1 n=55 v=65
123238 Off ch=1 n=48 v=64
123360 On ch=1 n=76 v=71
123360 On ch=1 n=59 v=67
123478 Off ch=1 n=55 v=64
123600 On ch=1 n=83 v=87
123600 On ch=1 n=60 v=86
123610 Off ch=1 n=88 v=64
123718 Off ch=1 n=59 v=64
123840 Off ch=1 n=76 v=64
123840 On ch=1 n=59 v=67
123958 Off ch=1 n=60 v=64
124080 On ch=1 n=55 v=65
124198 Off ch=1 n=59 v=64
124320 On ch=1 n=76 v=71
124320 On ch=1 n=48 v=69
124438 Off ch=1 n=55 v=64
124543 Off ch=1 n=83 v=64
124560 On ch=1 n=81 v=72
124560 On ch=1 n=55 v=65
124678 Off ch=1 n=48 v=64
124800 On ch=1 n=79 v=90
124800 Off ch=1 n=76 v=64
124800 On ch=1 n=59 v=67
124851 Off ch=1 n=81 v=64
124918 Off ch=1 n=55 v=64
125040 On ch=1 n=81 v=77
125040 On ch=1 n=60 v=94
125048 Off ch=1 n=79 v=64
125158 Off ch=1 n=59 v=64
125280 On ch=1 n=76 v=71
125280 On ch=1 n=59 v=67
125398 Off ch=1 n=60 v=64
125503 Off ch=1 n=81 v=64
125520 On ch=1 n=83 v=88
125520 On ch=1 n=55 v=81
125638 Off ch=1 n=59 v=64
125760 Off ch=1 n=76 v=64
125760 On ch=1 n=48 v=67
125878 Off ch=1 n=55 v=64
126000 On ch=1 n=79 v=71
126000 On ch=1 n=55 v=56
126068 Off ch=1 n=83 v=64
126118 Off ch=1 n=48 v=64
126240 On ch=1 n=81 v=72
126240 On ch=1 n=76 v=71
126240 On ch=1 n=59 v=50
126251 Off ch=1 n=79 v=64
126358 Off ch=1 n=55 v=64
126480 On ch=1 n=86 v=95
126480 On ch=1 n=55 v=60
126538 Off ch=1 n=81 v=64
126598 Off ch=1 n=59 v=64
126720 Par ch=1 c=64 v=0
126720 Par ch=1 c=64 v=0
126720 Off ch=1 n=76 v=64
126720 Par ch=1 c=64 v=127
126720 Par ch=1 c=64 v=127
126720 On ch=1 n=50 v=80
126782 Par ch=1 c=64 v=0
126782 Par ch=1 c=64 v=0
126838 Off ch=1 n=55 v=64
126902 Par ch=1 c=64 v=127
126902 Par ch=1 c=64 v=127
126960 On ch=1 n=55 v=65
127200 On ch=1 n=78 v=71
127200 On ch=1 n=57 v=81
127318 Off ch=1 n=55 v=64
127440 Off ch=1 n=50 v=64
127440 On ch=1 n=83 v=86
127440 On ch=1 n=59 v=78
127488 Off ch=1 n=86 v=64
127599 Off ch=1 n=57 v=64
127680 Off ch=1 n=78 v=64
127680 On ch=1 n=57 v=81
127920 Off ch=1 n=59 v=64
127920 On ch=1 n=55 v=65
128079 Off ch=1 n=57 v=64
128160 On ch=1 n=78 v=71
128160 On ch=1 n=50 v=69
128278 Off ch=1 n=55 v=64
128378 Off ch=1 n=83 v=64
128400 On ch=1 n=81 v=81
128400 On ch=1 n=55 v=65
128518 Off ch=1 n=50 v=64
128640 On ch=1 n=79 v=81
128640 Off ch=1 n=78 v=64
128640 On ch=1 n=57 v=81
128659 Off ch=1 n=81 v=64
128758 Off ch=1 n=55 v=64
128880 On ch=1 n=81 v=81
128880 On ch=1 n=59 v=78
128892 Off ch=1 n=79 v=64
129039 Off ch=1 n=57 v=64
129120 On ch=1 n=74 v=71
129120 On ch=1 n=57 v=81
129331 Off ch=1 n=81 v=64
129360 Off ch=1 n=59 v=64
129360 On ch=1 n=78 v=90
129360 On ch=1 n=55 v=65
129519 Off ch=1 n=57 v=64
129600 Off ch=1 n=74 v=64
129600 On ch=1 n=50 v=69
129717 Off ch=1 n=55 v=64
129793 Off ch=1 n=78 v=64
129840 On ch=1 n=79 v=81
129840 On ch=1 n=55 v=65
129957 Off ch=1 n=50 v=64
130080 On ch=1 n=74 v=71
130080 On ch=1 n=81 v=85
130080 On ch=1 n=59 v=69
130092 Off ch=1 n=79 v=64
130197 Off ch=1 n=55 v=64
130320 On ch=1 n=86 v=93
130320 On ch=1 n=55 v=69
130438 Off ch=1 n=59 v=64
130560 Par ch=1 c=64 v=0
130560 Par ch=1 c=64 v=0
130560 Off ch=1 n=74 v=64
130560 Off ch=1 n=81 v=64
130560 Par ch=1 c=64 v=127
130560 Par ch=1 c=64 v=127
130560 On ch=1 n=52 v=83
130622 Par ch=1 c=64 v=0
130622 Par ch=1 c=64 v=0
130678 Off ch=1 n=55 v=64
130742 Par ch=1 c=64 v=127
130742 Par ch=1 c=64 v=127
130800 On ch=1 n=55 v=65
130918 Off ch=1 n=52 v=64
131040 On ch=1 n=76 v=71
131040 On ch=1 n=59 v=81
131087 Off ch=1 n=86 v=64
131158 Off ch=1 n=55 v=64
131280 On ch=1 n=83 v=76
131280 On ch=1 n=60 v=78
131439 Off ch=1 n=59 v=64
131520 Off ch=1 n=76 v=64
131520 On ch=1 n=59 v=81
131760 Off ch=1 n=60 v=64
131760 On ch=1 n=55 v=65
131919 Off ch=1 n=59 v=64
132000 On ch=1 n=76 v=71
132000 On ch=1 n=52 v=69
132056 Off ch=1 n=83 v=64
132118 Off ch=1 n=55 v=64
132240 On ch=1 n=86 v=78
132240 On ch=1 n=55 v=65
132358 Off ch=1 n=52 v=64
132480 On ch=1 n=84 v=76
132480 Off ch=1 n=76 v=64
132480 On ch=1 n=59 v=81
132590 Off ch=1 n=86 v=64
132598 Off ch=1 n=55 v=64
132720 On ch=1 n=83 v=71
132720 On ch=1 n=60 v=78
132721 Off ch=1 n=84 v=64
132879 Off ch=1 n=59 v=64
132960 On ch=1 n=76 v=71
132960 On ch=1 n=59 v=81
133200 Off ch=1 n=60 v=64
133200 On ch=1 n=81 v=83
133200 On ch=1 n=55 v=65
133260 Off ch=1 n=83 v=64
133359 Off ch=1 n=59 v=64
133440 Off ch=1 n=76 v=64
133440 On ch=1 n=52 v=69
133558 Off ch=1 n=55 v=64
133667 Off ch=1 n=81 v=64
133680 On ch=1 n=79 v=83
133680 On ch=1 n=55 v=65
133798 Off ch=1 n=52 v=64
133911 Off ch=1 n=79 v=64
133920 On ch=1 n=81 v=90
133920 On ch=1 n=59 v=69
134038 Off ch=1 n=55 v=64
134160 On ch=1 n=76 v=90
134160 On ch=1 n=55 v=69
134278 Off ch=1 n=59 v=64
134399 Par ch=1 c=64 v=127
134399 Par ch=1 c=64 v=127
134400 Par ch=1 c=64 v=0
134400 Par ch=1 c=64 v=0
134400 Par ch=1 c=64 v=127
134400 Par ch=1 c=64 v=127
134400 On ch=1 n=57 v=87
134417 Off ch=1 n=81 v=64
134462 Par ch=1 c=64 v=0
134462 Par ch=1 c=64 v=0
134518 Off ch=1 n=55 v=64
134582 Par ch=1 c=64 v=127
134582 Par ch=1 c=64 v=127
134640 Off ch=1 n=76 v=64
134640 On ch=1 n=59 v=72
134758 Off ch=1 n=57 v=64
134880 On ch=1 n=72 v=71
134880 On ch=1 n=60 v=57
134998 Off ch=1 n=59 v=64
135120 On ch=1 n=83 v=90
135120 On ch=1 n=64 v=73
135238 Off ch=1 n=60 v=64
135360 Off ch=1 n=72 v=64
135360 On ch=1 n=60 v=57
135478 Off ch=1 n=64 v=64
135600 On ch=1 n=59 v=62
135718 Off ch=1 n=60 v=64
135840 On ch=1 n=72 v=71
135840 On ch=1 n=57 v=64
135864 Off ch=1 n=83 v=64
135958 Off ch=1 n=59 v=64
136080 On ch=1 n=86 v=85
136080 On ch=1 n=60 v=64
136198 Off ch=1 n=57 v=64
136320 On ch=1 n=84 v=79
136320 Off ch=1 n=72 v=64
136320 On ch=1 n=59 v=61
136363 Par ch=1 c=64 v=127
136363 Par ch=1 c=64 v=127
136374 Par ch=1 c=64 v=0
136374 Par ch=1 c=64 v=0
136432 Off ch=1 n=86 v=64
136438 Off ch=1 n=60 v=64
136444 Par ch=1 c=64 v=127
136444 Par ch=1 c=64 v=127
136560 On ch=1 n=83 v=77
136560 On ch=1 n=62 v=61
136572 Off ch=1 n=84 v=64
136678 Off ch=1 n=59 v=64
136800 On ch=1 n=74 v=71
136800 On ch=1 n=66 v=61
136918 Off ch=1 n=62 v=64
137040 On ch=1 n=81 v=85
137040 On ch=1 n=67 v=61
137091 Off ch=1 n=83 v=64
137158 Off ch=1 n=66 v=64
137280 Off ch=1 n=74 v=64
137280 On ch=1 n=66 v=71
137398 Off ch=1 n=67 v=64
137520 On ch=1 n=79 v=86
137520 On ch=1 n=62 v=62
137546 Off ch=1 n=81 v=64
137638 Off ch=1 n=66 v=64
137760 On ch=1 n=74 v=71
137760 On ch=1 n=81 v=82
137760 On ch=1 n=59 v=62
137782 Off ch=1 n=79 v=64
137878 Off ch=1 n=62 v=64
138000 On ch=1 n=88 v=90
138000 On ch=1 n=62 v=62
138118 Off ch=1 n=59 v=64
138240 Par ch=1 c=64 v=0
138240 Par ch=1 c=64 v=0
138240 Off ch=1 n=74 v=64
138240 Par ch=1 c=64 v=127
138240 Par ch=1 c=64 v=127
138240 On ch=1 n=60 v=86
138302 Par ch=1 c=64 v=0
138302 Par ch=1 c=64 v=0
138358 Off ch=1 n=62 v=64
138422 Par ch=1 c=64 v=127
138422 Par ch=1 c=64 v=127
138480 Off ch=1 n=81 v=64
138480 On ch=1 n=67 v=53
138598 Off ch=1 n=60 v=64
138720 On ch=1 n=76 v=71
138720 On ch=1 n=71 v=56
138753 Off ch=1 n=88 v=64
138838 Off ch=1 n=67 v=64
138960 On ch=1 n=83 v=85
138960 On ch=1 n=72 v=57
139078 Off ch=1 n=71 v=64
139200 Off ch=1 n=76 v=64
139200 On ch=1 n=71 v=56
139318 Off ch=1 n=72 v=64
139440 On ch=1 n=67 v=53
139558 Off ch=1 n=71 v=64
139680 On ch=1 n=76 v=71
139680 On ch=1 n=60 v=57
139798 Off ch=1 n=67 v=64
139920 On ch=1 n=81 v=80
139920 On ch=1 n=67 v=53
139958 Off ch=1 n=83 v=64
140038 Off ch=1 n=60 v=64
140160 On ch=1 n=79 v=80
140160 Off ch=1 n=76 v=64
140160 On ch=1 n=71 v=56
140171 Off ch=1 n=81 v=64
140278 Off ch=1 n=67 v=64
140400 On ch=1 n=81 v=75
140400 On ch=1 n=72 v=65
140435 Off ch=1 n=79 v=64
140518 Off ch=1 n=71 v=64
140640 On ch=1 n=76 v=71
140640 On ch=1 n=71 v=56
140758 Off ch=1 n=72 v=64
140880 On ch=1 n=83 v=67
140880 On ch=1 n=67 v=69
140897 Off ch=1 n=81 v=64
140998 Off ch=1 n=71 v=64
141120 Off ch=1 n=76 v=64
141120 On ch=1 n=60 v=78
141238 Off ch=1 n=67 v=64
141360 On ch=1 n=79 v=80
141360 On ch=1 n=67 v=58
141381 Off ch=1 n=83 v=64
141478 Off ch=1 n=60 v=64
141600 On ch=1 n=76 v=71
141600 On ch=1 n=81 v=85
141600 On ch=1 n=71 v=52
141650 Off ch=1 n=79 v=64
141718 Off ch=1 n=67 v=64
141840 On ch=1 n=86 v=86
141840 On ch=1 n=67 v=62
141958 Off ch=1 n=71 v=64
142080 Par ch=1 c=64 v=0
142080 Par ch=1 c=64 v=0
142080 Off ch=1 n=76 v=64
142080 Par ch=1 c=64 v=127
142080 Par ch=1 c=64 v=127
142080 On ch=1 n=62 v=82
142142 Par ch=1 c=64 v=0
142142 Par ch=1 c=64 v=0
142198 Off ch=1 n=67 v=64
142262 Par ch=1 c=64 v=127
142262 Par ch=1 c=64 v=127
142320 On ch=1 n=67 v=53
142438 Off ch=1 n=62 v=64
142560 On ch=1 n=78 v=71
142560 On ch=1 n=69 v=53
142674 Off ch=1 n=81 v=64
142678 Off ch=1 n=67 v=64
142800 On ch=1 n=83 v=83
142800 On ch=1 n=71 v=57
142819 Off ch=1 n=86 v=64
142918 Off ch=1 n=69 v=64
143040 Off ch=1 n=78 v=64
143040 On ch=1 n=69 v=53
143158 Off ch=1 n=71 v=64
143280 On ch=1 n=67 v=53
143398 Off ch=1 n=69 v=64
143520 On ch=1 n=78 v=71
143520 On ch=1 n=62 v=82
143638 Off ch=1 n=67 v=64
143693 Off ch=1 n=83 v=64
143760 On ch=1 n=86 v=78
143760 On ch=1 n=67 v=53
143878 Off ch=1 n=62 v=64
144000 On ch=1 n=84 v=79
144000 Off ch=1 n=78 v=64
144000 On ch=1 n=69 v=53
144010 Off ch=1 n=86 v=64
144118 Off ch=1 n=67 v=64
144240 On ch=1 n=83 v=88
144240 On ch=1 n=71 v=57
144250 Off ch=1 n=84 v=64
144358 Off ch=1 n=69 v=64
144480 On ch=1 n=78 v=71
144480 On ch=1 n=69 v=53
144577 Off ch=1 n=83 v=64
144598 Off ch=1 n=71 v=64
144720 On ch=1 n=81 v=90
144720 On ch=1 n=67 v=53
144838 Off ch=1 n=69 v=64
144960 Off ch=1 n=78 v=64
144960 On ch=1 n=62 v=82
145078 Off ch=1 n=67 v=64
145136 Off ch=1 n=81 v=64
145200 On ch=1 n=79 v=79
145200 On ch=1 n=67 v=53
145318 Off ch=1 n=62 v=64
145440 On ch=1 n=78 v=71
145440 On ch=1 n=81 v=88
145440 On ch=1 n=71 v=53
145530 Off ch=1 n=79 v=64
145558 Off ch=1 n=67 v=64
145680 On ch=1 n=86 v=98
145680 On ch=1 n=67 v=53
145798 Off ch=1 n=71 v=64
145919 Par ch=1 c=64 v=127
145919 Par ch=1 c=64 v=127
145920 Par ch=1 c=64 v=0
145920 Par ch=1 c=64 v=0
145920 Off ch=1 n=78 v=64
145920 Par ch=1 c=64 v=127
145920 Par ch=1 c=64 v=127
145920 On ch=1 n=64 v=74
145982 Par ch=1 c=64 v=0
145982 Par ch=1 c=64 v=0
146038 Off ch=1 n=67 v=64
146102 Par ch=1 c=64 v=127
146102 Par ch=1 c=64 v=127
146160 On ch=1 n=67 v=53
146400 On ch=1 n=79 v=71
146400 On ch=1 n=71 v=55
146418 Off ch=1 n=86 v=64
146449 Off ch=1 n=64 v=64
146453 Off ch=1 n=81 v=64
146518 Off ch=1 n=67 v=64
146640 On ch=1 n=83 v=93
146640 On ch=1 n=72 v=74
146758 Off ch=1 n=71 v=64
146880 Off ch=1 n=79 v=64
146880 On ch=1 n=71 v=55
146998 Off ch=1 n=72 v=64
147120 On ch=1 n=67 v=53
147238 Off ch=1 n=71 v=64
147360 On ch=1 n=78 v=71
147360 On ch=1 n=81 v=97
147360 On ch=1 n=64 v=57
147391 Off ch=1 n=83 v=64
147478 Off ch=1 n=67 v=64
147572 Off ch=1 n=81 v=64
147600 On ch=1 n=88 v=84
147600 On ch=1 n=67 v=53
147718 Off ch=1 n=64 v=64
147840 Off ch=1 n=78 v=64
147840 On ch=1 n=59 v=74
147883 Par ch=1 c=64 v=127
147883 Par ch=1 c=64 v=127
147894 Par ch=1 c=64 v=0
147894 Par ch=1 c=64 v=0
147958 Off ch=1 n=67 v=64
147964 Par ch=1 c=64 v=127
147964 Par ch=1 c=64 v=127
148067 Off ch=1 n=88 v=64
148080 On ch=1 n=83 v=90
148080 On ch=1 n=62 v=52
148320 On ch=1 n=78 v=71
148320 On ch=1 n=66 v=52
148369 Off ch=1 n=59 v=64
148529 Off ch=1 n=83 v=64
148560 On ch=1 n=81 v=103
148560 On ch=1 n=67 v=52
148609 Off ch=1 n=62 v=64
148800 Off ch=1 n=66 v=0
148800 Off ch=1 n=78 v=64
148800 On ch=1 n=66 v=52
148849 Off ch=1 n=66 v=64
148974 Off ch=1 n=81 v=64
149040 On ch=1 n=79 v=88
149040 On ch=1 n=62 v=52
149089 Off ch=1 n=67 v=64
149280 On ch=1 n=59 v=71
149280 On ch=1 n=78 v=103
149520 On ch=1 n=76 v=101
149520 On ch=1 n=66 v=52
149569 Off ch=1 n=62 v=64
149760 Par ch=1 c=64 v=0
149760 Par ch=1 c=64 v=0
149760 Off ch=1 n=59 v=64
149760 On ch=1 n=64 v=79
150000 On ch=1 n=67 v=53
150240 On ch=1 n=71 v=55
150509 On ch=1 n=72 v=74
150732 Off ch=1 n=71 v=0
150732 On ch=1 n=71 v=55
150853 Off ch=1 n=66 v=64
150900 Off ch=1 n=79 v=64
150919 Off ch=1 n=76 v=64
151005 Off ch=1 n=67 v=0
151005 On ch=1 n=67 v=53
151028 Off ch=1 n=78 v=64
151093 Off ch=1 n=64 v=64
151162 Off ch=1 n=67 v=64
151227 Off ch=1 n=71 v=64
151305 On ch=1 n=66 v=57
151836 Off ch=1 n=66 v=64
151920 Off ch=1 n=72 v=64
152050 On ch=1 n=64 v=53
152070 On ch=1 n=52 v=53
156192 Off ch=1 n=64 v=64
156212 Off ch=1 n=52 v=64
156212 Meta TrkEnd
TrkEnd
