MFile 1 2 1024
MTrk
0 SeqSpec 05 0f 1c 32 30 31 38 2e 30 31 2e 30 31 01 01
0 SeqSpec 05 0f 2d 4d 69 63 72 6f 73 6f 66 74 20 53 61 6e 73 20 53 65 72 69 66 2c 38 2e 32 35 2c 46 61 6c 73 65 2c 46 61 6c 73 65 2c 31 2c 30
0 SeqSpec 05 0f 12 03 03 7f 7f 00 ff 01 04 34 41 6c 74 6f 2d 66 61 6c 61 6e 74 65 73 20 28 44 69 73 70 6f 73 69 74 69 76 6f 20 64 65 20 48 69 67 68 20 44 65 66 69 6e 69 74 69 6f 6e 20 41 75 64 69 6f 29
0 SMPTE 96 0 0 0 0
0 TimeSig 4/4 24 8
0 KeySig 255 major
0 Tempo 461537
0 Tempo 444444
0 Tempo 444447
4096 Tempo 444447
6144 Tempo 444447
6400 Tempo 447945
6656 Tempo 449517
6912 Tempo 452900
7168 Tempo 454707
7424 Tempo 458169
7680 Tempo 459814
7936 Tempo 463350
8448 Tempo 444447
51200 Tempo 444447
51456 Tempo 447945
51712 Tempo 449517
51968 Tempo 452900
52224 Tempo 454707
52480 Tempo 458169
52736 Tempo 459814
52992 Tempo 463350
53504 Tempo 444447
94208 Tempo 444447
96256 Tempo 444447
96512 Tempo 447945
96768 Tempo 449517
97024 Tempo 452900
97280 Tempo 454707
97536 Tempo 458169
97792 Tempo 459814
98048 Tempo 463350
98560 Tempo 444447
141312 Tempo 444447
141568 Tempo 447945
141824 Tempo 449517
142080 Tempo 452900
142336 Tempo 454707
142592 Tempo 458169
142848 Tempo 459814
143104 Tempo 463350
143616 Tempo 444447
143616 Meta TrkEnd
TrkEnd
MTrk
0 SeqSpec 05 0f 09 4e 48
0 SeqSpec 05 0f 06 47 65 6e 65 72 61 6c 20 4d 49 44 49 20 2d 20 4d 69 63 72 6f 73 6f 66 74 20 47 53 20 57 61 76 65 74 61 62 6c 65 20 53 79 6e 74 68
0 Par ch=1 c=7 v=102
0 Par ch=1 c=10 v=64
0 Par ch=1 c=7 v=101
0 Meta 0x09  53 6d 61 72 74 4d 75 73 69 63 20 53 6f 66 74 53 79 6e 74 68 20 31
0 Meta TrkName "Piano"
0 PrCh ch=1 p=1
0 Par ch=1 c=7 v=101
0 Par ch=1 c=10 v=64
0 Par ch=1 c=7 v=110
10 On ch=1 n=86 v=69
10 On ch=1 n=46 v=69
1053 Off ch=1 n=46 v=0
1053 Off ch=1 n=86 v=0
1054 On ch=1 n=82 v=65
1054 On ch=1 n=41 v=65
1806 Off ch=1 n=41 v=0
1806 Off ch=1 n=82 v=0
1807 On ch=1 n=77 v=64
1807 On ch=1 n=38 v=63
2053 Off ch=1 n=38 v=0
2053 Off ch=1 n=77 v=0
2069 On ch=1 n=76 v=67
2069 On ch=1 n=36 v=65
2271 Off ch=1 n=36 v=0
2271 Off ch=1 n=76 v=0
2579 On ch=1 n=77 v=64
2579 On ch=1 n=38 v=63
2811 Off ch=1 n=38 v=0
2811 Off ch=1 n=77 v=0
2827 On ch=1 n=79 v=64
2827 On ch=1 n=40 v=63
4095 Off ch=1 n=79 v=0
4100 On ch=1 n=65 v=61
4100 On ch=1 n=69 v=71
4100 On ch=1 n=41 v=57
4135 Off ch=1 n=40 v=0
4535 Off ch=1 n=41 v=0
4641 Off ch=1 n=65 v=0
4641 Off ch=1 n=69 v=0
4642 On ch=1 n=65 v=56
4642 On ch=1 n=69 v=66
4973 Off ch=1 n=65 v=0
4973 Off ch=1 n=69 v=0
4974 On ch=1 n=65 v=56
4974 On ch=1 n=69 v=66
5149 Off ch=1 n=65 v=0
5149 Off ch=1 n=69 v=0
5150 On ch=1 n=65 v=57
5150 On ch=1 n=69 v=67
5150 On ch=1 n=38 v=52
5550 Off ch=1 n=38 v=0
5654 Off ch=1 n=65 v=0
5654 Off ch=1 n=69 v=0
5655 On ch=1 n=65 v=56
5655 On ch=1 n=69 v=66
5985 Off ch=1 n=65 v=0
5985 Off ch=1 n=69 v=0
5986 On ch=1 n=65 v=56
5986 On ch=1 n=69 v=70
6154 Off ch=1 n=65 v=0
6164 Off ch=1 n=69 v=0
6165 On ch=1 n=67 v=59
6165 On ch=1 n=70 v=73
6165 On ch=1 n=43 v=55
6565 Off ch=1 n=43 v=0
6674 Off ch=1 n=67 v=0
6674 Off ch=1 n=70 v=0
6675 On ch=1 n=67 v=56
6675 On ch=1 n=70 v=66
7005 Off ch=1 n=67 v=0
7005 Off ch=1 n=70 v=0
7006 On ch=1 n=67 v=67
7006 On ch=1 n=70 v=62
7169 Off ch=1 n=67 v=0
7179 Off ch=1 n=70 v=0
7180 On ch=1 n=66 v=68
7180 On ch=1 n=70 v=63
7180 On ch=1 n=36 v=51
7577 Off ch=1 n=36 v=0
7684 Off ch=1 n=66 v=0
7684 Off ch=1 n=70 v=0
7685 On ch=1 n=66 v=56
7685 On ch=1 n=70 v=66
8015 Off ch=1 n=66 v=0
8015 Off ch=1 n=70 v=0
8016 On ch=1 n=66 v=56
8016 On ch=1 n=70 v=70
8181 Off ch=1 n=66 v=0
8191 Off ch=1 n=70 v=0
8196 On ch=1 n=65 v=61
8196 On ch=1 n=69 v=75
8196 On ch=1 n=41 v=57
8631 Off ch=1 n=41 v=0
8737 Off ch=1 n=65 v=0
8737 Off ch=1 n=69 v=0
8738 On ch=1 n=65 v=56
8738 On ch=1 n=69 v=66
9069 Off ch=1 n=65 v=0
9069 Off ch=1 n=69 v=0
9070 On ch=1 n=65 v=56
9070 On ch=1 n=69 v=66
9245 Off ch=1 n=65 v=0
9245 Off ch=1 n=69 v=0
9246 On ch=1 n=65 v=57
9246 On ch=1 n=69 v=67
9246 On ch=1 n=38 v=52
9646 Off ch=1 n=38 v=0
9750 Off ch=1 n=65 v=0
9750 Off ch=1 n=69 v=0
9751 On ch=1 n=65 v=56
9751 On ch=1 n=69 v=66
10081 Off ch=1 n=65 v=0
10081 Off ch=1 n=69 v=0
10082 On ch=1 n=65 v=56
10082 On ch=1 n=69 v=70
10250 Off ch=1 n=65 v=0
10260 Off ch=1 n=69 v=0
10261 On ch=1 n=67 v=59
10261 On ch=1 n=70 v=73
10261 On ch=1 n=43 v=67
10463 Off ch=1 n=43 v=0
10740 Off ch=1 n=67 v=0
10770 Off ch=1 n=70 v=0
10771 On ch=1 n=66 v=67
10771 On ch=1 n=70 v=62
10771 On ch=1 n=42 v=64
12287 Off ch=1 n=42 v=0
12287 Off ch=1 n=66 v=0
12287 Off ch=1 n=70 v=0
12292 On ch=1 n=81 v=69
12292 On ch=1 n=41 v=69
12727 Off ch=1 n=41 v=0
12727 Off ch=1 n=81 v=0
13342 On ch=1 n=77 v=65
13342 On ch=1 n=45 v=65
13633 Off ch=1 n=77 v=0
13742 Off ch=1 n=45 v=0
14095 On ch=1 n=72 v=64
14341 Off ch=1 n=72 v=0
14357 On ch=1 n=74 v=67
14357 On ch=1 n=46 v=67
14604 Off ch=1 n=74 v=0
14620 On ch=1 n=77 v=64
14757 Off ch=1 n=46 v=0
14807 Off ch=1 n=77 v=0
15115 On ch=1 n=77 v=64
15356 Off ch=1 n=77 v=0
15372 On ch=1 n=47 v=65
15769 Off ch=1 n=47 v=0
16125 On ch=1 n=74 v=64
16368 Off ch=1 n=74 v=0
16388 On ch=1 n=72 v=69
16388 On ch=1 n=45 v=69
16622 Off ch=1 n=72 v=0
16823 Off ch=1 n=45 v=0
16930 On ch=1 n=77 v=64
17130 Off ch=1 n=77 v=0
17438 On ch=1 n=77 v=65
17438 On ch=1 n=44 v=65
17635 Off ch=1 n=77 v=0
17838 Off ch=1 n=44 v=0
17943 On ch=1 n=84 v=64
18145 Off ch=1 n=84 v=0
18453 On ch=1 n=81 v=67
18453 On ch=1 n=43 v=67
18655 Off ch=1 n=43 v=0
18963 On ch=1 n=36 v=62
19210 Off ch=1 n=81 v=0
19211 On ch=1 n=79 v=64
19468 On ch=1 n=38 v=63
19528 Off ch=1 n=36 v=0
19942 Off ch=1 n=79 v=0
19973 On ch=1 n=40 v=63
20033 Off ch=1 n=38 v=0
20221 On ch=1 n=72 v=64
20464 Off ch=1 n=72 v=0
20484 On ch=1 n=81 v=69
20484 On ch=1 n=41 v=59
20540 Off ch=1 n=40 v=0
20919 Off ch=1 n=81 v=0
21093 Off ch=1 n=41 v=0
21534 On ch=1 n=77 v=65
21534 On ch=1 n=45 v=65
21825 Off ch=1 n=77 v=0
21934 Off ch=1 n=45 v=0
22287 On ch=1 n=72 v=64
22533 Off ch=1 n=72 v=0
22549 On ch=1 n=74 v=67
22549 On ch=1 n=46 v=67
22796 Off ch=1 n=74 v=0
22812 On ch=1 n=77 v=64
22949 Off ch=1 n=46 v=0
22999 Off ch=1 n=77 v=0
23307 On ch=1 n=77 v=64
23548 Off ch=1 n=77 v=0
23564 On ch=1 n=47 v=65
23961 Off ch=1 n=47 v=0
24317 On ch=1 n=74 v=64
24560 Off ch=1 n=74 v=0
24580 On ch=1 n=72 v=69
24580 On ch=1 n=48 v=69
24814 Off ch=1 n=48 v=0
24814 Off ch=1 n=72 v=0
25122 On ch=1 n=77 v=64
25122 On ch=1 n=36 v=62
25322 Off ch=1 n=77 v=0
25630 On ch=1 n=82 v=65
25630 On ch=1 n=40 v=63
25690 Off ch=1 n=36 v=0
25872 Off ch=1 n=82 v=0
25888 On ch=1 n=81 v=64
26119 Off ch=1 n=81 v=0
26135 On ch=1 n=79 v=64
26135 On ch=1 n=43 v=64
26195 Off ch=1 n=40 v=0
26367 Off ch=1 n=79 v=0
26383 On ch=1 n=77 v=64
26629 Off ch=1 n=77 v=0
26645 On ch=1 n=41 v=64
26705 Off ch=1 n=43 v=0
27155 On ch=1 n=36 v=62
27215 Off ch=1 n=41 v=0
27660 On ch=1 n=41 v=59
27720 Off ch=1 n=36 v=0
27811 Off ch=1 n=41 v=0
28676 On ch=1 n=81 v=69
28676 On ch=1 n=41 v=69
29111 Off ch=1 n=41 v=0
29111 Off ch=1 n=81 v=0
29726 On ch=1 n=77 v=65
29726 On ch=1 n=45 v=65
30017 Off ch=1 n=77 v=0
30126 Off ch=1 n=45 v=0
30479 On ch=1 n=72 v=64
30725 Off ch=1 n=72 v=0
30741 On ch=1 n=74 v=67
30741 On ch=1 n=46 v=67
30988 Off ch=1 n=74 v=0
31004 On ch=1 n=77 v=64
31141 Off ch=1 n=46 v=0
31191 Off ch=1 n=77 v=0
31499 On ch=1 n=77 v=64
31740 Off ch=1 n=77 v=0
31756 On ch=1 n=47 v=65
32153 Off ch=1 n=47 v=0
32509 On ch=1 n=74 v=64
32752 Off ch=1 n=74 v=0
32772 On ch=1 n=72 v=69
32772 On ch=1 n=45 v=69
33006 Off ch=1 n=72 v=0
33207 Off ch=1 n=45 v=0
33314 On ch=1 n=77 v=64
33514 Off ch=1 n=77 v=0
33822 On ch=1 n=77 v=65
33822 On ch=1 n=44 v=65
34019 Off ch=1 n=77 v=0
34222 Off ch=1 n=44 v=0
34327 On ch=1 n=84 v=64
34529 Off ch=1 n=84 v=0
34837 On ch=1 n=81 v=67
34837 On ch=1 n=43 v=67
35039 Off ch=1 n=43 v=0
35347 On ch=1 n=36 v=62
35594 Off ch=1 n=81 v=0
35595 On ch=1 n=79 v=64
35852 On ch=1 n=38 v=63
35912 Off ch=1 n=36 v=0
36326 Off ch=1 n=79 v=0
36357 On ch=1 n=40 v=63
36417 Off ch=1 n=38 v=0
36605 On ch=1 n=72 v=64
36848 Off ch=1 n=72 v=0
36868 On ch=1 n=81 v=69
36868 On ch=1 n=41 v=59
36924 Off ch=1 n=40 v=0
37303 Off ch=1 n=81 v=0
37477 Off ch=1 n=41 v=0
37918 On ch=1 n=77 v=65
37918 On ch=1 n=45 v=65
38209 Off ch=1 n=77 v=0
38318 Off ch=1 n=45 v=0
38671 On ch=1 n=72 v=64
38917 Off ch=1 n=72 v=0
38933 On ch=1 n=74 v=67
38933 On ch=1 n=46 v=67
39180 Off ch=1 n=74 v=0
39196 On ch=1 n=77 v=64
39333 Off ch=1 n=46 v=0
39383 Off ch=1 n=77 v=0
39691 On ch=1 n=77 v=64
39932 Off ch=1 n=77 v=0
39948 On ch=1 n=47 v=65
40345 Off ch=1 n=47 v=0
40701 On ch=1 n=74 v=64
40944 Off ch=1 n=74 v=0
40964 On ch=1 n=72 v=69
40964 On ch=1 n=48 v=69
41198 Off ch=1 n=48 v=0
41198 Off ch=1 n=72 v=0
41506 On ch=1 n=77 v=64
41506 On ch=1 n=36 v=62
41706 Off ch=1 n=77 v=0
42014 On ch=1 n=82 v=65
42014 On ch=1 n=40 v=63
42074 Off ch=1 n=36 v=0
42117 Off ch=1 n=82 v=0
42272 On ch=1 n=81 v=64
42503 Off ch=1 n=81 v=0
42519 On ch=1 n=79 v=64
42519 On ch=1 n=43 v=64
42579 Off ch=1 n=40 v=0
42751 Off ch=1 n=79 v=0
42767 On ch=1 n=77 v=64
43013 Off ch=1 n=77 v=0
43029 On ch=1 n=41 v=64
43089 Off ch=1 n=43 v=0
43539 On ch=1 n=36 v=62
43599 Off ch=1 n=41 v=0
44044 On ch=1 n=41 v=59
44104 Off ch=1 n=36 v=0
44615 Off ch=1 n=41 v=0
45060 On ch=1 n=81 v=69
45060 On ch=1 n=46 v=64
45602 On ch=1 n=47 v=64
45662 Off ch=1 n=46 v=0
45850 Off ch=1 n=81 v=0
45851 On ch=1 n=77 v=64
46110 On ch=1 n=48 v=64
46170 Off ch=1 n=47 v=0
46584 Off ch=1 n=77 v=0
46615 On ch=1 n=72 v=64
46615 On ch=1 n=50 v=64
46675 Off ch=1 n=48 v=0
47094 Off ch=1 n=72 v=0
47125 On ch=1 n=81 v=67
47125 On ch=1 n=48 v=64
47185 Off ch=1 n=50 v=0
47635 On ch=1 n=45 v=64
47695 Off ch=1 n=48 v=0
47882 Off ch=1 n=81 v=0
47883 On ch=1 n=77 v=64
48140 On ch=1 n=41 v=64
48200 Off ch=1 n=45 v=0
48614 Off ch=1 n=77 v=0
48645 On ch=1 n=43 v=59
48705 Off ch=1 n=41 v=0
49071 Off ch=1 n=43 v=0
49156 On ch=1 n=80 v=69
49156 On ch=1 n=44 v=64
49433 Off ch=1 n=80 v=0
49449 On ch=1 n=77 v=64
49682 Off ch=1 n=77 v=0
49698 On ch=1 n=72 v=64
49698 On ch=1 n=48 v=64
49758 Off ch=1 n=44 v=0
50175 Off ch=1 n=72 v=0
50206 On ch=1 n=80 v=65
50206 On ch=1 n=50 v=64
50266 Off ch=1 n=48 v=0
50711 On ch=1 n=53 v=64
50771 Off ch=1 n=50 v=0
50958 Off ch=1 n=80 v=0
50959 On ch=1 n=79 v=64
51221 On ch=1 n=55 v=64
51281 Off ch=1 n=53 v=0
51731 On ch=1 n=53 v=64
51791 Off ch=1 n=55 v=0
52235 Off ch=1 n=79 v=0
52236 On ch=1 n=52 v=64
52296 Off ch=1 n=53 v=0
52741 On ch=1 n=48 v=59
52801 Off ch=1 n=52 v=0
53169 Off ch=1 n=48 v=0
53252 On ch=1 n=81 v=69
53252 On ch=1 n=46 v=64
53794 On ch=1 n=45 v=64
53854 Off ch=1 n=46 v=0
54042 Off ch=1 n=81 v=0
54043 On ch=1 n=77 v=64
54302 On ch=1 n=46 v=64
54362 Off ch=1 n=45 v=0
54776 Off ch=1 n=77 v=0
54807 On ch=1 n=72 v=64
54807 On ch=1 n=50 v=64
54867 Off ch=1 n=46 v=0
55286 Off ch=1 n=72 v=0
55317 On ch=1 n=81 v=67
55317 On ch=1 n=53 v=64
55377 Off ch=1 n=50 v=0
55827 On ch=1 n=52 v=64
55887 Off ch=1 n=53 v=0
56074 Off ch=1 n=81 v=0
56075 On ch=1 n=77 v=64
56332 On ch=1 n=48 v=64
56392 Off ch=1 n=52 v=0
56806 Off ch=1 n=77 v=0
56837 On ch=1 n=45 v=59
56897 Off ch=1 n=48 v=0
57263 Off ch=1 n=45 v=0
57348 On ch=1 n=80 v=69
57348 On ch=1 n=48 v=64
57625 Off ch=1 n=80 v=0
57641 On ch=1 n=77 v=64
57874 Off ch=1 n=77 v=0
57890 On ch=1 n=72 v=64
57890 On ch=1 n=50 v=64
57950 Off ch=1 n=48 v=0
58367 Off ch=1 n=72 v=0
58398 On ch=1 n=84 v=65
58398 On ch=1 n=53 v=64
58458 Off ch=1 n=50 v=0
58903 On ch=1 n=48 v=64
58963 Off ch=1 n=53 v=0
59413 On ch=1 n=46 v=64
59473 Off ch=1 n=48 v=0
59923 On ch=1 n=50 v=64
59983 Off ch=1 n=46 v=0
60427 Off ch=1 n=84 v=0
60428 On ch=1 n=48 v=64
60488 Off ch=1 n=50 v=0
60933 On ch=1 n=52 v=59
60993 Off ch=1 n=48 v=0
61359 Off ch=1 n=52 v=0
61444 On ch=1 n=81 v=69
61444 On ch=1 n=41 v=69
61879 Off ch=1 n=41 v=0
61879 Off ch=1 n=81 v=0
62494 On ch=1 n=77 v=65
62494 On ch=1 n=41 v=65
62785 Off ch=1 n=77 v=0
62894 Off ch=1 n=41 v=0
63247 On ch=1 n=72 v=64
63493 Off ch=1 n=72 v=0
63509 On ch=1 n=74 v=67
63509 On ch=1 n=39 v=66
63756 Off ch=1 n=74 v=0
63772 On ch=1 n=77 v=64
63909 Off ch=1 n=39 v=0
63959 Off ch=1 n=77 v=0
64267 On ch=1 n=77 v=64
64508 Off ch=1 n=77 v=0
64524 On ch=1 n=39 v=64
64921 Off ch=1 n=39 v=0
65277 On ch=1 n=79 v=64
65520 Off ch=1 n=79 v=0
65540 On ch=1 n=81 v=69
65540 On ch=1 n=38 v=68
65817 Off ch=1 n=81 v=0
65833 On ch=1 n=77 v=64
65975 Off ch=1 n=38 v=0
66066 Off ch=1 n=77 v=0
66082 On ch=1 n=72 v=64
66559 Off ch=1 n=72 v=0
66590 On ch=1 n=74 v=65
66590 On ch=1 n=38 v=64
66990 Off ch=1 n=38 v=0
67342 Off ch=1 n=74 v=0
67343 On ch=1 n=77 v=64
67605 On ch=1 n=37 v=66
68005 Off ch=1 n=37 v=0
68619 Off ch=1 n=77 v=0
68620 On ch=1 n=37 v=64
69017 Off ch=1 n=37 v=0
69373 On ch=1 n=74 v=64
69616 Off ch=1 n=74 v=0
69636 On ch=1 n=84 v=69
69636 On ch=1 n=36 v=67
70071 Off ch=1 n=36 v=0
70147 Off ch=1 n=84 v=0
70178 On ch=1 n=86 v=64
70655 Off ch=1 n=86 v=0
70686 On ch=1 n=84 v=65
71160 Off ch=1 n=84 v=0
71191 On ch=1 n=86 v=64
71670 Off ch=1 n=86 v=0
71701 On ch=1 n=84 v=67
72458 Off ch=1 n=84 v=0
72459 On ch=1 n=72 v=64
72700 Off ch=1 n=72 v=0
72716 On ch=1 n=82 v=65
72716 On ch=1 n=38 v=64
72957 Off ch=1 n=82 v=0
72973 On ch=1 n=81 v=64
73190 Off ch=1 n=38 v=0
73205 Off ch=1 n=81 v=0
73221 On ch=1 n=79 v=64
73221 On ch=1 n=40 v=63
73697 Off ch=1 n=40 v=0
73697 Off ch=1 n=79 v=0
73732 On ch=1 n=77 v=69
73732 On ch=1 n=41 v=69
74167 Off ch=1 n=41 v=0
74781 Off ch=1 n=77 v=0
74782 On ch=1 n=36 v=63
75182 Off ch=1 n=36 v=0
75797 On ch=1 n=41 v=67
76197 Off ch=1 n=41 v=0
76812 On ch=1 n=41 v=65
77209 Off ch=1 n=41 v=0
77828 On ch=1 n=74 v=61
77828 On ch=1 n=77 v=75
77828 On ch=1 n=41 v=64
78120 Off ch=1 n=74 v=0
78120 Off ch=1 n=77 v=0
78121 On ch=1 n=70 v=56
78121 On ch=1 n=74 v=70
78370 On ch=1 n=38 v=63
78430 Off ch=1 n=41 v=0
78588 Off ch=1 n=70 v=0
78618 Off ch=1 n=74 v=0
78619 On ch=1 n=74 v=56
78619 On ch=1 n=77 v=70
78878 On ch=1 n=41 v=64
78938 Off ch=1 n=38 v=0
79382 Off ch=1 n=74 v=0
79382 Off ch=1 n=77 v=0
79383 On ch=1 n=74 v=44
79383 On ch=1 n=79 v=58
79383 On ch=1 n=43 v=64
79443 Off ch=1 n=41 v=0
79892 Off ch=1 n=79 v=0
79893 On ch=1 n=77 v=59
79893 On ch=1 n=81 v=73
79893 On ch=1 n=45 v=64
79923 Off ch=1 n=74 v=0
79953 Off ch=1 n=43 v=0
80140 Off ch=1 n=77 v=0
80155 Off ch=1 n=81 v=0
80156 On ch=1 n=76 v=56
80156 On ch=1 n=80 v=70
80387 Off ch=1 n=76 v=0
80402 Off ch=1 n=80 v=0
80403 On ch=1 n=75 v=56
80403 On ch=1 n=79 v=70
80403 On ch=1 n=46 v=64
80463 Off ch=1 n=45 v=0
80635 Off ch=1 n=75 v=0
80650 Off ch=1 n=79 v=0
80651 On ch=1 n=74 v=56
80651 On ch=1 n=78 v=70
80908 On ch=1 n=48 v=64
80968 Off ch=1 n=46 v=0
81413 On ch=1 n=43 v=59
81473 Off ch=1 n=48 v=0
81839 Off ch=1 n=43 v=0
81919 Off ch=1 n=74 v=0
81919 Off ch=1 n=78 v=0
81924 On ch=1 n=74 v=61
81924 On ch=1 n=77 v=75
81924 On ch=1 n=41 v=64
82216 Off ch=1 n=74 v=0
82216 Off ch=1 n=77 v=0
82217 On ch=1 n=70 v=56
82217 On ch=1 n=74 v=70
82466 On ch=1 n=46 v=64
82526 Off ch=1 n=41 v=0
82684 Off ch=1 n=70 v=0
82714 Off ch=1 n=74 v=0
82715 On ch=1 n=74 v=56
82715 On ch=1 n=77 v=70
82974 On ch=1 n=45 v=64
83034 Off ch=1 n=46 v=0
83478 Off ch=1 n=74 v=0
83478 Off ch=1 n=77 v=0
83479 On ch=1 n=74 v=44
83479 On ch=1 n=79 v=58
83479 On ch=1 n=43 v=64
83539 Off ch=1 n=45 v=0
83988 Off ch=1 n=79 v=0
83989 On ch=1 n=77 v=59
83989 On ch=1 n=81 v=73
83989 On ch=1 n=41 v=64
84019 Off ch=1 n=74 v=0
84049 Off ch=1 n=43 v=0
84499 On ch=1 n=38 v=63
84559 Off ch=1 n=41 v=0
85003 Off ch=1 n=77 v=0
85003 Off ch=1 n=81 v=0
85004 On ch=1 n=36 v=62
85064 Off ch=1 n=38 v=0
85509 On ch=1 n=41 v=59
85569 Off ch=1 n=36 v=0
86015 Off ch=1 n=41 v=0
86020 On ch=1 n=62 v=61
86020 On ch=1 n=65 v=75
86020 On ch=1 n=41 v=64
86312 Off ch=1 n=62 v=0
86312 Off ch=1 n=65 v=0
86313 On ch=1 n=58 v=56
86313 On ch=1 n=62 v=70
86562 On ch=1 n=38 v=63
86622 Off ch=1 n=41 v=0
86780 Off ch=1 n=58 v=0
86810 Off ch=1 n=62 v=0
86811 On ch=1 n=62 v=56
86811 On ch=1 n=65 v=70
87070 On ch=1 n=41 v=64
87130 Off ch=1 n=38 v=0
87574 Off ch=1 n=62 v=0
87574 Off ch=1 n=65 v=0
87575 On ch=1 n=62 v=44
87575 On ch=1 n=67 v=58
87575 On ch=1 n=43 v=64
87635 Off ch=1 n=41 v=0
88084 Off ch=1 n=67 v=0
88085 On ch=1 n=65 v=59
88085 On ch=1 n=69 v=73
88085 On ch=1 n=45 v=64
88115 Off ch=1 n=62 v=0
88145 Off ch=1 n=43 v=0
88332 Off ch=1 n=65 v=0
88347 Off ch=1 n=69 v=0
88348 On ch=1 n=67 v=56
88348 On ch=1 n=70 v=70
88579 Off ch=1 n=67 v=0
88594 Off ch=1 n=70 v=0
88595 On ch=1 n=69 v=56
88595 On ch=1 n=72 v=70
88595 On ch=1 n=46 v=64
88655 Off ch=1 n=45 v=0
88827 Off ch=1 n=69 v=0
88842 Off ch=1 n=72 v=0
88843 On ch=1 n=70 v=56
88843 On ch=1 n=74 v=70
89100 On ch=1 n=48 v=64
89160 Off ch=1 n=46 v=0
89605 On ch=1 n=43 v=59
89665 Off ch=1 n=48 v=0
90031 Off ch=1 n=43 v=0
90111 Off ch=1 n=70 v=0
90111 Off ch=1 n=74 v=0
90116 On ch=1 n=62 v=61
90116 On ch=1 n=65 v=75
90116 On ch=1 n=41 v=64
90408 Off ch=1 n=62 v=0
90408 Off ch=1 n=65 v=0
90409 On ch=1 n=58 v=56
90409 On ch=1 n=62 v=70
90658 On ch=1 n=46 v=64
90718 Off ch=1 n=41 v=0
90876 Off ch=1 n=58 v=0
90906 Off ch=1 n=62 v=0
90907 On ch=1 n=62 v=56
90907 On ch=1 n=65 v=70
91166 On ch=1 n=45 v=64
91226 Off ch=1 n=46 v=0
91670 Off ch=1 n=62 v=0
91670 Off ch=1 n=65 v=0
91671 On ch=1 n=62 v=44
91671 On ch=1 n=67 v=58
91671 On ch=1 n=43 v=64
91731 Off ch=1 n=45 v=0
92180 Off ch=1 n=67 v=0
92181 On ch=1 n=60 v=59
92181 On ch=1 n=65 v=73
92181 On ch=1 n=41 v=64
92211 Off ch=1 n=62 v=0
92241 Off ch=1 n=43 v=0
92691 On ch=1 n=38 v=63
92751 Off ch=1 n=41 v=0
93195 Off ch=1 n=60 v=0
93195 Off ch=1 n=65 v=0
93196 On ch=1 n=41 v=59
93256 Off ch=1 n=38 v=0
94157 Off ch=1 n=41 v=0
94212 On ch=1 n=65 v=61
94212 On ch=1 n=69 v=71
94212 On ch=1 n=41 v=57
94647 Off ch=1 n=41 v=0
94753 Off ch=1 n=65 v=0
94753 Off ch=1 n=69 v=0
94754 On ch=1 n=65 v=56
94754 On ch=1 n=69 v=66
95085 Off ch=1 n=65 v=0
95085 Off ch=1 n=69 v=0
95086 On ch=1 n=65 v=56
95086 On ch=1 n=69 v=66
95261 Off ch=1 n=65 v=0
95261 Off ch=1 n=69 v=0
95262 On ch=1 n=65 v=57
95262 On ch=1 n=69 v=67
95262 On ch=1 n=38 v=52
95662 Off ch=1 n=38 v=0
95766 Off ch=1 n=65 v=0
95766 Off ch=1 n=69 v=0
95767 On ch=1 n=65 v=56
95767 On ch=1 n=69 v=66
96097 Off ch=1 n=65 v=0
96097 Off ch=1 n=69 v=0
96098 On ch=1 n=65 v=56
96098 On ch=1 n=69 v=70
96266 Off ch=1 n=65 v=0
96276 Off ch=1 n=69 v=0
96277 On ch=1 n=67 v=59
96277 On ch=1 n=70 v=73
96277 On ch=1 n=43 v=55
96677 Off ch=1 n=43 v=0
96786 Off ch=1 n=67 v=0
96786 Off ch=1 n=70 v=0
96787 On ch=1 n=67 v=56
96787 On ch=1 n=70 v=66
97117 Off ch=1 n=67 v=0
97117 Off ch=1 n=70 v=0
97118 On ch=1 n=67 v=67
97118 On ch=1 n=70 v=62
97281 Off ch=1 n=67 v=0
97291 Off ch=1 n=70 v=0
97292 On ch=1 n=66 v=68
97292 On ch=1 n=70 v=63
97292 On ch=1 n=36 v=51
97689 Off ch=1 n=36 v=0
97796 Off ch=1 n=66 v=0
97796 Off ch=1 n=70 v=0
97797 On ch=1 n=66 v=56
97797 On ch=1 n=70 v=66
98127 Off ch=1 n=66 v=0
98127 Off ch=1 n=70 v=0
98128 On ch=1 n=66 v=56
98128 On ch=1 n=70 v=70
98293 Off ch=1 n=66 v=0
98303 Off ch=1 n=70 v=0
98308 On ch=1 n=65 v=61
98308 On ch=1 n=69 v=75
98308 On ch=1 n=41 v=57
98743 Off ch=1 n=41 v=0
98849 Off ch=1 n=65 v=0
98849 Off ch=1 n=69 v=0
98850 On ch=1 n=65 v=56
98850 On ch=1 n=69 v=66
99181 Off ch=1 n=65 v=0
99181 Off ch=1 n=69 v=0
99182 On ch=1 n=65 v=56
99182 On ch=1 n=69 v=66
99357 Off ch=1 n=65 v=0
99357 Off ch=1 n=69 v=0
99358 On ch=1 n=65 v=57
99358 On ch=1 n=69 v=67
99358 On ch=1 n=38 v=52
99758 Off ch=1 n=38 v=0
99862 Off ch=1 n=65 v=0
99862 Off ch=1 n=69 v=0
99863 On ch=1 n=65 v=56
99863 On ch=1 n=69 v=66
100193 Off ch=1 n=65 v=0
100193 Off ch=1 n=69 v=0
100194 On ch=1 n=65 v=56
100194 On ch=1 n=69 v=70
100362 Off ch=1 n=65 v=0
100372 Off ch=1 n=69 v=0
100373 On ch=1 n=67 v=59
100373 On ch=1 n=70 v=73
100373 On ch=1 n=43 v=67
100575 Off ch=1 n=43 v=0
100852 Off ch=1 n=67 v=0
100882 Off ch=1 n=70 v=0
100883 On ch=1 n=66 v=67
100883 On ch=1 n=70 v=62
100883 On ch=1 n=42 v=64
102399 Off ch=1 n=42 v=0
102399 Off ch=1 n=66 v=0
102399 Off ch=1 n=70 v=0
102404 On ch=1 n=81 v=69
102404 On ch=1 n=41 v=69
102839 Off ch=1 n=41 v=0
102839 Off ch=1 n=81 v=0
103454 On ch=1 n=77 v=65
103454 On ch=1 n=45 v=65
103745 Off ch=1 n=77 v=0
103854 Off ch=1 n=45 v=0
104207 On ch=1 n=72 v=64
104453 Off ch=1 n=72 v=0
104469 On ch=1 n=74 v=67
104469 On ch=1 n=46 v=67
104716 Off ch=1 n=74 v=0
104732 On ch=1 n=77 v=64
104869 Off ch=1 n=46 v=0
104919 Off ch=1 n=77 v=0
105227 On ch=1 n=77 v=64
105468 Off ch=1 n=77 v=0
105484 On ch=1 n=47 v=65
105881 Off ch=1 n=47 v=0
106237 On ch=1 n=74 v=64
106480 Off ch=1 n=74 v=0
106500 On ch=1 n=72 v=69
106500 On ch=1 n=45 v=69
106734 Off ch=1 n=72 v=0
106935 Off ch=1 n=45 v=0
107042 On ch=1 n=77 v=64
107242 Off ch=1 n=77 v=0
107550 On ch=1 n=77 v=65
107550 On ch=1 n=44 v=65
107747 Off ch=1 n=77 v=0
107950 Off ch=1 n=44 v=0
108055 On ch=1 n=84 v=64
108257 Off ch=1 n=84 v=0
108565 On ch=1 n=81 v=67
108565 On ch=1 n=43 v=67
108767 Off ch=1 n=43 v=0
109075 On ch=1 n=36 v=62
109322 Off ch=1 n=81 v=0
109323 On ch=1 n=79 v=64
109580 On ch=1 n=38 v=63
109640 Off ch=1 n=36 v=0
110054 Off ch=1 n=79 v=0
110085 On ch=1 n=40 v=63
110145 Off ch=1 n=38 v=0
110333 On ch=1 n=72 v=64
110576 Off ch=1 n=72 v=0
110596 On ch=1 n=81 v=69
110596 On ch=1 n=41 v=59
110652 Off ch=1 n=40 v=0
111031 Off ch=1 n=81 v=0
111205 Off ch=1 n=41 v=0
111646 On ch=1 n=77 v=65
111646 On ch=1 n=45 v=65
111937 Off ch=1 n=77 v=0
112046 Off ch=1 n=45 v=0
112399 On ch=1 n=72 v=64
112645 Off ch=1 n=72 v=0
112661 On ch=1 n=74 v=67
112661 On ch=1 n=46 v=67
112908 Off ch=1 n=74 v=0
112924 On ch=1 n=77 v=64
113061 Off ch=1 n=46 v=0
113111 Off ch=1 n=77 v=0
113419 On ch=1 n=77 v=64
113660 Off ch=1 n=77 v=0
113676 On ch=1 n=47 v=65
114073 Off ch=1 n=47 v=0
114429 On ch=1 n=74 v=64
114672 Off ch=1 n=74 v=0
114692 On ch=1 n=72 v=69
114692 On ch=1 n=48 v=69
114926 Off ch=1 n=48 v=0
114926 Off ch=1 n=72 v=0
115234 On ch=1 n=77 v=64
115234 On ch=1 n=36 v=62
115434 Off ch=1 n=77 v=0
115742 On ch=1 n=82 v=65
115742 On ch=1 n=40 v=63
115802 Off ch=1 n=36 v=0
115984 Off ch=1 n=82 v=0
116000 On ch=1 n=81 v=64
116231 Off ch=1 n=81 v=0
116247 On ch=1 n=79 v=64
116247 On ch=1 n=43 v=64
116307 Off ch=1 n=40 v=0
116479 Off ch=1 n=79 v=0
116495 On ch=1 n=77 v=64
116741 Off ch=1 n=77 v=0
116757 On ch=1 n=41 v=64
116817 Off ch=1 n=43 v=0
117267 On ch=1 n=36 v=62
117327 Off ch=1 n=41 v=0
117772 On ch=1 n=41 v=59
117832 Off ch=1 n=36 v=0
117923 Off ch=1 n=41 v=0
118788 On ch=1 n=81 v=69
118788 On ch=1 n=41 v=69
119223 Off ch=1 n=41 v=0
119223 Off ch=1 n=81 v=0
119838 On ch=1 n=77 v=65
119838 On ch=1 n=45 v=65
120129 Off ch=1 n=77 v=0
120238 Off ch=1 n=45 v=0
120591 On ch=1 n=72 v=64
120837 Off ch=1 n=72 v=0
120853 On ch=1 n=74 v=67
120853 On ch=1 n=46 v=67
121100 Off ch=1 n=74 v=0
121116 On ch=1 n=77 v=64
121253 Off ch=1 n=46 v=0
121303 Off ch=1 n=77 v=0
121611 On ch=1 n=77 v=64
121852 Off ch=1 n=77 v=0
121868 On ch=1 n=47 v=65
122265 Off ch=1 n=47 v=0
122621 On ch=1 n=74 v=64
122864 Off ch=1 n=74 v=0
122884 On ch=1 n=72 v=69
122884 On ch=1 n=45 v=69
123118 Off ch=1 n=72 v=0
123319 Off ch=1 n=45 v=0
123426 On ch=1 n=77 v=64
123626 Off ch=1 n=77 v=0
123934 On ch=1 n=77 v=65
123934 On ch=1 n=44 v=65
124131 Off ch=1 n=77 v=0
124334 Off ch=1 n=44 v=0
124439 On ch=1 n=84 v=64
124641 Off ch=1 n=84 v=0
124949 On ch=1 n=81 v=67
124949 On ch=1 n=43 v=67
125151 Off ch=1 n=43 v=0
125459 On ch=1 n=36 v=62
125706 Off ch=1 n=81 v=0
125707 On ch=1 n=79 v=64
125964 On ch=1 n=38 v=63
126024 Off ch=1 n=36 v=0
126438 Off ch=1 n=79 v=0
126469 On ch=1 n=40 v=63
126529 Off ch=1 n=38 v=0
126717 On ch=1 n=72 v=64
126960 Off ch=1 n=72 v=0
126980 On ch=1 n=81 v=69
126980 On ch=1 n=41 v=59
127036 Off ch=1 n=40 v=0
127415 Off ch=1 n=81 v=0
127589 Off ch=1 n=41 v=0
128030 On ch=1 n=77 v=65
128030 On ch=1 n=45 v=65
128321 Off ch=1 n=77 v=0
128430 Off ch=1 n=45 v=0
128783 On ch=1 n=72 v=64
129029 Off ch=1 n=72 v=0
129045 On ch=1 n=74 v=67
129045 On ch=1 n=46 v=67
129292 Off ch=1 n=74 v=0
129308 On ch=1 n=77 v=64
129445 Off ch=1 n=46 v=0
129495 Off ch=1 n=77 v=0
129803 On ch=1 n=77 v=64
130044 Off ch=1 n=77 v=0
130060 On ch=1 n=47 v=65
130457 Off ch=1 n=47 v=0
130813 On ch=1 n=74 v=64
131056 Off ch=1 n=74 v=0
131076 On ch=1 n=72 v=69
131076 On ch=1 n=48 v=69
131310 Off ch=1 n=48 v=0
131310 Off ch=1 n=72 v=0
131618 On ch=1 n=77 v=64
131618 On ch=1 n=36 v=62
131818 Off ch=1 n=77 v=0
132126 On ch=1 n=82 v=65
132126 On ch=1 n=40 v=63
132186 Off ch=1 n=36 v=0
132229 Off ch=1 n=82 v=0
132384 On ch=1 n=81 v=64
132615 Off ch=1 n=81 v=0
132631 On ch=1 n=79 v=64
132631 On ch=1 n=43 v=64
132691 Off ch=1 n=40 v=0
132863 Off ch=1 n=79 v=0
132879 On ch=1 n=77 v=64
133125 Off ch=1 n=77 v=0
133141 On ch=1 n=41 v=64
133201 Off ch=1 n=43 v=0
133651 On ch=1 n=36 v=62
133711 Off ch=1 n=41 v=0
134156 On ch=1 n=41 v=59
134216 Off ch=1 n=36 v=0
134727 Off ch=1 n=41 v=0
135172 On ch=1 n=81 v=69
135172 On ch=1 n=46 v=64
135714 On ch=1 n=47 v=64
135774 Off ch=1 n=46 v=0
135962 Off ch=1 n=81 v=0
135963 On ch=1 n=77 v=64
136222 On ch=1 n=48 v=64
136282 Off ch=1 n=47 v=0
136696 Off ch=1 n=77 v=0
136727 On ch=1 n=72 v=64
136727 On ch=1 n=50 v=64
136787 Off ch=1 n=48 v=0
137206 Off ch=1 n=72 v=0
137237 On ch=1 n=81 v=67
137237 On ch=1 n=48 v=64
137297 Off ch=1 n=50 v=0
137747 On ch=1 n=45 v=64
137807 Off ch=1 n=48 v=0
137994 Off ch=1 n=81 v=0
137995 On ch=1 n=77 v=64
138252 On ch=1 n=41 v=64
138312 Off ch=1 n=45 v=0
138726 Off ch=1 n=77 v=0
138757 On ch=1 n=43 v=59
138817 Off ch=1 n=41 v=0
139183 Off ch=1 n=43 v=0
139268 On ch=1 n=80 v=69
139268 On ch=1 n=44 v=64
139545 Off ch=1 n=80 v=0
139561 On ch=1 n=77 v=64
139794 Off ch=1 n=77 v=0
139810 On ch=1 n=72 v=64
139810 On ch=1 n=48 v=64
139870 Off ch=1 n=44 v=0
140287 Off ch=1 n=72 v=0
140318 On ch=1 n=80 v=65
140318 On ch=1 n=50 v=64
140378 Off ch=1 n=48 v=0
140823 On ch=1 n=53 v=64
140883 Off ch=1 n=50 v=0
141070 Off ch=1 n=80 v=0
141071 On ch=1 n=79 v=64
141333 On ch=1 n=55 v=64
141393 Off ch=1 n=53 v=0
141843 On ch=1 n=53 v=64
141903 Off ch=1 n=55 v=0
142347 Off ch=1 n=79 v=0
142348 On ch=1 n=52 v=64
142408 Off ch=1 n=53 v=0
142853 On ch=1 n=48 v=59
142913 Off ch=1 n=52 v=0
143281 Off ch=1 n=48 v=0
143364 On ch=1 n=81 v=69
143364 On ch=1 n=46 v=64
143906 On ch=1 n=45 v=64
143966 Off ch=1 n=46 v=0
144154 Off ch=1 n=81 v=0
144155 On ch=1 n=77 v=64
144414 On ch=1 n=46 v=64
144474 Off ch=1 n=45 v=0
144888 Off ch=1 n=77 v=0
144919 On ch=1 n=72 v=64
144919 On ch=1 n=50 v=64
144979 Off ch=1 n=46 v=0
145398 Off ch=1 n=72 v=0
145429 On ch=1 n=81 v=67
145429 On ch=1 n=53 v=64
145489 Off ch=1 n=50 v=0
145939 On ch=1 n=52 v=64
145999 Off ch=1 n=53 v=0
146186 Off ch=1 n=81 v=0
146187 On ch=1 n=77 v=64
146444 On ch=1 n=48 v=64
146504 Off ch=1 n=52 v=0
146918 Off ch=1 n=77 v=0
146949 On ch=1 n=45 v=59
147009 Off ch=1 n=48 v=0
147375 Off ch=1 n=45 v=0
147460 On ch=1 n=80 v=69
147460 On ch=1 n=48 v=64
147737 Off ch=1 n=80 v=0
147753 On ch=1 n=77 v=64
147986 Off ch=1 n=77 v=0
148002 On ch=1 n=72 v=64
148002 On ch=1 n=50 v=64
148062 Off ch=1 n=48 v=0
148479 Off ch=1 n=72 v=0
148510 On ch=1 n=84 v=65
148510 On ch=1 n=53 v=64
148570 Off ch=1 n=50 v=0
149015 On ch=1 n=48 v=64
149075 Off ch=1 n=53 v=0
149525 On ch=1 n=46 v=64
149585 Off ch=1 n=48 v=0
150035 On ch=1 n=50 v=64
150095 Off ch=1 n=46 v=0
150539 Off ch=1 n=84 v=0
150540 On ch=1 n=48 v=64
150600 Off ch=1 n=50 v=0
151045 On ch=1 n=52 v=59
151105 Off ch=1 n=48 v=0
151471 Off ch=1 n=52 v=0
151556 On ch=1 n=81 v=69
151556 On ch=1 n=41 v=69
151991 Off ch=1 n=41 v=0
151991 Off ch=1 n=81 v=0
152606 On ch=1 n=77 v=65
152606 On ch=1 n=41 v=65
152897 Off ch=1 n=77 v=0
153006 Off ch=1 n=41 v=0
153359 On ch=1 n=72 v=64
153605 Off ch=1 n=72 v=0
153621 On ch=1 n=74 v=67
153621 On ch=1 n=39 v=66
153868 Off ch=1 n=74 v=0
153884 On ch=1 n=77 v=64
154021 Off ch=1 n=39 v=0
154071 Off ch=1 n=77 v=0
154379 On ch=1 n=77 v=64
154620 Off ch=1 n=77 v=0
154636 On ch=1 n=39 v=64
155033 Off ch=1 n=39 v=0
155389 On ch=1 n=79 v=64
155632 Off ch=1 n=79 v=0
155652 On ch=1 n=81 v=69
155652 On ch=1 n=38 v=68
155929 Off ch=1 n=81 v=0
155945 On ch=1 n=77 v=64
156087 Off ch=1 n=38 v=0
156178 Off ch=1 n=77 v=0
156194 On ch=1 n=72 v=64
156671 Off ch=1 n=72 v=0
156702 On ch=1 n=74 v=65
156702 On ch=1 n=38 v=64
157102 Off ch=1 n=38 v=0
157454 Off ch=1 n=74 v=0
157455 On ch=1 n=77 v=64
157717 On ch=1 n=37 v=66
158117 Off ch=1 n=37 v=0
158731 Off ch=1 n=77 v=0
158732 On ch=1 n=37 v=64
159129 Off ch=1 n=37 v=0
159485 On ch=1 n=74 v=64
159728 Off ch=1 n=74 v=0
159748 On ch=1 n=84 v=69
159748 On ch=1 n=36 v=67
160183 Off ch=1 n=36 v=0
160259 Off ch=1 n=84 v=0
160290 On ch=1 n=86 v=64
160767 Off ch=1 n=86 v=0
160798 On ch=1 n=84 v=65
161272 Off ch=1 n=84 v=0
161303 On ch=1 n=86 v=64
161782 Off ch=1 n=86 v=0
161813 On ch=1 n=84 v=67
162570 Off ch=1 n=84 v=0
162571 On ch=1 n=72 v=64
162812 Off ch=1 n=72 v=0
162828 On ch=1 n=82 v=65
162828 On ch=1 n=38 v=64
163069 Off ch=1 n=82 v=0
163085 On ch=1 n=81 v=64
163302 Off ch=1 n=38 v=0
163317 Off ch=1 n=81 v=0
163333 On ch=1 n=79 v=64
163333 On ch=1 n=40 v=63
163809 Off ch=1 n=40 v=0
163809 Off ch=1 n=79 v=0
163844 On ch=1 n=77 v=69
163844 On ch=1 n=41 v=69
164279 Off ch=1 n=41 v=0
164893 Off ch=1 n=77 v=0
164894 On ch=1 n=36 v=63
165294 Off ch=1 n=36 v=0
165909 On ch=1 n=41 v=67
166309 Off ch=1 n=41 v=0
166924 On ch=1 n=41 v=65
167321 Off ch=1 n=41 v=0
167940 On ch=1 n=74 v=61
167940 On ch=1 n=77 v=75
167940 On ch=1 n=41 v=64
168232 Off ch=1 n=74 v=0
168232 Off ch=1 n=77 v=0
168233 On ch=1 n=70 v=56
168233 On ch=1 n=74 v=70
168482 On ch=1 n=38 v=63
168542 Off ch=1 n=41 v=0
168700 Off ch=1 n=70 v=0
168730 Off ch=1 n=74 v=0
168731 On ch=1 n=74 v=56
168731 On ch=1 n=77 v=70
168990 On ch=1 n=41 v=64
169050 Off ch=1 n=38 v=0
169494 Off ch=1 n=74 v=0
169494 Off ch=1 n=77 v=0
169495 On ch=1 n=74 v=44
169495 On ch=1 n=79 v=58
169495 On ch=1 n=43 v=64
169555 Off ch=1 n=41 v=0
170004 Off ch=1 n=79 v=0
170005 On ch=1 n=77 v=59
170005 On ch=1 n=81 v=73
170005 On ch=1 n=45 v=64
170035 Off ch=1 n=74 v=0
170065 Off ch=1 n=43 v=0
170252 Off ch=1 n=77 v=0
170267 Off ch=1 n=81 v=0
170268 On ch=1 n=76 v=56
170268 On ch=1 n=80 v=70
170499 Off ch=1 n=76 v=0
170514 Off ch=1 n=80 v=0
170515 On ch=1 n=75 v=56
170515 On ch=1 n=79 v=70
170515 On ch=1 n=46 v=64
170575 Off ch=1 n=45 v=0
170747 Off ch=1 n=75 v=0
170762 Off ch=1 n=79 v=0
170763 On ch=1 n=74 v=56
170763 On ch=1 n=78 v=70
171020 On ch=1 n=48 v=64
171080 Off ch=1 n=46 v=0
171525 On ch=1 n=43 v=59
171585 Off ch=1 n=48 v=0
171951 Off ch=1 n=43 v=0
172031 Off ch=1 n=74 v=0
172031 Off ch=1 n=78 v=0
172036 On ch=1 n=74 v=61
172036 On ch=1 n=77 v=75
172036 On ch=1 n=41 v=64
172328 Off ch=1 n=74 v=0
172328 Off ch=1 n=77 v=0
172329 On ch=1 n=70 v=56
172329 On ch=1 n=74 v=70
172578 On ch=1 n=46 v=64
172638 Off ch=1 n=41 v=0
172796 Off ch=1 n=70 v=0
172826 Off ch=1 n=74 v=0
172827 On ch=1 n=74 v=56
172827 On ch=1 n=77 v=70
173086 On ch=1 n=45 v=64
173146 Off ch=1 n=46 v=0
173590 Off ch=1 n=74 v=0
173590 Off ch=1 n=77 v=0
173591 On ch=1 n=74 v=44
173591 On ch=1 n=79 v=58
173591 On ch=1 n=43 v=64
173651 Off ch=1 n=45 v=0
174100 Off ch=1 n=79 v=0
174101 On ch=1 n=77 v=59
174101 On ch=1 n=81 v=73
174101 On ch=1 n=41 v=64
174131 Off ch=1 n=74 v=0
174161 Off ch=1 n=43 v=0
174611 On ch=1 n=38 v=63
174671 Off ch=1 n=41 v=0
175115 Off ch=1 n=77 v=0
175115 Off ch=1 n=81 v=0
175116 On ch=1 n=36 v=62
175176 Off ch=1 n=38 v=0
175621 On ch=1 n=41 v=59
175681 Off ch=1 n=36 v=0
176127 Off ch=1 n=41 v=0
176132 On ch=1 n=62 v=61
176132 On ch=1 n=65 v=75
176132 On ch=1 n=41 v=64
176424 Off ch=1 n=62 v=0
176424 Off ch=1 n=65 v=0
176425 On ch=1 n=58 v=56
176425 On ch=1 n=62 v=70
176674 On ch=1 n=38 v=63
176734 Off ch=1 n=41 v=0
176892 Off ch=1 n=58 v=0
176922 Off ch=1 n=62 v=0
176923 On ch=1 n=62 v=56
176923 On ch=1 n=65 v=70
177182 On ch=1 n=41 v=64
177242 Off ch=1 n=38 v=0
177686 Off ch=1 n=62 v=0
177686 Off ch=1 n=65 v=0
177687 On ch=1 n=62 v=44
177687 On ch=1 n=67 v=58
177687 On ch=1 n=43 v=64
177747 Off ch=1 n=41 v=0
178196 Off ch=1 n=67 v=0
178197 On ch=1 n=65 v=59
178197 On ch=1 n=69 v=73
178197 On ch=1 n=45 v=64
178227 Off ch=1 n=62 v=0
178257 Off ch=1 n=43 v=0
178444 Off ch=1 n=65 v=0
178459 Off ch=1 n=69 v=0
178460 On ch=1 n=67 v=56
178460 On ch=1 n=70 v=70
178691 Off ch=1 n=67 v=0
178706 Off ch=1 n=70 v=0
178707 On ch=1 n=69 v=56
178707 On ch=1 n=72 v=70
178707 On ch=1 n=46 v=64
178767 Off ch=1 n=45 v=0
178939 Off ch=1 n=69 v=0
178954 Off ch=1 n=72 v=0
178955 On ch=1 n=70 v=56
178955 On ch=1 n=74 v=70
179212 On ch=1 n=48 v=64
179272 Off ch=1 n=46 v=0
179717 On ch=1 n=43 v=59
179777 Off ch=1 n=48 v=0
180143 Off ch=1 n=43 v=0
180223 Off ch=1 n=70 v=0
180223 Off ch=1 n=74 v=0
180228 On ch=1 n=62 v=61
180228 On ch=1 n=65 v=75
180228 On ch=1 n=41 v=64
180520 Off ch=1 n=62 v=0
180520 Off ch=1 n=65 v=0
180521 On ch=1 n=58 v=56
180521 On ch=1 n=62 v=70
180770 On ch=1 n=46 v=64
180830 Off ch=1 n=41 v=0
180988 Off ch=1 n=58 v=0
181018 Off ch=1 n=62 v=0
181019 On ch=1 n=62 v=56
181019 On ch=1 n=65 v=70
181278 On ch=1 n=45 v=64
181338 Off ch=1 n=46 v=0
181782 Off ch=1 n=62 v=0
181782 Off ch=1 n=65 v=0
181783 On ch=1 n=62 v=44
181783 On ch=1 n=67 v=58
181783 On ch=1 n=43 v=64
181843 Off ch=1 n=45 v=0
182292 Off ch=1 n=67 v=0
182293 On ch=1 n=60 v=59
182293 On ch=1 n=65 v=73
182293 On ch=1 n=41 v=64
182323 Off ch=1 n=62 v=0
182353 Off ch=1 n=43 v=0
182803 On ch=1 n=38 v=63
182863 Off ch=1 n=41 v=0
183307 Off ch=1 n=60 v=0
183307 Off ch=1 n=65 v=0
183308 On ch=1 n=41 v=59
183368 Off ch=1 n=38 v=0
184269 Off ch=1 n=41 v=0
184269 Meta TrkEnd
TrkEnd
