MFile 1 2 1024
MTrk
0 SMPTE 0 0 0 0 0
0 TimeSig 4/4 24 8
0 KeySig 1 minor
0 Tempo 499999
0 Tempo 731711
0 Tempo 731958
16384 Tempo 731958
16676 Tempo 759648
16968 Tempo 789516
17260 Tempo 822493
17552 Tempo 857632
17844 Tempo 895896
18136 Tempo 937733
18428 Tempo 1501485
20480 Tempo 731958
77823 Tempo 535714
77824 Tempo 535846
206848 Tempo 535846
207104 Tempo 540656
207360 Tempo 543238
207616 Tempo 545552
207872 Tempo 548181
208128 Tempo 550542
208384 Tempo 553215
208640 Tempo 555620
209152 Tempo 535846
238820 Meta TrkEnd
TrkEnd
MTrk
0 Meta TrkName "ARIA Player"
0 Par ch=1 c=0 v=121
0 Par ch=1 c=32 v=0
0 PrCh ch=1 p=1
0 Par ch=1 c=7 v=101
0 Par ch=1 c=10 v=64
0 On ch=1 n=67 v=56
0 On ch=1 n=69 v=56
0 Par ch=1 c=7 v=102
0 Par ch=1 c=7 v=110
10 Par ch=1 c=7 v=102
10 Par ch=1 c=64 v=127
10 Par ch=1 c=7 v=110
10 On ch=1 n=74 v=42
10 On ch=1 n=52 v=28
10 On ch=1 n=59 v=28
10 On ch=1 n=64 v=42
4095 Off ch=1 n=67 v=0
4095 Off ch=1 n=69 v=0
4095 Off ch=1 n=74 v=0
4095 Off ch=1 n=52 v=0
4095 Off ch=1 n=59 v=0
4095 Off ch=1 n=64 v=0
4100 On ch=1 n=40 v=35
4642 On ch=1 n=47 v=36
4702 Off ch=1 n=40 v=0
5150 On ch=1 n=54 v=36
5210 Off ch=1 n=47 v=0
5655 On ch=1 n=55 v=36
5715 Off ch=1 n=54 v=0
6165 On ch=1 n=62 v=36
6225 Off ch=1 n=55 v=0
6675 On ch=1 n=54 v=36
6735 Off ch=1 n=62 v=0
7180 On ch=1 n=55 v=36
7240 Off ch=1 n=54 v=0
7685 On ch=1 n=62 v=31
7745 Off ch=1 n=55 v=0
8131 Off ch=1 n=62 v=0
8196 On ch=1 n=40 v=35
8738 On ch=1 n=47 v=36
8798 Off ch=1 n=40 v=0
9246 On ch=1 n=54 v=36
9306 Off ch=1 n=47 v=0
9751 On ch=1 n=55 v=36
9811 Off ch=1 n=54 v=0
10261 On ch=1 n=62 v=36
10321 Off ch=1 n=55 v=0
10771 On ch=1 n=54 v=36
10831 Off ch=1 n=62 v=0
11276 On ch=1 n=55 v=36
11336 Off ch=1 n=54 v=0
11781 On ch=1 n=62 v=32
11841 Off ch=1 n=55 v=0
12227 Off ch=1 n=62 v=0
12292 On ch=1 n=40 v=36
12834 On ch=1 n=47 v=37
12894 Off ch=1 n=40 v=0
13342 On ch=1 n=54 v=37
13402 Off ch=1 n=47 v=0
13847 On ch=1 n=55 v=37
13907 Off ch=1 n=54 v=0
14357 On ch=1 n=62 v=37
14417 Off ch=1 n=55 v=0
14867 On ch=1 n=66 v=36
14867 On ch=1 n=54 v=37
14927 Off ch=1 n=62 v=0
15372 On ch=1 n=55 v=37
15432 Off ch=1 n=54 v=0
15877 On ch=1 n=62 v=32
15937 Off ch=1 n=55 v=0
16323 Off ch=1 n=62 v=0
16383 Off ch=1 n=66 v=0
16388 On ch=1 n=64 v=41
16388 On ch=1 n=40 v=36
16930 On ch=1 n=47 v=37
16990 Off ch=1 n=40 v=0
17438 On ch=1 n=54 v=37
17498 Off ch=1 n=47 v=0
17943 On ch=1 n=55 v=37
18003 Off ch=1 n=54 v=0
18283 On ch=1 n=59 v=24
18368 On ch=1 n=62 v=24
18452 Off ch=1 n=64 v=0
18453 On ch=1 n=64 v=38
18513 Off ch=1 n=55 v=0
20191 Off ch=1 n=59 v=0
20191 Off ch=1 n=62 v=0
20206 Off ch=1 n=64 v=0
20474 Par ch=1 c=64 v=127
20484 On ch=1 n=76 v=62
20484 On ch=1 n=40 v=63
21026 On ch=1 n=47 v=64
21086 Off ch=1 n=40 v=0
21534 On ch=1 n=83 v=62
21534 On ch=1 n=54 v=64
21573 Off ch=1 n=76 v=0
21594 Off ch=1 n=47 v=0
22039 On ch=1 n=55 v=64
22099 Off ch=1 n=54 v=0
22548 Off ch=1 n=83 v=0
22549 On ch=1 n=83 v=62
22549 On ch=1 n=62 v=64
22609 Off ch=1 n=55 v=0
23059 On ch=1 n=54 v=64
23119 Off ch=1 n=62 v=0
23564 On ch=1 n=81 v=62
23564 On ch=1 n=55 v=64
23603 Off ch=1 n=83 v=0
23624 Off ch=1 n=54 v=0
24049 Par ch=1 c=64 v=0
24069 On ch=1 n=79 v=62
24069 On ch=1 n=62 v=59
24129 Off ch=1 n=81 v=0
24129 Off ch=1 n=55 v=0
24515 Off ch=1 n=62 v=0
24560 Par ch=1 c=64 v=127
24580 On ch=1 n=78 v=62
24580 On ch=1 n=40 v=63
24636 Off ch=1 n=79 v=0
25122 On ch=1 n=79 v=62
25122 On ch=1 n=47 v=64
25182 Off ch=1 n=78 v=0
25182 Off ch=1 n=40 v=0
25630 On ch=1 n=81 v=57
25630 On ch=1 n=54 v=64
25690 Off ch=1 n=79 v=0
25690 Off ch=1 n=47 v=0
26135 On ch=1 n=55 v=64
26195 Off ch=1 n=54 v=0
26645 On ch=1 n=62 v=64
26705 Off ch=1 n=55 v=0
27155 On ch=1 n=54 v=65
27215 Off ch=1 n=62 v=0
27392 On ch=1 n=79 v=62
27520 Off ch=1 n=79 v=0
27520 On ch=1 n=81 v=62
27629 Off ch=1 n=81 v=0
27648 Off ch=1 n=81 v=0
27656 On ch=1 n=79 v=62
27660 On ch=1 n=55 v=65
27720 Off ch=1 n=54 v=0
28145 Par ch=1 c=64 v=0
28165 On ch=1 n=78 v=62
28165 On ch=1 n=62 v=60
28225 Off ch=1 n=79 v=0
28225 Off ch=1 n=55 v=0
28611 Off ch=1 n=62 v=0
28656 Par ch=1 c=64 v=127
28671 Off ch=1 n=78 v=0
28676 On ch=1 n=78 v=62
28676 On ch=1 n=48 v=65
29218 On ch=1 n=54 v=65
29278 Off ch=1 n=48 v=0
29440 On ch=1 n=79 v=62
29568 Off ch=1 n=79 v=0
29568 On ch=1 n=78 v=62
29696 Off ch=1 n=78 v=0
29704 On ch=1 n=76 v=62
29726 On ch=1 n=55 v=65
29765 Off ch=1 n=78 v=0
29786 Off ch=1 n=54 v=0
30231 On ch=1 n=62 v=65
30291 Off ch=1 n=55 v=0
30741 On ch=1 n=64 v=65
30801 Off ch=1 n=62 v=0
31251 On ch=1 n=54 v=65
31311 Off ch=1 n=64 v=0
31756 On ch=1 n=55 v=65
31816 Off ch=1 n=54 v=0
32241 Par ch=1 c=64 v=0
32261 On ch=1 n=62 v=60
32321 Off ch=1 n=55 v=0
32707 Off ch=1 n=62 v=0
32752 Par ch=1 c=64 v=127
32772 On ch=1 n=48 v=65
33314 On ch=1 n=54 v=65
33374 Off ch=1 n=48 v=0
33822 On ch=1 n=55 v=65
33882 Off ch=1 n=54 v=0
34327 On ch=1 n=62 v=65
34387 Off ch=1 n=55 v=0
34837 On ch=1 n=64 v=66
34897 Off ch=1 n=62 v=0
35347 On ch=1 n=54 v=66
35407 Off ch=1 n=64 v=0
35821 Off ch=1 n=76 v=0
35852 On ch=1 n=55 v=66
35912 Off ch=1 n=54 v=0
36337 Par ch=1 c=64 v=0
36357 On ch=1 n=54 v=61
36417 Off ch=1 n=55 v=0
36803 Off ch=1 n=54 v=0
36848 Par ch=1 c=64 v=127
36868 On ch=1 n=76 v=62
36868 On ch=1 n=40 v=65
37410 On ch=1 n=47 v=66
37470 Off ch=1 n=40 v=0
37918 On ch=1 n=83 v=62
37918 On ch=1 n=54 v=66
37957 Off ch=1 n=76 v=0
37978 Off ch=1 n=47 v=0
38423 On ch=1 n=55 v=66
38483 Off ch=1 n=54 v=0
38932 Off ch=1 n=83 v=0
38933 On ch=1 n=83 v=62
38933 On ch=1 n=62 v=66
38993 Off ch=1 n=55 v=0
39443 On ch=1 n=54 v=66
39503 Off ch=1 n=62 v=0
39947 Off ch=1 n=83 v=0
39948 On ch=1 n=83 v=62
39948 On ch=1 n=55 v=66
40008 Off ch=1 n=54 v=0
40433 Par ch=1 c=64 v=0
40453 On ch=1 n=85 v=62
40453 On ch=1 n=62 v=61
40513 Off ch=1 n=83 v=0
40513 Off ch=1 n=55 v=0
40899 Off ch=1 n=62 v=0
40944 Par ch=1 c=64 v=127
40964 On ch=1 n=86 v=62
40964 On ch=1 n=40 v=65
41020 Off ch=1 n=85 v=0
41506 On ch=1 n=88 v=62
41506 On ch=1 n=54 v=66
41566 Off ch=1 n=86 v=0
41566 Off ch=1 n=40 v=0
41984 On ch=1 n=86 v=62
42014 On ch=1 n=55 v=66
42074 Off ch=1 n=88 v=0
42074 Off ch=1 n=54 v=0
42092 On ch=1 n=88 v=62
42104 Off ch=1 n=86 v=0
42200 On ch=1 n=86 v=57
42212 Off ch=1 n=88 v=0
42496 Off ch=1 n=86 v=0
42519 On ch=1 n=85 v=62
42519 On ch=1 n=62 v=67
42579 Off ch=1 n=55 v=0
43029 On ch=1 n=83 v=62
43029 On ch=1 n=66 v=67
43089 Off ch=1 n=85 v=0
43089 Off ch=1 n=62 v=0
43292 On ch=1 n=64 v=67
43321 Off ch=1 n=66 v=0
43539 On ch=1 n=62 v=67
43568 Off ch=1 n=64 v=0
44044 On ch=1 n=81 v=62
44044 On ch=1 n=55 v=67
44083 Off ch=1 n=83 v=0
44104 Off ch=1 n=62 v=0
44529 Par ch=1 c=64 v=0
44549 On ch=1 n=79 v=62
44549 On ch=1 n=50 v=62
44609 Off ch=1 n=81 v=0
44609 Off ch=1 n=55 v=0
44995 Off ch=1 n=50 v=0
45040 Par ch=1 c=64 v=127
45060 On ch=1 n=81 v=62
45060 On ch=1 n=41 v=67
45116 Off ch=1 n=79 v=0
45602 On ch=1 n=83 v=62
45602 On ch=1 n=48 v=67
45662 Off ch=1 n=81 v=0
45662 Off ch=1 n=41 v=0
46080 On ch=1 n=81 v=57
46110 On ch=1 n=53 v=67
46170 Off ch=1 n=83 v=0
46170 Off ch=1 n=48 v=0
46183 Off ch=1 n=81 v=0
46189 On ch=1 n=83 v=57
46292 Off ch=1 n=83 v=0
46298 On ch=1 n=81 v=57
46615 On ch=1 n=57 v=67
46675 Off ch=1 n=53 v=0
46955 On ch=1 n=59 v=59
47040 On ch=1 n=60 v=59
47125 On ch=1 n=64 v=73
47185 Off ch=1 n=57 v=0
47634 Off ch=1 n=64 v=0
47635 On ch=1 n=53 v=67
47695 Off ch=1 n=59 v=0
47695 Off ch=1 n=60 v=0
48140 On ch=1 n=59 v=59
48140 On ch=1 n=60 v=73
48200 Off ch=1 n=53 v=0
48625 Par ch=1 c=64 v=0
48644 Off ch=1 n=60 v=0
48645 On ch=1 n=53 v=62
48705 Off ch=1 n=59 v=0
49091 Off ch=1 n=53 v=0
49136 Par ch=1 c=64 v=127
49152 Off ch=1 n=81 v=0
49156 On ch=1 n=41 v=67
49698 On ch=1 n=48 v=68
49758 Off ch=1 n=41 v=0
50206 On ch=1 n=53 v=68
50266 Off ch=1 n=48 v=0
50711 On ch=1 n=57 v=68
50771 Off ch=1 n=53 v=0
51051 On ch=1 n=59 v=60
51136 On ch=1 n=60 v=60
51221 On ch=1 n=81 v=62
51221 On ch=1 n=64 v=74
51281 Off ch=1 n=57 v=0
51730 Off ch=1 n=64 v=0
51731 On ch=1 n=53 v=68
51791 Off ch=1 n=59 v=0
51791 Off ch=1 n=60 v=0
52236 On ch=1 n=83 v=62
52236 On ch=1 n=59 v=60
52236 On ch=1 n=60 v=74
52275 Off ch=1 n=81 v=0
52296 Off ch=1 n=53 v=0
52721 Par ch=1 c=64 v=0
52740 Off ch=1 n=60 v=0
52741 On ch=1 n=53 v=63
52801 Off ch=1 n=59 v=0
53187 Off ch=1 n=53 v=0
53232 Par ch=1 c=64 v=127
53252 On ch=1 n=79 v=62
53252 On ch=1 n=40 v=67
53287 Off ch=1 n=83 v=0
53794 On ch=1 n=78 v=62
53794 On ch=1 n=47 v=68
53854 Off ch=1 n=79 v=0
53854 Off ch=1 n=40 v=0
54302 On ch=1 n=79 v=57
54302 On ch=1 n=54 v=68
54362 Off ch=1 n=78 v=0
54362 Off ch=1 n=47 v=0
54807 On ch=1 n=55 v=68
54867 Off ch=1 n=54 v=0
55317 On ch=1 n=62 v=68
55377 Off ch=1 n=55 v=0
55827 On ch=1 n=54 v=68
55887 Off ch=1 n=62 v=0
56332 On ch=1 n=55 v=68
56392 Off ch=1 n=54 v=0
56817 Par ch=1 c=64 v=0
56837 On ch=1 n=62 v=63
56897 Off ch=1 n=55 v=0
57283 Off ch=1 n=62 v=0
57313 Off ch=1 n=79 v=0
57328 Par ch=1 c=64 v=127
57348 On ch=1 n=40 v=68
57890 On ch=1 n=54 v=69
57950 Off ch=1 n=40 v=0
58398 On ch=1 n=55 v=69
58458 Off ch=1 n=54 v=0
58903 On ch=1 n=62 v=69
58963 Off ch=1 n=55 v=0
59413 On ch=1 n=79 v=62
59413 On ch=1 n=66 v=69
59473 Off ch=1 n=62 v=0
59676 On ch=1 n=64 v=69
59705 Off ch=1 n=66 v=0
59923 On ch=1 n=62 v=69
59952 Off ch=1 n=64 v=0
60428 On ch=1 n=81 v=62
60428 On ch=1 n=55 v=69
60467 Off ch=1 n=79 v=0
60488 Off ch=1 n=62 v=0
60913 Par ch=1 c=64 v=0
60933 On ch=1 n=50 v=64
60993 Off ch=1 n=55 v=0
61379 Off ch=1 n=50 v=0
61424 Par ch=1 c=64 v=127
61444 On ch=1 n=83 v=62
61444 On ch=1 n=43 v=69
61479 Off ch=1 n=81 v=0
61986 On ch=1 n=50 v=69
62046 Off ch=1 n=43 v=0
62494 On ch=1 n=55 v=69
62554 Off ch=1 n=50 v=0
62999 On ch=1 n=79 v=62
62999 On ch=1 n=50 v=69
63059 Off ch=1 n=83 v=0
63059 Off ch=1 n=55 v=0
63317 On ch=1 n=50 v=61
63381 On ch=1 n=54 v=61
63445 On ch=1 n=62 v=61
63508 Off ch=1 n=50 v=0
63509 On ch=1 n=81 v=57
63509 On ch=1 n=66 v=75
63569 Off ch=1 n=79 v=0
64018 Off ch=1 n=62 v=0
64018 Off ch=1 n=66 v=0
64019 On ch=1 n=57 v=69
64079 Off ch=1 n=50 v=0
64079 Off ch=1 n=54 v=0
64524 On ch=1 n=62 v=69
64584 Off ch=1 n=57 v=0
65009 Par ch=1 c=64 v=0
65029 On ch=1 n=57 v=65
65089 Off ch=1 n=62 v=0
65475 Off ch=1 n=57 v=0
65505 Off ch=1 n=81 v=0
65520 Par ch=1 c=64 v=127
65540 On ch=1 n=79 v=62
65540 On ch=1 n=52 v=62
65540 On ch=1 n=64 v=76
66081 Off ch=1 n=64 v=0
66082 On ch=1 n=54 v=70
66142 Off ch=1 n=52 v=0
66590 On ch=1 n=55 v=70
66650 Off ch=1 n=54 v=0
67072 On ch=1 n=78 v=62
67095 On ch=1 n=59 v=70
67155 Off ch=1 n=79 v=0
67155 Off ch=1 n=55 v=0
67181 On ch=1 n=79 v=62
67194 Off ch=1 n=78 v=0
67290 On ch=1 n=78 v=57
67303 Off ch=1 n=79 v=0
67584 Off ch=1 n=78 v=0
67605 On ch=1 n=76 v=57
67605 On ch=1 n=48 v=62
67605 On ch=1 n=60 v=76
67665 Off ch=1 n=59 v=0
68114 Off ch=1 n=60 v=0
68115 On ch=1 n=52 v=70
68175 Off ch=1 n=48 v=0
68620 On ch=1 n=55 v=70
68680 Off ch=1 n=52 v=0
69094 Off ch=1 n=76 v=0
69105 Par ch=1 c=64 v=0
69125 On ch=1 n=74 v=62
69125 On ch=1 n=52 v=65
69185 Off ch=1 n=55 v=0
69466 On ch=1 n=43 v=62
69551 On ch=1 n=55 v=62
69571 Off ch=1 n=52 v=0
69616 Par ch=1 c=64 v=127
69636 On ch=1 n=83 v=62
69636 On ch=1 n=59 v=76
69692 Off ch=1 n=74 v=0
70177 Off ch=1 n=55 v=0
70177 Off ch=1 n=59 v=0
70178 On ch=1 n=50 v=70
70238 Off ch=1 n=43 v=0
70686 On ch=1 n=55 v=70
70746 Off ch=1 n=50 v=0
71167 Off ch=1 n=83 v=0
71168 On ch=1 n=83 v=62
71191 On ch=1 n=62 v=70
71251 Off ch=1 n=55 v=0
71277 On ch=1 n=84 v=62
71290 Off ch=1 n=83 v=0
71386 On ch=1 n=83 v=57
71399 Off ch=1 n=84 v=0
71680 Off ch=1 n=83 v=0
71701 On ch=1 n=81 v=62
71701 On ch=1 n=66 v=70
71761 Off ch=1 n=62 v=0
72211 On ch=1 n=57 v=70
72271 Off ch=1 n=66 v=0
72459 On ch=1 n=79 v=62
72488 Off ch=1 n=81 v=0
72716 On ch=1 n=62 v=71
72776 Off ch=1 n=57 v=0
73201 Par ch=1 c=64 v=0
73221 On ch=1 n=78 v=62
73221 On ch=1 n=57 v=66
73281 Off ch=1 n=79 v=0
73281 Off ch=1 n=62 v=0
73667 Off ch=1 n=57 v=0
73712 Par ch=1 c=64 v=127
73732 On ch=1 n=76 v=57
73732 On ch=1 n=52 v=63
73732 On ch=1 n=64 v=77
73788 Off ch=1 n=78 v=0
74273 Off ch=1 n=64 v=0
74274 On ch=1 n=54 v=63
74274 On ch=1 n=62 v=77
74334 Off ch=1 n=52 v=0
74781 Off ch=1 n=62 v=0
74782 On ch=1 n=55 v=63
74782 On ch=1 n=64 v=77
74842 Off ch=1 n=54 v=0
76246 Off ch=1 n=55 v=0
76246 Off ch=1 n=64 v=0
76288 On ch=1 n=52 v=71
76398 On ch=1 n=54 v=66
76411 Off ch=1 n=52 v=0
76799 Off ch=1 n=76 v=0
76800 On ch=1 n=76 v=62
76800 Off ch=1 n=54 v=0
76812 On ch=1 n=62 v=71
76908 On ch=1 n=78 v=62
76920 Off ch=1 n=76 v=0
77016 On ch=1 n=76 v=57
77028 Off ch=1 n=78 v=0
77312 Off ch=1 n=76 v=0
77317 On ch=1 n=74 v=62
77317 On ch=1 n=55 v=66
77377 Off ch=1 n=62 v=0
77763 Off ch=1 n=55 v=0
77808 Par ch=1 c=64 v=0
77828 On ch=1 n=76 v=70
77828 On ch=1 n=40 v=102
77884 Off ch=1 n=74 v=0
78234 Off ch=1 n=40 v=0
78619 On ch=1 n=40 v=75
78619 On ch=1 n=52 v=90
78723 Off ch=1 n=40 v=0
78723 Off ch=1 n=52 v=0
79136 On ch=1 n=40 v=75
79136 On ch=1 n=47 v=90
79382 Off ch=1 n=47 v=0
79383 On ch=1 n=45 v=71
79383 On ch=1 n=50 v=85
79412 Off ch=1 n=40 v=0
79820 Off ch=1 n=45 v=0
79892 Off ch=1 n=50 v=0
79893 On ch=1 n=40 v=102
80266 Off ch=1 n=40 v=0
80651 On ch=1 n=40 v=76
80651 On ch=1 n=52 v=91
80753 Off ch=1 n=40 v=0
80753 Off ch=1 n=52 v=0
81165 On ch=1 n=40 v=76
81165 On ch=1 n=47 v=91
81412 Off ch=1 n=47 v=0
81413 On ch=1 n=45 v=72
81413 On ch=1 n=50 v=86
81442 Off ch=1 n=40 v=0
81847 Off ch=1 n=45 v=0
81877 Off ch=1 n=76 v=0
81919 Off ch=1 n=50 v=0
81924 On ch=1 n=40 v=103
82330 Off ch=1 n=40 v=0
82715 On ch=1 n=40 v=76
82715 On ch=1 n=52 v=91
82819 Off ch=1 n=40 v=0
82819 Off ch=1 n=52 v=0
83232 On ch=1 n=40 v=76
83232 On ch=1 n=47 v=91
83478 Off ch=1 n=47 v=0
83479 On ch=1 n=45 v=72
83479 On ch=1 n=50 v=86
83508 Off ch=1 n=40 v=0
83916 Off ch=1 n=45 v=0
83988 Off ch=1 n=50 v=0
83989 On ch=1 n=40 v=76
83989 On ch=1 n=52 v=91
84498 Off ch=1 n=52 v=0
84499 On ch=1 n=47 v=77
84499 On ch=1 n=59 v=91
84559 Off ch=1 n=40 v=0
85003 Off ch=1 n=59 v=0
85004 On ch=1 n=50 v=77
85004 On ch=1 n=62 v=91
85064 Off ch=1 n=47 v=0
85508 Off ch=1 n=62 v=0
85509 On ch=1 n=52 v=72
85509 On ch=1 n=64 v=86
85569 Off ch=1 n=50 v=0
85943 Off ch=1 n=52 v=0
86015 Off ch=1 n=64 v=0
86020 On ch=1 n=40 v=103
86426 Off ch=1 n=40 v=0
86811 On ch=1 n=40 v=76
86811 On ch=1 n=52 v=91
86915 Off ch=1 n=40 v=0
86915 Off ch=1 n=52 v=0
87328 On ch=1 n=40 v=76
87328 On ch=1 n=47 v=91
87574 Off ch=1 n=47 v=0
87575 On ch=1 n=45 v=73
87575 On ch=1 n=50 v=87
87604 Off ch=1 n=40 v=0
88012 Off ch=1 n=45 v=0
88084 Off ch=1 n=50 v=0
88085 On ch=1 n=40 v=104
88458 Off ch=1 n=40 v=0
88843 On ch=1 n=40 v=77
88843 On ch=1 n=52 v=92
88945 Off ch=1 n=40 v=0
88945 Off ch=1 n=52 v=0
89357 On ch=1 n=40 v=77
89357 On ch=1 n=47 v=92
89604 Off ch=1 n=47 v=0
89605 On ch=1 n=45 v=73
89605 On ch=1 n=50 v=87
89634 Off ch=1 n=40 v=0
90039 Off ch=1 n=45 v=0
90111 Off ch=1 n=50 v=0
90116 On ch=1 n=40 v=104
90522 Off ch=1 n=40 v=0
90907 On ch=1 n=40 v=77
90907 On ch=1 n=52 v=92
91011 Off ch=1 n=40 v=0
91011 Off ch=1 n=52 v=0
91424 On ch=1 n=40 v=77
91424 On ch=1 n=47 v=92
91670 Off ch=1 n=47 v=0
91671 On ch=1 n=45 v=73
91671 On ch=1 n=50 v=87
91700 Off ch=1 n=40 v=0
92108 Off ch=1 n=45 v=0
92180 Off ch=1 n=50 v=0
92181 On ch=1 n=40 v=85
92660 Off ch=1 n=40 v=0
92691 On ch=1 n=55 v=86
93165 Off ch=1 n=55 v=0
93196 On ch=1 n=43 v=86
93670 Off ch=1 n=43 v=0
93701 On ch=1 n=57 v=86
94177 Off ch=1 n=57 v=0
94212 On ch=1 n=64 v=67
94212 On ch=1 n=69 v=81
94212 On ch=1 n=40 v=104
94504 Off ch=1 n=64 v=0
94504 Off ch=1 n=69 v=0
94505 On ch=1 n=64 v=62
94505 On ch=1 n=71 v=76
94599 Off ch=1 n=64 v=0
94599 Off ch=1 n=71 v=0
94618 Off ch=1 n=40 v=0
94754 On ch=1 n=64 v=67
94754 On ch=1 n=71 v=77
94848 Off ch=1 n=64 v=0
94848 Off ch=1 n=71 v=0
95003 On ch=1 n=64 v=67
95003 On ch=1 n=71 v=77
95003 On ch=1 n=40 v=77
95003 On ch=1 n=52 v=92
95107 Off ch=1 n=64 v=0
95107 Off ch=1 n=71 v=0
95107 Off ch=1 n=40 v=0
95107 Off ch=1 n=52 v=0
95262 On ch=1 n=64 v=68
95262 On ch=1 n=71 v=78
95365 Off ch=1 n=64 v=0
95365 Off ch=1 n=71 v=0
95520 On ch=1 n=64 v=67
95520 On ch=1 n=71 v=77
95520 On ch=1 n=40 v=78
95520 On ch=1 n=47 v=93
95612 Off ch=1 n=64 v=0
95612 Off ch=1 n=71 v=0
95766 Off ch=1 n=47 v=0
95767 On ch=1 n=64 v=67
95767 On ch=1 n=71 v=77
95767 On ch=1 n=45 v=74
95767 On ch=1 n=50 v=88
95796 Off ch=1 n=40 v=0
95860 Off ch=1 n=64 v=0
95860 Off ch=1 n=71 v=0
96015 On ch=1 n=64 v=67
96015 On ch=1 n=71 v=77
96122 Off ch=1 n=64 v=0
96122 Off ch=1 n=71 v=0
96204 Off ch=1 n=45 v=0
96276 Off ch=1 n=50 v=0
96277 On ch=1 n=64 v=67
96277 On ch=1 n=71 v=81
96277 On ch=1 n=40 v=105
96539 Off ch=1 n=64 v=0
96539 Off ch=1 n=71 v=0
96540 On ch=1 n=64 v=62
96540 On ch=1 n=72 v=76
96632 Off ch=1 n=64 v=0
96632 Off ch=1 n=72 v=0
96650 Off ch=1 n=40 v=0
96787 On ch=1 n=64 v=67
96787 On ch=1 n=72 v=77
96880 Off ch=1 n=64 v=0
96880 Off ch=1 n=72 v=0
97035 On ch=1 n=64 v=67
97035 On ch=1 n=72 v=77
97035 On ch=1 n=40 v=78
97035 On ch=1 n=52 v=93
97137 Off ch=1 n=64 v=0
97137 Off ch=1 n=72 v=0
97137 Off ch=1 n=40 v=0
97137 Off ch=1 n=52 v=0
97292 On ch=1 n=64 v=68
97292 On ch=1 n=72 v=78
97394 Off ch=1 n=64 v=0
97394 Off ch=1 n=72 v=0
97549 On ch=1 n=64 v=67
97549 On ch=1 n=72 v=77
97549 On ch=1 n=40 v=78
97549 On ch=1 n=47 v=93
97642 Off ch=1 n=64 v=0
97642 Off ch=1 n=72 v=0
97796 Off ch=1 n=47 v=0
97797 On ch=1 n=64 v=67
97797 On ch=1 n=72 v=77
97797 On ch=1 n=45 v=74
97797 On ch=1 n=50 v=88
97826 Off ch=1 n=40 v=0
97890 Off ch=1 n=64 v=0
97890 Off ch=1 n=72 v=0
98045 On ch=1 n=64 v=67
98045 On ch=1 n=72 v=77
98149 Off ch=1 n=64 v=0
98149 Off ch=1 n=72 v=0
98231 Off ch=1 n=45 v=0
98303 Off ch=1 n=50 v=0
98308 On ch=1 n=64 v=67
98308 On ch=1 n=72 v=81
98308 On ch=1 n=40 v=105
98600 Off ch=1 n=64 v=0
98600 Off ch=1 n=72 v=0
98601 On ch=1 n=64 v=62
98601 On ch=1 n=74 v=76
98695 Off ch=1 n=64 v=0
98695 Off ch=1 n=74 v=0
98714 Off ch=1 n=40 v=0
98850 On ch=1 n=64 v=67
98850 On ch=1 n=74 v=77
98944 Off ch=1 n=64 v=0
98944 Off ch=1 n=74 v=0
99099 On ch=1 n=64 v=67
99099 On ch=1 n=74 v=77
99099 On ch=1 n=40 v=78
99099 On ch=1 n=52 v=93
99203 Off ch=1 n=64 v=0
99203 Off ch=1 n=74 v=0
99203 Off ch=1 n=40 v=0
99203 Off ch=1 n=52 v=0
99358 On ch=1 n=64 v=68
99358 On ch=1 n=74 v=78
99461 Off ch=1 n=64 v=0
99461 Off ch=1 n=74 v=0
99616 On ch=1 n=64 v=67
99616 On ch=1 n=74 v=77
99616 On ch=1 n=40 v=78
99616 On ch=1 n=47 v=93
99708 Off ch=1 n=64 v=0
99708 Off ch=1 n=74 v=0
99862 Off ch=1 n=47 v=0
99863 On ch=1 n=64 v=67
99863 On ch=1 n=74 v=77
99863 On ch=1 n=45 v=74
99863 On ch=1 n=50 v=88
99892 Off ch=1 n=40 v=0
99956 Off ch=1 n=64 v=0
99956 Off ch=1 n=74 v=0
100111 On ch=1 n=64 v=67
100111 On ch=1 n=74 v=77
100218 Off ch=1 n=64 v=0
100218 Off ch=1 n=74 v=0
100300 Off ch=1 n=45 v=0
100372 Off ch=1 n=50 v=0
100373 On ch=1 n=64 v=70
100373 On ch=1 n=74 v=84
100373 On ch=1 n=40 v=78
100373 On ch=1 n=52 v=93
100481 Off ch=1 n=64 v=0
100481 Off ch=1 n=74 v=0
100636 On ch=1 n=64 v=67
100636 On ch=1 n=72 v=81
100728 Off ch=1 n=64 v=0
100728 Off ch=1 n=72 v=0
100882 Off ch=1 n=52 v=0
100883 On ch=1 n=64 v=67
100883 On ch=1 n=71 v=81
100883 On ch=1 n=47 v=79
100883 On ch=1 n=59 v=93
100943 Off ch=1 n=40 v=0
100976 Off ch=1 n=64 v=0
100976 Off ch=1 n=71 v=0
101131 On ch=1 n=64 v=67
101131 On ch=1 n=72 v=81
101233 Off ch=1 n=64 v=0
101233 Off ch=1 n=72 v=0
101387 Off ch=1 n=59 v=0
101388 On ch=1 n=64 v=68
101388 On ch=1 n=71 v=82
101388 On ch=1 n=50 v=79
101388 On ch=1 n=62 v=93
101448 Off ch=1 n=47 v=0
101490 Off ch=1 n=64 v=0
101490 Off ch=1 n=71 v=0
101645 On ch=1 n=64 v=67
101645 On ch=1 n=69 v=81
101738 Off ch=1 n=64 v=0
101738 Off ch=1 n=69 v=0
101892 Off ch=1 n=62 v=0
101893 On ch=1 n=64 v=67
101893 On ch=1 n=69 v=81
101893 On ch=1 n=52 v=74
101893 On ch=1 n=64 v=88
101953 Off ch=1 n=50 v=0
101986 Off ch=1 n=64 v=0
101986 Off ch=1 n=69 v=0
102141 On ch=1 n=59 v=67
102141 On ch=1 n=64 v=81
102245 Off ch=1 n=59 v=0
102245 Off ch=1 n=64 v=0
102327 Off ch=1 n=52 v=0
102399 Off ch=1 n=64 v=0
102404 On ch=1 n=64 v=67
102404 On ch=1 n=69 v=81
102404 On ch=1 n=40 v=105
102696 Off ch=1 n=64 v=0
102696 Off ch=1 n=69 v=0
102697 On ch=1 n=64 v=62
102697 On ch=1 n=71 v=76
102791 Off ch=1 n=64 v=0
102791 Off ch=1 n=71 v=0
102810 Off ch=1 n=40 v=0
102946 On ch=1 n=64 v=67
102946 On ch=1 n=71 v=77
103040 Off ch=1 n=64 v=0
103040 Off ch=1 n=71 v=0
103195 On ch=1 n=64 v=67
103195 On ch=1 n=71 v=77
103195 On ch=1 n=40 v=79
103195 On ch=1 n=52 v=94
103299 Off ch=1 n=64 v=0
103299 Off ch=1 n=71 v=0
103299 Off ch=1 n=40 v=0
103299 Off ch=1 n=52 v=0
103454 On ch=1 n=64 v=68
103454 On ch=1 n=71 v=78
103557 Off ch=1 n=64 v=0
103557 Off ch=1 n=71 v=0
103712 On ch=1 n=64 v=67
103712 On ch=1 n=71 v=77
103712 On ch=1 n=40 v=79
103712 On ch=1 n=47 v=94
103804 Off ch=1 n=64 v=0
103804 Off ch=1 n=71 v=0
103958 Off ch=1 n=47 v=0
103959 On ch=1 n=64 v=67
103959 On ch=1 n=71 v=77
103959 On ch=1 n=45 v=75
103959 On ch=1 n=50 v=89
103988 Off ch=1 n=40 v=0
104052 Off ch=1 n=64 v=0
104052 Off ch=1 n=71 v=0
104207 On ch=1 n=64 v=67
104207 On ch=1 n=71 v=77
104314 Off ch=1 n=64 v=0
104314 Off ch=1 n=71 v=0
104396 Off ch=1 n=45 v=0
104468 Off ch=1 n=50 v=0
104469 On ch=1 n=64 v=67
104469 On ch=1 n=71 v=81
104469 On ch=1 n=40 v=106
104731 Off ch=1 n=64 v=0
104731 Off ch=1 n=71 v=0
104732 On ch=1 n=64 v=62
104732 On ch=1 n=72 v=76
104824 Off ch=1 n=64 v=0
104824 Off ch=1 n=72 v=0
104842 Off ch=1 n=40 v=0
104979 On ch=1 n=64 v=67
104979 On ch=1 n=72 v=77
105072 Off ch=1 n=64 v=0
105072 Off ch=1 n=72 v=0
105227 On ch=1 n=64 v=67
105227 On ch=1 n=72 v=77
105227 On ch=1 n=40 v=79
105227 On ch=1 n=52 v=94
105329 Off ch=1 n=64 v=0
105329 Off ch=1 n=72 v=0
105329 Off ch=1 n=40 v=0
105329 Off ch=1 n=52 v=0
105484 On ch=1 n=64 v=68
105484 On ch=1 n=72 v=78
105586 Off ch=1 n=64 v=0
105586 Off ch=1 n=72 v=0
105741 On ch=1 n=64 v=67
105741 On ch=1 n=72 v=77
105741 On ch=1 n=40 v=79
105741 On ch=1 n=47 v=94
105834 Off ch=1 n=64 v=0
105834 Off ch=1 n=72 v=0
105988 Off ch=1 n=47 v=0
105989 On ch=1 n=64 v=67
105989 On ch=1 n=72 v=77
105989 On ch=1 n=45 v=75
105989 On ch=1 n=50 v=89
106018 Off ch=1 n=40 v=0
106082 Off ch=1 n=64 v=0
106082 Off ch=1 n=72 v=0
106237 On ch=1 n=64 v=67
106237 On ch=1 n=72 v=77
106326 Off ch=1 n=72 v=0
106341 Off ch=1 n=64 v=0
106423 Off ch=1 n=45 v=0
106495 Off ch=1 n=50 v=0
106496 On ch=1 n=64 v=75
106496 On ch=1 n=72 v=75
106500 On ch=1 n=40 v=106
106752 Off ch=1 n=64 v=0
106752 Off ch=1 n=72 v=0
106752 On ch=1 n=64 v=75
106752 On ch=1 n=74 v=75
106854 Off ch=1 n=64 v=0
106854 Off ch=1 n=74 v=0
106906 Off ch=1 n=40 v=0
107008 On ch=1 n=64 v=75
107008 On ch=1 n=74 v=75
107110 Off ch=1 n=64 v=0
107110 Off ch=1 n=74 v=0
107264 On ch=1 n=64 v=75
107264 On ch=1 n=74 v=75
107291 On ch=1 n=47 v=88
107366 Off ch=1 n=64 v=0
107366 Off ch=1 n=74 v=0
107395 Off ch=1 n=47 v=0
107520 On ch=1 n=64 v=75
107520 On ch=1 n=74 v=75
107550 On ch=1 n=40 v=87
107622 Off ch=1 n=64 v=0
107622 Off ch=1 n=74 v=0
107747 Off ch=1 n=40 v=0
107776 On ch=1 n=64 v=75
107776 On ch=1 n=74 v=75
107878 Off ch=1 n=64 v=0
107878 Off ch=1 n=74 v=0
108032 On ch=1 n=64 v=75
108032 On ch=1 n=74 v=75
108055 On ch=1 n=52 v=88
108134 Off ch=1 n=64 v=0
108134 Off ch=1 n=74 v=0
108257 Off ch=1 n=52 v=0
108288 On ch=1 n=64 v=75
108288 On ch=1 n=74 v=75
108390 Off ch=1 n=64 v=0
108390 Off ch=1 n=74 v=0
108544 On ch=1 n=64 v=75
108544 On ch=1 n=74 v=75
108646 Off ch=1 n=64 v=0
108646 Off ch=1 n=74 v=0
108800 On ch=1 n=64 v=75
108800 On ch=1 n=72 v=75
108828 On ch=1 n=45 v=88
108902 Off ch=1 n=64 v=0
108902 Off ch=1 n=72 v=0
109056 On ch=1 n=64 v=75
109056 On ch=1 n=71 v=75
109059 Off ch=1 n=45 v=0
109075 On ch=1 n=47 v=88
109158 Off ch=1 n=64 v=0
109158 Off ch=1 n=71 v=0
109307 Off ch=1 n=47 v=0
109312 On ch=1 n=64 v=75
109312 On ch=1 n=72 v=75
109323 On ch=1 n=38 v=87
109414 Off ch=1 n=64 v=0
109414 Off ch=1 n=72 v=0
109564 Off ch=1 n=38 v=0
109568 On ch=1 n=64 v=75
109568 On ch=1 n=71 v=75
109580 On ch=1 n=40 v=87
109670 Off ch=1 n=64 v=0
109670 Off ch=1 n=71 v=0
109777 Off ch=1 n=40 v=0
109824 On ch=1 n=64 v=75
109824 On ch=1 n=69 v=75
109926 Off ch=1 n=64 v=0
109926 Off ch=1 n=69 v=0
110080 On ch=1 n=64 v=75
110080 On ch=1 n=69 v=75
110085 On ch=1 n=76 v=75
110085 On ch=1 n=47 v=88
110182 Off ch=1 n=64 v=0
110182 Off ch=1 n=69 v=0
110336 On ch=1 n=64 v=75
110438 Off ch=1 n=64 v=0
110561 Off ch=1 n=47 v=0
110592 On ch=1 n=81 v=88
110596 On ch=1 n=40 v=123
110652 Off ch=1 n=76 v=0
110743 On ch=1 n=83 v=83
110761 Off ch=1 n=81 v=0
111002 Off ch=1 n=40 v=0
111387 On ch=1 n=40 v=93
111387 On ch=1 n=52 v=108
111491 Off ch=1 n=40 v=0
111491 Off ch=1 n=52 v=0
111904 On ch=1 n=40 v=93
111904 On ch=1 n=47 v=108
112128 Off ch=1 n=83 v=0
112150 Off ch=1 n=47 v=0
112151 On ch=1 n=76 v=88
112151 On ch=1 n=45 v=89
112151 On ch=1 n=50 v=103
112180 Off ch=1 n=40 v=0
112588 Off ch=1 n=45 v=0
112640 On ch=1 n=79 v=88
112660 Off ch=1 n=50 v=0
112661 On ch=1 n=40 v=123
112721 Off ch=1 n=76 v=0
112789 On ch=1 n=81 v=83
112806 Off ch=1 n=79 v=0
113034 Off ch=1 n=40 v=0
113419 On ch=1 n=40 v=93
113419 On ch=1 n=52 v=108
113521 Off ch=1 n=40 v=0
113521 Off ch=1 n=52 v=0
113933 On ch=1 n=40 v=93
113933 On ch=1 n=47 v=108
114180 Off ch=1 n=47 v=0
114181 On ch=1 n=45 v=89
114181 On ch=1 n=50 v=103
114210 Off ch=1 n=40 v=0
114615 Off ch=1 n=45 v=0
114687 Off ch=1 n=50 v=0
114688 Off ch=1 n=81 v=0
114692 On ch=1 n=40 v=123
115098 Off ch=1 n=40 v=0
115200 On ch=1 n=79 v=88
115348 On ch=1 n=81 v=88
115365 Off ch=1 n=79 v=0
115483 On ch=1 n=40 v=93
115483 On ch=1 n=52 v=108
115496 On ch=1 n=79 v=88
115513 Off ch=1 n=81 v=0
115587 Off ch=1 n=40 v=0
115587 Off ch=1 n=52 v=0
115737 Off ch=1 n=79 v=0
115742 On ch=1 n=78 v=88
116000 On ch=1 n=40 v=93
116000 On ch=1 n=47 v=108
116246 Off ch=1 n=47 v=0
116247 On ch=1 n=79 v=88
116247 On ch=1 n=45 v=89
116247 On ch=1 n=50 v=103
116276 Off ch=1 n=40 v=0
116307 Off ch=1 n=78 v=0
116684 Off ch=1 n=45 v=0
116756 Off ch=1 n=50 v=0
116757 On ch=1 n=78 v=88
116757 On ch=1 n=40 v=93
116757 On ch=1 n=52 v=108
116817 Off ch=1 n=79 v=0
117266 Off ch=1 n=52 v=0
117267 On ch=1 n=74 v=88
117267 On ch=1 n=47 v=94
117267 On ch=1 n=59 v=108
117327 Off ch=1 n=78 v=0
117327 Off ch=1 n=40 v=0
117771 Off ch=1 n=59 v=0
117772 On ch=1 n=76 v=83
117772 On ch=1 n=50 v=94
117772 On ch=1 n=62 v=108
117832 Off ch=1 n=74 v=0
117832 Off ch=1 n=47 v=0
118204 Off ch=1 n=76 v=0
118276 Off ch=1 n=62 v=0
118277 On ch=1 n=71 v=88
118277 On ch=1 n=52 v=90
118277 On ch=1 n=64 v=104
118337 Off ch=1 n=50 v=0
118711 Off ch=1 n=52 v=0
118783 Off ch=1 n=64 v=0
118784 On ch=1 n=81 v=83
118788 On ch=1 n=40 v=124
118844 Off ch=1 n=71 v=0
118925 Off ch=1 n=81 v=0
118934 On ch=1 n=83 v=83
119194 Off ch=1 n=40 v=0
119579 On ch=1 n=40 v=94
119579 On ch=1 n=52 v=109
119683 Off ch=1 n=40 v=0
119683 Off ch=1 n=52 v=0
120096 On ch=1 n=40 v=94
120096 On ch=1 n=47 v=109
120320 Off ch=1 n=83 v=0
120342 Off ch=1 n=47 v=0
120343 On ch=1 n=76 v=88
120343 On ch=1 n=45 v=90
120343 On ch=1 n=50 v=104
120372 Off ch=1 n=40 v=0
120780 Off ch=1 n=45 v=0
120832 On ch=1 n=79 v=88
120852 Off ch=1 n=50 v=0
120853 On ch=1 n=40 v=124
120913 Off ch=1 n=76 v=0
120983 On ch=1 n=81 v=83
121001 Off ch=1 n=79 v=0
121226 Off ch=1 n=40 v=0
121611 On ch=1 n=40 v=94
121611 On ch=1 n=52 v=109
121713 Off ch=1 n=40 v=0
121713 Off ch=1 n=52 v=0
122125 On ch=1 n=40 v=94
122125 On ch=1 n=47 v=109
122368 Off ch=1 n=81 v=0
122368 On ch=1 n=79 v=88
122372 Off ch=1 n=47 v=0
122373 On ch=1 n=45 v=90
122373 On ch=1 n=50 v=104
122402 Off ch=1 n=40 v=0
122517 On ch=1 n=81 v=88
122534 Off ch=1 n=79 v=0
122666 On ch=1 n=79 v=88
122683 Off ch=1 n=81 v=0
122807 Off ch=1 n=45 v=0
122879 Off ch=1 n=50 v=0
122884 On ch=1 n=78 v=88
122884 On ch=1 n=40 v=124
122905 Off ch=1 n=79 v=0
123290 Off ch=1 n=40 v=0
123426 On ch=1 n=79 v=88
123486 Off ch=1 n=78 v=0
123675 On ch=1 n=40 v=94
123675 On ch=1 n=52 v=109
123779 Off ch=1 n=40 v=0
123779 Off ch=1 n=52 v=0
123904 On ch=1 n=84 v=88
123994 Off ch=1 n=79 v=0
124055 On ch=1 n=86 v=83
124073 Off ch=1 n=84 v=0
124192 On ch=1 n=40 v=94
124192 On ch=1 n=47 v=109
124438 Off ch=1 n=47 v=0
124439 On ch=1 n=45 v=90
124439 On ch=1 n=50 v=104
124468 Off ch=1 n=40 v=0
124876 Off ch=1 n=45 v=0
124948 Off ch=1 n=50 v=0
124949 On ch=1 n=40 v=102
125428 Off ch=1 n=40 v=0
125459 On ch=1 n=55 v=103
125933 Off ch=1 n=55 v=0
125952 Off ch=1 n=86 v=0
125964 On ch=1 n=43 v=104
126438 Off ch=1 n=43 v=0
126469 On ch=1 n=76 v=88
126469 On ch=1 n=57 v=104
126945 Off ch=1 n=57 v=0
126976 On ch=1 n=81 v=88
126980 On ch=1 n=40 v=125
127036 Off ch=1 n=76 v=0
127127 On ch=1 n=83 v=83
127145 Off ch=1 n=81 v=0
127386 Off ch=1 n=40 v=0
127771 On ch=1 n=40 v=95
127771 On ch=1 n=52 v=110
127875 Off ch=1 n=40 v=0
127875 Off ch=1 n=52 v=0
128288 On ch=1 n=40 v=95
128288 On ch=1 n=47 v=110
128512 Off ch=1 n=83 v=0
128534 Off ch=1 n=47 v=0
128535 On ch=1 n=76 v=88
128535 On ch=1 n=45 v=91
128535 On ch=1 n=50 v=105
128564 Off ch=1 n=40 v=0
128972 Off ch=1 n=45 v=0
129024 On ch=1 n=79 v=88
129044 Off ch=1 n=50 v=0
129045 On ch=1 n=40 v=125
129105 Off ch=1 n=76 v=0
129174 On ch=1 n=81 v=83
129192 Off ch=1 n=79 v=0
129418 Off ch=1 n=40 v=0
129803 On ch=1 n=40 v=95
129803 On ch=1 n=52 v=110
129905 Off ch=1 n=40 v=0
129905 Off ch=1 n=52 v=0
130317 On ch=1 n=40 v=95
130317 On ch=1 n=47 v=110
130564 Off ch=1 n=47 v=0
130565 On ch=1 n=45 v=91
130565 On ch=1 n=50 v=105
130594 Off ch=1 n=40 v=0
130999 Off ch=1 n=45 v=0
131071 Off ch=1 n=50 v=0
131072 Off ch=1 n=81 v=0
131076 On ch=1 n=40 v=125
131482 Off ch=1 n=40 v=0
131584 On ch=1 n=79 v=88
131733 On ch=1 n=81 v=88
131750 Off ch=1 n=79 v=0
131867 On ch=1 n=40 v=95
131867 On ch=1 n=52 v=110
131882 On ch=1 n=79 v=88
131899 Off ch=1 n=81 v=0
131971 Off ch=1 n=40 v=0
131971 Off ch=1 n=52 v=0
132121 Off ch=1 n=79 v=0
132126 On ch=1 n=78 v=88
132384 On ch=1 n=40 v=95
132384 On ch=1 n=47 v=110
132630 Off ch=1 n=47 v=0
132631 On ch=1 n=79 v=88
132631 On ch=1 n=45 v=91
132631 On ch=1 n=50 v=105
132660 Off ch=1 n=40 v=0
132691 Off ch=1 n=78 v=0
133068 Off ch=1 n=45 v=0
133140 Off ch=1 n=50 v=0
133141 On ch=1 n=78 v=88
133141 On ch=1 n=40 v=96
133141 On ch=1 n=52 v=111
133201 Off ch=1 n=79 v=0
133650 Off ch=1 n=52 v=0
133651 On ch=1 n=74 v=88
133651 On ch=1 n=47 v=97
133651 On ch=1 n=59 v=111
133711 Off ch=1 n=78 v=0
133711 Off ch=1 n=40 v=0
134155 Off ch=1 n=59 v=0
134156 On ch=1 n=76 v=83
134156 On ch=1 n=50 v=97
134156 On ch=1 n=62 v=111
134216 Off ch=1 n=74 v=0
134216 Off ch=1 n=47 v=0
134588 Off ch=1 n=76 v=0
134660 Off ch=1 n=62 v=0
134661 On ch=1 n=71 v=88
134661 On ch=1 n=52 v=92
134661 On ch=1 n=64 v=106
134721 Off ch=1 n=50 v=0
135095 Off ch=1 n=52 v=0
135167 Off ch=1 n=64 v=0
135168 On ch=1 n=81 v=88
135172 On ch=1 n=40 v=126
135228 Off ch=1 n=71 v=0
135317 On ch=1 n=83 v=83
135334 Off ch=1 n=81 v=0
135578 Off ch=1 n=40 v=0
135963 On ch=1 n=40 v=96
135963 On ch=1 n=52 v=111
136067 Off ch=1 n=40 v=0
136067 Off ch=1 n=52 v=0
136480 On ch=1 n=40 v=96
136480 On ch=1 n=47 v=111
136704 Off ch=1 n=83 v=0
136726 Off ch=1 n=47 v=0
136727 On ch=1 n=76 v=88
136727 On ch=1 n=45 v=92
136727 On ch=1 n=50 v=106
136756 Off ch=1 n=40 v=0
137164 Off ch=1 n=45 v=0
137216 On ch=1 n=79 v=88
137236 Off ch=1 n=50 v=0
137237 On ch=1 n=40 v=126
137297 Off ch=1 n=76 v=0
137367 On ch=1 n=81 v=83
137385 Off ch=1 n=79 v=0
137610 Off ch=1 n=40 v=0
137995 On ch=1 n=40 v=96
137995 On ch=1 n=52 v=111
138097 Off ch=1 n=40 v=0
138097 Off ch=1 n=52 v=0
138509 On ch=1 n=40 v=96
138509 On ch=1 n=47 v=111
138752 Off ch=1 n=81 v=0
138752 On ch=1 n=79 v=88
138756 Off ch=1 n=47 v=0
138757 On ch=1 n=45 v=92
138757 On ch=1 n=50 v=106
138786 Off ch=1 n=40 v=0
138900 On ch=1 n=81 v=88
138917 Off ch=1 n=79 v=0
139048 On ch=1 n=79 v=88
139065 Off ch=1 n=81 v=0
139191 Off ch=1 n=45 v=0
139263 Off ch=1 n=50 v=0
139268 On ch=1 n=78 v=88
139268 On ch=1 n=40 v=126
139289 Off ch=1 n=79 v=0
139674 Off ch=1 n=40 v=0
139810 On ch=1 n=79 v=88
139870 Off ch=1 n=78 v=0
140059 On ch=1 n=47 v=105
140163 Off ch=1 n=47 v=0
140288 On ch=1 n=84 v=88
140318 On ch=1 n=40 v=104
140378 Off ch=1 n=79 v=0
140436 On ch=1 n=86 v=83
140453 Off ch=1 n=84 v=0
140515 Off ch=1 n=40 v=0
140823 On ch=1 n=52 v=106
141025 Off ch=1 n=52 v=0
141596 On ch=1 n=52 v=106
141842 Off ch=1 n=52 v=0
141843 On ch=1 n=52 v=106
142075 Off ch=1 n=52 v=0
142091 On ch=1 n=47 v=106
142332 Off ch=1 n=47 v=0
142336 Off ch=1 n=86 v=0
142348 On ch=1 n=40 v=105
142545 Off ch=1 n=40 v=0
142853 On ch=1 n=86 v=88
142853 On ch=1 n=47 v=106
143329 Off ch=1 n=47 v=0
143359 Off ch=1 n=86 v=0
143360 On ch=1 n=86 v=75
143364 On ch=1 n=36 v=83
143364 On ch=1 n=48 v=99
143509 On ch=1 n=88 v=70
143526 Off ch=1 n=86 v=0
143693 Off ch=1 n=36 v=0
143693 Off ch=1 n=48 v=0
144155 On ch=1 n=43 v=93
144888 Off ch=1 n=43 v=0
144919 On ch=1 n=36 v=83
144919 On ch=1 n=48 v=99
145121 Off ch=1 n=36 v=0
145121 Off ch=1 n=48 v=0
145429 On ch=1 n=38 v=84
145429 On ch=1 n=50 v=99
145725 Off ch=1 n=38 v=0
145725 Off ch=1 n=50 v=0
146187 On ch=1 n=45 v=93
146918 Off ch=1 n=45 v=0
146949 On ch=1 n=86 v=75
146949 On ch=1 n=38 v=84
146949 On ch=1 n=50 v=99
147009 Off ch=1 n=88 v=0
147148 Off ch=1 n=38 v=0
147148 Off ch=1 n=50 v=0
147197 On ch=1 n=84 v=75
147226 Off ch=1 n=86 v=0
147460 On ch=1 n=83 v=75
147460 On ch=1 n=40 v=84
147460 On ch=1 n=52 v=99
147485 Off ch=1 n=84 v=0
147789 Off ch=1 n=40 v=0
147789 Off ch=1 n=52 v=0
148251 On ch=1 n=40 v=85
148251 On ch=1 n=52 v=96
148355 Off ch=1 n=40 v=0
148355 Off ch=1 n=52 v=0
149015 On ch=1 n=47 v=94
149494 Off ch=1 n=47 v=0
149525 On ch=1 n=81 v=70
149525 On ch=1 n=40 v=93
149605 Off ch=1 n=83 v=0
149821 Off ch=1 n=40 v=0
150283 On ch=1 n=52 v=94
150385 Off ch=1 n=52 v=0
150797 On ch=1 n=47 v=94
151029 Off ch=1 n=47 v=0
151045 On ch=1 n=48 v=94
151277 Off ch=1 n=48 v=0
151293 On ch=1 n=40 v=93
151509 Off ch=1 n=81 v=0
151536 Off ch=1 n=40 v=0
151556 On ch=1 n=79 v=75
151556 On ch=1 n=36 v=84
151556 On ch=1 n=48 v=100
151885 Off ch=1 n=36 v=0
151885 Off ch=1 n=48 v=0
152347 On ch=1 n=43 v=94
153080 Off ch=1 n=43 v=0
153111 On ch=1 n=36 v=84
153111 On ch=1 n=48 v=100
153313 Off ch=1 n=36 v=0
153313 Off ch=1 n=48 v=0
153621 On ch=1 n=38 v=85
153621 On ch=1 n=50 v=100
153917 Off ch=1 n=38 v=0
153917 Off ch=1 n=50 v=0
154379 On ch=1 n=45 v=94
155110 Off ch=1 n=45 v=0
155141 On ch=1 n=78 v=75
155141 On ch=1 n=38 v=85
155141 On ch=1 n=50 v=100
155201 Off ch=1 n=79 v=0
155340 Off ch=1 n=38 v=0
155340 Off ch=1 n=50 v=0
155389 On ch=1 n=79 v=75
155418 Off ch=1 n=78 v=0
155648 On ch=1 n=84 v=75
155652 On ch=1 n=40 v=85
155652 On ch=1 n=52 v=100
155677 Off ch=1 n=79 v=0
155799 On ch=1 n=86 v=70
155817 Off ch=1 n=84 v=0
155981 Off ch=1 n=40 v=0
155981 Off ch=1 n=52 v=0
156443 On ch=1 n=40 v=86
156443 On ch=1 n=52 v=97
156547 Off ch=1 n=40 v=0
156547 Off ch=1 n=52 v=0
157207 On ch=1 n=47 v=95
157686 Off ch=1 n=47 v=0
157696 Off ch=1 n=86 v=0
157717 On ch=1 n=83 v=70
157717 On ch=1 n=40 v=94
158013 Off ch=1 n=40 v=0
158475 On ch=1 n=47 v=95
158577 Off ch=1 n=47 v=0
159237 On ch=1 n=40 v=94
159436 Off ch=1 n=40 v=0
159701 Off ch=1 n=83 v=0
159744 On ch=1 n=86 v=75
159748 On ch=1 n=36 v=85
159748 On ch=1 n=48 v=101
159893 On ch=1 n=88 v=70
159910 Off ch=1 n=86 v=0
160077 Off ch=1 n=36 v=0
160077 Off ch=1 n=48 v=0
160539 On ch=1 n=43 v=95
161272 Off ch=1 n=43 v=0
161303 On ch=1 n=36 v=85
161303 On ch=1 n=48 v=101
161505 Off ch=1 n=36 v=0
161505 Off ch=1 n=48 v=0
161813 On ch=1 n=38 v=86
161813 On ch=1 n=50 v=101
162109 Off ch=1 n=38 v=0
162109 Off ch=1 n=50 v=0
162571 On ch=1 n=45 v=95
163302 Off ch=1 n=45 v=0
163333 On ch=1 n=86 v=75
163333 On ch=1 n=38 v=86
163333 On ch=1 n=50 v=101
163393 Off ch=1 n=88 v=0
163532 Off ch=1 n=38 v=0
163532 Off ch=1 n=50 v=0
163581 On ch=1 n=84 v=75
163610 Off ch=1 n=86 v=0
163844 On ch=1 n=83 v=75
163844 On ch=1 n=40 v=87
163844 On ch=1 n=52 v=102
163869 Off ch=1 n=84 v=0
164173 Off ch=1 n=40 v=0
164173 Off ch=1 n=52 v=0
164635 On ch=1 n=40 v=87
164635 On ch=1 n=52 v=98
164739 Off ch=1 n=40 v=0
164739 Off ch=1 n=52 v=0
165399 On ch=1 n=47 v=96
165878 Off ch=1 n=47 v=0
165909 On ch=1 n=81 v=70
165909 On ch=1 n=40 v=95
165989 Off ch=1 n=83 v=0
166205 Off ch=1 n=40 v=0
166667 On ch=1 n=52 v=96
166769 Off ch=1 n=52 v=0
167429 On ch=1 n=47 v=96
167893 Off ch=1 n=81 v=0
167905 Off ch=1 n=47 v=0
167940 On ch=1 n=79 v=75
167940 On ch=1 n=36 v=86
167940 On ch=1 n=48 v=102
168269 Off ch=1 n=36 v=0
168269 Off ch=1 n=48 v=0
168731 On ch=1 n=43 v=96
169464 Off ch=1 n=43 v=0
169495 On ch=1 n=81 v=75
169495 On ch=1 n=36 v=86
169495 On ch=1 n=48 v=102
169555 Off ch=1 n=79 v=0
169697 Off ch=1 n=36 v=0
169697 Off ch=1 n=48 v=0
169743 On ch=1 n=83 v=75
169772 Off ch=1 n=81 v=0
170005 On ch=1 n=81 v=75
170005 On ch=1 n=38 v=87
170005 On ch=1 n=50 v=102
170034 Off ch=1 n=83 v=0
170301 Off ch=1 n=38 v=0
170301 Off ch=1 n=50 v=0
170763 On ch=1 n=45 v=96
171494 Off ch=1 n=45 v=0
171525 On ch=1 n=78 v=75
171525 On ch=1 n=38 v=88
171525 On ch=1 n=50 v=103
171585 Off ch=1 n=81 v=0
171724 Off ch=1 n=38 v=0
171724 Off ch=1 n=50 v=0
172036 On ch=1 n=79 v=75
172036 On ch=1 n=40 v=88
172036 On ch=1 n=52 v=103
172092 Off ch=1 n=78 v=0
172329 On ch=1 n=78 v=75
172358 Off ch=1 n=79 v=0
172365 Off ch=1 n=40 v=0
172365 Off ch=1 n=52 v=0
172578 On ch=1 n=76 v=75
172607 Off ch=1 n=78 v=0
172827 On ch=1 n=40 v=88
172827 On ch=1 n=52 v=99
172931 Off ch=1 n=40 v=0
172931 Off ch=1 n=52 v=0
173591 On ch=1 n=47 v=97
174070 Off ch=1 n=47 v=0
174101 On ch=1 n=40 v=96
174397 Off ch=1 n=40 v=0
174859 On ch=1 n=52 v=97
174961 Off ch=1 n=52 v=0
175373 On ch=1 n=47 v=97
175605 Off ch=1 n=47 v=0
175621 On ch=1 n=48 v=97
175853 Off ch=1 n=48 v=0
175869 On ch=1 n=40 v=96
176085 Off ch=1 n=76 v=0
176104 Par ch=1 c=64 v=127
176112 Off ch=1 n=40 v=0
176128 On ch=1 n=86 v=62
176128 On ch=1 n=48 v=62
176132 On ch=1 n=55 v=76
176132 On ch=1 n=59 v=90
176278 On ch=1 n=88 v=57
176296 Off ch=1 n=86 v=0
178176 Off ch=1 n=48 v=0
178176 On ch=1 n=50 v=62
178196 Off ch=1 n=55 v=0
178196 Off ch=1 n=59 v=0
178197 On ch=1 n=54 v=76
178197 On ch=1 n=57 v=90
179717 On ch=1 n=86 v=62
179777 Off ch=1 n=88 v=0
179937 Par ch=1 c=64 v=0
179965 On ch=1 n=84 v=62
179994 Off ch=1 n=86 v=0
180200 Par ch=1 c=64 v=127
180223 Off ch=1 n=54 v=0
180223 Off ch=1 n=57 v=0
180224 Off ch=1 n=50 v=0
180224 On ch=1 n=52 v=62
180228 On ch=1 n=83 v=62
180228 On ch=1 n=55 v=85
180253 Off ch=1 n=84 v=0
182293 On ch=1 n=81 v=57
182373 Off ch=1 n=83 v=0
183280 Par ch=1 c=64 v=0
183296 Off ch=1 n=52 v=0
183296 On ch=1 n=50 v=62
183307 Off ch=1 n=55 v=0
183308 On ch=1 n=54 v=85
184277 Off ch=1 n=81 v=0
184296 Par ch=1 c=64 v=127
184319 Off ch=1 n=54 v=0
184320 Off ch=1 n=50 v=0
184320 On ch=1 n=48 v=62
184324 On ch=1 n=79 v=62
184324 On ch=1 n=52 v=77
184324 On ch=1 n=55 v=91
185878 Off ch=1 n=52 v=0
185878 Off ch=1 n=55 v=0
185879 On ch=1 n=57 v=85
186099 Par ch=1 c=64 v=0
186111 Off ch=1 n=57 v=0
186127 On ch=1 n=59 v=85
186361 Par ch=1 c=64 v=127
186368 Off ch=1 n=48 v=0
186368 On ch=1 n=50 v=62
186373 Off ch=1 n=59 v=0
186389 On ch=1 n=54 v=78
186389 On ch=1 n=57 v=92
187909 On ch=1 n=78 v=62
187969 Off ch=1 n=79 v=0
188129 Par ch=1 c=64 v=0
188157 On ch=1 n=79 v=62
188186 Off ch=1 n=78 v=0
188392 Par ch=1 c=64 v=127
188415 Off ch=1 n=54 v=0
188415 Off ch=1 n=57 v=0
188416 Off ch=1 n=50 v=0
188416 On ch=1 n=84 v=62
188416 On ch=1 n=52 v=62
188420 On ch=1 n=55 v=78
188420 On ch=1 n=59 v=92
188445 Off ch=1 n=79 v=0
188568 On ch=1 n=86 v=57
188586 Off ch=1 n=84 v=0
190464 Off ch=1 n=86 v=0
190485 On ch=1 n=83 v=57
191472 Par ch=1 c=64 v=0
191488 Off ch=1 n=52 v=0
191488 On ch=1 n=50 v=62
191499 Off ch=1 n=55 v=0
191499 Off ch=1 n=59 v=0
191500 On ch=1 n=54 v=78
191500 On ch=1 n=57 v=92
192469 Off ch=1 n=83 v=0
192488 Par ch=1 c=64 v=127
192511 Off ch=1 n=54 v=0
192511 Off ch=1 n=57 v=0
192512 Off ch=1 n=50 v=0
192512 On ch=1 n=86 v=62
192512 On ch=1 n=48 v=62
192516 On ch=1 n=55 v=78
192516 On ch=1 n=59 v=92
192663 On ch=1 n=88 v=57
192681 Off ch=1 n=86 v=0
194560 Off ch=1 n=48 v=0
194560 On ch=1 n=50 v=62
194580 Off ch=1 n=55 v=0
194580 Off ch=1 n=59 v=0
194581 On ch=1 n=54 v=79
194581 On ch=1 n=57 v=93
196101 On ch=1 n=86 v=62
196161 Off ch=1 n=88 v=0
196321 Par ch=1 c=64 v=0
196349 On ch=1 n=84 v=62
196378 Off ch=1 n=86 v=0
196584 Par ch=1 c=64 v=127
196607 Off ch=1 n=54 v=0
196607 Off ch=1 n=57 v=0
196608 Off ch=1 n=50 v=0
196608 On ch=1 n=52 v=62
196612 On ch=1 n=83 v=62
196612 On ch=1 n=55 v=87
196637 Off ch=1 n=84 v=0
198677 On ch=1 n=81 v=57
198757 Off ch=1 n=83 v=0
199664 Par ch=1 c=64 v=0
199680 Off ch=1 n=52 v=0
199680 On ch=1 n=50 v=62
199691 Off ch=1 n=55 v=0
199692 On ch=1 n=54 v=87
200661 Off ch=1 n=81 v=0
200680 Par ch=1 c=64 v=127
200703 Off ch=1 n=54 v=0
200704 Off ch=1 n=50 v=0
200704 On ch=1 n=48 v=62
200708 On ch=1 n=79 v=62
200708 On ch=1 n=52 v=79
200708 On ch=1 n=55 v=93
202263 On ch=1 n=81 v=62
202323 Off ch=1 n=79 v=0
202511 On ch=1 n=83 v=62
202540 Off ch=1 n=81 v=0
202752 Off ch=1 n=48 v=0
202752 On ch=1 n=50 v=62
202772 Off ch=1 n=52 v=0
202772 Off ch=1 n=55 v=0
202773 On ch=1 n=81 v=62
202773 On ch=1 n=54 v=80
202773 On ch=1 n=57 v=94
202802 Off ch=1 n=83 v=0
203787 Off ch=1 n=54 v=0
203787 Off ch=1 n=57 v=0
203788 On ch=1 n=62 v=88
204265 Par ch=1 c=64 v=0
204293 On ch=1 n=78 v=62
204353 Off ch=1 n=81 v=0
204776 Par ch=1 c=64 v=127
204799 Off ch=1 n=62 v=0
204800 Off ch=1 n=50 v=0
204804 On ch=1 n=79 v=62
204804 On ch=1 n=55 v=54
204804 On ch=1 n=59 v=68
204860 Off ch=1 n=78 v=0
205097 On ch=1 n=78 v=62
205126 Off ch=1 n=79 v=0
205346 On ch=1 n=76 v=64
205375 Off ch=1 n=78 v=0
205824 On ch=1 n=40 v=62
206848 Off ch=1 n=40 v=0
206848 On ch=1 n=40 v=62
207872 Off ch=1 n=40 v=0
207872 On ch=1 n=40 v=62
208384 Off ch=1 n=40 v=0
208384 On ch=1 n=40 v=62
208853 Off ch=1 n=76 v=0
208873 Par ch=1 c=64 v=0
208895 Off ch=1 n=55 v=0
208895 Off ch=1 n=59 v=0
208896 Off ch=1 n=40 v=0
208896 On ch=1 n=86 v=88
208900 On ch=1 n=83 v=80
208900 On ch=1 n=88 v=94
208900 On ch=1 n=36 v=111
208900 On ch=1 n=48 v=127
209039 On ch=1 n=79 v=88
209039 On ch=1 n=83 v=88
209039 On ch=1 n=88 v=89
209056 Off ch=1 n=86 v=0
209229 Off ch=1 n=36 v=0
209229 Off ch=1 n=48 v=0
209691 On ch=1 n=43 v=88
210424 Off ch=1 n=43 v=0
210455 On ch=1 n=36 v=78
210455 On ch=1 n=48 v=94
210657 Off ch=1 n=36 v=0
210657 Off ch=1 n=48 v=0
210965 On ch=1 n=38 v=82
210965 On ch=1 n=50 v=97
211261 Off ch=1 n=38 v=0
211261 Off ch=1 n=50 v=0
211723 On ch=1 n=45 v=88
211968 Off ch=1 n=79 v=0
211968 Off ch=1 n=83 v=0
211968 Off ch=1 n=88 v=0
212101 Off ch=1 n=83 v=0
212454 Off ch=1 n=45 v=0
212485 On ch=1 n=86 v=88
212485 On ch=1 n=38 v=79
212485 On ch=1 n=50 v=94
212545 Off ch=1 n=88 v=0
212684 Off ch=1 n=38 v=0
212684 Off ch=1 n=50 v=0
212733 On ch=1 n=84 v=88
212762 Off ch=1 n=86 v=0
212996 On ch=1 n=76 v=80
212996 On ch=1 n=79 v=80
212996 On ch=1 n=83 v=94
212996 On ch=1 n=40 v=84
212996 On ch=1 n=52 v=99
213021 Off ch=1 n=84 v=0
213325 Off ch=1 n=40 v=0
213325 Off ch=1 n=52 v=0
213787 On ch=1 n=47 v=88
213891 Off ch=1 n=47 v=0
214551 On ch=1 n=52 v=88
215060 Off ch=1 n=83 v=0
215061 On ch=1 n=74 v=75
215061 On ch=1 n=78 v=75
215061 On ch=1 n=81 v=89
215061 On ch=1 n=45 v=83
215121 Off ch=1 n=52 v=0
215141 Off ch=1 n=76 v=0
215141 Off ch=1 n=79 v=0
215350 Off ch=1 n=45 v=0
216076 On ch=1 n=52 v=88
216581 On ch=1 n=47 v=83
216641 Off ch=1 n=52 v=0
217015 Off ch=1 n=47 v=0
217045 Off ch=1 n=74 v=0
217045 Off ch=1 n=78 v=0
217087 Off ch=1 n=81 v=0
217092 On ch=1 n=72 v=80
217092 On ch=1 n=76 v=80
217092 On ch=1 n=79 v=94
217092 On ch=1 n=36 v=83
217092 On ch=1 n=48 v=99
217421 Off ch=1 n=36 v=0
217421 Off ch=1 n=48 v=0
217883 On ch=1 n=43 v=88
218616 Off ch=1 n=43 v=0
218647 On ch=1 n=36 v=78
218647 On ch=1 n=48 v=94
218849 Off ch=1 n=36 v=0
218849 Off ch=1 n=48 v=0
219157 On ch=1 n=38 v=82
219157 On ch=1 n=50 v=97
219359 Off ch=1 n=38 v=0
219359 Off ch=1 n=50 v=0
220172 On ch=1 n=38 v=80
220172 On ch=1 n=50 v=91
220676 Off ch=1 n=79 v=0
220676 Off ch=1 n=38 v=0
220676 Off ch=1 n=50 v=0
220677 On ch=1 n=78 v=88
220677 On ch=1 n=38 v=79
220677 On ch=1 n=50 v=90
220737 Off ch=1 n=72 v=0
220737 Off ch=1 n=76 v=0
220925 On ch=1 n=79 v=88
220954 Off ch=1 n=78 v=0
221153 Off ch=1 n=38 v=0
221183 Off ch=1 n=50 v=0
221184 On ch=1 n=84 v=88
221188 On ch=1 n=83 v=80
221188 On ch=1 n=86 v=94
221188 On ch=1 n=40 v=114
221213 Off ch=1 n=79 v=0
221333 On ch=1 n=79 v=88
221333 On ch=1 n=83 v=88
221333 On ch=1 n=86 v=89
221350 Off ch=1 n=84 v=0
221594 Off ch=1 n=40 v=0
221979 On ch=1 n=47 v=88
222083 Off ch=1 n=47 v=0
222238 On ch=1 n=40 v=88
222435 Off ch=1 n=40 v=0
222743 On ch=1 n=52 v=88
222945 Off ch=1 n=52 v=0
223232 Off ch=1 n=79 v=0
223232 Off ch=1 n=83 v=0
223232 Off ch=1 n=86 v=0
223252 Off ch=1 n=86 v=0
223253 On ch=1 n=76 v=75
223253 On ch=1 n=79 v=75
223253 On ch=1 n=83 v=89
223333 Off ch=1 n=83 v=0
223763 On ch=1 n=52 v=88
224011 On ch=1 n=54 v=88
224040 Off ch=1 n=52 v=0
224268 On ch=1 n=47 v=88
224297 Off ch=1 n=54 v=0
224773 On ch=1 n=43 v=83
224833 Off ch=1 n=47 v=0
225207 Off ch=1 n=43 v=0
225237 Off ch=1 n=76 v=0
225237 Off ch=1 n=83 v=0
225279 Off ch=1 n=79 v=0
225280 On ch=1 n=86 v=88
225284 On ch=1 n=83 v=80
225284 On ch=1 n=88 v=94
225284 On ch=1 n=36 v=83
225284 On ch=1 n=48 v=99
225431 On ch=1 n=79 v=88
225431 On ch=1 n=83 v=88
225431 On ch=1 n=88 v=89
225449 Off ch=1 n=86 v=0
225613 Off ch=1 n=36 v=0
225613 Off ch=1 n=48 v=0
226075 On ch=1 n=43 v=88
226808 Off ch=1 n=43 v=0
226839 On ch=1 n=36 v=78
226839 On ch=1 n=48 v=94
227041 Off ch=1 n=36 v=0
227041 Off ch=1 n=48 v=0
227349 On ch=1 n=38 v=82
227349 On ch=1 n=50 v=97
227645 Off ch=1 n=38 v=0
227645 Off ch=1 n=50 v=0
228107 On ch=1 n=45 v=88
228352 Off ch=1 n=79 v=0
228352 Off ch=1 n=83 v=0
228352 Off ch=1 n=88 v=0
228485 Off ch=1 n=83 v=0
228838 Off ch=1 n=45 v=0
228864 On ch=1 n=86 v=88
228869 On ch=1 n=38 v=79
228869 On ch=1 n=50 v=94
228929 Off ch=1 n=88 v=0
228946 On ch=1 n=88 v=88
228955 Off ch=1 n=86 v=0
229028 On ch=1 n=86 v=88
229037 Off ch=1 n=88 v=0
229068 Off ch=1 n=38 v=0
229068 Off ch=1 n=50 v=0
229117 On ch=1 n=84 v=88
229131 Off ch=1 n=86 v=0
229380 On ch=1 n=76 v=75
229380 On ch=1 n=79 v=75
229380 On ch=1 n=83 v=89
229380 On ch=1 n=40 v=84
229380 On ch=1 n=52 v=99
229405 Off ch=1 n=84 v=0
229709 Off ch=1 n=40 v=0
229709 Off ch=1 n=52 v=0
230171 On ch=1 n=42 v=80
230171 On ch=1 n=54 v=94
230275 Off ch=1 n=42 v=0
230275 Off ch=1 n=54 v=0
230688 On ch=1 n=43 v=80
230688 On ch=1 n=55 v=94
230934 Off ch=1 n=43 v=0
230934 Off ch=1 n=55 v=0
230935 On ch=1 n=43 v=80
230935 On ch=1 n=55 v=90
231414 Off ch=1 n=43 v=0
231444 Off ch=1 n=55 v=0
231955 On ch=1 n=52 v=88
232460 On ch=1 n=54 v=88
232520 Off ch=1 n=52 v=0
232965 On ch=1 n=50 v=83
233025 Off ch=1 n=54 v=0
233399 Off ch=1 n=50 v=0
233429 Off ch=1 n=79 v=0
233471 Off ch=1 n=76 v=0
233471 Off ch=1 n=83 v=0
233476 On ch=1 n=72 v=80
233476 On ch=1 n=76 v=80
233476 On ch=1 n=79 v=94
233476 On ch=1 n=36 v=83
233476 On ch=1 n=48 v=99
233805 Off ch=1 n=36 v=0
233805 Off ch=1 n=48 v=0
234267 On ch=1 n=43 v=92
235000 Off ch=1 n=43 v=0
235030 Off ch=1 n=79 v=0
235031 On ch=1 n=81 v=96
235031 On ch=1 n=36 v=89
235031 On ch=1 n=48 v=105
235091 Off ch=1 n=72 v=0
235091 Off ch=1 n=76 v=0
235233 Off ch=1 n=36 v=0
235233 Off ch=1 n=48 v=0
235279 On ch=1 n=83 v=98
235308 Off ch=1 n=81 v=0
235541 On ch=1 n=74 v=92
235541 On ch=1 n=78 v=92
235541 On ch=1 n=81 v=106
235541 On ch=1 n=38 v=94
235541 On ch=1 n=50 v=109
235570 Off ch=1 n=83 v=0
235837 Off ch=1 n=38 v=0
235837 Off ch=1 n=50 v=0
236299 On ch=1 n=45 v=109
237030 Off ch=1 n=45 v=0
237060 Off ch=1 n=81 v=0
237061 On ch=1 n=86 v=110
237061 On ch=1 n=38 v=107
237061 On ch=1 n=50 v=122
237121 Off ch=1 n=74 v=0
237121 Off ch=1 n=78 v=0
237260 Off ch=1 n=38 v=0
237260 Off ch=1 n=50 v=0
237572 On ch=1 n=79 v=119
237572 On ch=1 n=88 v=127
237572 On ch=1 n=40 v=127
237572 On ch=1 n=52 v=127
237628 Off ch=1 n=86 v=0
237965 Off ch=1 n=88 v=0
238007 Off ch=1 n=40 v=0
238007 Off ch=1 n=52 v=0
238181 Off ch=1 n=79 v=0
238819 Par ch=1 c=7 v=102
238819 Par ch=1 c=7 v=110
238820 Meta TrkEnd
TrkEnd
