MFile 1 2 1024
MTrk
0 SeqSpec 05 0f 1c 32 30 31 38 2e 30 31 2e 30 31 01 01
0 SeqSpec 05 0f 2d 4d 69 63 72 6f 73 6f 66 74 20 53 61 6e 73 20 53 65 72 69 66 2c 38 2e 32 35 2c 46 61 6c 73 65 2c 46 61 6c 73 65 2c 31 2c 30
0 SeqSpec 05 0f 12 03 03 7f 7f 00 ff 01 04 34 41 6c 74 6f 2d 66 61 6c 61 6e 74 65 73 20 28 44 69 73 70 6f 73 69 74 69 76 6f 20 64 65 20 48 69 67 68 20 44 65 66 69 6e 69 74 69 6f 6e 20 41 75 64 69 6f 29
0 SMPTE 0 0 0 0 0
0 TimeSig 4/4 24 8
0 KeySig 0 major
0 Tempo 666669
0 Tempo 666669
0 Tempo 666669
38912 Tempo 666669
39168 Tempo 670599
39424 Tempo 670599
39680 Tempo 674576
39936 Tempo 674576
40192 Tempo 678148
40448 Tempo 678148
40704 Tempo 678148
40960 Tempo 666669
43008 Tempo 666669
43264 Tempo 670599
43520 Tempo 674576
43776 Tempo 678148
44032 Tempo 682216
44288 Tempo 685869
44544 Tempo 690030
44800 Tempo 693768
45312 Tempo 666669
55296 Tempo 666669
55552 Tempo 670599
55808 Tempo 670599
56064 Tempo 674576
56320 Tempo 674576
56576 Tempo 678148
56832 Tempo 678148
57088 Tempo 678148
57344 Tempo 666669
59392 Tempo 666669
59648 Tempo 670599
59904 Tempo 674576
60160 Tempo 678148
60416 Tempo 682216
60672 Tempo 685869
60928 Tempo 690030
61184 Tempo 693768
61696 Tempo 666669
71680 Tempo 666669
71936 Tempo 670599
72192 Tempo 670599
72448 Tempo 674576
72704 Tempo 674576
72960 Tempo 678148
73216 Tempo 678148
73472 Tempo 678148
73728 Tempo 666669
75776 Tempo 666669
76032 Tempo 670599
76288 Tempo 674576
76544 Tempo 678148
76800 Tempo 682216
77056 Tempo 685869
77312 Tempo 690030
77568 Tempo 693768
78080 Tempo 666669
88064 Tempo 666669
88320 Tempo 670599
88576 Tempo 670599
88832 Tempo 674576
89088 Tempo 674576
89344 Tempo 678148
89600 Tempo 678148
89856 Tempo 678148
90112 Tempo 666669
92160 Tempo 666669
92416 Tempo 670599
92672 Tempo 670599
92928 Tempo 674576
93184 Tempo 674576
93440 Tempo 678148
93696 Tempo 678148
93952 Tempo 678148
94208 Tempo 666669
96256 Tempo 666669
96512 Tempo 670599
96768 Tempo 674576
97024 Tempo 678148
97280 Tempo 682216
97536 Tempo 685869
97792 Tempo 690030
98048 Tempo 693768
98560 Tempo 666669
145408 Tempo 666669
145664 Tempo 670599
145920 Tempo 674576
146176 Tempo 678148
146432 Tempo 682216
146688 Tempo 685869
146944 Tempo 690030
147200 Tempo 693768
147712 Tempo 666669
153600 Tempo 666669
153856 Tempo 670599
154112 Tempo 670599
154368 Tempo 674576
154624 Tempo 674576
154880 Tempo 678148
155136 Tempo 678148
155392 Tempo 678148
155648 Tempo 666669
157696 Tempo 666669
157952 Tempo 670599
158208 Tempo 674576
158464 Tempo 678148
158720 Tempo 682216
158976 Tempo 685869
159232 Tempo 690030
159488 Tempo 693768
160000 Tempo 666669
169984 Tempo 666669
170240 Tempo 670599
170496 Tempo 670599
170752 Tempo 674576
171008 Tempo 674576
171264 Tempo 678148
171520 Tempo 678148
171776 Tempo 678148
172032 Tempo 666669
174080 Tempo 666669
174336 Tempo 670599
174592 Tempo 670599
174848 Tempo 674576
175104 Tempo 674576
175360 Tempo 678148
175616 Tempo 678148
175872 Tempo 678148
176128 Tempo 666669
178176 Tempo 666669
178432 Tempo 670599
178688 Tempo 674576
178944 Tempo 678148
179200 Tempo 682216
179456 Tempo 685869
179712 Tempo 690030
179968 Tempo 693768
180480 Tempo 666669
194560 Tempo 666669
194816 Tempo 670599
195072 Tempo 670599
195328 Tempo 674576
195584 Tempo 674576
195840 Tempo 678148
196096 Tempo 678148
196352 Tempo 678148
196608 Tempo 666669
212992 Tempo 666669
212992 Tempo 666669
251904 Tempo 666669
252160 Tempo 670599
252416 Tempo 670599
252672 Tempo 674576
252928 Tempo 674576
253184 Tempo 678148
253440 Tempo 678148
253696 Tempo 678148
253952 Tempo 666669
256000 Tempo 666669
256256 Tempo 670599
256512 Tempo 674576
256768 Tempo 678148
257024 Tempo 682216
257280 Tempo 685869
257536 Tempo 690030
257792 Tempo 693768
258304 Tempo 666669
268288 Tempo 666669
268544 Tempo 670599
268800 Tempo 670599
269056 Tempo 674576
269312 Tempo 674576
269568 Tempo 678148
269824 Tempo 678148
270080 Tempo 678148
270336 Tempo 666669
272384 Tempo 666669
272640 Tempo 670599
272896 Tempo 674576
273152 Tempo 678148
273408 Tempo 682216
273664 Tempo 685869
273920 Tempo 690030
274176 Tempo 693768
274688 Tempo 666669
284672 Tempo 666669
284928 Tempo 670599
285184 Tempo 670599
285440 Tempo 674576
285696 Tempo 674576
285952 Tempo 678148
286208 Tempo 678148
286464 Tempo 678148
286720 Tempo 666669
288768 Tempo 666669
289024 Tempo 670599
289280 Tempo 674576
289536 Tempo 678148
289792 Tempo 682216
290048 Tempo 685869
290304 Tempo 690030
290560 Tempo 693768
291072 Tempo 666669
301056 Tempo 666669
301312 Tempo 670599
301568 Tempo 670599
301824 Tempo 674576
302080 Tempo 674576
302336 Tempo 678148
302592 Tempo 678148
302848 Tempo 678148
303104 Tempo 666669
305152 Tempo 666669
305408 Tempo 670599
305664 Tempo 670599
305920 Tempo 674576
306176 Tempo 674576
306432 Tempo 678148
306688 Tempo 678148
306944 Tempo 678148
307200 Tempo 666669
309248 Tempo 666669
309504 Tempo 670599
309760 Tempo 674576
310016 Tempo 678148
310272 Tempo 682216
310528 Tempo 685869
310784 Tempo 690030
311040 Tempo 693768
311552 Tempo 666669
358400 Tempo 666669
358656 Tempo 670599
358912 Tempo 674576
359168 Tempo 678148
359424 Tempo 682216
359680 Tempo 685869
359936 Tempo 690030
360192 Tempo 693768
360704 Tempo 666669
366592 Tempo 666669
366848 Tempo 670599
367104 Tempo 670599
367360 Tempo 674576
367616 Tempo 674576
367872 Tempo 678148
368128 Tempo 678148
368384 Tempo 678148
368640 Tempo 666669
370688 Tempo 666669
370944 Tempo 670599
371200 Tempo 674576
371456 Tempo 678148
371712 Tempo 682216
371968 Tempo 685869
372224 Tempo 690030
372480 Tempo 693768
372992 Tempo 666669
382976 Tempo 666669
383232 Tempo 670599
383488 Tempo 670599
383744 Tempo 674576
384000 Tempo 674576
384256 Tempo 678148
384512 Tempo 678148
384768 Tempo 678148
385024 Tempo 666669
387072 Tempo 666669
387328 Tempo 670599
387584 Tempo 670599
387840 Tempo 674576
388096 Tempo 674576
388352 Tempo 678148
388608 Tempo 678148
388864 Tempo 678148
389120 Tempo 666669
391168 Tempo 666669
391424 Tempo 670599
391680 Tempo 674576
391936 Tempo 678148
392192 Tempo 682216
392448 Tempo 685869
392704 Tempo 690030
392960 Tempo 693768
393472 Tempo 666669
407552 Tempo 666669
407808 Tempo 670599
408064 Tempo 670599
408320 Tempo 674576
408576 Tempo 674576
408832 Tempo 678148
409088 Tempo 678148
409344 Tempo 678148
409600 Tempo 666669
409600 Meta TrkEnd
TrkEnd
MTrk
0 SeqSpec 05 0f 09 4e 48
0 SeqSpec 05 0f 06 47 65 6e 65 72 61 6c 20 4d 49 44 49 20 2d 20 4d 69 63 72 6f 73 6f 66 74 20 47 53 20 57 61 76 65 74 61 62 6c 65 20 53 79 6e 74 68
0 Par ch=1 c=10 v=51
0 Par ch=1 c=7 v=86
0 Meta 0x09  53 6d 61 72 74 4d 75 73 69 63 20 53 6f 66 74 53 79 6e 74 68 20 31
0 Meta TrkName "SmartMusic SoftSynth"
0 Par ch=1 c=0 v=121
0 Par ch=1 c=32 v=0
0 PrCh ch=1 p=1
0 Par ch=1 c=7 v=127
0 Par ch=1 c=10 v=74
10 On ch=1 n=64 v=56
10 On ch=1 n=67 v=56
10 On ch=1 n=69 v=56
10 On ch=1 n=72 v=70
546 On ch=1 n=83 v=49
1023 Off ch=1 n=83 v=0
1054 On ch=1 n=84 v=50
1528 Off ch=1 n=84 v=0
1807 On ch=1 n=83 v=49
2053 Off ch=1 n=83 v=0
2579 On ch=1 n=84 v=49
3053 Off ch=1 n=84 v=0
3084 On ch=1 n=79 v=50
4095 Off ch=1 n=79 v=0
4642 On ch=1 n=83 v=49
5119 Off ch=1 n=83 v=0
5150 On ch=1 n=84 v=50
5624 Off ch=1 n=84 v=0
5903 On ch=1 n=83 v=49
6149 Off ch=1 n=83 v=0
6675 On ch=1 n=84 v=49
7149 Off ch=1 n=84 v=0
7179 Off ch=1 n=72 v=0
7179 Off ch=1 n=69 v=0
7179 Off ch=1 n=67 v=0
7179 Off ch=1 n=64 v=0
7180 On ch=1 n=79 v=50
7180 On ch=1 n=71 v=65
8191 Off ch=1 n=71 v=0
8191 Off ch=1 n=79 v=0
8196 On ch=1 n=72 v=69
8707 Off ch=1 n=72 v=0
8738 On ch=1 n=83 v=49
8738 On ch=1 n=74 v=64
9215 Off ch=1 n=74 v=0
9215 Off ch=1 n=83 v=0
9246 On ch=1 n=84 v=50
9246 On ch=1 n=67 v=56
9246 On ch=1 n=71 v=56
9246 On ch=1 n=72 v=56
9246 On ch=1 n=76 v=66
9720 Off ch=1 n=84 v=0
9999 On ch=1 n=83 v=49
10245 Off ch=1 n=83 v=0
10771 On ch=1 n=84 v=49
11245 Off ch=1 n=84 v=0
11276 On ch=1 n=79 v=50
12287 Off ch=1 n=79 v=0
12834 On ch=1 n=83 v=49
13311 Off ch=1 n=83 v=0
13342 On ch=1 n=84 v=50
13816 Off ch=1 n=84 v=0
14095 On ch=1 n=83 v=49
14341 Off ch=1 n=83 v=0
14867 On ch=1 n=84 v=49
15341 Off ch=1 n=84 v=0
15371 Off ch=1 n=76 v=0
15371 Off ch=1 n=72 v=0
15371 Off ch=1 n=71 v=0
15371 Off ch=1 n=67 v=0
15372 On ch=1 n=79 v=50
15372 On ch=1 n=57 v=65
15846 Off ch=1 n=57 v=0
15846 Off ch=1 n=79 v=0
15877 On ch=1 n=91 v=49
15877 On ch=1 n=59 v=64
16124 Off ch=1 n=91 v=0
16125 On ch=1 n=91 v=49
16353 Off ch=1 n=59 v=0
16368 Off ch=1 n=91 v=0
16388 On ch=1 n=52 v=56
16388 On ch=1 n=55 v=56
16388 On ch=1 n=57 v=56
16388 On ch=1 n=60 v=66
16681 On ch=1 n=64 v=41
16681 On ch=1 n=69 v=41
16681 On ch=1 n=72 v=51
16929 Off ch=1 n=64 v=0
16929 Off ch=1 n=69 v=0
16929 Off ch=1 n=72 v=0
16930 On ch=1 n=64 v=41
16930 On ch=1 n=69 v=41
16930 On ch=1 n=72 v=51
17130 Off ch=1 n=64 v=0
17130 Off ch=1 n=69 v=0
17130 Off ch=1 n=72 v=0
17408 On ch=1 n=33 v=64
17438 On ch=1 n=64 v=42
17438 On ch=1 n=69 v=42
17438 On ch=1 n=72 v=52
17635 Off ch=1 n=64 v=0
17635 Off ch=1 n=69 v=0
17635 Off ch=1 n=72 v=0
17943 On ch=1 n=64 v=41
17943 On ch=1 n=69 v=41
17943 On ch=1 n=72 v=51
18190 Off ch=1 n=64 v=0
18190 Off ch=1 n=69 v=0
18190 Off ch=1 n=72 v=0
18191 On ch=1 n=64 v=41
18191 On ch=1 n=69 v=41
18191 On ch=1 n=72 v=51
18437 Off ch=1 n=64 v=0
18437 Off ch=1 n=69 v=0
18452 Off ch=1 n=72 v=0
18716 On ch=1 n=64 v=41
18716 On ch=1 n=69 v=41
18716 On ch=1 n=72 v=51
18947 Off ch=1 n=64 v=0
18947 Off ch=1 n=69 v=0
18962 Off ch=1 n=72 v=0
19211 On ch=1 n=64 v=41
19211 On ch=1 n=69 v=41
19211 On ch=1 n=72 v=51
19467 Off ch=1 n=64 v=0
19467 Off ch=1 n=69 v=0
19467 Off ch=1 n=72 v=0
19468 On ch=1 n=64 v=42
19468 On ch=1 n=69 v=42
19468 On ch=1 n=72 v=52
19665 Off ch=1 n=64 v=0
19665 Off ch=1 n=69 v=0
19665 Off ch=1 n=72 v=0
19973 On ch=1 n=64 v=41
19973 On ch=1 n=69 v=41
19973 On ch=1 n=72 v=51
20220 Off ch=1 n=64 v=0
20220 Off ch=1 n=69 v=0
20220 Off ch=1 n=72 v=0
20221 On ch=1 n=64 v=41
20221 On ch=1 n=69 v=41
20221 On ch=1 n=72 v=51
20464 Off ch=1 n=64 v=0
20464 Off ch=1 n=69 v=0
20479 Off ch=1 n=72 v=0
20777 On ch=1 n=64 v=41
20777 On ch=1 n=69 v=41
20777 On ch=1 n=72 v=51
21025 Off ch=1 n=64 v=0
21025 Off ch=1 n=69 v=0
21025 Off ch=1 n=72 v=0
21026 On ch=1 n=64 v=41
21026 On ch=1 n=69 v=41
21026 On ch=1 n=72 v=51
21226 Off ch=1 n=64 v=0
21226 Off ch=1 n=69 v=0
21226 Off ch=1 n=72 v=0
21534 On ch=1 n=64 v=42
21534 On ch=1 n=69 v=42
21534 On ch=1 n=72 v=52
21731 Off ch=1 n=64 v=0
21731 Off ch=1 n=69 v=0
21731 Off ch=1 n=72 v=0
22039 On ch=1 n=64 v=41
22039 On ch=1 n=69 v=41
22039 On ch=1 n=72 v=51
22286 Off ch=1 n=64 v=0
22286 Off ch=1 n=69 v=0
22286 Off ch=1 n=72 v=0
22287 On ch=1 n=64 v=41
22287 On ch=1 n=69 v=41
22287 On ch=1 n=72 v=51
22528 Off ch=1 n=33 v=0
22528 On ch=1 n=45 v=64
22533 Off ch=1 n=64 v=0
22533 Off ch=1 n=69 v=0
22548 Off ch=1 n=72 v=0
22812 On ch=1 n=64 v=41
22812 On ch=1 n=69 v=41
22812 On ch=1 n=72 v=51
23043 Off ch=1 n=64 v=0
23043 Off ch=1 n=69 v=0
23058 Off ch=1 n=72 v=0
23307 On ch=1 n=64 v=41
23307 On ch=1 n=69 v=41
23307 On ch=1 n=72 v=51
23563 Off ch=1 n=60 v=0
23563 Off ch=1 n=57 v=0
23563 Off ch=1 n=55 v=0
23563 Off ch=1 n=52 v=0
23563 Off ch=1 n=64 v=0
23563 Off ch=1 n=69 v=0
23563 Off ch=1 n=72 v=0
23564 On ch=1 n=64 v=42
23564 On ch=1 n=69 v=42
23564 On ch=1 n=72 v=52
23564 On ch=1 n=60 v=65
23761 Off ch=1 n=64 v=0
23761 Off ch=1 n=69 v=0
23761 Off ch=1 n=72 v=0
24038 Off ch=1 n=60 v=0
24069 On ch=1 n=64 v=41
24069 On ch=1 n=69 v=41
24069 On ch=1 n=72 v=51
24069 On ch=1 n=62 v=64
24316 Off ch=1 n=64 v=0
24316 Off ch=1 n=69 v=0
24316 Off ch=1 n=72 v=0
24317 On ch=1 n=64 v=41
24317 On ch=1 n=69 v=41
24317 On ch=1 n=72 v=55
24545 Off ch=1 n=62 v=0
24560 Off ch=1 n=64 v=0
24560 Off ch=1 n=69 v=0
24575 Off ch=1 n=72 v=0
24576 Off ch=1 n=45 v=0
24580 On ch=1 n=55 v=56
24580 On ch=1 n=59 v=56
24580 On ch=1 n=60 v=56
24580 On ch=1 n=64 v=66
24873 On ch=1 n=67 v=41
24873 On ch=1 n=72 v=41
24873 On ch=1 n=76 v=55
25121 Off ch=1 n=67 v=0
25121 Off ch=1 n=72 v=0
25121 Off ch=1 n=76 v=0
25122 On ch=1 n=67 v=41
25122 On ch=1 n=72 v=41
25122 On ch=1 n=76 v=51
25322 Off ch=1 n=67 v=0
25322 Off ch=1 n=72 v=0
25322 Off ch=1 n=76 v=0
25600 On ch=1 n=36 v=64
25630 On ch=1 n=67 v=42
25630 On ch=1 n=72 v=42
25630 On ch=1 n=76 v=52
25827 Off ch=1 n=67 v=0
25827 Off ch=1 n=72 v=0
25827 Off ch=1 n=76 v=0
26135 On ch=1 n=67 v=41
26135 On ch=1 n=72 v=41
26135 On ch=1 n=76 v=51
26382 Off ch=1 n=67 v=0
26382 Off ch=1 n=72 v=0
26382 Off ch=1 n=76 v=0
26383 On ch=1 n=67 v=41
26383 On ch=1 n=72 v=41
26383 On ch=1 n=76 v=51
26629 Off ch=1 n=67 v=0
26629 Off ch=1 n=72 v=0
26644 Off ch=1 n=76 v=0
26908 On ch=1 n=67 v=41
26908 On ch=1 n=72 v=41
26908 On ch=1 n=76 v=51
27139 Off ch=1 n=67 v=0
27139 Off ch=1 n=72 v=0
27154 Off ch=1 n=76 v=0
27403 On ch=1 n=67 v=41
27403 On ch=1 n=72 v=41
27403 On ch=1 n=76 v=51
27659 Off ch=1 n=67 v=0
27659 Off ch=1 n=72 v=0
27659 Off ch=1 n=76 v=0
27660 On ch=1 n=67 v=42
27660 On ch=1 n=72 v=42
27660 On ch=1 n=76 v=52
27857 Off ch=1 n=67 v=0
27857 Off ch=1 n=72 v=0
27857 Off ch=1 n=76 v=0
28165 On ch=1 n=67 v=41
28165 On ch=1 n=72 v=41
28165 On ch=1 n=76 v=51
28412 Off ch=1 n=67 v=0
28412 Off ch=1 n=72 v=0
28412 Off ch=1 n=76 v=0
28413 On ch=1 n=67 v=41
28413 On ch=1 n=72 v=41
28413 On ch=1 n=76 v=51
28656 Off ch=1 n=67 v=0
28656 Off ch=1 n=72 v=0
28671 Off ch=1 n=76 v=0
28969 On ch=1 n=67 v=41
28969 On ch=1 n=72 v=41
28969 On ch=1 n=76 v=51
29217 Off ch=1 n=67 v=0
29217 Off ch=1 n=72 v=0
29217 Off ch=1 n=76 v=0
29218 On ch=1 n=67 v=41
29218 On ch=1 n=72 v=41
29218 On ch=1 n=76 v=51
29418 Off ch=1 n=67 v=0
29418 Off ch=1 n=72 v=0
29418 Off ch=1 n=76 v=0
29726 On ch=1 n=67 v=42
29726 On ch=1 n=72 v=42
29726 On ch=1 n=76 v=52
29923 Off ch=1 n=67 v=0
29923 Off ch=1 n=72 v=0
29923 Off ch=1 n=76 v=0
30231 On ch=1 n=67 v=41
30231 On ch=1 n=72 v=41
30231 On ch=1 n=76 v=51
30478 Off ch=1 n=67 v=0
30478 Off ch=1 n=72 v=0
30478 Off ch=1 n=76 v=0
30479 On ch=1 n=67 v=41
30479 On ch=1 n=72 v=41
30479 On ch=1 n=76 v=51
30720 Off ch=1 n=36 v=0
30720 On ch=1 n=48 v=64
30725 Off ch=1 n=67 v=0
30725 Off ch=1 n=72 v=0
30740 Off ch=1 n=76 v=0
31004 On ch=1 n=67 v=41
31004 On ch=1 n=72 v=41
31004 On ch=1 n=76 v=51
31235 Off ch=1 n=67 v=0
31235 Off ch=1 n=72 v=0
31250 Off ch=1 n=76 v=0
31499 On ch=1 n=67 v=41
31499 On ch=1 n=72 v=41
31499 On ch=1 n=76 v=51
31744 Off ch=1 n=48 v=0
31744 On ch=1 n=38 v=64
31755 Off ch=1 n=67 v=0
31755 Off ch=1 n=72 v=0
31755 Off ch=1 n=76 v=0
31756 On ch=1 n=67 v=42
31756 On ch=1 n=72 v=42
31756 On ch=1 n=76 v=52
31953 Off ch=1 n=67 v=0
31953 Off ch=1 n=72 v=0
31953 Off ch=1 n=76 v=0
32256 Off ch=1 n=38 v=0
32256 On ch=1 n=40 v=64
32261 On ch=1 n=67 v=41
32261 On ch=1 n=72 v=41
32261 On ch=1 n=76 v=51
32508 Off ch=1 n=67 v=0
32508 Off ch=1 n=72 v=0
32508 Off ch=1 n=76 v=0
32509 On ch=1 n=67 v=41
32509 On ch=1 n=72 v=41
32509 On ch=1 n=76 v=51
32752 Off ch=1 n=67 v=0
32752 Off ch=1 n=72 v=0
32767 Off ch=1 n=64 v=0
32767 Off ch=1 n=60 v=0
32767 Off ch=1 n=59 v=0
32767 Off ch=1 n=55 v=0
32767 Off ch=1 n=76 v=0
32768 Off ch=1 n=40 v=0
32772 On ch=1 n=41 v=69
33283 Off ch=1 n=41 v=0
33314 On ch=1 n=48 v=64
33791 Off ch=1 n=48 v=0
33822 On ch=1 n=53 v=65
34296 Off ch=1 n=53 v=0
34327 On ch=1 n=55 v=64
34806 Off ch=1 n=55 v=0
34837 On ch=1 n=53 v=59
34837 On ch=1 n=57 v=73
35347 On ch=1 n=71 v=62
35821 Off ch=1 n=71 v=0
35851 Off ch=1 n=57 v=0
35851 Off ch=1 n=53 v=0
35852 On ch=1 n=72 v=63
35852 On ch=1 n=55 v=57
35852 On ch=1 n=59 v=71
36326 Off ch=1 n=72 v=0
36357 On ch=1 n=79 v=62
36863 Off ch=1 n=59 v=0
36863 Off ch=1 n=55 v=0
36863 Off ch=1 n=79 v=0
36868 On ch=1 n=79 v=67
36868 On ch=1 n=47 v=69
37379 Off ch=1 n=47 v=0
37379 Off ch=1 n=79 v=0
37410 On ch=1 n=71 v=62
37410 On ch=1 n=55 v=64
37887 Off ch=1 n=55 v=0
37887 Off ch=1 n=71 v=0
37918 On ch=1 n=72 v=63
37918 On ch=1 n=59 v=65
38392 Off ch=1 n=59 v=0
38392 Off ch=1 n=72 v=0
38423 On ch=1 n=79 v=62
38423 On ch=1 n=60 v=64
38902 Off ch=1 n=60 v=0
38932 Off ch=1 n=79 v=0
38933 On ch=1 n=79 v=65
38933 On ch=1 n=59 v=59
38933 On ch=1 n=62 v=73
39947 Off ch=1 n=62 v=0
39947 Off ch=1 n=59 v=0
39948 On ch=1 n=57 v=57
39948 On ch=1 n=60 v=71
40422 Off ch=1 n=57 v=0
40452 Off ch=1 n=60 v=0
40453 On ch=1 n=59 v=64
40929 Off ch=1 n=59 v=0
40959 Off ch=1 n=79 v=0
40964 On ch=1 n=40 v=68
41475 Off ch=1 n=40 v=0
41506 On ch=1 n=59 v=62
41506 On ch=1 n=47 v=64
41983 Off ch=1 n=47 v=0
41983 Off ch=1 n=59 v=0
42014 On ch=1 n=60 v=63
42014 On ch=1 n=52 v=65
42488 Off ch=1 n=52 v=0
42488 Off ch=1 n=60 v=0
42519 On ch=1 n=54 v=64
42767 On ch=1 n=59 v=62
42998 Off ch=1 n=54 v=0
43013 Off ch=1 n=59 v=0
43029 On ch=1 n=52 v=59
43029 On ch=1 n=55 v=73
43508 Off ch=1 n=52 v=0
43538 Off ch=1 n=55 v=0
43539 On ch=1 n=79 v=62
43539 On ch=1 n=60 v=64
44013 Off ch=1 n=60 v=0
44013 Off ch=1 n=79 v=0
44044 On ch=1 n=81 v=63
44044 On ch=1 n=55 v=57
44044 On ch=1 n=59 v=71
44518 Off ch=1 n=55 v=0
44518 Off ch=1 n=81 v=0
44548 Off ch=1 n=59 v=0
44549 On ch=1 n=76 v=62
44549 On ch=1 n=60 v=64
45025 Off ch=1 n=60 v=0
45055 Off ch=1 n=76 v=0
45060 On ch=1 n=76 v=67
45060 On ch=1 n=45 v=69
45571 Off ch=1 n=45 v=0
45602 On ch=1 n=52 v=64
46079 Off ch=1 n=52 v=0
46110 On ch=1 n=57 v=57
46110 On ch=1 n=60 v=71
46584 Off ch=1 n=57 v=0
46614 Off ch=1 n=60 v=0
46615 On ch=1 n=59 v=64
47094 Off ch=1 n=59 v=0
47124 Off ch=1 n=76 v=0
47125 On ch=1 n=43 v=67
47604 Off ch=1 n=43 v=0
47635 On ch=1 n=50 v=56
47635 On ch=1 n=60 v=70
48109 Off ch=1 n=50 v=0
48139 Off ch=1 n=60 v=0
48140 On ch=1 n=55 v=57
48140 On ch=1 n=59 v=71
48614 Off ch=1 n=55 v=0
48644 Off ch=1 n=59 v=0
48645 On ch=1 n=67 v=62
48645 On ch=1 n=53 v=56
48645 On ch=1 n=57 v=70
48877 Off ch=1 n=67 v=0
48893 On ch=1 n=79 v=62
49121 Off ch=1 n=53 v=0
49136 Off ch=1 n=79 v=0
49151 Off ch=1 n=57 v=0
49156 On ch=1 n=41 v=69
49667 Off ch=1 n=41 v=0
49698 On ch=1 n=48 v=64
50175 Off ch=1 n=48 v=0
50206 On ch=1 n=53 v=65
50680 Off ch=1 n=53 v=0
50711 On ch=1 n=55 v=64
51190 Off ch=1 n=55 v=0
51221 On ch=1 n=53 v=59
51221 On ch=1 n=57 v=73
51712 On ch=1 n=48 v=64
51731 On ch=1 n=83 v=62
52205 Off ch=1 n=83 v=0
52224 Off ch=1 n=48 v=0
52224 On ch=1 n=50 v=64
52236 On ch=1 n=84 v=63
52710 Off ch=1 n=84 v=0
52736 Off ch=1 n=50 v=0
52736 On ch=1 n=48 v=64
52741 On ch=1 n=91 v=62
53247 Off ch=1 n=57 v=0
53247 Off ch=1 n=53 v=0
53247 Off ch=1 n=91 v=0
53248 Off ch=1 n=48 v=0
53252 On ch=1 n=91 v=67
53252 On ch=1 n=47 v=69
53763 Off ch=1 n=47 v=0
53763 Off ch=1 n=91 v=0
53794 On ch=1 n=83 v=62
53794 On ch=1 n=55 v=64
54271 Off ch=1 n=55 v=0
54271 Off ch=1 n=83 v=0
54302 On ch=1 n=84 v=63
54302 On ch=1 n=59 v=65
54776 Off ch=1 n=59 v=0
54776 Off ch=1 n=84 v=0
54807 On ch=1 n=91 v=62
54807 On ch=1 n=60 v=64
55286 Off ch=1 n=60 v=0
55316 Off ch=1 n=91 v=0
55317 On ch=1 n=91 v=65
55317 On ch=1 n=59 v=59
55317 On ch=1 n=62 v=73
56331 Off ch=1 n=62 v=0
56331 Off ch=1 n=59 v=0
56332 On ch=1 n=60 v=57
56332 On ch=1 n=64 v=71
56806 Off ch=1 n=60 v=0
56836 Off ch=1 n=64 v=0
56837 On ch=1 n=62 v=64
57313 Off ch=1 n=62 v=0
57343 Off ch=1 n=91 v=0
57348 On ch=1 n=40 v=68
57859 Off ch=1 n=40 v=0
57890 On ch=1 n=47 v=64
58367 Off ch=1 n=47 v=0
58398 On ch=1 n=52 v=65
58872 Off ch=1 n=52 v=0
58903 On ch=1 n=84 v=62
58903 On ch=1 n=54 v=64
59382 Off ch=1 n=54 v=0
59382 Off ch=1 n=84 v=0
59413 On ch=1 n=83 v=65
59413 On ch=1 n=52 v=59
59413 On ch=1 n=55 v=73
59892 Off ch=1 n=83 v=0
59923 On ch=1 n=79 v=62
60397 Off ch=1 n=79 v=0
60427 Off ch=1 n=55 v=0
60427 Off ch=1 n=52 v=0
60428 On ch=1 n=76 v=63
60428 On ch=1 n=48 v=65
60902 Off ch=1 n=48 v=0
60902 Off ch=1 n=76 v=0
60933 On ch=1 n=81 v=62
60933 On ch=1 n=47 v=64
61409 Off ch=1 n=47 v=0
61439 Off ch=1 n=81 v=0
61444 On ch=1 n=81 v=67
61444 On ch=1 n=45 v=69
61955 Off ch=1 n=45 v=0
61986 On ch=1 n=52 v=64
62463 Off ch=1 n=52 v=0
62494 On ch=1 n=57 v=57
62494 On ch=1 n=60 v=71
63508 Off ch=1 n=60 v=0
63508 Off ch=1 n=57 v=0
63508 Off ch=1 n=81 v=0
63509 On ch=1 n=43 v=67
63988 Off ch=1 n=43 v=0
64019 On ch=1 n=50 v=56
64019 On ch=1 n=60 v=70
64493 Off ch=1 n=50 v=0
64523 Off ch=1 n=60 v=0
64524 On ch=1 n=55 v=57
64524 On ch=1 n=59 v=71
64998 Off ch=1 n=55 v=0
65028 Off ch=1 n=59 v=0
65029 On ch=1 n=67 v=62
65029 On ch=1 n=53 v=56
65029 On ch=1 n=57 v=70
65261 Off ch=1 n=67 v=0
65277 On ch=1 n=79 v=62
65505 Off ch=1 n=53 v=0
65520 Off ch=1 n=79 v=0
65535 Off ch=1 n=57 v=0
65540 On ch=1 n=41 v=69
66051 Off ch=1 n=41 v=0
66082 On ch=1 n=48 v=64
66559 Off ch=1 n=48 v=0
66590 On ch=1 n=53 v=65
67064 Off ch=1 n=53 v=0
67095 On ch=1 n=55 v=64
67574 Off ch=1 n=55 v=0
67605 On ch=1 n=53 v=59
67605 On ch=1 n=57 v=73
68084 Off ch=1 n=53 v=0
68114 Off ch=1 n=57 v=0
68115 On ch=1 n=59 v=64
68589 Off ch=1 n=59 v=0
68620 On ch=1 n=67 v=63
68620 On ch=1 n=57 v=57
68620 On ch=1 n=60 v=71
69094 Off ch=1 n=67 v=0
69125 On ch=1 n=76 v=62
69601 Off ch=1 n=76 v=0
69631 Off ch=1 n=60 v=0
69631 Off ch=1 n=57 v=0
69636 On ch=1 n=74 v=62
69636 On ch=1 n=47 v=69
70147 Off ch=1 n=47 v=0
70178 On ch=1 n=55 v=64
70655 Off ch=1 n=55 v=0
70686 On ch=1 n=59 v=65
71160 Off ch=1 n=59 v=0
71191 On ch=1 n=60 v=64
71670 Off ch=1 n=60 v=0
71701 On ch=1 n=59 v=59
71701 On ch=1 n=62 v=73
72715 Off ch=1 n=62 v=0
72715 Off ch=1 n=59 v=0
72715 Off ch=1 n=74 v=0
72716 On ch=1 n=67 v=63
72716 On ch=1 n=57 v=57
72716 On ch=1 n=60 v=71
73190 Off ch=1 n=57 v=0
73190 Off ch=1 n=67 v=0
73220 Off ch=1 n=60 v=0
73221 On ch=1 n=79 v=62
73221 On ch=1 n=59 v=64
73697 Off ch=1 n=59 v=0
73727 Off ch=1 n=79 v=0
73732 On ch=1 n=79 v=67
73732 On ch=1 n=40 v=68
74243 Off ch=1 n=40 v=0
74274 On ch=1 n=47 v=64
74751 Off ch=1 n=47 v=0
74782 On ch=1 n=52 v=65
75256 Off ch=1 n=52 v=0
75287 On ch=1 n=54 v=64
75766 Off ch=1 n=54 v=0
75796 Off ch=1 n=79 v=0
75797 On ch=1 n=79 v=65
75797 On ch=1 n=52 v=59
75797 On ch=1 n=55 v=73
76554 Off ch=1 n=79 v=0
76555 On ch=1 n=77 v=62
76811 Off ch=1 n=55 v=0
76811 Off ch=1 n=52 v=0
76812 On ch=1 n=55 v=57
76812 On ch=1 n=59 v=71
77286 Off ch=1 n=55 v=0
77286 Off ch=1 n=77 v=0
77316 Off ch=1 n=59 v=0
77317 On ch=1 n=76 v=62
77317 On ch=1 n=60 v=64
77793 Off ch=1 n=60 v=0
77793 Off ch=1 n=76 v=0
77828 On ch=1 n=74 v=67
77828 On ch=1 n=45 v=69
78339 Off ch=1 n=45 v=0
78370 On ch=1 n=52 v=64
78847 Off ch=1 n=52 v=0
78878 On ch=1 n=57 v=57
78878 On ch=1 n=60 v=71
79352 Off ch=1 n=57 v=0
79382 Off ch=1 n=60 v=0
79382 Off ch=1 n=74 v=0
79383 On ch=1 n=76 v=62
79383 On ch=1 n=59 v=64
79615 Off ch=1 n=76 v=0
79631 On ch=1 n=74 v=62
79862 Off ch=1 n=59 v=0
79877 Off ch=1 n=74 v=0
79893 On ch=1 n=72 v=65
79893 On ch=1 n=43 v=67
80372 Off ch=1 n=43 v=0
80403 On ch=1 n=50 v=64
80650 Off ch=1 n=72 v=0
80651 On ch=1 n=71 v=62
80877 Off ch=1 n=50 v=0
80908 On ch=1 n=55 v=57
80908 On ch=1 n=59 v=71
81382 Off ch=1 n=55 v=0
81382 Off ch=1 n=71 v=0
81412 Off ch=1 n=59 v=0
81413 On ch=1 n=72 v=62
81413 On ch=1 n=57 v=64
81889 Off ch=1 n=57 v=0
81889 Off ch=1 n=72 v=0
81924 On ch=1 n=81 v=67
81924 On ch=1 n=41 v=69
82435 Off ch=1 n=41 v=0
82466 On ch=1 n=48 v=64
82943 Off ch=1 n=48 v=0
82974 On ch=1 n=53 v=65
83448 Off ch=1 n=53 v=0
83479 On ch=1 n=55 v=64
83958 Off ch=1 n=55 v=0
83988 Off ch=1 n=81 v=0
83989 On ch=1 n=53 v=59
83989 On ch=1 n=57 v=73
84468 Off ch=1 n=53 v=0
84498 Off ch=1 n=57 v=0
84499 On ch=1 n=81 v=62
84499 On ch=1 n=59 v=64
84973 Off ch=1 n=59 v=0
85003 Off ch=1 n=81 v=0
85004 On ch=1 n=81 v=63
85004 On ch=1 n=57 v=57
85004 On ch=1 n=60 v=71
85478 Off ch=1 n=81 v=0
85509 On ch=1 n=76 v=62
85985 Off ch=1 n=76 v=0
86015 Off ch=1 n=60 v=0
86015 Off ch=1 n=57 v=0
86020 On ch=1 n=74 v=67
86020 On ch=1 n=47 v=69
86531 Off ch=1 n=47 v=0
86531 Off ch=1 n=74 v=0
86562 On ch=1 n=93 v=62
86562 On ch=1 n=55 v=64
87039 Off ch=1 n=55 v=0
87069 Off ch=1 n=93 v=0
87070 On ch=1 n=93 v=63
87070 On ch=1 n=59 v=65
87544 Off ch=1 n=59 v=0
87544 Off ch=1 n=93 v=0
87575 On ch=1 n=88 v=62
87575 On ch=1 n=60 v=64
88054 Off ch=1 n=60 v=0
88054 Off ch=1 n=88 v=0
88085 On ch=1 n=86 v=65
88085 On ch=1 n=59 v=59
88085 On ch=1 n=62 v=73
89099 Off ch=1 n=62 v=0
89099 Off ch=1 n=59 v=0
89099 Off ch=1 n=86 v=0
89100 On ch=1 n=67 v=63
89100 On ch=1 n=57 v=57
89100 On ch=1 n=60 v=71
89574 Off ch=1 n=57 v=0
89574 Off ch=1 n=67 v=0
89604 Off ch=1 n=60 v=0
89605 On ch=1 n=79 v=62
89605 On ch=1 n=59 v=64
90081 Off ch=1 n=59 v=0
90111 Off ch=1 n=79 v=0
90116 On ch=1 n=79 v=67
90116 On ch=1 n=40 v=68
90627 Off ch=1 n=40 v=0
90658 On ch=1 n=47 v=64
91135 Off ch=1 n=47 v=0
91166 On ch=1 n=52 v=65
91640 Off ch=1 n=52 v=0
91671 On ch=1 n=54 v=64
92150 Off ch=1 n=54 v=0
92180 Off ch=1 n=79 v=0
92181 On ch=1 n=71 v=57
92181 On ch=1 n=79 v=71
92181 On ch=1 n=52 v=59
92181 On ch=1 n=55 v=73
92660 Off ch=1 n=52 v=0
92690 Off ch=1 n=55 v=0
92691 On ch=1 n=57 v=64
92938 Off ch=1 n=71 v=0
92938 Off ch=1 n=79 v=0
92939 On ch=1 n=72 v=54
92939 On ch=1 n=81 v=68
93165 Off ch=1 n=57 v=0
93196 On ch=1 n=55 v=57
93196 On ch=1 n=59 v=71
93670 Off ch=1 n=72 v=0
93700 Off ch=1 n=81 v=0
93701 On ch=1 n=74 v=54
93701 On ch=1 n=83 v=68
94207 Off ch=1 n=59 v=0
94207 Off ch=1 n=55 v=0
94207 Off ch=1 n=74 v=0
94207 Off ch=1 n=83 v=0
94212 On ch=1 n=74 v=59
94212 On ch=1 n=83 v=73
94212 On ch=1 n=45 v=69
94723 Off ch=1 n=45 v=0
94754 On ch=1 n=52 v=64
95231 Off ch=1 n=52 v=0
95261 Off ch=1 n=74 v=0
95261 Off ch=1 n=83 v=0
95262 On ch=1 n=76 v=55
95262 On ch=1 n=84 v=69
95262 On ch=1 n=57 v=57
95262 On ch=1 n=60 v=71
95736 Off ch=1 n=57 v=0
95736 Off ch=1 n=76 v=0
95766 Off ch=1 n=60 v=0
95766 Off ch=1 n=84 v=0
95767 On ch=1 n=74 v=54
95767 On ch=1 n=83 v=68
95767 On ch=1 n=59 v=64
96246 Off ch=1 n=59 v=0
96277 On ch=1 n=43 v=67
96756 Off ch=1 n=43 v=0
96756 Off ch=1 n=74 v=0
96786 Off ch=1 n=83 v=0
96787 On ch=1 n=71 v=54
96787 On ch=1 n=79 v=68
96787 On ch=1 n=50 v=64
97261 Off ch=1 n=50 v=0
97292 On ch=1 n=55 v=57
97292 On ch=1 n=59 v=71
97766 Off ch=1 n=55 v=0
97796 Off ch=1 n=59 v=0
97796 Off ch=1 n=71 v=0
97796 Off ch=1 n=79 v=0
97797 On ch=1 n=72 v=54
97797 On ch=1 n=76 v=68
97797 On ch=1 n=57 v=64
98273 Off ch=1 n=57 v=0
98273 Off ch=1 n=72 v=0
98303 Off ch=1 n=76 v=0
98308 On ch=1 n=69 v=59
98308 On ch=1 n=77 v=59
98308 On ch=1 n=81 v=73
98308 On ch=1 n=38 v=68
98819 Off ch=1 n=38 v=0
98850 On ch=1 n=45 v=64
99327 Off ch=1 n=45 v=0
99358 On ch=1 n=50 v=65
99832 Off ch=1 n=50 v=0
99863 On ch=1 n=52 v=64
100342 Off ch=1 n=52 v=0
100372 Off ch=1 n=69 v=0
100372 Off ch=1 n=77 v=0
100372 Off ch=1 n=81 v=0
100373 On ch=1 n=72 v=65
100373 On ch=1 n=50 v=59
100373 On ch=1 n=53 v=73
101130 Off ch=1 n=72 v=0
101131 On ch=1 n=74 v=62
101387 Off ch=1 n=53 v=0
101387 Off ch=1 n=50 v=0
101388 On ch=1 n=53 v=57
101388 On ch=1 n=57 v=71
101862 Off ch=1 n=53 v=0
101862 Off ch=1 n=74 v=0
101892 Off ch=1 n=57 v=0
101893 On ch=1 n=76 v=62
101893 On ch=1 n=55 v=64
102369 Off ch=1 n=55 v=0
102369 Off ch=1 n=76 v=0
102404 On ch=1 n=79 v=67
102404 On ch=1 n=40 v=68
102915 Off ch=1 n=40 v=0
102946 On ch=1 n=47 v=64
103423 Off ch=1 n=47 v=0
103454 On ch=1 n=52 v=65
103928 Off ch=1 n=52 v=0
103958 Off ch=1 n=79 v=0
103959 On ch=1 n=72 v=62
103959 On ch=1 n=54 v=64
104438 Off ch=1 n=54 v=0
104438 Off ch=1 n=72 v=0
104469 On ch=1 n=71 v=65
104469 On ch=1 n=52 v=59
104469 On ch=1 n=55 v=73
105226 Off ch=1 n=71 v=0
105227 On ch=1 n=72 v=62
105483 Off ch=1 n=55 v=0
105483 Off ch=1 n=52 v=0
105484 On ch=1 n=55 v=57
105484 On ch=1 n=59 v=71
105958 Off ch=1 n=55 v=0
105958 Off ch=1 n=72 v=0
105988 Off ch=1 n=59 v=0
105989 On ch=1 n=76 v=62
105989 On ch=1 n=57 v=64
106465 Off ch=1 n=57 v=0
106465 Off ch=1 n=76 v=0
106500 On ch=1 n=81 v=67
106500 On ch=1 n=41 v=69
107011 Off ch=1 n=41 v=0
107042 On ch=1 n=48 v=64
107519 Off ch=1 n=48 v=0
107550 On ch=1 n=53 v=65
108024 Off ch=1 n=53 v=0
108054 Off ch=1 n=81 v=0
108055 On ch=1 n=72 v=62
108055 On ch=1 n=55 v=64
108534 Off ch=1 n=55 v=0
108534 Off ch=1 n=72 v=0
108565 On ch=1 n=69 v=65
108565 On ch=1 n=53 v=59
108565 On ch=1 n=57 v=73
109322 Off ch=1 n=69 v=0
109323 On ch=1 n=71 v=62
109579 Off ch=1 n=57 v=0
109579 Off ch=1 n=53 v=0
109580 On ch=1 n=55 v=57
109580 On ch=1 n=59 v=71
110054 Off ch=1 n=71 v=0
110085 On ch=1 n=72 v=62
110561 Off ch=1 n=72 v=0
110591 Off ch=1 n=59 v=0
110591 Off ch=1 n=55 v=0
110596 On ch=1 n=76 v=67
110596 On ch=1 n=43 v=69
111107 Off ch=1 n=43 v=0
111138 On ch=1 n=50 v=64
111615 Off ch=1 n=50 v=0
111645 Off ch=1 n=76 v=0
111646 On ch=1 n=74 v=55
111646 On ch=1 n=77 v=69
111646 On ch=1 n=55 v=65
112120 Off ch=1 n=55 v=0
112120 Off ch=1 n=74 v=0
112150 Off ch=1 n=77 v=0
112151 On ch=1 n=72 v=54
112151 On ch=1 n=76 v=68
112151 On ch=1 n=57 v=64
112630 Off ch=1 n=57 v=0
112661 On ch=1 n=48 v=58
112661 On ch=1 n=55 v=58
112661 On ch=1 n=59 v=72
113140 Off ch=1 n=55 v=0
113140 Off ch=1 n=48 v=0
113140 Off ch=1 n=72 v=0
113170 Off ch=1 n=59 v=0
113170 Off ch=1 n=76 v=0
113171 On ch=1 n=71 v=58
113171 On ch=1 n=74 v=72
113171 On ch=1 n=52 v=63
113171 On ch=1 n=57 v=63
113171 On ch=1 n=60 v=77
113645 Off ch=1 n=57 v=0
113645 Off ch=1 n=52 v=0
113675 Off ch=1 n=60 v=0
113676 On ch=1 n=55 v=67
113676 On ch=1 n=59 v=67
113676 On ch=1 n=62 v=81
114150 Off ch=1 n=59 v=0
114180 Off ch=1 n=62 v=0
114180 Off ch=1 n=55 v=0
114180 Off ch=1 n=71 v=0
114180 Off ch=1 n=74 v=0
114181 On ch=1 n=69 v=64
114181 On ch=1 n=72 v=78
114181 On ch=1 n=55 v=72
114181 On ch=1 n=60 v=72
114181 On ch=1 n=64 v=86
114657 Off ch=1 n=60 v=0
114657 Off ch=1 n=55 v=0
114687 Off ch=1 n=64 v=0
114687 Off ch=1 n=69 v=0
114687 Off ch=1 n=72 v=0
114692 On ch=1 n=64 v=67
114692 On ch=1 n=69 v=67
114692 On ch=1 n=72 v=67
114692 On ch=1 n=76 v=81
114692 On ch=1 n=45 v=81
114692 On ch=1 n=57 v=95
115741 Off ch=1 n=57 v=0
115741 Off ch=1 n=45 v=0
115742 On ch=1 n=52 v=77
115742 On ch=1 n=57 v=77
115742 On ch=1 n=60 v=91
116216 Off ch=1 n=57 v=0
116216 Off ch=1 n=52 v=0
116246 Off ch=1 n=60 v=0
116247 On ch=1 n=45 v=84
116494 Off ch=1 n=45 v=0
116495 On ch=1 n=45 v=84
116741 Off ch=1 n=45 v=0
117020 On ch=1 n=45 v=84
117266 Off ch=1 n=45 v=0
117267 On ch=1 n=45 v=84
117741 Off ch=1 n=45 v=0
117772 On ch=1 n=52 v=77
117772 On ch=1 n=57 v=77
117772 On ch=1 n=60 v=91
118246 Off ch=1 n=57 v=0
118246 Off ch=1 n=52 v=0
118276 Off ch=1 n=60 v=0
118277 On ch=1 n=45 v=84
118783 Off ch=1 n=45 v=0
118783 Off ch=1 n=64 v=0
118783 Off ch=1 n=69 v=0
118783 Off ch=1 n=72 v=0
118783 Off ch=1 n=76 v=0
118788 On ch=1 n=45 v=89
119837 Off ch=1 n=45 v=0
119838 On ch=1 n=52 v=77
119838 On ch=1 n=57 v=77
119838 On ch=1 n=60 v=91
120312 Off ch=1 n=57 v=0
120312 Off ch=1 n=52 v=0
120342 Off ch=1 n=60 v=0
120343 On ch=1 n=45 v=84
120590 Off ch=1 n=45 v=0
120591 On ch=1 n=45 v=84
120837 Off ch=1 n=45 v=0
121116 On ch=1 n=45 v=84
121362 Off ch=1 n=45 v=0
121363 On ch=1 n=45 v=84
121837 Off ch=1 n=45 v=0
121868 On ch=1 n=52 v=77
121868 On ch=1 n=57 v=77
121868 On ch=1 n=60 v=91
122342 Off ch=1 n=57 v=0
122342 Off ch=1 n=52 v=0
122372 Off ch=1 n=60 v=0
122373 On ch=1 n=45 v=84
122849 Off ch=1 n=45 v=0
122884 On ch=1 n=36 v=87
123933 Off ch=1 n=36 v=0
123934 On ch=1 n=52 v=77
123934 On ch=1 n=55 v=77
123934 On ch=1 n=60 v=91
124408 Off ch=1 n=55 v=0
124408 Off ch=1 n=52 v=0
124438 Off ch=1 n=60 v=0
124439 On ch=1 n=36 v=82
124686 Off ch=1 n=36 v=0
124687 On ch=1 n=36 v=82
124933 Off ch=1 n=36 v=0
125212 On ch=1 n=36 v=82
125458 Off ch=1 n=36 v=0
125459 On ch=1 n=36 v=82
125933 Off ch=1 n=36 v=0
125964 On ch=1 n=52 v=77
125964 On ch=1 n=55 v=77
125964 On ch=1 n=60 v=91
126438 Off ch=1 n=55 v=0
126438 Off ch=1 n=52 v=0
126468 Off ch=1 n=60 v=0
126469 On ch=1 n=36 v=82
126975 Off ch=1 n=36 v=0
126980 On ch=1 n=36 v=87
128029 Off ch=1 n=36 v=0
128030 On ch=1 n=52 v=77
128030 On ch=1 n=55 v=77
128030 On ch=1 n=60 v=91
128504 Off ch=1 n=55 v=0
128504 Off ch=1 n=52 v=0
128534 Off ch=1 n=60 v=0
128535 On ch=1 n=36 v=82
128782 Off ch=1 n=36 v=0
128783 On ch=1 n=36 v=82
129029 Off ch=1 n=36 v=0
129308 On ch=1 n=36 v=82
129554 Off ch=1 n=36 v=0
129555 On ch=1 n=36 v=82
130029 Off ch=1 n=36 v=0
130060 On ch=1 n=52 v=77
130060 On ch=1 n=55 v=77
130060 On ch=1 n=60 v=91
130534 Off ch=1 n=55 v=0
130534 Off ch=1 n=52 v=0
130564 Off ch=1 n=60 v=0
130565 On ch=1 n=36 v=82
131041 Off ch=1 n=36 v=0
131076 On ch=1 n=45 v=89
131369 On ch=1 n=64 v=67
131369 On ch=1 n=69 v=67
131369 On ch=1 n=72 v=77
131617 Off ch=1 n=64 v=0
131617 Off ch=1 n=69 v=0
131617 Off ch=1 n=72 v=0
131618 On ch=1 n=64 v=67
131618 On ch=1 n=69 v=67
131618 On ch=1 n=72 v=77
131818 Off ch=1 n=64 v=0
131818 Off ch=1 n=69 v=0
131818 Off ch=1 n=72 v=0
132125 Off ch=1 n=45 v=0
132126 On ch=1 n=64 v=68
132126 On ch=1 n=69 v=68
132126 On ch=1 n=72 v=78
132126 On ch=1 n=52 v=77
132126 On ch=1 n=57 v=77
132126 On ch=1 n=60 v=91
132323 Off ch=1 n=64 v=0
132323 Off ch=1 n=69 v=0
132323 Off ch=1 n=72 v=0
132600 Off ch=1 n=57 v=0
132600 Off ch=1 n=52 v=0
132630 Off ch=1 n=60 v=0
132631 On ch=1 n=64 v=67
132631 On ch=1 n=69 v=67
132631 On ch=1 n=72 v=77
132631 On ch=1 n=45 v=84
132878 Off ch=1 n=45 v=0
132878 Off ch=1 n=64 v=0
132878 Off ch=1 n=69 v=0
132878 Off ch=1 n=72 v=0
132879 On ch=1 n=64 v=67
132879 On ch=1 n=69 v=67
132879 On ch=1 n=72 v=77
132879 On ch=1 n=45 v=84
133125 Off ch=1 n=45 v=0
133125 Off ch=1 n=64 v=0
133125 Off ch=1 n=69 v=0
133140 Off ch=1 n=72 v=0
133404 On ch=1 n=64 v=67
133404 On ch=1 n=69 v=67
133404 On ch=1 n=72 v=77
133404 On ch=1 n=45 v=84
133635 Off ch=1 n=64 v=0
133635 Off ch=1 n=69 v=0
133650 Off ch=1 n=45 v=0
133650 Off ch=1 n=72 v=0
133651 On ch=1 n=45 v=84
133899 On ch=1 n=64 v=67
133899 On ch=1 n=69 v=67
133899 On ch=1 n=72 v=77
134125 Off ch=1 n=45 v=0
134155 Off ch=1 n=64 v=0
134155 Off ch=1 n=69 v=0
134155 Off ch=1 n=72 v=0
134156 On ch=1 n=64 v=68
134156 On ch=1 n=69 v=68
134156 On ch=1 n=72 v=78
134156 On ch=1 n=52 v=77
134156 On ch=1 n=57 v=77
134156 On ch=1 n=60 v=91
134353 Off ch=1 n=64 v=0
134353 Off ch=1 n=69 v=0
134353 Off ch=1 n=72 v=0
134630 Off ch=1 n=57 v=0
134630 Off ch=1 n=52 v=0
134660 Off ch=1 n=60 v=0
134661 On ch=1 n=64 v=67
134661 On ch=1 n=69 v=67
134661 On ch=1 n=72 v=77
134661 On ch=1 n=45 v=84
134908 Off ch=1 n=64 v=0
134908 Off ch=1 n=69 v=0
134908 Off ch=1 n=72 v=0
134909 On ch=1 n=64 v=67
134909 On ch=1 n=69 v=67
134909 On ch=1 n=72 v=77
135152 Off ch=1 n=64 v=0
135152 Off ch=1 n=69 v=0
135167 Off ch=1 n=45 v=0
135167 Off ch=1 n=72 v=0
135172 On ch=1 n=45 v=89
135465 On ch=1 n=64 v=67
135465 On ch=1 n=69 v=67
135465 On ch=1 n=72 v=77
135713 Off ch=1 n=64 v=0
135713 Off ch=1 n=69 v=0
135713 Off ch=1 n=72 v=0
135714 On ch=1 n=64 v=67
135714 On ch=1 n=69 v=67
135714 On ch=1 n=72 v=77
135914 Off ch=1 n=64 v=0
135914 Off ch=1 n=69 v=0
135914 Off ch=1 n=72 v=0
136221 Off ch=1 n=45 v=0
136222 On ch=1 n=64 v=68
136222 On ch=1 n=69 v=68
136222 On ch=1 n=72 v=78
136222 On ch=1 n=52 v=77
136222 On ch=1 n=57 v=77
136222 On ch=1 n=60 v=91
136419 Off ch=1 n=64 v=0
136419 Off ch=1 n=69 v=0
136419 Off ch=1 n=72 v=0
136696 Off ch=1 n=57 v=0
136696 Off ch=1 n=52 v=0
136726 Off ch=1 n=60 v=0
136727 On ch=1 n=64 v=67
136727 On ch=1 n=69 v=67
136727 On ch=1 n=72 v=77
136727 On ch=1 n=45 v=84
136974 Off ch=1 n=45 v=0
136974 Off ch=1 n=64 v=0
136974 Off ch=1 n=69 v=0
136974 Off ch=1 n=72 v=0
136975 On ch=1 n=64 v=67
136975 On ch=1 n=69 v=67
136975 On ch=1 n=72 v=77
136975 On ch=1 n=45 v=84
137221 Off ch=1 n=45 v=0
137221 Off ch=1 n=64 v=0
137221 Off ch=1 n=69 v=0
137236 Off ch=1 n=72 v=0
137500 On ch=1 n=64 v=67
137500 On ch=1 n=69 v=67
137500 On ch=1 n=72 v=77
137500 On ch=1 n=45 v=84
137731 Off ch=1 n=64 v=0
137731 Off ch=1 n=69 v=0
137746 Off ch=1 n=45 v=0
137746 Off ch=1 n=72 v=0
137747 On ch=1 n=45 v=84
137995 On ch=1 n=64 v=67
137995 On ch=1 n=69 v=67
137995 On ch=1 n=72 v=77
138221 Off ch=1 n=45 v=0
138251 Off ch=1 n=64 v=0
138251 Off ch=1 n=69 v=0
138251 Off ch=1 n=72 v=0
138252 On ch=1 n=64 v=68
138252 On ch=1 n=69 v=68
138252 On ch=1 n=72 v=78
138252 On ch=1 n=52 v=77
138252 On ch=1 n=57 v=77
138252 On ch=1 n=60 v=91
138449 Off ch=1 n=64 v=0
138449 Off ch=1 n=69 v=0
138449 Off ch=1 n=72 v=0
138726 Off ch=1 n=57 v=0
138726 Off ch=1 n=52 v=0
138756 Off ch=1 n=60 v=0
138757 On ch=1 n=64 v=67
138757 On ch=1 n=69 v=67
138757 On ch=1 n=72 v=77
138757 On ch=1 n=45 v=84
139004 Off ch=1 n=64 v=0
139004 Off ch=1 n=69 v=0
139004 Off ch=1 n=72 v=0
139005 On ch=1 n=64 v=67
139005 On ch=1 n=69 v=67
139005 On ch=1 n=72 v=81
139233 Off ch=1 n=45 v=0
139248 Off ch=1 n=64 v=0
139248 Off ch=1 n=69 v=0
139263 Off ch=1 n=72 v=0
139268 On ch=1 n=36 v=87
139561 On ch=1 n=67 v=67
139561 On ch=1 n=72 v=67
139561 On ch=1 n=76 v=81
139809 Off ch=1 n=67 v=0
139809 Off ch=1 n=72 v=0
139809 Off ch=1 n=76 v=0
139810 On ch=1 n=67 v=67
139810 On ch=1 n=72 v=67
139810 On ch=1 n=76 v=77
140010 Off ch=1 n=67 v=0
140010 Off ch=1 n=72 v=0
140010 Off ch=1 n=76 v=0
140317 Off ch=1 n=36 v=0
140318 On ch=1 n=67 v=68
140318 On ch=1 n=72 v=68
140318 On ch=1 n=76 v=78
140318 On ch=1 n=52 v=77
140318 On ch=1 n=55 v=77
140318 On ch=1 n=60 v=91
140515 Off ch=1 n=67 v=0
140515 Off ch=1 n=72 v=0
140515 Off ch=1 n=76 v=0
140792 Off ch=1 n=55 v=0
140792 Off ch=1 n=52 v=0
140822 Off ch=1 n=60 v=0
140823 On ch=1 n=67 v=67
140823 On ch=1 n=72 v=67
140823 On ch=1 n=76 v=77
140823 On ch=1 n=36 v=82
141070 Off ch=1 n=36 v=0
141070 Off ch=1 n=67 v=0
141070 Off ch=1 n=72 v=0
141070 Off ch=1 n=76 v=0
141071 On ch=1 n=67 v=67
141071 On ch=1 n=72 v=67
141071 On ch=1 n=76 v=77
141071 On ch=1 n=36 v=82
141317 Off ch=1 n=36 v=0
141317 Off ch=1 n=67 v=0
141317 Off ch=1 n=72 v=0
141332 Off ch=1 n=76 v=0
141596 On ch=1 n=67 v=67
141596 On ch=1 n=72 v=67
141596 On ch=1 n=76 v=77
141596 On ch=1 n=36 v=82
141827 Off ch=1 n=67 v=0
141827 Off ch=1 n=72 v=0
141842 Off ch=1 n=36 v=0
141842 Off ch=1 n=76 v=0
141843 On ch=1 n=36 v=82
142091 On ch=1 n=67 v=67
142091 On ch=1 n=72 v=67
142091 On ch=1 n=76 v=77
142317 Off ch=1 n=36 v=0
142347 Off ch=1 n=67 v=0
142347 Off ch=1 n=72 v=0
142347 Off ch=1 n=76 v=0
142348 On ch=1 n=67 v=68
142348 On ch=1 n=72 v=68
142348 On ch=1 n=76 v=78
142348 On ch=1 n=52 v=77
142348 On ch=1 n=55 v=77
142348 On ch=1 n=60 v=91
142545 Off ch=1 n=67 v=0
142545 Off ch=1 n=72 v=0
142545 Off ch=1 n=76 v=0
142822 Off ch=1 n=55 v=0
142822 Off ch=1 n=52 v=0
142852 Off ch=1 n=60 v=0
142853 On ch=1 n=67 v=67
142853 On ch=1 n=72 v=67
142853 On ch=1 n=76 v=77
142853 On ch=1 n=36 v=82
143100 Off ch=1 n=67 v=0
143100 Off ch=1 n=72 v=0
143100 Off ch=1 n=76 v=0
143101 On ch=1 n=67 v=67
143101 On ch=1 n=72 v=67
143101 On ch=1 n=76 v=77
143344 Off ch=1 n=67 v=0
143344 Off ch=1 n=72 v=0
143359 Off ch=1 n=36 v=0
143359 Off ch=1 n=76 v=0
143364 On ch=1 n=36 v=87
143657 On ch=1 n=67 v=67
143657 On ch=1 n=72 v=67
143657 On ch=1 n=76 v=77
143905 Off ch=1 n=67 v=0
143905 Off ch=1 n=72 v=0
143905 Off ch=1 n=76 v=0
143906 On ch=1 n=67 v=67
143906 On ch=1 n=72 v=67
143906 On ch=1 n=76 v=77
144106 Off ch=1 n=67 v=0
144106 Off ch=1 n=72 v=0
144106 Off ch=1 n=76 v=0
144413 Off ch=1 n=36 v=0
144414 On ch=1 n=67 v=68
144414 On ch=1 n=72 v=68
144414 On ch=1 n=76 v=78
144414 On ch=1 n=52 v=77
144414 On ch=1 n=55 v=77
144414 On ch=1 n=60 v=91
144611 Off ch=1 n=67 v=0
144611 Off ch=1 n=72 v=0
144611 Off ch=1 n=76 v=0
144888 Off ch=1 n=55 v=0
144888 Off ch=1 n=52 v=0
144918 Off ch=1 n=60 v=0
144919 On ch=1 n=67 v=67
144919 On ch=1 n=72 v=67
144919 On ch=1 n=76 v=77
144919 On ch=1 n=36 v=82
145166 Off ch=1 n=36 v=0
145166 Off ch=1 n=67 v=0
145166 Off ch=1 n=72 v=0
145166 Off ch=1 n=76 v=0
145167 On ch=1 n=67 v=67
145167 On ch=1 n=72 v=67
145167 On ch=1 n=76 v=77
145167 On ch=1 n=36 v=82
145413 Off ch=1 n=36 v=0
145413 Off ch=1 n=67 v=0
145413 Off ch=1 n=72 v=0
145428 Off ch=1 n=76 v=0
145692 On ch=1 n=67 v=67
145692 On ch=1 n=72 v=67
145692 On ch=1 n=76 v=77
145692 On ch=1 n=36 v=82
145923 Off ch=1 n=67 v=0
145923 Off ch=1 n=72 v=0
145938 Off ch=1 n=36 v=0
145938 Off ch=1 n=76 v=0
145939 On ch=1 n=36 v=82
146187 On ch=1 n=67 v=67
146187 On ch=1 n=72 v=67
146187 On ch=1 n=76 v=77
146413 Off ch=1 n=36 v=0
146443 Off ch=1 n=67 v=0
146443 Off ch=1 n=72 v=0
146443 Off ch=1 n=76 v=0
146444 On ch=1 n=67 v=68
146444 On ch=1 n=72 v=68
146444 On ch=1 n=76 v=78
146444 On ch=1 n=52 v=77
146444 On ch=1 n=55 v=77
146444 On ch=1 n=60 v=91
146641 Off ch=1 n=67 v=0
146641 Off ch=1 n=72 v=0
146641 Off ch=1 n=76 v=0
146918 Off ch=1 n=55 v=0
146918 Off ch=1 n=52 v=0
146948 Off ch=1 n=60 v=0
146949 On ch=1 n=67 v=67
146949 On ch=1 n=72 v=67
146949 On ch=1 n=76 v=77
146949 On ch=1 n=36 v=82
147196 Off ch=1 n=67 v=0
147196 Off ch=1 n=72 v=0
147196 Off ch=1 n=76 v=0
147197 On ch=1 n=67 v=67
147197 On ch=1 n=72 v=67
147197 On ch=1 n=76 v=77
147425 Off ch=1 n=36 v=0
147440 Off ch=1 n=67 v=0
147440 Off ch=1 n=72 v=0
147455 Off ch=1 n=76 v=0
147460 On ch=1 n=41 v=89
148509 Off ch=1 n=41 v=0
148510 On ch=1 n=53 v=77
148510 On ch=1 n=57 v=77
148510 On ch=1 n=60 v=91
148984 Off ch=1 n=57 v=0
148984 Off ch=1 n=53 v=0
149014 Off ch=1 n=60 v=0
149015 On ch=1 n=41 v=84
149262 Off ch=1 n=41 v=0
149263 On ch=1 n=41 v=84
149509 Off ch=1 n=41 v=0
149525 On ch=1 n=74 v=78
149788 On ch=1 n=41 v=84
150004 Off ch=1 n=74 v=0
150034 Off ch=1 n=41 v=0
150035 On ch=1 n=76 v=75
150035 On ch=1 n=41 v=84
150509 Off ch=1 n=41 v=0
150509 Off ch=1 n=76 v=0
150540 On ch=1 n=74 v=76
150540 On ch=1 n=53 v=77
150540 On ch=1 n=57 v=77
150540 On ch=1 n=60 v=91
151014 Off ch=1 n=57 v=0
151014 Off ch=1 n=53 v=0
151014 Off ch=1 n=74 v=0
151044 Off ch=1 n=60 v=0
151045 On ch=1 n=72 v=75
151045 On ch=1 n=41 v=84
151277 Off ch=1 n=72 v=0
151293 On ch=1 n=74 v=75
151521 Off ch=1 n=41 v=0
151556 On ch=1 n=47 v=89
152067 Off ch=1 n=74 v=0
152098 On ch=1 n=76 v=75
152575 Off ch=1 n=76 v=0
152605 Off ch=1 n=47 v=0
152606 On ch=1 n=74 v=76
152606 On ch=1 n=55 v=77
152606 On ch=1 n=59 v=77
152606 On ch=1 n=62 v=91
153080 Off ch=1 n=59 v=0
153080 Off ch=1 n=55 v=0
153080 Off ch=1 n=74 v=0
153110 Off ch=1 n=62 v=0
153111 On ch=1 n=72 v=75
153111 On ch=1 n=47 v=84
153343 Off ch=1 n=72 v=0
153358 Off ch=1 n=47 v=0
153359 On ch=1 n=74 v=75
153359 On ch=1 n=47 v=84
153605 Off ch=1 n=47 v=0
153884 On ch=1 n=47 v=84
154100 Off ch=1 n=74 v=0
154130 Off ch=1 n=47 v=0
154131 On ch=1 n=76 v=75
154131 On ch=1 n=47 v=84
154605 Off ch=1 n=47 v=0
154605 Off ch=1 n=76 v=0
154636 On ch=1 n=74 v=76
154636 On ch=1 n=55 v=77
154636 On ch=1 n=59 v=77
154636 On ch=1 n=62 v=91
155110 Off ch=1 n=59 v=0
155110 Off ch=1 n=55 v=0
155110 Off ch=1 n=74 v=0
155140 Off ch=1 n=62 v=0
155141 On ch=1 n=72 v=75
155141 On ch=1 n=47 v=84
155373 Off ch=1 n=72 v=0
155389 On ch=1 n=74 v=75
155617 Off ch=1 n=47 v=0
155652 On ch=1 n=40 v=88
156163 Off ch=1 n=74 v=0
156194 On ch=1 n=76 v=75
156671 Off ch=1 n=76 v=0
156701 Off ch=1 n=40 v=0
156702 On ch=1 n=74 v=76
156702 On ch=1 n=52 v=77
156702 On ch=1 n=55 v=77
156702 On ch=1 n=59 v=91
157176 Off ch=1 n=55 v=0
157176 Off ch=1 n=52 v=0
157176 Off ch=1 n=74 v=0
157206 Off ch=1 n=59 v=0
157207 On ch=1 n=40 v=83
157454 Off ch=1 n=40 v=0
157455 On ch=1 n=40 v=83
157701 Off ch=1 n=40 v=0
157717 On ch=1 n=74 v=78
157980 On ch=1 n=40 v=83
158196 Off ch=1 n=74 v=0
158226 Off ch=1 n=40 v=0
158227 On ch=1 n=76 v=75
158227 On ch=1 n=40 v=83
158701 Off ch=1 n=40 v=0
158701 Off ch=1 n=76 v=0
158732 On ch=1 n=79 v=76
158732 On ch=1 n=52 v=77
158732 On ch=1 n=55 v=77
158732 On ch=1 n=59 v=91
159206 Off ch=1 n=55 v=0
159206 Off ch=1 n=52 v=0
159206 Off ch=1 n=79 v=0
159236 Off ch=1 n=59 v=0
159237 On ch=1 n=76 v=75
159237 On ch=1 n=40 v=83
159713 Off ch=1 n=40 v=0
159713 Off ch=1 n=76 v=0
159748 On ch=1 n=74 v=80
159748 On ch=1 n=45 v=89
160797 Off ch=1 n=45 v=0
160798 On ch=1 n=52 v=77
160798 On ch=1 n=57 v=77
160798 On ch=1 n=60 v=91
161272 Off ch=1 n=57 v=0
161272 Off ch=1 n=52 v=0
161302 Off ch=1 n=60 v=0
161302 Off ch=1 n=74 v=0
161303 On ch=1 n=76 v=75
161303 On ch=1 n=45 v=84
161535 Off ch=1 n=76 v=0
161550 Off ch=1 n=45 v=0
161551 On ch=1 n=74 v=75
161551 On ch=1 n=45 v=84
161797 Off ch=1 n=45 v=0
161797 Off ch=1 n=74 v=0
161813 On ch=1 n=72 v=78
161813 On ch=1 n=43 v=87
162827 Off ch=1 n=43 v=0
162827 Off ch=1 n=72 v=0
162828 On ch=1 n=71 v=76
162828 On ch=1 n=50 v=77
162828 On ch=1 n=55 v=77
162828 On ch=1 n=59 v=91
163302 Off ch=1 n=55 v=0
163302 Off ch=1 n=50 v=0
163302 Off ch=1 n=71 v=0
163332 Off ch=1 n=59 v=0
163333 On ch=1 n=72 v=75
163333 On ch=1 n=43 v=84
163580 Off ch=1 n=43 v=0
163581 On ch=1 n=43 v=84
163809 Off ch=1 n=72 v=0
163824 Off ch=1 n=43 v=0
163844 On ch=1 n=81 v=80
163844 On ch=1 n=41 v=89
164893 Off ch=1 n=41 v=0
164893 Off ch=1 n=81 v=0
164894 On ch=1 n=53 v=77
164894 On ch=1 n=57 v=77
164894 On ch=1 n=60 v=91
165368 Off ch=1 n=57 v=0
165368 Off ch=1 n=53 v=0
165398 Off ch=1 n=60 v=0
165399 On ch=1 n=41 v=84
165646 Off ch=1 n=41 v=0
165647 On ch=1 n=41 v=84
165893 Off ch=1 n=41 v=0
166172 On ch=1 n=41 v=84
166418 Off ch=1 n=41 v=0
166419 On ch=1 n=81 v=75
166419 On ch=1 n=41 v=84
166893 Off ch=1 n=41 v=0
166924 On ch=1 n=53 v=77
166924 On ch=1 n=57 v=77
166924 On ch=1 n=60 v=91
167398 Off ch=1 n=57 v=0
167398 Off ch=1 n=53 v=0
167428 Off ch=1 n=60 v=0
167428 Off ch=1 n=81 v=0
167429 On ch=1 n=76 v=75
167429 On ch=1 n=41 v=84
167905 Off ch=1 n=41 v=0
167905 Off ch=1 n=76 v=0
167940 On ch=1 n=74 v=80
167940 On ch=1 n=47 v=89
168989 Off ch=1 n=47 v=0
168989 Off ch=1 n=74 v=0
168990 On ch=1 n=55 v=77
168990 On ch=1 n=59 v=77
168990 On ch=1 n=62 v=91
169464 Off ch=1 n=59 v=0
169464 Off ch=1 n=55 v=0
169494 Off ch=1 n=62 v=0
169495 On ch=1 n=47 v=84
169742 Off ch=1 n=47 v=0
169743 On ch=1 n=47 v=84
169989 Off ch=1 n=47 v=0
170268 On ch=1 n=47 v=84
170514 Off ch=1 n=47 v=0
170515 On ch=1 n=67 v=75
170515 On ch=1 n=47 v=84
170989 Off ch=1 n=47 v=0
171020 On ch=1 n=55 v=77
171020 On ch=1 n=59 v=77
171020 On ch=1 n=62 v=91
171494 Off ch=1 n=59 v=0
171494 Off ch=1 n=55 v=0
171524 Off ch=1 n=62 v=0
171524 Off ch=1 n=67 v=0
171525 On ch=1 n=79 v=75
171525 On ch=1 n=47 v=84
172001 Off ch=1 n=47 v=0
172031 Off ch=1 n=79 v=0
172036 On ch=1 n=79 v=80
172036 On ch=1 n=40 v=88
173085 Off ch=1 n=40 v=0
173086 On ch=1 n=52 v=77
173086 On ch=1 n=55 v=77
173086 On ch=1 n=59 v=91
173560 Off ch=1 n=55 v=0
173560 Off ch=1 n=52 v=0
173590 Off ch=1 n=59 v=0
173591 On ch=1 n=40 v=83
173838 Off ch=1 n=40 v=0
173839 On ch=1 n=40 v=83
174085 Off ch=1 n=40 v=0
174100 Off ch=1 n=79 v=0
174101 On ch=1 n=79 v=78
174364 On ch=1 n=40 v=83
174610 Off ch=1 n=40 v=0
174611 On ch=1 n=40 v=83
174858 Off ch=1 n=79 v=0
174859 On ch=1 n=81 v=75
175085 Off ch=1 n=40 v=0
175116 On ch=1 n=52 v=77
175116 On ch=1 n=55 v=77
175116 On ch=1 n=59 v=91
175590 Off ch=1 n=55 v=0
175590 Off ch=1 n=52 v=0
175590 Off ch=1 n=81 v=0
175620 Off ch=1 n=59 v=0
175621 On ch=1 n=83 v=75
175621 On ch=1 n=40 v=83
176097 Off ch=1 n=40 v=0
176127 Off ch=1 n=83 v=0
176132 On ch=1 n=83 v=80
176132 On ch=1 n=45 v=89
177181 Off ch=1 n=45 v=0
177181 Off ch=1 n=83 v=0
177182 On ch=1 n=84 v=76
177182 On ch=1 n=52 v=77
177182 On ch=1 n=57 v=77
177182 On ch=1 n=60 v=91
177656 Off ch=1 n=57 v=0
177656 Off ch=1 n=52 v=0
177656 Off ch=1 n=84 v=0
177686 Off ch=1 n=60 v=0
177687 On ch=1 n=83 v=75
177687 On ch=1 n=45 v=84
177934 Off ch=1 n=45 v=0
177935 On ch=1 n=45 v=84
178181 Off ch=1 n=45 v=0
178197 On ch=1 n=43 v=87
178676 Off ch=1 n=83 v=0
178707 On ch=1 n=79 v=75
179181 Off ch=1 n=79 v=0
179211 Off ch=1 n=43 v=0
179212 On ch=1 n=76 v=76
179212 On ch=1 n=50 v=77
179212 On ch=1 n=55 v=77
179212 On ch=1 n=59 v=91
179686 Off ch=1 n=55 v=0
179686 Off ch=1 n=50 v=0
179686 Off ch=1 n=76 v=0
179716 Off ch=1 n=59 v=0
179717 On ch=1 n=81 v=75
179717 On ch=1 n=43 v=84
179964 Off ch=1 n=43 v=0
179965 On ch=1 n=43 v=84
180208 Off ch=1 n=43 v=0
180228 On ch=1 n=38 v=88
181277 Off ch=1 n=38 v=0
181278 On ch=1 n=50 v=77
181278 On ch=1 n=53 v=77
181278 On ch=1 n=57 v=91
181752 Off ch=1 n=53 v=0
181752 Off ch=1 n=50 v=0
181782 Off ch=1 n=57 v=0
181783 On ch=1 n=38 v=83
182030 Off ch=1 n=38 v=0
182031 On ch=1 n=38 v=83
182277 Off ch=1 n=38 v=0
182292 Off ch=1 n=81 v=0
182293 On ch=1 n=60 v=78
182556 On ch=1 n=38 v=83
182802 Off ch=1 n=38 v=0
182803 On ch=1 n=38 v=83
183050 Off ch=1 n=60 v=0
183051 On ch=1 n=62 v=75
183277 Off ch=1 n=38 v=0
183308 On ch=1 n=50 v=77
183308 On ch=1 n=53 v=77
183308 On ch=1 n=57 v=91
183782 Off ch=1 n=53 v=0
183782 Off ch=1 n=50 v=0
183782 Off ch=1 n=62 v=0
183812 Off ch=1 n=57 v=0
183813 On ch=1 n=64 v=75
183813 On ch=1 n=38 v=83
184289 Off ch=1 n=38 v=0
184289 Off ch=1 n=64 v=0
184324 On ch=1 n=67 v=80
184324 On ch=1 n=40 v=88
185373 Off ch=1 n=40 v=0
185374 On ch=1 n=52 v=77
185374 On ch=1 n=55 v=77
185374 On ch=1 n=59 v=91
185848 Off ch=1 n=55 v=0
185848 Off ch=1 n=52 v=0
185878 Off ch=1 n=59 v=0
185878 Off ch=1 n=67 v=0
185879 On ch=1 n=72 v=75
185879 On ch=1 n=40 v=83
186126 Off ch=1 n=40 v=0
186127 On ch=1 n=40 v=83
186358 Off ch=1 n=72 v=0
186373 Off ch=1 n=40 v=0
186389 On ch=1 n=71 v=78
186652 On ch=1 n=40 v=83
186898 Off ch=1 n=40 v=0
186899 On ch=1 n=40 v=83
187146 Off ch=1 n=71 v=0
187147 On ch=1 n=72 v=75
187373 Off ch=1 n=40 v=0
187404 On ch=1 n=52 v=77
187404 On ch=1 n=55 v=77
187404 On ch=1 n=59 v=91
187878 Off ch=1 n=55 v=0
187878 Off ch=1 n=52 v=0
187878 Off ch=1 n=72 v=0
187908 Off ch=1 n=59 v=0
187909 On ch=1 n=76 v=75
187909 On ch=1 n=40 v=83
188385 Off ch=1 n=40 v=0
188385 Off ch=1 n=76 v=0
188420 On ch=1 n=81 v=80
188420 On ch=1 n=41 v=89
189469 Off ch=1 n=41 v=0
189470 On ch=1 n=53 v=77
189470 On ch=1 n=57 v=77
189470 On ch=1 n=60 v=91
189944 Off ch=1 n=57 v=0
189944 Off ch=1 n=53 v=0
189974 Off ch=1 n=60 v=0
189974 Off ch=1 n=81 v=0
189975 On ch=1 n=72 v=75
189975 On ch=1 n=41 v=84
190222 Off ch=1 n=41 v=0
190223 On ch=1 n=41 v=84
190454 Off ch=1 n=72 v=0
190469 Off ch=1 n=41 v=0
190485 On ch=1 n=69 v=78
190748 On ch=1 n=41 v=84
190994 Off ch=1 n=41 v=0
190995 On ch=1 n=41 v=84
191242 Off ch=1 n=69 v=0
191243 On ch=1 n=71 v=75
191469 Off ch=1 n=41 v=0
191500 On ch=1 n=53 v=77
191500 On ch=1 n=57 v=77
191500 On ch=1 n=60 v=91
191974 Off ch=1 n=57 v=0
191974 Off ch=1 n=53 v=0
191974 Off ch=1 n=71 v=0
192004 Off ch=1 n=60 v=0
192005 On ch=1 n=72 v=75
192005 On ch=1 n=41 v=84
192481 Off ch=1 n=41 v=0
192481 Off ch=1 n=72 v=0
192516 On ch=1 n=76 v=80
192516 On ch=1 n=43 v=89
193565 Off ch=1 n=43 v=0
193565 Off ch=1 n=76 v=0
193566 On ch=1 n=77 v=76
193566 On ch=1 n=55 v=77
193566 On ch=1 n=59 v=77
193566 On ch=1 n=62 v=91
194040 Off ch=1 n=59 v=0
194040 Off ch=1 n=55 v=0
194040 Off ch=1 n=77 v=0
194070 Off ch=1 n=62 v=0
194071 On ch=1 n=76 v=75
194071 On ch=1 n=43 v=84
194318 Off ch=1 n=43 v=0
194319 On ch=1 n=43 v=84
194565 Off ch=1 n=43 v=0
194844 On ch=1 n=43 v=84
195060 Off ch=1 n=76 v=0
195090 Off ch=1 n=43 v=0
195091 On ch=1 n=74 v=75
195091 On ch=1 n=43 v=84
195565 Off ch=1 n=43 v=0
195596 On ch=1 n=55 v=77
195596 On ch=1 n=59 v=77
195596 On ch=1 n=62 v=91
196070 Off ch=1 n=59 v=0
196070 Off ch=1 n=55 v=0
196100 Off ch=1 n=62 v=0
196100 Off ch=1 n=74 v=0
196101 On ch=1 n=72 v=75
196101 On ch=1 n=43 v=84
196577 Off ch=1 n=43 v=0
196577 Off ch=1 n=72 v=0
196612 On ch=1 n=76 v=67
196612 On ch=1 n=50 v=76
196612 On ch=1 n=53 v=76
196612 On ch=1 n=57 v=90
197632 On ch=1 n=26 v=64
197632 On ch=1 n=38 v=64
198676 Off ch=1 n=76 v=0
198677 On ch=1 n=72 v=65
199434 Off ch=1 n=72 v=0
199435 On ch=1 n=74 v=62
200166 Off ch=1 n=74 v=0
200197 On ch=1 n=76 v=62
200673 Off ch=1 n=76 v=0
200703 Off ch=1 n=57 v=0
200703 Off ch=1 n=53 v=0
200703 Off ch=1 n=50 v=0
200704 Off ch=1 n=38 v=0
200704 Off ch=1 n=26 v=0
200708 On ch=1 n=79 v=67
200708 On ch=1 n=52 v=76
200708 On ch=1 n=55 v=76
201728 On ch=1 n=28 v=64
201728 On ch=1 n=40 v=64
202262 Off ch=1 n=79 v=0
202263 On ch=1 n=60 v=62
202742 Off ch=1 n=60 v=0
202773 On ch=1 n=59 v=65
203530 Off ch=1 n=59 v=0
203531 On ch=1 n=60 v=62
204262 Off ch=1 n=60 v=0
204293 On ch=1 n=64 v=62
204769 Off ch=1 n=64 v=0
204799 Off ch=1 n=55 v=0
204799 Off ch=1 n=52 v=0
204800 Off ch=1 n=40 v=0
204800 Off ch=1 n=28 v=0
204804 On ch=1 n=69 v=67
204804 On ch=1 n=53 v=76
204804 On ch=1 n=57 v=76
204804 On ch=1 n=60 v=90
205824 On ch=1 n=29 v=64
205824 On ch=1 n=41 v=64
206358 Off ch=1 n=69 v=0
206359 On ch=1 n=72 v=54
206359 On ch=1 n=84 v=68
206838 Off ch=1 n=72 v=0
206868 Off ch=1 n=84 v=0
206869 On ch=1 n=69 v=57
206869 On ch=1 n=81 v=71
207626 Off ch=1 n=69 v=0
207626 Off ch=1 n=81 v=0
207627 On ch=1 n=71 v=54
207627 On ch=1 n=83 v=68
208358 Off ch=1 n=71 v=0
208388 Off ch=1 n=83 v=0
208389 On ch=1 n=72 v=54
208389 On ch=1 n=84 v=68
208865 Off ch=1 n=72 v=0
208895 Off ch=1 n=60 v=0
208895 Off ch=1 n=57 v=0
208895 Off ch=1 n=53 v=0
208895 Off ch=1 n=84 v=0
208896 Off ch=1 n=41 v=0
208896 Off ch=1 n=29 v=0
208900 On ch=1 n=76 v=59
208900 On ch=1 n=88 v=73
208900 On ch=1 n=53 v=81
208900 On ch=1 n=57 v=81
208900 On ch=1 n=60 v=95
209920 On ch=1 n=29 v=64
209920 On ch=1 n=41 v=64
209949 Off ch=1 n=76 v=0
209949 Off ch=1 n=88 v=0
209950 On ch=1 n=77 v=55
209950 On ch=1 n=89 v=69
210424 Off ch=1 n=77 v=0
210454 Off ch=1 n=89 v=0
210455 On ch=1 n=76 v=52
210455 On ch=1 n=88 v=66
210944 Off ch=1 n=41 v=0
210944 Off ch=1 n=29 v=0
210964 Off ch=1 n=60 v=0
210964 Off ch=1 n=57 v=0
210964 Off ch=1 n=53 v=0
210965 On ch=1 n=55 v=59
210965 On ch=1 n=59 v=59
210965 On ch=1 n=62 v=73
211444 Off ch=1 n=76 v=0
211474 Off ch=1 n=88 v=0
211475 On ch=1 n=77 v=42
211475 On ch=1 n=89 v=56
211949 Off ch=1 n=77 v=0
211968 On ch=1 n=31 v=64
211968 On ch=1 n=43 v=64
211979 Off ch=1 n=89 v=0
211980 On ch=1 n=74 v=38
211980 On ch=1 n=86 v=52
212991 Off ch=1 n=62 v=0
212991 Off ch=1 n=59 v=0
212991 Off ch=1 n=55 v=0
212991 Off ch=1 n=74 v=0
212991 Off ch=1 n=86 v=0
212992 Off ch=1 n=43 v=0
212992 Off ch=1 n=31 v=0
213002 On ch=1 n=64 v=56
213002 On ch=1 n=67 v=56
213002 On ch=1 n=69 v=56
213002 On ch=1 n=72 v=70
213538 On ch=1 n=83 v=49
214015 Off ch=1 n=83 v=0
214046 On ch=1 n=84 v=50
214520 Off ch=1 n=84 v=0
214799 On ch=1 n=83 v=49
215045 Off ch=1 n=83 v=0
215571 On ch=1 n=84 v=49
216045 Off ch=1 n=84 v=0
216076 On ch=1 n=79 v=50
217087 Off ch=1 n=79 v=0
217634 On ch=1 n=83 v=49
218111 Off ch=1 n=83 v=0
218142 On ch=1 n=84 v=50
218616 Off ch=1 n=84 v=0
218895 On ch=1 n=83 v=49
219141 Off ch=1 n=83 v=0
219667 On ch=1 n=84 v=49
220141 Off ch=1 n=84 v=0
220171 Off ch=1 n=72 v=0
220171 Off ch=1 n=69 v=0
220171 Off ch=1 n=67 v=0
220171 Off ch=1 n=64 v=0
220172 On ch=1 n=79 v=50
220172 On ch=1 n=71 v=65
221183 Off ch=1 n=71 v=0
221183 Off ch=1 n=79 v=0
221188 On ch=1 n=72 v=69
221699 Off ch=1 n=72 v=0
221730 On ch=1 n=83 v=49
221730 On ch=1 n=74 v=64
222207 Off ch=1 n=74 v=0
222207 Off ch=1 n=83 v=0
222238 On ch=1 n=84 v=50
222238 On ch=1 n=67 v=56
222238 On ch=1 n=71 v=56
222238 On ch=1 n=72 v=56
222238 On ch=1 n=76 v=66
222712 Off ch=1 n=84 v=0
222991 On ch=1 n=83 v=49
223237 Off ch=1 n=83 v=0
223763 On ch=1 n=84 v=49
224237 Off ch=1 n=84 v=0
224268 On ch=1 n=79 v=50
225279 Off ch=1 n=79 v=0
225826 On ch=1 n=83 v=49
226303 Off ch=1 n=83 v=0
226334 On ch=1 n=84 v=50
226808 Off ch=1 n=84 v=0
227087 On ch=1 n=83 v=49
227333 Off ch=1 n=83 v=0
227859 On ch=1 n=84 v=49
228333 Off ch=1 n=84 v=0
228363 Off ch=1 n=76 v=0
228363 Off ch=1 n=72 v=0
228363 Off ch=1 n=71 v=0
228363 Off ch=1 n=67 v=0
228364 On ch=1 n=79 v=50
228364 On ch=1 n=57 v=65
228838 Off ch=1 n=57 v=0
228838 Off ch=1 n=79 v=0
228869 On ch=1 n=91 v=49
228869 On ch=1 n=59 v=64
229116 Off ch=1 n=91 v=0
229117 On ch=1 n=91 v=49
229345 Off ch=1 n=59 v=0
229360 Off ch=1 n=91 v=0
229380 On ch=1 n=52 v=56
229380 On ch=1 n=55 v=56
229380 On ch=1 n=57 v=56
229380 On ch=1 n=60 v=66
229673 On ch=1 n=64 v=41
229673 On ch=1 n=69 v=41
229673 On ch=1 n=72 v=51
229921 Off ch=1 n=64 v=0
229921 Off ch=1 n=69 v=0
229921 Off ch=1 n=72 v=0
229922 On ch=1 n=64 v=41
229922 On ch=1 n=69 v=41
229922 On ch=1 n=72 v=51
230122 Off ch=1 n=64 v=0
230122 Off ch=1 n=69 v=0
230122 Off ch=1 n=72 v=0
230400 On ch=1 n=33 v=64
230430 On ch=1 n=64 v=42
230430 On ch=1 n=69 v=42
230430 On ch=1 n=72 v=52
230627 Off ch=1 n=64 v=0
230627 Off ch=1 n=69 v=0
230627 Off ch=1 n=72 v=0
230935 On ch=1 n=64 v=41
230935 On ch=1 n=69 v=41
230935 On ch=1 n=72 v=51
231182 Off ch=1 n=64 v=0
231182 Off ch=1 n=69 v=0
231182 Off ch=1 n=72 v=0
231183 On ch=1 n=64 v=41
231183 On ch=1 n=69 v=41
231183 On ch=1 n=72 v=51
231429 Off ch=1 n=64 v=0
231429 Off ch=1 n=69 v=0
231444 Off ch=1 n=72 v=0
231708 On ch=1 n=64 v=41
231708 On ch=1 n=69 v=41
231708 On ch=1 n=72 v=51
231939 Off ch=1 n=64 v=0
231939 Off ch=1 n=69 v=0
231954 Off ch=1 n=72 v=0
232203 On ch=1 n=64 v=41
232203 On ch=1 n=69 v=41
232203 On ch=1 n=72 v=51
232459 Off ch=1 n=64 v=0
232459 Off ch=1 n=69 v=0
232459 Off ch=1 n=72 v=0
232460 On ch=1 n=64 v=42
232460 On ch=1 n=69 v=42
232460 On ch=1 n=72 v=52
232657 Off ch=1 n=64 v=0
232657 Off ch=1 n=69 v=0
232657 Off ch=1 n=72 v=0
232965 On ch=1 n=64 v=41
232965 On ch=1 n=69 v=41
232965 On ch=1 n=72 v=51
233212 Off ch=1 n=64 v=0
233212 Off ch=1 n=69 v=0
233212 Off ch=1 n=72 v=0
233213 On ch=1 n=64 v=41
233213 On ch=1 n=69 v=41
233213 On ch=1 n=72 v=51
233456 Off ch=1 n=64 v=0
233456 Off ch=1 n=69 v=0
233471 Off ch=1 n=72 v=0
233769 On ch=1 n=64 v=41
233769 On ch=1 n=69 v=41
233769 On ch=1 n=72 v=51
234017 Off ch=1 n=64 v=0
234017 Off ch=1 n=69 v=0
234017 Off ch=1 n=72 v=0
234018 On ch=1 n=64 v=41
234018 On ch=1 n=69 v=41
234018 On ch=1 n=72 v=51
234218 Off ch=1 n=64 v=0
234218 Off ch=1 n=69 v=0
234218 Off ch=1 n=72 v=0
234526 On ch=1 n=64 v=42
234526 On ch=1 n=69 v=42
234526 On ch=1 n=72 v=52
234723 Off ch=1 n=64 v=0
234723 Off ch=1 n=69 v=0
234723 Off ch=1 n=72 v=0
235031 On ch=1 n=64 v=41
235031 On ch=1 n=69 v=41
235031 On ch=1 n=72 v=51
235278 Off ch=1 n=64 v=0
235278 Off ch=1 n=69 v=0
235278 Off ch=1 n=72 v=0
235279 On ch=1 n=64 v=41
235279 On ch=1 n=69 v=41
235279 On ch=1 n=72 v=51
235520 Off ch=1 n=33 v=0
235520 On ch=1 n=45 v=64
235525 Off ch=1 n=64 v=0
235525 Off ch=1 n=69 v=0
235540 Off ch=1 n=72 v=0
235804 On ch=1 n=64 v=41
235804 On ch=1 n=69 v=41
235804 On ch=1 n=72 v=51
236035 Off ch=1 n=64 v=0
236035 Off ch=1 n=69 v=0
236050 Off ch=1 n=72 v=0
236299 On ch=1 n=64 v=41
236299 On ch=1 n=69 v=41
236299 On ch=1 n=72 v=51
236555 Off ch=1 n=60 v=0
236555 Off ch=1 n=57 v=0
236555 Off ch=1 n=55 v=0
236555 Off ch=1 n=52 v=0
236555 Off ch=1 n=64 v=0
236555 Off ch=1 n=69 v=0
236555 Off ch=1 n=72 v=0
236556 On ch=1 n=64 v=42
236556 On ch=1 n=69 v=42
236556 On ch=1 n=72 v=52
236556 On ch=1 n=60 v=65
236753 Off ch=1 n=64 v=0
236753 Off ch=1 n=69 v=0
236753 Off ch=1 n=72 v=0
237030 Off ch=1 n=60 v=0
237061 On ch=1 n=64 v=41
237061 On ch=1 n=69 v=41
237061 On ch=1 n=72 v=51
237061 On ch=1 n=62 v=64
237308 Off ch=1 n=64 v=0
237308 Off ch=1 n=69 v=0
237308 Off ch=1 n=72 v=0
237309 On ch=1 n=64 v=41
237309 On ch=1 n=69 v=41
237309 On ch=1 n=72 v=55
237537 Off ch=1 n=62 v=0
237552 Off ch=1 n=64 v=0
237552 Off ch=1 n=69 v=0
237567 Off ch=1 n=72 v=0
237568 Off ch=1 n=45 v=0
237572 On ch=1 n=55 v=56
237572 On ch=1 n=59 v=56
237572 On ch=1 n=60 v=56
237572 On ch=1 n=64 v=66
237865 On ch=1 n=67 v=41
237865 On ch=1 n=72 v=41
237865 On ch=1 n=76 v=55
238113 Off ch=1 n=67 v=0
238113 Off ch=1 n=72 v=0
238113 Off ch=1 n=76 v=0
238114 On ch=1 n=67 v=41
238114 On ch=1 n=72 v=41
238114 On ch=1 n=76 v=51
238314 Off ch=1 n=67 v=0
238314 Off ch=1 n=72 v=0
238314 Off ch=1 n=76 v=0
238592 On ch=1 n=36 v=64
238622 On ch=1 n=67 v=42
238622 On ch=1 n=72 v=42
238622 On ch=1 n=76 v=52
238819 Off ch=1 n=67 v=0
238819 Off ch=1 n=72 v=0
238819 Off ch=1 n=76 v=0
239127 On ch=1 n=67 v=41
239127 On ch=1 n=72 v=41
239127 On ch=1 n=76 v=51
239374 Off ch=1 n=67 v=0
239374 Off ch=1 n=72 v=0
239374 Off ch=1 n=76 v=0
239375 On ch=1 n=67 v=41
239375 On ch=1 n=72 v=41
239375 On ch=1 n=76 v=51
239621 Off ch=1 n=67 v=0
239621 Off ch=1 n=72 v=0
239636 Off ch=1 n=76 v=0
239900 On ch=1 n=67 v=41
239900 On ch=1 n=72 v=41
239900 On ch=1 n=76 v=51
240131 Off ch=1 n=67 v=0
240131 Off ch=1 n=72 v=0
240146 Off ch=1 n=76 v=0
240395 On ch=1 n=67 v=41
240395 On ch=1 n=72 v=41
240395 On ch=1 n=76 v=51
240651 Off ch=1 n=67 v=0
240651 Off ch=1 n=72 v=0
240651 Off ch=1 n=76 v=0
240652 On ch=1 n=67 v=42
240652 On ch=1 n=72 v=42
240652 On ch=1 n=76 v=52
240849 Off ch=1 n=67 v=0
240849 Off ch=1 n=72 v=0
240849 Off ch=1 n=76 v=0
241157 On ch=1 n=67 v=41
241157 On ch=1 n=72 v=41
241157 On ch=1 n=76 v=51
241404 Off ch=1 n=67 v=0
241404 Off ch=1 n=72 v=0
241404 Off ch=1 n=76 v=0
241405 On ch=1 n=67 v=41
241405 On ch=1 n=72 v=41
241405 On ch=1 n=76 v=51
241648 Off ch=1 n=67 v=0
241648 Off ch=1 n=72 v=0
241663 Off ch=1 n=76 v=0
241961 On ch=1 n=67 v=41
241961 On ch=1 n=72 v=41
241961 On ch=1 n=76 v=51
242209 Off ch=1 n=67 v=0
242209 Off ch=1 n=72 v=0
242209 Off ch=1 n=76 v=0
242210 On ch=1 n=67 v=41
242210 On ch=1 n=72 v=41
242210 On ch=1 n=76 v=51
242410 Off ch=1 n=67 v=0
242410 Off ch=1 n=72 v=0
242410 Off ch=1 n=76 v=0
242718 On ch=1 n=67 v=42
242718 On ch=1 n=72 v=42
242718 On ch=1 n=76 v=52
242915 Off ch=1 n=67 v=0
242915 Off ch=1 n=72 v=0
242915 Off ch=1 n=76 v=0
243223 On ch=1 n=67 v=41
243223 On ch=1 n=72 v=41
243223 On ch=1 n=76 v=51
243470 Off ch=1 n=67 v=0
243470 Off ch=1 n=72 v=0
243470 Off ch=1 n=76 v=0
243471 On ch=1 n=67 v=41
243471 On ch=1 n=72 v=41
243471 On ch=1 n=76 v=51
243712 Off ch=1 n=36 v=0
243712 On ch=1 n=48 v=64
243717 Off ch=1 n=67 v=0
243717 Off ch=1 n=72 v=0
243732 Off ch=1 n=76 v=0
243996 On ch=1 n=67 v=41
243996 On ch=1 n=72 v=41
243996 On ch=1 n=76 v=51
244227 Off ch=1 n=67 v=0
244227 Off ch=1 n=72 v=0
244242 Off ch=1 n=76 v=0
244491 On ch=1 n=67 v=41
244491 On ch=1 n=72 v=41
244491 On ch=1 n=76 v=51
244736 Off ch=1 n=48 v=0
244736 On ch=1 n=38 v=64
244747 Off ch=1 n=67 v=0
244747 Off ch=1 n=72 v=0
244747 Off ch=1 n=76 v=0
244748 On ch=1 n=67 v=42
244748 On ch=1 n=72 v=42
244748 On ch=1 n=76 v=52
244945 Off ch=1 n=67 v=0
244945 Off ch=1 n=72 v=0
244945 Off ch=1 n=76 v=0
245248 Off ch=1 n=38 v=0
245248 On ch=1 n=40 v=64
245253 On ch=1 n=67 v=41
245253 On ch=1 n=72 v=41
245253 On ch=1 n=76 v=51
245500 Off ch=1 n=67 v=0
245500 Off ch=1 n=72 v=0
245500 Off ch=1 n=76 v=0
245501 On ch=1 n=67 v=41
245501 On ch=1 n=72 v=41
245501 On ch=1 n=76 v=51
245744 Off ch=1 n=67 v=0
245744 Off ch=1 n=72 v=0
245759 Off ch=1 n=64 v=0
245759 Off ch=1 n=60 v=0
245759 Off ch=1 n=59 v=0
245759 Off ch=1 n=55 v=0
245759 Off ch=1 n=76 v=0
245760 Off ch=1 n=40 v=0
245764 On ch=1 n=41 v=69
246275 Off ch=1 n=41 v=0
246306 On ch=1 n=48 v=64
246783 Off ch=1 n=48 v=0
246814 On ch=1 n=53 v=65
247288 Off ch=1 n=53 v=0
247319 On ch=1 n=55 v=64
247798 Off ch=1 n=55 v=0
247829 On ch=1 n=53 v=59
247829 On ch=1 n=57 v=73
248339 On ch=1 n=71 v=62
248813 Off ch=1 n=71 v=0
248843 Off ch=1 n=57 v=0
248843 Off ch=1 n=53 v=0
248844 On ch=1 n=72 v=63
248844 On ch=1 n=55 v=57
248844 On ch=1 n=59 v=71
249318 Off ch=1 n=72 v=0
249349 On ch=1 n=79 v=62
249855 Off ch=1 n=59 v=0
249855 Off ch=1 n=55 v=0
249855 Off ch=1 n=79 v=0
249860 On ch=1 n=79 v=67
249860 On ch=1 n=47 v=69
250371 Off ch=1 n=47 v=0
250371 Off ch=1 n=79 v=0
250402 On ch=1 n=71 v=62
250402 On ch=1 n=55 v=64
250879 Off ch=1 n=55 v=0
250879 Off ch=1 n=71 v=0
250910 On ch=1 n=72 v=63
250910 On ch=1 n=59 v=65
251384 Off ch=1 n=59 v=0
251384 Off ch=1 n=72 v=0
251415 On ch=1 n=79 v=62
251415 On ch=1 n=60 v=64
251894 Off ch=1 n=60 v=0
251924 Off ch=1 n=79 v=0
251925 On ch=1 n=79 v=65
251925 On ch=1 n=59 v=59
251925 On ch=1 n=62 v=73
252939 Off ch=1 n=62 v=0
252939 Off ch=1 n=59 v=0
252940 On ch=1 n=57 v=57
252940 On ch=1 n=60 v=71
253414 Off ch=1 n=57 v=0
253444 Off ch=1 n=60 v=0
253445 On ch=1 n=59 v=64
253921 Off ch=1 n=59 v=0
253951 Off ch=1 n=79 v=0
253956 On ch=1 n=40 v=68
254467 Off ch=1 n=40 v=0
254498 On ch=1 n=59 v=62
254498 On ch=1 n=47 v=64
254975 Off ch=1 n=47 v=0
254975 Off ch=1 n=59 v=0
255006 On ch=1 n=60 v=63
255006 On ch=1 n=52 v=65
255480 Off ch=1 n=52 v=0
255480 Off ch=1 n=60 v=0
255511 On ch=1 n=54 v=64
255759 On ch=1 n=59 v=62
255990 Off ch=1 n=54 v=0
256005 Off ch=1 n=59 v=0
256021 On ch=1 n=52 v=59
256021 On ch=1 n=55 v=73
256500 Off ch=1 n=52 v=0
256530 Off ch=1 n=55 v=0
256531 On ch=1 n=79 v=62
256531 On ch=1 n=60 v=64
257005 Off ch=1 n=60 v=0
257005 Off ch=1 n=79 v=0
257036 On ch=1 n=81 v=63
257036 On ch=1 n=55 v=57
257036 On ch=1 n=59 v=71
257510 Off ch=1 n=55 v=0
257510 Off ch=1 n=81 v=0
257540 Off ch=1 n=59 v=0
257541 On ch=1 n=76 v=62
257541 On ch=1 n=60 v=64
258017 Off ch=1 n=60 v=0
258047 Off ch=1 n=76 v=0
258052 On ch=1 n=76 v=67
258052 On ch=1 n=45 v=69
258563 Off ch=1 n=45 v=0
258594 On ch=1 n=52 v=64
259071 Off ch=1 n=52 v=0
259102 On ch=1 n=57 v=57
259102 On ch=1 n=60 v=71
259576 Off ch=1 n=57 v=0
259606 Off ch=1 n=60 v=0
259607 On ch=1 n=59 v=64
260086 Off ch=1 n=59 v=0
260116 Off ch=1 n=76 v=0
260117 On ch=1 n=43 v=67
260596 Off ch=1 n=43 v=0
260627 On ch=1 n=50 v=56
260627 On ch=1 n=60 v=70
261101 Off ch=1 n=50 v=0
261131 Off ch=1 n=60 v=0
261132 On ch=1 n=55 v=57
261132 On ch=1 n=59 v=71
261606 Off ch=1 n=55 v=0
261636 Off ch=1 n=59 v=0
261637 On ch=1 n=67 v=62
261637 On ch=1 n=53 v=56
261637 On ch=1 n=57 v=70
261869 Off ch=1 n=67 v=0
261885 On ch=1 n=79 v=62
262113 Off ch=1 n=53 v=0
262128 Off ch=1 n=79 v=0
262143 Off ch=1 n=57 v=0
262148 On ch=1 n=41 v=69
262659 Off ch=1 n=41 v=0
262690 On ch=1 n=48 v=64
263167 Off ch=1 n=48 v=0
263198 On ch=1 n=53 v=65
263672 Off ch=1 n=53 v=0
263703 On ch=1 n=55 v=64
264182 Off ch=1 n=55 v=0
264213 On ch=1 n=53 v=59
264213 On ch=1 n=57 v=73
264704 On ch=1 n=48 v=64
264723 On ch=1 n=83 v=62
265197 Off ch=1 n=83 v=0
265216 Off ch=1 n=48 v=0
265216 On ch=1 n=50 v=64
265228 On ch=1 n=84 v=63
265702 Off ch=1 n=84 v=0
265728 Off ch=1 n=50 v=0
265728 On ch=1 n=48 v=64
265733 On ch=1 n=91 v=62
266239 Off ch=1 n=57 v=0
266239 Off ch=1 n=53 v=0
266239 Off ch=1 n=91 v=0
266240 Off ch=1 n=48 v=0
266244 On ch=1 n=91 v=67
266244 On ch=1 n=47 v=69
266755 Off ch=1 n=47 v=0
266755 Off ch=1 n=91 v=0
266786 On ch=1 n=83 v=62
266786 On ch=1 n=55 v=64
267263 Off ch=1 n=55 v=0
267263 Off ch=1 n=83 v=0
267294 On ch=1 n=84 v=63
267294 On ch=1 n=59 v=65
267768 Off ch=1 n=59 v=0
267768 Off ch=1 n=84 v=0
267799 On ch=1 n=91 v=62
267799 On ch=1 n=60 v=64
268278 Off ch=1 n=60 v=0
268308 Off ch=1 n=91 v=0
268309 On ch=1 n=91 v=65
268309 On ch=1 n=59 v=59
268309 On ch=1 n=62 v=73
269323 Off ch=1 n=62 v=0
269323 Off ch=1 n=59 v=0
269324 On ch=1 n=60 v=57
269324 On ch=1 n=64 v=71
269798 Off ch=1 n=60 v=0
269828 Off ch=1 n=64 v=0
269829 On ch=1 n=62 v=64
270305 Off ch=1 n=62 v=0
270335 Off ch=1 n=91 v=0
270340 On ch=1 n=40 v=68
270851 Off ch=1 n=40 v=0
270882 On ch=1 n=47 v=64
271359 Off ch=1 n=47 v=0
271390 On ch=1 n=52 v=65
271864 Off ch=1 n=52 v=0
271895 On ch=1 n=84 v=62
271895 On ch=1 n=54 v=64
272374 Off ch=1 n=54 v=0
272374 Off ch=1 n=84 v=0
272405 On ch=1 n=83 v=65
272405 On ch=1 n=52 v=59
272405 On ch=1 n=55 v=73
272884 Off ch=1 n=83 v=0
272915 On ch=1 n=79 v=62
273389 Off ch=1 n=79 v=0
273419 Off ch=1 n=55 v=0
273419 Off ch=1 n=52 v=0
273420 On ch=1 n=76 v=63
273420 On ch=1 n=48 v=65
273894 Off ch=1 n=48 v=0
273894 Off ch=1 n=76 v=0
273925 On ch=1 n=81 v=62
273925 On ch=1 n=47 v=64
274401 Off ch=1 n=47 v=0
274431 Off ch=1 n=81 v=0
274436 On ch=1 n=81 v=67
274436 On ch=1 n=45 v=69
274947 Off ch=1 n=45 v=0
274978 On ch=1 n=52 v=64
275455 Off ch=1 n=52 v=0
275486 On ch=1 n=57 v=57
275486 On ch=1 n=60 v=71
276500 Off ch=1 n=60 v=0
276500 Off ch=1 n=57 v=0
276500 Off ch=1 n=81 v=0
276501 On ch=1 n=43 v=67
276980 Off ch=1 n=43 v=0
277011 On ch=1 n=50 v=56
277011 On ch=1 n=60 v=70
277485 Off ch=1 n=50 v=0
277515 Off ch=1 n=60 v=0
277516 On ch=1 n=55 v=57
277516 On ch=1 n=59 v=71
277990 Off ch=1 n=55 v=0
278020 Off ch=1 n=59 v=0
278021 On ch=1 n=67 v=62
278021 On ch=1 n=53 v=56
278021 On ch=1 n=57 v=70
278253 Off ch=1 n=67 v=0
278269 On ch=1 n=79 v=62
278497 Off ch=1 n=53 v=0
278512 Off ch=1 n=79 v=0
278527 Off ch=1 n=57 v=0
278532 On ch=1 n=41 v=69
279043 Off ch=1 n=41 v=0
279074 On ch=1 n=48 v=64
279551 Off ch=1 n=48 v=0
279582 On ch=1 n=53 v=65
280056 Off ch=1 n=53 v=0
280087 On ch=1 n=55 v=64
280566 Off ch=1 n=55 v=0
280597 On ch=1 n=53 v=59
280597 On ch=1 n=57 v=73
281076 Off ch=1 n=53 v=0
281106 Off ch=1 n=57 v=0
281107 On ch=1 n=59 v=64
281581 Off ch=1 n=59 v=0
281612 On ch=1 n=67 v=63
281612 On ch=1 n=57 v=57
281612 On ch=1 n=60 v=71
282086 Off ch=1 n=67 v=0
282117 On ch=1 n=76 v=62
282593 Off ch=1 n=76 v=0
282623 Off ch=1 n=60 v=0
282623 Off ch=1 n=57 v=0
282628 On ch=1 n=74 v=62
282628 On ch=1 n=47 v=69
283139 Off ch=1 n=47 v=0
283170 On ch=1 n=55 v=64
283647 Off ch=1 n=55 v=0
283678 On ch=1 n=59 v=65
284152 Off ch=1 n=59 v=0
284183 On ch=1 n=60 v=64
284662 Off ch=1 n=60 v=0
284693 On ch=1 n=59 v=59
284693 On ch=1 n=62 v=73
285707 Off ch=1 n=62 v=0
285707 Off ch=1 n=59 v=0
285707 Off ch=1 n=74 v=0
285708 On ch=1 n=67 v=63
285708 On ch=1 n=57 v=57
285708 On ch=1 n=60 v=71
286182 Off ch=1 n=57 v=0
286182 Off ch=1 n=67 v=0
286212 Off ch=1 n=60 v=0
286213 On ch=1 n=79 v=62
286213 On ch=1 n=59 v=64
286689 Off ch=1 n=59 v=0
286719 Off ch=1 n=79 v=0
286724 On ch=1 n=79 v=67
286724 On ch=1 n=40 v=68
287235 Off ch=1 n=40 v=0
287266 On ch=1 n=47 v=64
287743 Off ch=1 n=47 v=0
287774 On ch=1 n=52 v=65
288248 Off ch=1 n=52 v=0
288279 On ch=1 n=54 v=64
288758 Off ch=1 n=54 v=0
288788 Off ch=1 n=79 v=0
288789 On ch=1 n=79 v=65
288789 On ch=1 n=52 v=59
288789 On ch=1 n=55 v=73
289546 Off ch=1 n=79 v=0
289547 On ch=1 n=77 v=62
289803 Off ch=1 n=55 v=0
289803 Off ch=1 n=52 v=0
289804 On ch=1 n=55 v=57
289804 On ch=1 n=59 v=71
290278 Off ch=1 n=55 v=0
290278 Off ch=1 n=77 v=0
290308 Off ch=1 n=59 v=0
290309 On ch=1 n=76 v=62
290309 On ch=1 n=60 v=64
290785 Off ch=1 n=60 v=0
290785 Off ch=1 n=76 v=0
290820 On ch=1 n=74 v=67
290820 On ch=1 n=45 v=69
291331 Off ch=1 n=45 v=0
291362 On ch=1 n=52 v=64
291839 Off ch=1 n=52 v=0
291870 On ch=1 n=57 v=57
291870 On ch=1 n=60 v=71
292344 Off ch=1 n=57 v=0
292374 Off ch=1 n=60 v=0
292374 Off ch=1 n=74 v=0
292375 On ch=1 n=76 v=62
292375 On ch=1 n=59 v=64
292607 Off ch=1 n=76 v=0
292623 On ch=1 n=74 v=62
292854 Off ch=1 n=59 v=0
292869 Off ch=1 n=74 v=0
292885 On ch=1 n=72 v=65
292885 On ch=1 n=43 v=67
293364 Off ch=1 n=43 v=0
293395 On ch=1 n=50 v=64
293642 Off ch=1 n=72 v=0
293643 On ch=1 n=71 v=62
293869 Off ch=1 n=50 v=0
293900 On ch=1 n=55 v=57
293900 On ch=1 n=59 v=71
294374 Off ch=1 n=55 v=0
294374 Off ch=1 n=71 v=0
294404 Off ch=1 n=59 v=0
294405 On ch=1 n=72 v=62
294405 On ch=1 n=57 v=64
294881 Off ch=1 n=57 v=0
294881 Off ch=1 n=72 v=0
294916 On ch=1 n=81 v=67
294916 On ch=1 n=41 v=69
295427 Off ch=1 n=41 v=0
295458 On ch=1 n=48 v=64
295935 Off ch=1 n=48 v=0
295966 On ch=1 n=53 v=65
296440 Off ch=1 n=53 v=0
296471 On ch=1 n=55 v=64
296950 Off ch=1 n=55 v=0
296980 Off ch=1 n=81 v=0
296981 On ch=1 n=53 v=59
296981 On ch=1 n=57 v=73
297460 Off ch=1 n=53 v=0
297490 Off ch=1 n=57 v=0
297491 On ch=1 n=81 v=62
297491 On ch=1 n=59 v=64
297965 Off ch=1 n=59 v=0
297995 Off ch=1 n=81 v=0
297996 On ch=1 n=81 v=63
297996 On ch=1 n=57 v=57
297996 On ch=1 n=60 v=71
298470 Off ch=1 n=81 v=0
298501 On ch=1 n=76 v=62
298977 Off ch=1 n=76 v=0
299007 Off ch=1 n=60 v=0
299007 Off ch=1 n=57 v=0
299012 On ch=1 n=74 v=67
299012 On ch=1 n=47 v=69
299523 Off ch=1 n=47 v=0
299523 Off ch=1 n=74 v=0
299554 On ch=1 n=93 v=62
299554 On ch=1 n=55 v=64
300031 Off ch=1 n=55 v=0
300061 Off ch=1 n=93 v=0
300062 On ch=1 n=93 v=63
300062 On ch=1 n=59 v=65
300536 Off ch=1 n=59 v=0
300536 Off ch=1 n=93 v=0
300567 On ch=1 n=88 v=62
300567 On ch=1 n=60 v=64
301046 Off ch=1 n=60 v=0
301046 Off ch=1 n=88 v=0
301077 On ch=1 n=86 v=65
301077 On ch=1 n=59 v=59
301077 On ch=1 n=62 v=73
302091 Off ch=1 n=62 v=0
302091 Off ch=1 n=59 v=0
302091 Off ch=1 n=86 v=0
302092 On ch=1 n=67 v=63
302092 On ch=1 n=57 v=57
302092 On ch=1 n=60 v=71
302566 Off ch=1 n=57 v=0
302566 Off ch=1 n=67 v=0
302596 Off ch=1 n=60 v=0
302597 On ch=1 n=79 v=62
302597 On ch=1 n=59 v=64
303073 Off ch=1 n=59 v=0
303103 Off ch=1 n=79 v=0
303108 On ch=1 n=79 v=67
303108 On ch=1 n=40 v=68
303619 Off ch=1 n=40 v=0
303650 On ch=1 n=47 v=64
304127 Off ch=1 n=47 v=0
304158 On ch=1 n=52 v=65
304632 Off ch=1 n=52 v=0
304663 On ch=1 n=54 v=64
305142 Off ch=1 n=54 v=0
305172 Off ch=1 n=79 v=0
305173 On ch=1 n=71 v=57
305173 On ch=1 n=79 v=71
305173 On ch=1 n=52 v=59
305173 On ch=1 n=55 v=73
305652 Off ch=1 n=52 v=0
305682 Off ch=1 n=55 v=0
305683 On ch=1 n=57 v=64
305930 Off ch=1 n=71 v=0
305930 Off ch=1 n=79 v=0
305931 On ch=1 n=72 v=54
305931 On ch=1 n=81 v=68
306157 Off ch=1 n=57 v=0
306188 On ch=1 n=55 v=57
306188 On ch=1 n=59 v=71
306662 Off ch=1 n=72 v=0
306692 Off ch=1 n=81 v=0
306693 On ch=1 n=74 v=54
306693 On ch=1 n=83 v=68
307199 Off ch=1 n=59 v=0
307199 Off ch=1 n=55 v=0
307199 Off ch=1 n=74 v=0
307199 Off ch=1 n=83 v=0
307204 On ch=1 n=74 v=59
307204 On ch=1 n=83 v=73
307204 On ch=1 n=45 v=69
307715 Off ch=1 n=45 v=0
307746 On ch=1 n=52 v=64
308223 Off ch=1 n=52 v=0
308253 Off ch=1 n=74 v=0
308253 Off ch=1 n=83 v=0
308254 On ch=1 n=76 v=55
308254 On ch=1 n=84 v=69
308254 On ch=1 n=57 v=57
308254 On ch=1 n=60 v=71
308728 Off ch=1 n=57 v=0
308728 Off ch=1 n=76 v=0
308758 Off ch=1 n=60 v=0
308758 Off ch=1 n=84 v=0
308759 On ch=1 n=74 v=54
308759 On ch=1 n=83 v=68
308759 On ch=1 n=59 v=64
309238 Off ch=1 n=59 v=0
309269 On ch=1 n=43 v=67
309748 Off ch=1 n=43 v=0
309748 Off ch=1 n=74 v=0
309778 Off ch=1 n=83 v=0
309779 On ch=1 n=71 v=54
309779 On ch=1 n=79 v=68
309779 On ch=1 n=50 v=64
310253 Off ch=1 n=50 v=0
310284 On ch=1 n=55 v=57
310284 On ch=1 n=59 v=71
310758 Off ch=1 n=55 v=0
310788 Off ch=1 n=59 v=0
310788 Off ch=1 n=71 v=0
310788 Off ch=1 n=79 v=0
310789 On ch=1 n=72 v=54
310789 On ch=1 n=76 v=68
310789 On ch=1 n=57 v=64
311265 Off ch=1 n=57 v=0
311265 Off ch=1 n=72 v=0
311295 Off ch=1 n=76 v=0
311300 On ch=1 n=69 v=59
311300 On ch=1 n=77 v=59
311300 On ch=1 n=81 v=73
311300 On ch=1 n=38 v=68
311811 Off ch=1 n=38 v=0
311842 On ch=1 n=45 v=64
312319 Off ch=1 n=45 v=0
312350 On ch=1 n=50 v=65
312824 Off ch=1 n=50 v=0
312855 On ch=1 n=52 v=64
313334 Off ch=1 n=52 v=0
313364 Off ch=1 n=69 v=0
313364 Off ch=1 n=77 v=0
313364 Off ch=1 n=81 v=0
313365 On ch=1 n=72 v=65
313365 On ch=1 n=50 v=59
313365 On ch=1 n=53 v=73
314122 Off ch=1 n=72 v=0
314123 On ch=1 n=74 v=62
314379 Off ch=1 n=53 v=0
314379 Off ch=1 n=50 v=0
314380 On ch=1 n=53 v=57
314380 On ch=1 n=57 v=71
314854 Off ch=1 n=53 v=0
314854 Off ch=1 n=74 v=0
314884 Off ch=1 n=57 v=0
314885 On ch=1 n=76 v=62
314885 On ch=1 n=55 v=64
315361 Off ch=1 n=55 v=0
315361 Off ch=1 n=76 v=0
315396 On ch=1 n=79 v=67
315396 On ch=1 n=40 v=68
315907 Off ch=1 n=40 v=0
315938 On ch=1 n=47 v=64
316415 Off ch=1 n=47 v=0
316446 On ch=1 n=52 v=65
316920 Off ch=1 n=52 v=0
316950 Off ch=1 n=79 v=0
316951 On ch=1 n=72 v=62
316951 On ch=1 n=54 v=64
317430 Off ch=1 n=54 v=0
317430 Off ch=1 n=72 v=0
317461 On ch=1 n=71 v=65
317461 On ch=1 n=52 v=59
317461 On ch=1 n=55 v=73
318218 Off ch=1 n=71 v=0
318219 On ch=1 n=72 v=62
318475 Off ch=1 n=55 v=0
318475 Off ch=1 n=52 v=0
318476 On ch=1 n=55 v=57
318476 On ch=1 n=59 v=71
318950 Off ch=1 n=55 v=0
318950 Off ch=1 n=72 v=0
318980 Off ch=1 n=59 v=0
318981 On ch=1 n=76 v=62
318981 On ch=1 n=57 v=64
319457 Off ch=1 n=57 v=0
319457 Off ch=1 n=76 v=0
319492 On ch=1 n=81 v=67
319492 On ch=1 n=41 v=69
320003 Off ch=1 n=41 v=0
320034 On ch=1 n=48 v=64
320511 Off ch=1 n=48 v=0
320542 On ch=1 n=53 v=65
321016 Off ch=1 n=53 v=0
321046 Off ch=1 n=81 v=0
321047 On ch=1 n=72 v=62
321047 On ch=1 n=55 v=64
321526 Off ch=1 n=55 v=0
321526 Off ch=1 n=72 v=0
321557 On ch=1 n=69 v=65
321557 On ch=1 n=53 v=59
321557 On ch=1 n=57 v=73
322314 Off ch=1 n=69 v=0
322315 On ch=1 n=71 v=62
322571 Off ch=1 n=57 v=0
322571 Off ch=1 n=53 v=0
322572 On ch=1 n=55 v=57
322572 On ch=1 n=59 v=71
323046 Off ch=1 n=71 v=0
323077 On ch=1 n=72 v=62
323553 Off ch=1 n=72 v=0
323583 Off ch=1 n=59 v=0
323583 Off ch=1 n=55 v=0
323588 On ch=1 n=76 v=67
323588 On ch=1 n=43 v=69
324099 Off ch=1 n=43 v=0
324130 On ch=1 n=50 v=64
324607 Off ch=1 n=50 v=0
324637 Off ch=1 n=76 v=0
324638 On ch=1 n=74 v=55
324638 On ch=1 n=77 v=69
324638 On ch=1 n=55 v=65
325112 Off ch=1 n=55 v=0
325112 Off ch=1 n=74 v=0
325142 Off ch=1 n=77 v=0
325143 On ch=1 n=72 v=54
325143 On ch=1 n=76 v=68
325143 On ch=1 n=57 v=64
325622 Off ch=1 n=57 v=0
325653 On ch=1 n=48 v=58
325653 On ch=1 n=55 v=58
325653 On ch=1 n=59 v=72
326132 Off ch=1 n=55 v=0
326132 Off ch=1 n=48 v=0
326132 Off ch=1 n=72 v=0
326162 Off ch=1 n=59 v=0
326162 Off ch=1 n=76 v=0
326163 On ch=1 n=71 v=58
326163 On ch=1 n=74 v=72
326163 On ch=1 n=52 v=63
326163 On ch=1 n=57 v=63
326163 On ch=1 n=60 v=77
326637 Off ch=1 n=57 v=0
326637 Off ch=1 n=52 v=0
326667 Off ch=1 n=60 v=0
326668 On ch=1 n=55 v=67
326668 On ch=1 n=59 v=67
326668 On ch=1 n=62 v=81
327142 Off ch=1 n=59 v=0
327172 Off ch=1 n=62 v=0
327172 Off ch=1 n=55 v=0
327172 Off ch=1 n=71 v=0
327172 Off ch=1 n=74 v=0
327173 On ch=1 n=69 v=64
327173 On ch=1 n=72 v=78
327173 On ch=1 n=55 v=72
327173 On ch=1 n=60 v=72
327173 On ch=1 n=64 v=86
327649 Off ch=1 n=60 v=0
327649 Off ch=1 n=55 v=0
327679 Off ch=1 n=64 v=0
327679 Off ch=1 n=69 v=0
327679 Off ch=1 n=72 v=0
327684 On ch=1 n=64 v=67
327684 On ch=1 n=69 v=67
327684 On ch=1 n=72 v=67
327684 On ch=1 n=76 v=81
327684 On ch=1 n=45 v=81
327684 On ch=1 n=57 v=95
328733 Off ch=1 n=57 v=0
328733 Off ch=1 n=45 v=0
328734 On ch=1 n=52 v=77
328734 On ch=1 n=57 v=77
328734 On ch=1 n=60 v=91
329208 Off ch=1 n=57 v=0
329208 Off ch=1 n=52 v=0
329238 Off ch=1 n=60 v=0
329239 On ch=1 n=45 v=84
329486 Off ch=1 n=45 v=0
329487 On ch=1 n=45 v=84
329733 Off ch=1 n=45 v=0
330012 On ch=1 n=45 v=84
330258 Off ch=1 n=45 v=0
330259 On ch=1 n=45 v=84
330733 Off ch=1 n=45 v=0
330764 On ch=1 n=52 v=77
330764 On ch=1 n=57 v=77
330764 On ch=1 n=60 v=91
331238 Off ch=1 n=57 v=0
331238 Off ch=1 n=52 v=0
331268 Off ch=1 n=60 v=0
331269 On ch=1 n=45 v=84
331775 Off ch=1 n=45 v=0
331775 Off ch=1 n=64 v=0
331775 Off ch=1 n=69 v=0
331775 Off ch=1 n=72 v=0
331775 Off ch=1 n=76 v=0
331780 On ch=1 n=45 v=89
332829 Off ch=1 n=45 v=0
332830 On ch=1 n=52 v=77
332830 On ch=1 n=57 v=77
332830 On ch=1 n=60 v=91
333304 Off ch=1 n=57 v=0
333304 Off ch=1 n=52 v=0
333334 Off ch=1 n=60 v=0
333335 On ch=1 n=45 v=84
333582 Off ch=1 n=45 v=0
333583 On ch=1 n=45 v=84
333829 Off ch=1 n=45 v=0
334108 On ch=1 n=45 v=84
334354 Off ch=1 n=45 v=0
334355 On ch=1 n=45 v=84
334829 Off ch=1 n=45 v=0
334860 On ch=1 n=52 v=77
334860 On ch=1 n=57 v=77
334860 On ch=1 n=60 v=91
335334 Off ch=1 n=57 v=0
335334 Off ch=1 n=52 v=0
335364 Off ch=1 n=60 v=0
335365 On ch=1 n=45 v=84
335841 Off ch=1 n=45 v=0
335876 On ch=1 n=36 v=87
336925 Off ch=1 n=36 v=0
336926 On ch=1 n=52 v=77
336926 On ch=1 n=55 v=77
336926 On ch=1 n=60 v=91
337400 Off ch=1 n=55 v=0
337400 Off ch=1 n=52 v=0
337430 Off ch=1 n=60 v=0
337431 On ch=1 n=36 v=82
337678 Off ch=1 n=36 v=0
337679 On ch=1 n=36 v=82
337925 Off ch=1 n=36 v=0
338204 On ch=1 n=36 v=82
338450 Off ch=1 n=36 v=0
338451 On ch=1 n=36 v=82
338925 Off ch=1 n=36 v=0
338956 On ch=1 n=52 v=77
338956 On ch=1 n=55 v=77
338956 On ch=1 n=60 v=91
339430 Off ch=1 n=55 v=0
339430 Off ch=1 n=52 v=0
339460 Off ch=1 n=60 v=0
339461 On ch=1 n=36 v=82
339967 Off ch=1 n=36 v=0
339972 On ch=1 n=36 v=87
341021 Off ch=1 n=36 v=0
341022 On ch=1 n=52 v=77
341022 On ch=1 n=55 v=77
341022 On ch=1 n=60 v=91
341496 Off ch=1 n=55 v=0
341496 Off ch=1 n=52 v=0
341526 Off ch=1 n=60 v=0
341527 On ch=1 n=36 v=82
341774 Off ch=1 n=36 v=0
341775 On ch=1 n=36 v=82
342021 Off ch=1 n=36 v=0
342300 On ch=1 n=36 v=82
342546 Off ch=1 n=36 v=0
342547 On ch=1 n=36 v=82
343021 Off ch=1 n=36 v=0
343052 On ch=1 n=52 v=77
343052 On ch=1 n=55 v=77
343052 On ch=1 n=60 v=91
343526 Off ch=1 n=55 v=0
343526 Off ch=1 n=52 v=0
343556 Off ch=1 n=60 v=0
343557 On ch=1 n=36 v=82
344033 Off ch=1 n=36 v=0
344068 On ch=1 n=45 v=89
344361 On ch=1 n=64 v=67
344361 On ch=1 n=69 v=67
344361 On ch=1 n=72 v=77
344609 Off ch=1 n=64 v=0
344609 Off ch=1 n=69 v=0
344609 Off ch=1 n=72 v=0
344610 On ch=1 n=64 v=67
344610 On ch=1 n=69 v=67
344610 On ch=1 n=72 v=77
344810 Off ch=1 n=64 v=0
344810 Off ch=1 n=69 v=0
344810 Off ch=1 n=72 v=0
345117 Off ch=1 n=45 v=0
345118 On ch=1 n=64 v=68
345118 On ch=1 n=69 v=68
345118 On ch=1 n=72 v=78
345118 On ch=1 n=52 v=77
345118 On ch=1 n=57 v=77
345118 On ch=1 n=60 v=91
345315 Off ch=1 n=64 v=0
345315 Off ch=1 n=69 v=0
345315 Off ch=1 n=72 v=0
345592 Off ch=1 n=57 v=0
345592 Off ch=1 n=52 v=0
345622 Off ch=1 n=60 v=0
345623 On ch=1 n=64 v=67
345623 On ch=1 n=69 v=67
345623 On ch=1 n=72 v=77
345623 On ch=1 n=45 v=84
345870 Off ch=1 n=45 v=0
345870 Off ch=1 n=64 v=0
345870 Off ch=1 n=69 v=0
345870 Off ch=1 n=72 v=0
345871 On ch=1 n=64 v=67
345871 On ch=1 n=69 v=67
345871 On ch=1 n=72 v=77
345871 On ch=1 n=45 v=84
346117 Off ch=1 n=45 v=0
346117 Off ch=1 n=64 v=0
346117 Off ch=1 n=69 v=0
346132 Off ch=1 n=72 v=0
346396 On ch=1 n=64 v=67
346396 On ch=1 n=69 v=67
346396 On ch=1 n=72 v=77
346396 On ch=1 n=45 v=84
346627 Off ch=1 n=64 v=0
346627 Off ch=1 n=69 v=0
346642 Off ch=1 n=45 v=0
346642 Off ch=1 n=72 v=0
346643 On ch=1 n=45 v=84
346891 On ch=1 n=64 v=67
346891 On ch=1 n=69 v=67
346891 On ch=1 n=72 v=77
347117 Off ch=1 n=45 v=0
347147 Off ch=1 n=64 v=0
347147 Off ch=1 n=69 v=0
347147 Off ch=1 n=72 v=0
347148 On ch=1 n=64 v=68
347148 On ch=1 n=69 v=68
347148 On ch=1 n=72 v=78
347148 On ch=1 n=52 v=77
347148 On ch=1 n=57 v=77
347148 On ch=1 n=60 v=91
347345 Off ch=1 n=64 v=0
347345 Off ch=1 n=69 v=0
347345 Off ch=1 n=72 v=0
347622 Off ch=1 n=57 v=0
347622 Off ch=1 n=52 v=0
347652 Off ch=1 n=60 v=0
347653 On ch=1 n=64 v=67
347653 On ch=1 n=69 v=67
347653 On ch=1 n=72 v=77
347653 On ch=1 n=45 v=84
347900 Off ch=1 n=64 v=0
347900 Off ch=1 n=69 v=0
347900 Off ch=1 n=72 v=0
347901 On ch=1 n=64 v=67
347901 On ch=1 n=69 v=67
347901 On ch=1 n=72 v=77
348144 Off ch=1 n=64 v=0
348144 Off ch=1 n=69 v=0
348159 Off ch=1 n=45 v=0
348159 Off ch=1 n=72 v=0
348164 On ch=1 n=45 v=89
348457 On ch=1 n=64 v=67
348457 On ch=1 n=69 v=67
348457 On ch=1 n=72 v=77
348705 Off ch=1 n=64 v=0
348705 Off ch=1 n=69 v=0
348705 Off ch=1 n=72 v=0
348706 On ch=1 n=64 v=67
348706 On ch=1 n=69 v=67
348706 On ch=1 n=72 v=77
348906 Off ch=1 n=64 v=0
348906 Off ch=1 n=69 v=0
348906 Off ch=1 n=72 v=0
349213 Off ch=1 n=45 v=0
349214 On ch=1 n=64 v=68
349214 On ch=1 n=69 v=68
349214 On ch=1 n=72 v=78
349214 On ch=1 n=52 v=77
349214 On ch=1 n=57 v=77
349214 On ch=1 n=60 v=91
349411 Off ch=1 n=64 v=0
349411 Off ch=1 n=69 v=0
349411 Off ch=1 n=72 v=0
349688 Off ch=1 n=57 v=0
349688 Off ch=1 n=52 v=0
349718 Off ch=1 n=60 v=0
349719 On ch=1 n=64 v=67
349719 On ch=1 n=69 v=67
349719 On ch=1 n=72 v=77
349719 On ch=1 n=45 v=84
349966 Off ch=1 n=45 v=0
349966 Off ch=1 n=64 v=0
349966 Off ch=1 n=69 v=0
349966 Off ch=1 n=72 v=0
349967 On ch=1 n=64 v=67
349967 On ch=1 n=69 v=67
349967 On ch=1 n=72 v=77
349967 On ch=1 n=45 v=84
350213 Off ch=1 n=45 v=0
350213 Off ch=1 n=64 v=0
350213 Off ch=1 n=69 v=0
350228 Off ch=1 n=72 v=0
350492 On ch=1 n=64 v=67
350492 On ch=1 n=69 v=67
350492 On ch=1 n=72 v=77
350492 On ch=1 n=45 v=84
350723 Off ch=1 n=64 v=0
350723 Off ch=1 n=69 v=0
350738 Off ch=1 n=45 v=0
350738 Off ch=1 n=72 v=0
350739 On ch=1 n=45 v=84
350987 On ch=1 n=64 v=67
350987 On ch=1 n=69 v=67
350987 On ch=1 n=72 v=77
351213 Off ch=1 n=45 v=0
351243 Off ch=1 n=64 v=0
351243 Off ch=1 n=69 v=0
351243 Off ch=1 n=72 v=0
351244 On ch=1 n=64 v=68
351244 On ch=1 n=69 v=68
351244 On ch=1 n=72 v=78
351244 On ch=1 n=52 v=77
351244 On ch=1 n=57 v=77
351244 On ch=1 n=60 v=91
351441 Off ch=1 n=64 v=0
351441 Off ch=1 n=69 v=0
351441 Off ch=1 n=72 v=0
351718 Off ch=1 n=57 v=0
351718 Off ch=1 n=52 v=0
351748 Off ch=1 n=60 v=0
351749 On ch=1 n=64 v=67
351749 On ch=1 n=69 v=67
351749 On ch=1 n=72 v=77
351749 On ch=1 n=45 v=84
351996 Off ch=1 n=64 v=0
351996 Off ch=1 n=69 v=0
351996 Off ch=1 n=72 v=0
351997 On ch=1 n=64 v=67
351997 On ch=1 n=69 v=67
351997 On ch=1 n=72 v=81
352225 Off ch=1 n=45 v=0
352240 Off ch=1 n=64 v=0
352240 Off ch=1 n=69 v=0
352255 Off ch=1 n=72 v=0
352260 On ch=1 n=36 v=87
352553 On ch=1 n=67 v=67
352553 On ch=1 n=72 v=67
352553 On ch=1 n=76 v=81
352801 Off ch=1 n=67 v=0
352801 Off ch=1 n=72 v=0
352801 Off ch=1 n=76 v=0
352802 On ch=1 n=67 v=67
352802 On ch=1 n=72 v=67
352802 On ch=1 n=76 v=77
353002 Off ch=1 n=67 v=0
353002 Off ch=1 n=72 v=0
353002 Off ch=1 n=76 v=0
353309 Off ch=1 n=36 v=0
353310 On ch=1 n=67 v=68
353310 On ch=1 n=72 v=68
353310 On ch=1 n=76 v=78
353310 On ch=1 n=52 v=77
353310 On ch=1 n=55 v=77
353310 On ch=1 n=60 v=91
353507 Off ch=1 n=67 v=0
353507 Off ch=1 n=72 v=0
353507 Off ch=1 n=76 v=0
353784 Off ch=1 n=55 v=0
353784 Off ch=1 n=52 v=0
353814 Off ch=1 n=60 v=0
353815 On ch=1 n=67 v=67
353815 On ch=1 n=72 v=67
353815 On ch=1 n=76 v=77
353815 On ch=1 n=36 v=82
354062 Off ch=1 n=36 v=0
354062 Off ch=1 n=67 v=0
354062 Off ch=1 n=72 v=0
354062 Off ch=1 n=76 v=0
354063 On ch=1 n=67 v=67
354063 On ch=1 n=72 v=67
354063 On ch=1 n=76 v=77
354063 On ch=1 n=36 v=82
354309 Off ch=1 n=36 v=0
354309 Off ch=1 n=67 v=0
354309 Off ch=1 n=72 v=0
354324 Off ch=1 n=76 v=0
354588 On ch=1 n=67 v=67
354588 On ch=1 n=72 v=67
354588 On ch=1 n=76 v=77
354588 On ch=1 n=36 v=82
354819 Off ch=1 n=67 v=0
354819 Off ch=1 n=72 v=0
354834 Off ch=1 n=36 v=0
354834 Off ch=1 n=76 v=0
354835 On ch=1 n=36 v=82
355083 On ch=1 n=67 v=67
355083 On ch=1 n=72 v=67
355083 On ch=1 n=76 v=77
355309 Off ch=1 n=36 v=0
355339 Off ch=1 n=67 v=0
355339 Off ch=1 n=72 v=0
355339 Off ch=1 n=76 v=0
355340 On ch=1 n=67 v=68
355340 On ch=1 n=72 v=68
355340 On ch=1 n=76 v=78
355340 On ch=1 n=52 v=77
355340 On ch=1 n=55 v=77
355340 On ch=1 n=60 v=91
355537 Off ch=1 n=67 v=0
355537 Off ch=1 n=72 v=0
355537 Off ch=1 n=76 v=0
355814 Off ch=1 n=55 v=0
355814 Off ch=1 n=52 v=0
355844 Off ch=1 n=60 v=0
355845 On ch=1 n=67 v=67
355845 On ch=1 n=72 v=67
355845 On ch=1 n=76 v=77
355845 On ch=1 n=36 v=82
356092 Off ch=1 n=67 v=0
356092 Off ch=1 n=72 v=0
356092 Off ch=1 n=76 v=0
356093 On ch=1 n=67 v=67
356093 On ch=1 n=72 v=67
356093 On ch=1 n=76 v=77
356336 Off ch=1 n=67 v=0
356336 Off ch=1 n=72 v=0
356351 Off ch=1 n=36 v=0
356351 Off ch=1 n=76 v=0
356356 On ch=1 n=36 v=87
356649 On ch=1 n=67 v=67
356649 On ch=1 n=72 v=67
356649 On ch=1 n=76 v=77
356897 Off ch=1 n=67 v=0
356897 Off ch=1 n=72 v=0
356897 Off ch=1 n=76 v=0
356898 On ch=1 n=67 v=67
356898 On ch=1 n=72 v=67
356898 On ch=1 n=76 v=77
357098 Off ch=1 n=67 v=0
357098 Off ch=1 n=72 v=0
357098 Off ch=1 n=76 v=0
357405 Off ch=1 n=36 v=0
357406 On ch=1 n=67 v=68
357406 On ch=1 n=72 v=68
357406 On ch=1 n=76 v=78
357406 On ch=1 n=52 v=77
357406 On ch=1 n=55 v=77
357406 On ch=1 n=60 v=91
357603 Off ch=1 n=67 v=0
357603 Off ch=1 n=72 v=0
357603 Off ch=1 n=76 v=0
357880 Off ch=1 n=55 v=0
357880 Off ch=1 n=52 v=0
357910 Off ch=1 n=60 v=0
357911 On ch=1 n=67 v=67
357911 On ch=1 n=72 v=67
357911 On ch=1 n=76 v=77
357911 On ch=1 n=36 v=82
358158 Off ch=1 n=36 v=0
358158 Off ch=1 n=67 v=0
358158 Off ch=1 n=72 v=0
358158 Off ch=1 n=76 v=0
358159 On ch=1 n=67 v=67
358159 On ch=1 n=72 v=67
358159 On ch=1 n=76 v=77
358159 On ch=1 n=36 v=82
358405 Off ch=1 n=36 v=0
358405 Off ch=1 n=67 v=0
358405 Off ch=1 n=72 v=0
358420 Off ch=1 n=76 v=0
358684 On ch=1 n=67 v=67
358684 On ch=1 n=72 v=67
358684 On ch=1 n=76 v=77
358684 On ch=1 n=36 v=82
358915 Off ch=1 n=67 v=0
358915 Off ch=1 n=72 v=0
358930 Off ch=1 n=36 v=0
358930 Off ch=1 n=76 v=0
358931 On ch=1 n=36 v=82
359179 On ch=1 n=67 v=67
359179 On ch=1 n=72 v=67
359179 On ch=1 n=76 v=77
359405 Off ch=1 n=36 v=0
359435 Off ch=1 n=67 v=0
359435 Off ch=1 n=72 v=0
359435 Off ch=1 n=76 v=0
359436 On ch=1 n=67 v=68
359436 On ch=1 n=72 v=68
359436 On ch=1 n=76 v=78
359436 On ch=1 n=52 v=77
359436 On ch=1 n=55 v=77
359436 On ch=1 n=60 v=91
359633 Off ch=1 n=67 v=0
359633 Off ch=1 n=72 v=0
359633 Off ch=1 n=76 v=0
359910 Off ch=1 n=55 v=0
359910 Off ch=1 n=52 v=0
359940 Off ch=1 n=60 v=0
359941 On ch=1 n=67 v=67
359941 On ch=1 n=72 v=67
359941 On ch=1 n=76 v=77
359941 On ch=1 n=36 v=82
360188 Off ch=1 n=67 v=0
360188 Off ch=1 n=72 v=0
360188 Off ch=1 n=76 v=0
360189 On ch=1 n=67 v=67
360189 On ch=1 n=72 v=67
360189 On ch=1 n=76 v=77
360417 Off ch=1 n=36 v=0
360432 Off ch=1 n=67 v=0
360432 Off ch=1 n=72 v=0
360447 Off ch=1 n=76 v=0
360452 On ch=1 n=41 v=89
361501 Off ch=1 n=41 v=0
361502 On ch=1 n=53 v=77
361502 On ch=1 n=57 v=77
361502 On ch=1 n=60 v=91
361976 Off ch=1 n=57 v=0
361976 Off ch=1 n=53 v=0
362006 Off ch=1 n=60 v=0
362007 On ch=1 n=41 v=84
362254 Off ch=1 n=41 v=0
362255 On ch=1 n=41 v=84
362501 Off ch=1 n=41 v=0
362517 On ch=1 n=74 v=78
362780 On ch=1 n=41 v=84
362996 Off ch=1 n=74 v=0
363026 Off ch=1 n=41 v=0
363027 On ch=1 n=76 v=75
363027 On ch=1 n=41 v=84
363501 Off ch=1 n=41 v=0
363501 Off ch=1 n=76 v=0
363532 On ch=1 n=74 v=76
363532 On ch=1 n=53 v=77
363532 On ch=1 n=57 v=77
363532 On ch=1 n=60 v=91
364006 Off ch=1 n=57 v=0
364006 Off ch=1 n=53 v=0
364006 Off ch=1 n=74 v=0
364036 Off ch=1 n=60 v=0
364037 On ch=1 n=72 v=75
364037 On ch=1 n=41 v=84
364269 Off ch=1 n=72 v=0
364285 On ch=1 n=74 v=75
364513 Off ch=1 n=41 v=0
364548 On ch=1 n=47 v=89
365059 Off ch=1 n=74 v=0
365090 On ch=1 n=76 v=75
365567 Off ch=1 n=76 v=0
365597 Off ch=1 n=47 v=0
365598 On ch=1 n=74 v=76
365598 On ch=1 n=55 v=77
365598 On ch=1 n=59 v=77
365598 On ch=1 n=62 v=91
366072 Off ch=1 n=59 v=0
366072 Off ch=1 n=55 v=0
366072 Off ch=1 n=74 v=0
366102 Off ch=1 n=62 v=0
366103 On ch=1 n=72 v=75
366103 On ch=1 n=47 v=84
366335 Off ch=1 n=72 v=0
366350 Off ch=1 n=47 v=0
366351 On ch=1 n=74 v=75
366351 On ch=1 n=47 v=84
366597 Off ch=1 n=47 v=0
366876 On ch=1 n=47 v=84
367092 Off ch=1 n=74 v=0
367122 Off ch=1 n=47 v=0
367123 On ch=1 n=76 v=75
367123 On ch=1 n=47 v=84
367597 Off ch=1 n=47 v=0
367597 Off ch=1 n=76 v=0
367628 On ch=1 n=74 v=76
367628 On ch=1 n=55 v=77
367628 On ch=1 n=59 v=77
367628 On ch=1 n=62 v=91
368102 Off ch=1 n=59 v=0
368102 Off ch=1 n=55 v=0
368102 Off ch=1 n=74 v=0
368132 Off ch=1 n=62 v=0
368133 On ch=1 n=72 v=75
368133 On ch=1 n=47 v=84
368365 Off ch=1 n=72 v=0
368381 On ch=1 n=74 v=75
368609 Off ch=1 n=47 v=0
368644 On ch=1 n=40 v=88
369155 Off ch=1 n=74 v=0
369186 On ch=1 n=76 v=75
369663 Off ch=1 n=76 v=0
369693 Off ch=1 n=40 v=0
369694 On ch=1 n=74 v=76
369694 On ch=1 n=52 v=77
369694 On ch=1 n=55 v=77
369694 On ch=1 n=59 v=91
370168 Off ch=1 n=55 v=0
370168 Off ch=1 n=52 v=0
370168 Off ch=1 n=74 v=0
370198 Off ch=1 n=59 v=0
370199 On ch=1 n=40 v=83
370446 Off ch=1 n=40 v=0
370447 On ch=1 n=40 v=83
370693 Off ch=1 n=40 v=0
370709 On ch=1 n=74 v=78
370972 On ch=1 n=40 v=83
371188 Off ch=1 n=74 v=0
371218 Off ch=1 n=40 v=0
371219 On ch=1 n=76 v=75
371219 On ch=1 n=40 v=83
371693 Off ch=1 n=40 v=0
371693 Off ch=1 n=76 v=0
371724 On ch=1 n=79 v=76
371724 On ch=1 n=52 v=77
371724 On ch=1 n=55 v=77
371724 On ch=1 n=59 v=91
372198 Off ch=1 n=55 v=0
372198 Off ch=1 n=52 v=0
372198 Off ch=1 n=79 v=0
372228 Off ch=1 n=59 v=0
372229 On ch=1 n=76 v=75
372229 On ch=1 n=40 v=83
372705 Off ch=1 n=40 v=0
372705 Off ch=1 n=76 v=0
372740 On ch=1 n=74 v=80
372740 On ch=1 n=45 v=89
373789 Off ch=1 n=45 v=0
373790 On ch=1 n=52 v=77
373790 On ch=1 n=57 v=77
373790 On ch=1 n=60 v=91
374264 Off ch=1 n=57 v=0
374264 Off ch=1 n=52 v=0
374294 Off ch=1 n=60 v=0
374294 Off ch=1 n=74 v=0
374295 On ch=1 n=76 v=75
374295 On ch=1 n=45 v=84
374527 Off ch=1 n=76 v=0
374542 Off ch=1 n=45 v=0
374543 On ch=1 n=74 v=75
374543 On ch=1 n=45 v=84
374789 Off ch=1 n=45 v=0
374789 Off ch=1 n=74 v=0
374805 On ch=1 n=72 v=78
374805 On ch=1 n=43 v=87
375819 Off ch=1 n=43 v=0
375819 Off ch=1 n=72 v=0
375820 On ch=1 n=71 v=76
375820 On ch=1 n=50 v=77
375820 On ch=1 n=55 v=77
375820 On ch=1 n=59 v=91
376294 Off ch=1 n=55 v=0
376294 Off ch=1 n=50 v=0
376294 Off ch=1 n=71 v=0
376324 Off ch=1 n=59 v=0
376325 On ch=1 n=72 v=75
376325 On ch=1 n=43 v=84
376572 Off ch=1 n=43 v=0
376573 On ch=1 n=43 v=84
376801 Off ch=1 n=72 v=0
376816 Off ch=1 n=43 v=0
376836 On ch=1 n=81 v=80
376836 On ch=1 n=41 v=89
377885 Off ch=1 n=41 v=0
377885 Off ch=1 n=81 v=0
377886 On ch=1 n=53 v=77
377886 On ch=1 n=57 v=77
377886 On ch=1 n=60 v=91
378360 Off ch=1 n=57 v=0
378360 Off ch=1 n=53 v=0
378390 Off ch=1 n=60 v=0
378391 On ch=1 n=41 v=84
378638 Off ch=1 n=41 v=0
378639 On ch=1 n=41 v=84
378885 Off ch=1 n=41 v=0
379164 On ch=1 n=41 v=84
379410 Off ch=1 n=41 v=0
379411 On ch=1 n=81 v=75
379411 On ch=1 n=41 v=84
379885 Off ch=1 n=41 v=0
379916 On ch=1 n=53 v=77
379916 On ch=1 n=57 v=77
379916 On ch=1 n=60 v=91
380390 Off ch=1 n=57 v=0
380390 Off ch=1 n=53 v=0
380420 Off ch=1 n=60 v=0
380420 Off ch=1 n=81 v=0
380421 On ch=1 n=76 v=75
380421 On ch=1 n=41 v=84
380897 Off ch=1 n=41 v=0
380897 Off ch=1 n=76 v=0
380932 On ch=1 n=74 v=80
380932 On ch=1 n=47 v=89
381981 Off ch=1 n=47 v=0
381981 Off ch=1 n=74 v=0
381982 On ch=1 n=55 v=77
381982 On ch=1 n=59 v=77
381982 On ch=1 n=62 v=91
382456 Off ch=1 n=59 v=0
382456 Off ch=1 n=55 v=0
382486 Off ch=1 n=62 v=0
382487 On ch=1 n=47 v=84
382734 Off ch=1 n=47 v=0
382735 On ch=1 n=47 v=84
382981 Off ch=1 n=47 v=0
383260 On ch=1 n=47 v=84
383506 Off ch=1 n=47 v=0
383507 On ch=1 n=67 v=75
383507 On ch=1 n=47 v=84
383981 Off ch=1 n=47 v=0
384012 On ch=1 n=55 v=77
384012 On ch=1 n=59 v=77
384012 On ch=1 n=62 v=91
384486 Off ch=1 n=59 v=0
384486 Off ch=1 n=55 v=0
384516 Off ch=1 n=62 v=0
384516 Off ch=1 n=67 v=0
384517 On ch=1 n=79 v=75
384517 On ch=1 n=47 v=84
384993 Off ch=1 n=47 v=0
385023 Off ch=1 n=79 v=0
385028 On ch=1 n=79 v=80
385028 On ch=1 n=40 v=88
386077 Off ch=1 n=40 v=0
386078 On ch=1 n=52 v=77
386078 On ch=1 n=55 v=77
386078 On ch=1 n=59 v=91
386552 Off ch=1 n=55 v=0
386552 Off ch=1 n=52 v=0
386582 Off ch=1 n=59 v=0
386583 On ch=1 n=40 v=83
386830 Off ch=1 n=40 v=0
386831 On ch=1 n=40 v=83
387077 Off ch=1 n=40 v=0
387092 Off ch=1 n=79 v=0
387093 On ch=1 n=79 v=78
387356 On ch=1 n=40 v=83
387602 Off ch=1 n=40 v=0
387603 On ch=1 n=40 v=83
387850 Off ch=1 n=79 v=0
387851 On ch=1 n=81 v=75
388077 Off ch=1 n=40 v=0
388108 On ch=1 n=52 v=77
388108 On ch=1 n=55 v=77
388108 On ch=1 n=59 v=91
388582 Off ch=1 n=55 v=0
388582 Off ch=1 n=52 v=0
388582 Off ch=1 n=81 v=0
388612 Off ch=1 n=59 v=0
388613 On ch=1 n=83 v=75
388613 On ch=1 n=40 v=83
389089 Off ch=1 n=40 v=0
389119 Off ch=1 n=83 v=0
389124 On ch=1 n=83 v=80
389124 On ch=1 n=45 v=89
390173 Off ch=1 n=45 v=0
390173 Off ch=1 n=83 v=0
390174 On ch=1 n=84 v=76
390174 On ch=1 n=52 v=77
390174 On ch=1 n=57 v=77
390174 On ch=1 n=60 v=91
390648 Off ch=1 n=57 v=0
390648 Off ch=1 n=52 v=0
390648 Off ch=1 n=84 v=0
390678 Off ch=1 n=60 v=0
390679 On ch=1 n=83 v=75
390679 On ch=1 n=45 v=84
390926 Off ch=1 n=45 v=0
390927 On ch=1 n=45 v=84
391173 Off ch=1 n=45 v=0
391189 On ch=1 n=43 v=87
391668 Off ch=1 n=83 v=0
391699 On ch=1 n=79 v=75
392173 Off ch=1 n=79 v=0
392203 Off ch=1 n=43 v=0
392204 On ch=1 n=76 v=76
392204 On ch=1 n=50 v=77
392204 On ch=1 n=55 v=77
392204 On ch=1 n=59 v=91
392678 Off ch=1 n=55 v=0
392678 Off ch=1 n=50 v=0
392678 Off ch=1 n=76 v=0
392708 Off ch=1 n=59 v=0
392709 On ch=1 n=81 v=75
392709 On ch=1 n=43 v=84
392956 Off ch=1 n=43 v=0
392957 On ch=1 n=43 v=84
393200 Off ch=1 n=43 v=0
393220 On ch=1 n=38 v=88
394269 Off ch=1 n=38 v=0
394270 On ch=1 n=50 v=77
394270 On ch=1 n=53 v=77
394270 On ch=1 n=57 v=91
394744 Off ch=1 n=53 v=0
394744 Off ch=1 n=50 v=0
394774 Off ch=1 n=57 v=0
394775 On ch=1 n=38 v=83
395022 Off ch=1 n=38 v=0
395023 On ch=1 n=38 v=83
395269 Off ch=1 n=38 v=0
395284 Off ch=1 n=81 v=0
395285 On ch=1 n=60 v=78
395548 On ch=1 n=38 v=83
395794 Off ch=1 n=38 v=0
395795 On ch=1 n=38 v=83
396042 Off ch=1 n=60 v=0
396043 On ch=1 n=62 v=75
396269 Off ch=1 n=38 v=0
396300 On ch=1 n=50 v=77
396300 On ch=1 n=53 v=77
396300 On ch=1 n=57 v=91
396774 Off ch=1 n=53 v=0
396774 Off ch=1 n=50 v=0
396774 Off ch=1 n=62 v=0
396804 Off ch=1 n=57 v=0
396805 On ch=1 n=64 v=75
396805 On ch=1 n=38 v=83
397281 Off ch=1 n=38 v=0
397281 Off ch=1 n=64 v=0
397316 On ch=1 n=67 v=80
397316 On ch=1 n=40 v=88
398365 Off ch=1 n=40 v=0
398366 On ch=1 n=52 v=77
398366 On ch=1 n=55 v=77
398366 On ch=1 n=59 v=91
398840 Off ch=1 n=55 v=0
398840 Off ch=1 n=52 v=0
398870 Off ch=1 n=59 v=0
398870 Off ch=1 n=67 v=0
398871 On ch=1 n=72 v=75
398871 On ch=1 n=40 v=83
399118 Off ch=1 n=40 v=0
399119 On ch=1 n=40 v=83
399350 Off ch=1 n=72 v=0
399365 Off ch=1 n=40 v=0
399381 On ch=1 n=71 v=78
399644 On ch=1 n=40 v=83
399890 Off ch=1 n=40 v=0
399891 On ch=1 n=40 v=83
400138 Off ch=1 n=71 v=0
400139 On ch=1 n=72 v=75
400365 Off ch=1 n=40 v=0
400396 On ch=1 n=52 v=77
400396 On ch=1 n=55 v=77
400396 On ch=1 n=59 v=91
400870 Off ch=1 n=55 v=0
400870 Off ch=1 n=52 v=0
400870 Off ch=1 n=72 v=0
400900 Off ch=1 n=59 v=0
400901 On ch=1 n=76 v=75
400901 On ch=1 n=40 v=83
401377 Off ch=1 n=40 v=0
401377 Off ch=1 n=76 v=0
401412 On ch=1 n=81 v=80
401412 On ch=1 n=41 v=89
402461 Off ch=1 n=41 v=0
402462 On ch=1 n=53 v=77
402462 On ch=1 n=57 v=77
402462 On ch=1 n=60 v=91
402936 Off ch=1 n=57 v=0
402936 Off ch=1 n=53 v=0
402966 Off ch=1 n=60 v=0
402966 Off ch=1 n=81 v=0
402967 On ch=1 n=72 v=75
402967 On ch=1 n=41 v=84
403214 Off ch=1 n=41 v=0
403215 On ch=1 n=41 v=84
403446 Off ch=1 n=72 v=0
403461 Off ch=1 n=41 v=0
403477 On ch=1 n=69 v=78
403740 On ch=1 n=41 v=84
403986 Off ch=1 n=41 v=0
403987 On ch=1 n=41 v=84
404234 Off ch=1 n=69 v=0
404235 On ch=1 n=71 v=75
404461 Off ch=1 n=41 v=0
404492 On ch=1 n=53 v=77
404492 On ch=1 n=57 v=77
404492 On ch=1 n=60 v=91
404966 Off ch=1 n=57 v=0
404966 Off ch=1 n=53 v=0
404966 Off ch=1 n=71 v=0
404996 Off ch=1 n=60 v=0
404997 On ch=1 n=72 v=75
404997 On ch=1 n=41 v=84
405473 Off ch=1 n=41 v=0
405473 Off ch=1 n=72 v=0
405508 On ch=1 n=76 v=80
405508 On ch=1 n=43 v=89
406557 Off ch=1 n=43 v=0
406557 Off ch=1 n=76 v=0
406558 On ch=1 n=77 v=76
406558 On ch=1 n=55 v=77
406558 On ch=1 n=59 v=77
406558 On ch=1 n=62 v=91
407032 Off ch=1 n=59 v=0
407032 Off ch=1 n=55 v=0
407032 Off ch=1 n=77 v=0
407062 Off ch=1 n=62 v=0
407063 On ch=1 n=76 v=75
407063 On ch=1 n=43 v=84
407310 Off ch=1 n=43 v=0
407311 On ch=1 n=43 v=84
407557 Off ch=1 n=43 v=0
407836 On ch=1 n=43 v=84
408052 Off ch=1 n=76 v=0
408082 Off ch=1 n=43 v=0
408083 On ch=1 n=74 v=75
408083 On ch=1 n=43 v=84
408557 Off ch=1 n=43 v=0
408588 On ch=1 n=55 v=77
408588 On ch=1 n=59 v=77
408588 On ch=1 n=62 v=91
409062 Off ch=1 n=59 v=0
409062 Off ch=1 n=55 v=0
409092 Off ch=1 n=62 v=0
409092 Off ch=1 n=74 v=0
409093 On ch=1 n=72 v=75
409093 On ch=1 n=43 v=84
409569 Off ch=1 n=43 v=0
409569 Off ch=1 n=72 v=0
409604 On ch=1 n=76 v=67
409604 On ch=1 n=50 v=76
409604 On ch=1 n=53 v=76
409604 On ch=1 n=57 v=90
410624 On ch=1 n=26 v=64
410624 On ch=1 n=38 v=64
411668 Off ch=1 n=76 v=0
411669 On ch=1 n=72 v=65
412426 Off ch=1 n=72 v=0
412427 On ch=1 n=74 v=62
413158 Off ch=1 n=74 v=0
413189 On ch=1 n=76 v=62
413665 Off ch=1 n=76 v=0
413695 Off ch=1 n=57 v=0
413695 Off ch=1 n=53 v=0
413695 Off ch=1 n=50 v=0
413696 Off ch=1 n=38 v=0
413696 Off ch=1 n=26 v=0
413700 On ch=1 n=79 v=67
413700 On ch=1 n=52 v=76
413700 On ch=1 n=55 v=76
414720 On ch=1 n=28 v=64
414720 On ch=1 n=40 v=64
415254 Off ch=1 n=79 v=0
415255 On ch=1 n=60 v=62
415734 Off ch=1 n=60 v=0
415765 On ch=1 n=59 v=65
416522 Off ch=1 n=59 v=0
416523 On ch=1 n=60 v=62
417254 Off ch=1 n=60 v=0
417285 On ch=1 n=64 v=62
417761 Off ch=1 n=64 v=0
417791 Off ch=1 n=55 v=0
417791 Off ch=1 n=52 v=0
417792 Off ch=1 n=40 v=0
417792 Off ch=1 n=28 v=0
417796 On ch=1 n=69 v=67
417796 On ch=1 n=53 v=76
417796 On ch=1 n=57 v=76
417796 On ch=1 n=60 v=90
418816 On ch=1 n=29 v=64
418816 On ch=1 n=41 v=64
419350 Off ch=1 n=69 v=0
419351 On ch=1 n=72 v=54
419351 On ch=1 n=84 v=68
419830 Off ch=1 n=72 v=0
419860 Off ch=1 n=84 v=0
419861 On ch=1 n=69 v=57
419861 On ch=1 n=81 v=71
420618 Off ch=1 n=69 v=0
420618 Off ch=1 n=81 v=0
420619 On ch=1 n=71 v=54
420619 On ch=1 n=83 v=68
421350 Off ch=1 n=71 v=0
421380 Off ch=1 n=83 v=0
421381 On ch=1 n=72 v=54
421381 On ch=1 n=84 v=68
421857 Off ch=1 n=72 v=0
421887 Off ch=1 n=60 v=0
421887 Off ch=1 n=57 v=0
421887 Off ch=1 n=53 v=0
421887 Off ch=1 n=84 v=0
421888 Off ch=1 n=41 v=0
421888 Off ch=1 n=29 v=0
421892 On ch=1 n=76 v=59
421892 On ch=1 n=88 v=73
421892 On ch=1 n=53 v=81
421892 On ch=1 n=57 v=81
421892 On ch=1 n=60 v=95
422912 On ch=1 n=29 v=64
422912 On ch=1 n=41 v=64
422941 Off ch=1 n=76 v=0
422941 Off ch=1 n=88 v=0
422942 On ch=1 n=77 v=55
422942 On ch=1 n=89 v=69
423416 Off ch=1 n=77 v=0
423446 Off ch=1 n=89 v=0
423447 On ch=1 n=76 v=52
423447 On ch=1 n=88 v=66
423936 Off ch=1 n=41 v=0
423936 Off ch=1 n=29 v=0
423956 Off ch=1 n=60 v=0
423956 Off ch=1 n=57 v=0
423956 Off ch=1 n=53 v=0
423957 On ch=1 n=55 v=59
423957 On ch=1 n=59 v=59
423957 On ch=1 n=62 v=73
424436 Off ch=1 n=76 v=0
424466 Off ch=1 n=88 v=0
424467 On ch=1 n=77 v=42
424467 On ch=1 n=89 v=56
424941 Off ch=1 n=77 v=0
424960 On ch=1 n=31 v=64
424960 On ch=1 n=43 v=64
424971 Off ch=1 n=89 v=0
424972 On ch=1 n=74 v=38
424972 On ch=1 n=86 v=52
425983 Off ch=1 n=62 v=0
425983 Off ch=1 n=59 v=0
425983 Off ch=1 n=55 v=0
425983 Off ch=1 n=74 v=0
425983 Off ch=1 n=86 v=0
425984 Off ch=1 n=43 v=0
425984 Off ch=1 n=31 v=0
425984 On ch=1 n=69 v=62
425988 On ch=1 n=57 v=56
425988 On ch=1 n=60 v=56
425988 On ch=1 n=64 v=70
427008 On ch=1 n=33 v=64
430079 Off ch=1 n=64 v=0
430079 Off ch=1 n=60 v=0
430079 Off ch=1 n=57 v=0
430080 Off ch=1 n=33 v=0
430080 Off ch=1 n=69 v=0
430080 Meta TrkEnd
TrkEnd
